<svg width="72" height="72" viewBox="0 0 72 72" fill="none" xmlns="http://www.w3.org/2000/svg">
<circle cx="36" cy="36" r="36" fill="#EAEFFB"/>
<path d="M49.5 19.8162H42C41.3041 19.817 40.6368 20.0938 40.1447 20.5859C39.6526 21.078 39.3758 21.7452 39.375 22.4412V38.9412C39.375 39.8363 39.0194 40.6947 38.3865 41.3276C37.7536 41.9606 36.8951 42.3162 36 42.3162C35.1049 42.3162 34.2465 41.9606 33.6135 41.3276C32.9806 40.6947 32.625 39.8363 32.625 38.9412V22.4412C32.6242 21.7452 32.3474 21.078 31.8553 20.5859C31.3632 20.0938 30.696 19.817 30 19.8162H22.5C21.8041 19.817 21.1368 20.0938 20.6447 20.5859C20.1526 21.078 19.8758 21.7452 19.875 22.4412L19.875 38.9412C19.875 43.2176 21.5738 47.3189 24.5976 50.3429C27.6214 53.3669 31.7226 55.0659 35.9991 55.0662L36.1221 55.0658C44.9462 55.0002 52.125 47.6824 52.125 38.7529V22.4412C52.1242 21.7452 51.8474 21.078 51.3553 20.5859C50.8632 20.0938 50.196 19.817 49.5 19.8162ZM42 22.0662H49.5C49.5994 22.0663 49.6947 22.1059 49.765 22.1762C49.8353 22.2465 49.8749 22.3418 49.875 22.4412V28.8162H41.625V22.4412C41.6252 22.3418 41.6647 22.2465 41.735 22.1762C41.8053 22.1059 41.9006 22.0663 42 22.0662ZM22.5 22.0662H30C30.0994 22.0663 30.1947 22.1059 30.265 22.1762C30.3353 22.2465 30.3749 22.3418 30.375 22.4412V28.8162H22.125V22.4412C22.1251 22.3418 22.1647 22.2465 22.235 22.1762C22.3053 22.1059 22.4006 22.0663 22.5 22.0662ZM36.1056 52.8158C36.0699 52.8162 36.0351 52.8162 35.9996 52.8162C32.3198 52.8161 28.7907 51.3542 26.1888 48.7521C23.5868 46.1501 22.125 42.621 22.125 38.9412V31.0662H30.375V38.9412C30.375 40.433 30.9676 41.8637 32.0225 42.9186C33.0774 43.9735 34.5082 44.5662 36 44.5662C37.4918 44.5662 38.9226 43.9735 39.9775 42.9186C41.0324 41.8637 41.625 40.433 41.625 38.9412V31.0662H49.875V38.7529C49.875 46.4509 43.698 52.7595 36.1054 52.8158H36.1056Z" fill="#35469C"/>
</svg>
