<svg id="Layer_1" data-name="Layer 1" xmlns="http://www.w3.org/2000/svg" viewBox="0 0 120 600"><defs><style>.cls-1{fill:#fcb415;}.cls-2{fill:#f04e63;}.cls-3{fill:#fff;}.cls-4{font-size:25px;fill:#231f20;font-family:FuturaBT-Heavy, Futura Hv BT;font-weight:800;}</style></defs><title>120 by 600</title><rect class="cls-1" width="120" height="600"/><path class="cls-2" d="M107.76,249.12a3.82,3.82,0,0,1-.66-1.67l2.39-.15v-3.64c-.62.06-1.57.11-2.57.17,0-.78,0-1.61.09-2.46h-4.77c0,.9-.08,1.77-.09,2.62-1,0-2-.06-2.74-.11v3.63c.86.06,1.85.1,2.9.1a9.61,9.61,0,0,0,1.61,4.51,6.46,6.46,0,0,0,5.26,2.37,16.41,16.41,0,0,0,1.9-.12v-4.76h0C110.66,249.73,108.65,250.26,107.76,249.12Z"/><circle class="cls-2" cx="94.52" cy="239.77" r="2.45"/><rect class="cls-2" x="92.13" y="244.7" width="4.77" height="9.79"/><circle class="cls-3" cx="50.43" cy="249.6" r="4.89"/><circle class="cls-3" cx="62.71" cy="249.6" r="4.89"/><path class="cls-3" d="M33.11,244.74a9.66,9.66,0,0,0-7.36,3.39,9.7,9.7,0,0,0-17.07,6.32h4.73a5,5,0,0,1,10,0h4.77a5,5,0,1,1,10,0h4.74A9.73,9.73,0,0,0,33.11,244.74Z"/><path class="cls-3" d="M79.83,249.72a5,5,0,0,1-5-5H70.05a9.79,9.79,0,1,0,19.57,0H84.85A5,5,0,0,1,79.83,249.72Z"/><text class="cls-4" transform="translate(5.06 301.72)">120x600</text></svg>