<svg id="Layer_1" data-name="Layer 1" xmlns="http://www.w3.org/2000/svg" viewBox="0 0 159.84 600"><defs><style>.cls-1{fill:#fcb415;}.cls-2{fill:#f04e63;}.cls-3{fill:#fff;}.cls-4{font-size:32px;fill:#231f20;font-family:FuturaBT-Heavy, Futura Hv BT;font-weight:800;}</style></defs><title>160 by 600</title><rect class="cls-1" width="159.84" height="600"/><path class="cls-2" d="M147.67,279.89a5.34,5.34,0,0,1-.92-2.34l3.34-.21v-5.09c-.86.08-2.19.16-3.6.24,0-1.1.08-2.25.13-3.45H140c0,1.26-.11,2.49-.13,3.67-1.45,0-2.78-.08-3.83-.16v5.08c1.2.08,2.59.14,4.06.15a13.34,13.34,0,0,0,2.26,6.31,9,9,0,0,0,7.35,3.31,22.27,22.27,0,0,0,2.65-.17v-6.67C151.73,280.74,148.91,281.48,147.67,279.89Z"/><circle class="cls-2" cx="129.15" cy="266.81" r="3.42"/><rect class="cls-2" x="125.81" y="273.71" width="6.67" height="13.69"/><circle class="cls-3" cx="67.49" cy="280.55" r="6.84"/><circle class="cls-3" cx="84.66" cy="280.55" r="6.84"/><path class="cls-3" d="M43.27,273.76A13.54,13.54,0,0,0,33,278.5a13.57,13.57,0,0,0-23.88,8.84h6.62a7,7,0,0,1,13.93,0H36.3a7,7,0,0,1,13.93,0h6.62A13.59,13.59,0,0,0,43.27,273.76Z"/><path class="cls-3" d="M108.61,280.72a7,7,0,0,1-7-7H94.92a13.69,13.69,0,0,0,27.38,0h-6.67A7,7,0,0,1,108.61,280.72Z"/><text class="cls-4" transform="translate(13.06 335.25)">160x600</text></svg>