<svg id="Layer_1" data-name="Layer 1" xmlns="http://www.w3.org/2000/svg" viewBox="0 0 300 51.06"><defs><style>.cls-1{fill:#fcb415;}.cls-2{fill:#f04e63;}.cls-3{fill:#fff;}.cls-4{font-size:18px;fill:#231f20;font-family:FuturaBT-Heavy, Futura Hv BT;font-weight:800;}</style></defs><title>300 by 50 mobile</title><rect class="cls-1" width="300" height="50"/><path class="cls-2" d="M230.82,20a6,6,0,0,1-1-2.64c1.63-.09,2.84-.16,3.76-.23V11.41c-1,.09-2.46.18-4,.26,0-1.22.08-2.52.14-3.87h-7.49c-.07,1.42-.12,2.8-.14,4.12-1.64,0-3.14-.08-4.31-.17v5.7c1.34.1,2.91.16,4.56.17a15,15,0,0,0,2.54,7.09,10.11,10.11,0,0,0,8.26,3.72,23.58,23.58,0,0,0,3-.19V20.75C235.38,21,232.22,21.78,230.82,20Z"/><circle class="cls-2" cx="210.01" cy="5.29" r="3.85"/><rect class="cls-2" x="206.26" y="13.05" width="7.5" height="15.38"/><circle class="cls-3" cx="140.71" cy="20.74" r="7.69"/><circle class="cls-3" cx="160.01" cy="20.74" r="7.69"/><path class="cls-3" d="M113.49,13.11a15.22,15.22,0,0,0-11.57,5.32,15.25,15.25,0,0,0-26.83,9.94h7.44a7.83,7.83,0,0,1,15.65,0h7.49a7.82,7.82,0,0,1,15.64,0h7.45A15.29,15.29,0,0,0,113.49,13.11Z"/><path class="cls-3" d="M186.93,20.93a7.89,7.89,0,0,1-7.88-7.88h-7.5a15.39,15.39,0,0,0,30.77,0h-7.51A7.89,7.89,0,0,1,186.93,20.93Z"/><text class="cls-4" transform="translate(119.23 45.84)">300x50 </text></svg>