<svg id="Layer_1" data-name="Layer 1" xmlns="http://www.w3.org/2000/svg" viewBox="0 0 300 250"><defs><style>.cls-1{fill:#fcb415;}.cls-2{fill:#f04e63;}.cls-3{fill:#fff;}.cls-4{font-size:30px;fill:#231f20;font-family:FuturaBT-Heavy, Futura Hv BT;font-weight:800;}</style></defs><title>300 by 250</title><rect class="cls-1" width="300" height="250"/><path class="cls-2" d="M234.2,121.64a7.31,7.31,0,0,1-1.25-3.18c2-.11,3.41-.19,4.52-.28v-6.87c-1.16.1-3,.21-4.86.32,0-1.48.1-3,.17-4.66h-9c-.07,1.71-.14,3.36-.17,5-2,0-3.77-.11-5.18-.21v6.86c1.62.11,3.5.19,5.48.19.42,3,1.31,6.31,3.06,8.54a12.19,12.19,0,0,0,9.93,4.47,29.28,29.28,0,0,0,3.59-.23v-9C239.69,122.78,235.88,123.78,234.2,121.64Z"/><circle class="cls-2" cx="209.17" cy="103.95" r="4.63"/><rect class="cls-2" x="204.66" y="113.28" width="9.02" height="18.5"/><circle class="cls-3" cx="125.84" cy="122.53" r="9.25"/><circle class="cls-3" cx="149.05" cy="122.53" r="9.25"/><path class="cls-3" d="M93.11,113.35a18.29,18.29,0,0,0-13.91,6.4,18.35,18.35,0,0,0-32.27,12h9a9.41,9.41,0,1,1,18.81,0h9a9.41,9.41,0,1,1,18.82,0h9A18.38,18.38,0,0,0,93.11,113.35Z"/><path class="cls-3" d="M181.42,122.76a9.49,9.49,0,0,1-9.48-9.48h-9a18.5,18.5,0,0,0,37,0h-9A9.49,9.49,0,0,1,181.42,122.76Z"/><text class="cls-4" transform="translate(68.25 170.33)">300 x 250</text></svg>