<svg id="Layer_1" data-name="Layer 1" xmlns="http://www.w3.org/2000/svg" viewBox="0 0 300 600"><defs><style>.cls-1{fill:#fcb415;}.cls-2{fill:#f04e63;}.cls-3{fill:#fff;}.cls-4{font-size:46px;fill:#231f20;font-family:FuturaBT-Heavy, Futura Hv BT;font-weight:800;}</style></defs><title>300 by 600</title><rect class="cls-1" width="300" height="600"/><path class="cls-2" d="M263.05,241.47a9.26,9.26,0,0,1-1.6-4.07c2.52-.14,4.37-.25,5.8-.36v-8.82c-1.49.13-3.8.26-6.24.4,0-1.89.13-3.9.22-6H249.66c-.09,2.19-.18,4.32-.22,6.37-2.52,0-4.83-.14-6.64-.27v8.8c2.07.15,4.49.25,7,.26.53,3.89,1.67,8.09,3.92,10.95,3.49,4.44,8.43,5.74,12.75,5.74a37.51,37.51,0,0,0,4.61-.29V242.63C270.1,242.94,265.21,244.22,263.05,241.47Z"/><circle class="cls-2" cx="230.92" cy="218.77" r="5.94"/><rect class="cls-2" x="225.14" y="230.74" width="11.58" height="23.75"/><circle class="cls-3" cx="123.95" cy="242.62" r="11.87"/><circle class="cls-3" cx="153.74" cy="242.62" r="11.87"/><path class="cls-3" d="M81.94,230.83a23.49,23.49,0,0,0-17.86,8.22A23.55,23.55,0,0,0,22.65,254.4H34.14a12.08,12.08,0,1,1,24.15,0H69.86a12.08,12.08,0,1,1,24.15,0H105.5A23.59,23.59,0,0,0,81.94,230.83Z"/><path class="cls-3" d="M195.3,242.91a12.18,12.18,0,0,1-12.17-12.17H171.55a23.75,23.75,0,0,0,47.5,0H207.47A12.18,12.18,0,0,1,195.3,242.91Z"/><text class="cls-4" transform="translate(53.2 322.98)">300x600</text></svg>