<svg id="Layer_1" data-name="Layer 1" xmlns="http://www.w3.org/2000/svg" viewBox="0 0 468 60"><defs><style>.cls-1{fill:#fcb415;}.cls-2{fill:#f04e63;}.cls-3{fill:#fff;}.cls-4{font-size:27px;fill:#231f20;font-family:FuturaBT-Heavy, Futura Hv BT;font-weight:800;}</style></defs><title>468 by 60</title><rect class="cls-1" width="468" height="60"/><path class="cls-2" d="M306.37,18.41a6,6,0,0,1-1-2.62c1.61-.09,2.81-.16,3.72-.23V9.89c-.95.09-2.44.17-4,.26,0-1.22.09-2.51.14-3.84h-7.43c-.06,1.41-.12,2.77-.14,4.09-1.63,0-3.11-.09-4.27-.18v5.67c1.33.09,2.88.15,4.52.16a14.93,14.93,0,0,0,2.52,7,10.05,10.05,0,0,0,8.19,3.69,25.11,25.11,0,0,0,3-.19V19.16C310.9,19.35,307.76,20.18,306.37,18.41Z"/><circle class="cls-2" cx="285.72" cy="3.82" r="3.82"/><rect class="cls-2" x="282" y="11.51" width="7.44" height="15.26"/><circle class="cls-3" cx="216.97" cy="19.15" r="7.63"/><circle class="cls-3" cx="236.11" cy="19.15" r="7.63"/><path class="cls-3" d="M190,11.57a15.11,15.11,0,0,0-11.48,5.28,15.14,15.14,0,0,0-26.63,9.87h7.39a7.76,7.76,0,0,1,15.52,0h7.43a7.77,7.77,0,0,1,15.53,0h7.39A15.17,15.17,0,0,0,190,11.57Z"/><path class="cls-3" d="M262.83,19.34A7.84,7.84,0,0,1,255,11.51h-7.44a15.27,15.27,0,1,0,30.53,0h-7.44A7.83,7.83,0,0,1,262.83,19.34Z"/><text class="cls-4" transform="translate(173.57 50.46)">468 x 60</text></svg>