<svg id="Layer_1" data-name="Layer 1" xmlns="http://www.w3.org/2000/svg" viewBox="0 0 728 90"><defs><style>.cls-1{fill:#fcb415;}.cls-2{fill:#f04e63;}.cls-3{fill:#fff;}.cls-4{font-size:32px;fill:#231f20;font-family:FuturaBT-Heavy, Futura Hv BT;font-weight:800;}</style></defs><title>728 by 90</title><rect class="cls-1" width="728" height="90"/><path class="cls-2" d="M482.18,37.35a9.44,9.44,0,0,1-1.62-4.12c2.55-.15,4.42-.26,5.86-.37V23.94c-1.5.14-3.84.27-6.31.41.05-1.91.14-3.94.23-6h-11.7c-.1,2.21-.19,4.36-.22,6.43-2.56,0-4.89-.13-6.72-.27v8.9c2.1.15,4.54.25,7.11.26.54,3.94,1.69,8.19,4,11.08,3.53,4.48,8.53,5.8,12.9,5.8a38.47,38.47,0,0,0,4.66-.29V38.52C489.3,38.83,484.36,40.13,482.18,37.35Z"/><circle class="cls-2" cx="449.69" cy="14.39" r="6"/><rect class="cls-2" x="443.84" y="26.5" width="11.71" height="24.02"/><circle class="cls-3" cx="341.52" cy="38.5" r="12.01"/><circle class="cls-3" cx="371.64" cy="38.5" r="12.01"/><path class="cls-3" d="M299,26.59A23.74,23.74,0,0,0,281,34.9a23.81,23.81,0,0,0-41.89,15.52H250.7a12.21,12.21,0,1,1,24.42,0h11.7a12.21,12.21,0,0,1,24.42,0h11.62A23.86,23.86,0,0,0,299,26.59Z"/><path class="cls-3" d="M413.67,38.8a12.32,12.32,0,0,1-12.31-12.3H389.65a24,24,0,0,0,48,0H426A12.32,12.32,0,0,1,413.67,38.8Z"/><text class="cls-4" transform="translate(301.06 82.25)">728x 90</text></svg>