<svg width="161" height="161" viewBox="0 0 161 161" fill="none" xmlns="http://www.w3.org/2000/svg">
<g clip-path="url(#clip0_1105_2772)">
<path fill-rule="evenodd" clip-rule="evenodd" d="M88.4508 105.491C103.821 106.073 120.072 104.049 133.355 96.3126C138.188 93.4981 142.106 89.7684 146.152 85.986C146.436 85.7213 146.452 85.2738 146.186 84.9881C145.919 84.7031 145.471 84.6877 145.187 84.9549C141.218 88.6636 137.383 92.3314 132.644 95.0914C119.55 102.718 103.517 104.667 88.3696 104.075L88.3599 103.841C88.2617 101.303 86.1873 98.552 83.0966 96.1164C78.6669 92.6245 72.1949 89.7183 67.2127 88.8081C64.9739 88.3996 63.0225 88.4009 61.6486 88.8783C60.5771 89.2498 59.8236 89.9041 59.4531 90.8381C58.6648 92.8288 59.7996 95.0003 62.1862 96.9892C67.1766 101.15 77.5714 104.741 82.4412 105.134C83.962 105.256 85.497 105.357 87.0412 105.43C87.0707 105.876 87.0976 106.313 87.1047 106.739C87.1212 107.952 86.9701 109.095 86.1519 110.232C84.8748 112.001 82.8802 113.184 80.6421 113.994C77.1482 115.258 73.0567 115.604 69.9628 115.695C52.7324 116.198 40.2592 108.471 30.9914 99.106C21.6334 89.647 15.5225 78.5178 11.0934 72.3601C10.8662 72.0429 10.4249 71.9725 10.1077 72.1997C9.79048 72.4269 9.71845 72.8691 9.94731 73.1855C14.4045 79.3832 20.5667 90.5784 29.9884 100.099C39.5004 109.715 52.3162 117.623 70.0033 117.108C73.2261 117.014 77.4842 116.639 81.1222 115.323C83.6403 114.412 85.8612 113.049 87.2982 111.057C88.5871 109.27 88.5675 107.483 88.4508 105.491ZM86.9525 104.011L86.9489 103.895C86.8632 101.676 84.9249 99.356 82.222 97.2267C77.9655 93.8713 71.7482 91.0736 66.9581 90.1993C65.3159 89.8985 63.8498 89.824 62.7059 90.0529C61.7625 90.243 61.0544 90.6321 60.7681 91.3585C60.4944 92.0434 60.5999 92.7485 60.9583 93.4531C61.3776 94.2811 62.1264 95.0999 63.0899 95.9039C67.8856 99.9016 77.8751 103.348 82.5546 103.725C84.008 103.841 85.4748 103.938 86.9525 104.011Z" fill="black"/>
<path fill-rule="evenodd" clip-rule="evenodd" d="M146.791 83.2315C146.87 83.5305 146.854 83.9638 146.831 84.4295C146.777 85.5388 146.547 86.8061 146.462 87.4079C146.409 87.7953 146.68 88.1509 147.066 88.2052C147.453 88.2587 147.809 87.9893 147.863 87.6019C147.965 86.8646 148.27 85.1751 148.255 83.9066C148.247 83.2261 148.132 82.65 147.922 82.2996C147.565 81.7023 146.881 81.5567 145.917 82.0619C144.777 82.6602 142.92 84.2972 140.782 84.4881C140.394 84.522 140.107 84.8674 140.142 85.2544C140.177 85.6438 140.52 85.9308 140.909 85.8961C142.947 85.7131 144.784 84.4095 146.061 83.613C146.304 83.462 146.609 83.3154 146.791 83.2315Z" fill="black"/>
</g>
<defs>
<clipPath id="clip0_1105_2772">
<rect width="119.834" height="119.834" fill="white" transform="translate(0 53.0676) rotate(-26.2854)"/>
</clipPath>
</defs>
</svg>
