<svg width="242" height="186" viewBox="0 0 242 186" fill="none" xmlns="http://www.w3.org/2000/svg">
<path d="M241.63 67.9842L239.89 87.8047C239.726 89.4394 238.968 90.957 237.759 92.0693C236.549 93.1816 234.974 93.8112 233.331 93.8383H218.638L209.814 103.342L210.844 93.2308C209.866 92.7275 209.063 91.9397 208.541 90.9712C208.019 90.0026 207.802 88.8986 207.92 87.8047L209.66 67.9842C209.826 66.3504 210.585 64.834 211.794 63.7221C213.002 62.6102 214.577 61.98 216.219 61.9506H236.039C236.819 61.9254 237.594 62.0678 238.314 62.3683C239.034 62.6688 239.68 63.1204 240.211 63.6924C240.741 64.2645 241.142 64.9437 241.387 65.6841C241.631 66.4246 241.714 67.209 241.63 67.9842V67.9842Z" fill="#2CA6B3"/>
<path opacity="0.2" d="M241.63 67.9842L239.89 87.8047C239.726 89.4394 238.968 90.957 237.759 92.0693C236.549 93.1816 234.974 93.8112 233.331 93.8383H218.638L209.814 103.342L210.844 93.2308C209.866 92.7275 209.063 91.9397 208.541 90.9712C208.019 90.0026 207.802 88.8986 207.92 87.8047L209.66 67.9842C209.826 66.3504 210.585 64.834 211.794 63.7221C213.002 62.6102 214.577 61.98 216.219 61.9506H236.039C236.819 61.9254 237.594 62.0678 238.314 62.3683C239.034 62.6688 239.68 63.1204 240.211 63.6924C240.741 64.2645 241.142 64.9437 241.387 65.6841C241.631 66.4246 241.714 67.209 241.63 67.9842V67.9842Z" fill="white"/>
<path d="M220.378 81.9976C219.726 82.3778 219.22 82.9648 218.94 83.6655C218.659 84.3662 218.621 85.1405 218.831 85.8654C219.041 86.5903 219.486 87.2245 220.098 87.6672C220.709 88.1099 221.45 88.3359 222.204 88.3092C222.959 88.2825 223.682 88.0047 224.261 87.5199C224.839 87.0352 225.239 86.3711 225.397 85.6331C225.555 84.8952 225.462 84.1256 225.133 83.4465C224.804 82.7673 224.257 82.2176 223.58 81.8844L230.057 67.8505C230.09 67.7791 230.1 67.6995 230.087 67.622C230.074 67.5445 230.038 67.4727 229.983 67.4161C229.929 67.3594 229.859 67.3205 229.782 67.3043C229.705 67.2881 229.625 67.2954 229.552 67.3254L227.606 68.1182C226.952 68.3814 226.425 68.8866 226.134 69.5288L220.378 81.9976ZM220.162 84.0569C220.339 83.6769 220.625 83.3581 220.984 83.1406C221.342 82.9231 221.757 82.8167 222.176 82.8349C222.595 82.853 222.999 82.9949 223.337 83.2427C223.675 83.4904 223.933 83.8328 224.076 84.2267C224.22 84.6206 224.244 85.0482 224.145 85.4556C224.046 85.863 223.828 86.2319 223.519 86.5156C223.211 86.7993 222.825 86.9852 222.41 87.0497C221.996 87.1142 221.572 87.0545 221.192 86.8781C220.935 86.7608 220.704 86.5935 220.512 86.3858C220.321 86.1781 220.173 85.9343 220.077 85.6686C219.981 85.4029 219.939 85.1208 219.954 84.8387C219.968 84.5566 220.039 84.2803 220.162 84.026V84.0569Z" fill="white"/>
<path d="M235.69 72.1852L228.348 74.9034L226.649 78.5792L233.733 75.9742C234.392 75.7304 234.934 75.2444 235.247 74.6151L236.194 72.7309C236.234 72.6589 236.25 72.5761 236.24 72.4943C236.23 72.4126 236.195 72.336 236.139 72.2756C236.083 72.2151 236.01 72.1738 235.929 72.1576C235.848 72.1413 235.765 72.151 235.69 72.1852V72.1852Z" fill="white"/>
<path d="M218.463 81.5854L219.153 81.3383L220.852 77.6625L218.793 78.4038C218.515 77.702 218.011 77.1129 217.361 76.73C216.71 76.3471 215.951 76.1924 215.202 76.2904C214.454 76.3884 213.76 76.7336 213.23 77.271C212.7 77.8085 212.365 78.5075 212.278 79.2572C212.19 80.0069 212.356 80.7642 212.748 81.4091C213.14 82.054 213.736 82.5495 214.442 82.8169C215.148 83.0843 215.923 83.1084 216.644 82.8853C217.365 82.6622 217.991 82.2047 218.422 81.5854H218.463ZM213.696 80.3808C213.55 79.9848 213.525 79.5546 213.624 79.1444C213.723 78.7343 213.941 78.3627 214.252 78.0768C214.562 77.7909 214.95 77.6036 215.367 77.5384C215.784 77.4733 216.211 77.5334 216.593 77.711C216.976 77.8886 217.297 78.1758 217.517 78.5362C217.736 78.8966 217.843 79.314 217.825 79.7356C217.807 80.1571 217.665 80.5637 217.415 80.904C217.166 81.2443 216.821 81.503 216.425 81.6472C215.895 81.8399 215.31 81.8148 214.799 81.5775C214.287 81.3401 213.891 80.9098 213.696 80.3808V80.3808Z" fill="white"/>
<path d="M39.3386 16.7502L37.2794 39.9272C37.0856 41.838 36.1977 43.6112 34.784 44.9111C33.3703 46.211 31.5289 46.9472 29.6086 46.9802H28.2804L27.4876 56.1748L20.7641 46.9802H6.47281C5.5698 46.9958 4.67382 46.819 3.84445 46.4615C3.01507 46.104 2.2713 45.574 1.66257 44.9069C1.05385 44.2397 0.594106 43.4506 0.313932 42.592C0.0337593 41.7334 -0.0604388 40.825 0.0376086 39.9272L2.09687 16.7502C2.29065 14.8395 3.17853 13.0663 4.59227 11.7664C6.00601 10.4665 7.84742 9.73031 9.76764 9.69726H32.9344C33.8348 9.68612 34.7273 9.86622 35.553 10.2257C36.3786 10.5851 37.1186 11.1157 37.7239 11.7823C38.3293 12.449 38.7862 13.2366 39.0646 14.093C39.3429 14.9493 39.4363 15.8551 39.3386 16.7502V16.7502Z" fill="#2CA6B3"/>
<g opacity="0.2">
<path opacity="0.2" d="M39.3386 16.7502L37.2794 39.9272C37.0856 41.838 36.1977 43.6112 34.784 44.9111C33.3703 46.211 31.5289 46.9472 29.6086 46.9802H28.2804L27.4876 56.1748L20.7641 46.9802H6.47281C5.5698 46.9958 4.67382 46.819 3.84445 46.4615C3.01507 46.104 2.2713 45.574 1.66257 44.9069C1.05385 44.2397 0.594106 43.4506 0.313932 42.592C0.0337593 41.7334 -0.0604388 40.825 0.0376086 39.9272L2.09687 16.7502C2.29065 14.8395 3.17853 13.0663 4.59227 11.7664C6.00601 10.4665 7.84742 9.73031 9.76764 9.69726H32.9344C33.8348 9.68612 34.7273 9.86622 35.553 10.2257C36.3786 10.5851 37.1186 11.1157 37.7239 11.7823C38.3293 12.449 38.7862 13.2366 39.0646 14.093C39.3429 14.9493 39.4363 15.8551 39.3386 16.7502V16.7502Z" fill="white"/>
</g>
<path d="M10.6429 27.7262C9.84836 26.7384 9.47808 25.4757 9.61324 24.2152C9.62402 22.9108 10.1237 21.6579 11.0135 20.7042C11.4262 20.2737 11.9241 19.9341 12.4755 19.7072C13.0269 19.4802 13.6196 19.3709 14.2157 19.3862C14.7969 19.3568 15.3771 19.4603 15.9123 19.6886C16.4475 19.917 16.9237 20.2643 17.3046 20.7042C18.0951 21.6941 18.4648 22.9551 18.3342 24.2152C18.3174 25.5165 17.8227 26.7661 16.9442 27.7262C16.5343 28.1575 16.0384 28.4977 15.4885 28.7247C14.9386 28.9518 14.3471 29.0606 13.7524 29.0442C13.1681 29.0745 12.5846 28.9715 12.0459 28.7432C11.5072 28.5149 11.0275 28.1672 10.6429 27.7262ZM15.2144 26.2539C15.605 25.6381 15.8121 24.9238 15.8116 24.1946C15.8958 23.4855 15.7629 22.7675 15.4307 22.1354C15.2966 21.9134 15.1056 21.7315 14.8775 21.6084C14.6493 21.4852 14.3924 21.4254 14.1333 21.4352C13.8637 21.4349 13.598 21.5004 13.3594 21.626C13.1207 21.7516 12.9163 21.9335 12.7639 22.1559C12.3687 22.7702 12.1579 23.4848 12.1564 24.2152C12.0728 24.9255 12.2094 25.6444 12.5477 26.2745C12.6799 26.4972 12.8685 26.6811 13.0944 26.8076C13.3204 26.9342 13.5758 26.9989 13.8347 26.9952C14.108 26.9949 14.3769 26.9271 14.6177 26.7978C14.8584 26.6684 15.0634 26.4816 15.2144 26.2539ZM24.6562 19.551H27.57L14.6996 37.0547H11.724L24.6562 19.551ZM22.9676 36.6635C22.322 36.2627 21.8152 35.6732 21.5158 34.9749C21.1808 34.1676 21.0397 33.293 21.1039 32.4214C21.1357 31.5332 21.368 30.6638 21.7835 29.8782C22.1582 29.175 22.7215 28.5902 23.4103 28.1896C24.1032 27.7954 24.8886 27.5928 25.6858 27.6027C26.2658 27.5751 26.8445 27.6783 27.3792 27.9046C27.9139 28.131 28.3908 28.4747 28.7747 28.9103C29.5692 29.8982 29.9395 31.1609 29.8043 32.4214C29.7911 33.7283 29.292 34.9836 28.404 35.9427C27.9901 36.3708 27.4917 36.7081 26.9405 36.9332C26.3892 37.1584 25.7971 37.2663 25.2019 37.2503C24.4135 37.2883 23.6308 37.0989 22.947 36.7046L22.9676 36.6635ZM26.6434 34.4909C27.0351 33.8762 27.239 33.1606 27.2302 32.4317C27.3195 31.7235 27.1902 31.005 26.8596 30.3724C26.7244 30.1485 26.5319 29.9647 26.3021 29.8398C26.0723 29.715 25.8134 29.6536 25.5519 29.662C25.2858 29.661 25.0234 29.7241 24.7868 29.846C24.5503 29.9679 24.3465 30.1449 24.1928 30.3621C23.7905 30.9731 23.579 31.6899 23.5854 32.4214C23.4976 33.1318 23.6344 33.8519 23.9766 34.4806C24.1113 34.6995 24.3011 34.8793 24.5269 35.0022C24.7527 35.125 25.0067 35.1866 25.2636 35.1808C25.5326 35.188 25.7992 35.1289 26.0398 35.0085C26.2805 34.8882 26.4878 34.7104 26.6434 34.4909Z" fill="white"/>
<rect x="57" width="126" height="186" rx="14" fill="#2CA6B3"/>
<path d="M88.1755 57.1589C86.6333 58.4681 84.7153 59.2541 82.6979 59.4035L82.5125 62.8837H79.4237L79.5987 59.4962C78.1244 59.4228 76.6666 59.1527 75.2639 58.6931C74.085 58.3318 72.9798 57.7635 72 57.0148L73.9048 53.236C74.7269 53.8454 75.6318 54.3343 76.5922 54.6878C77.6283 55.0782 78.7123 55.3276 79.8149 55.4292L80.0826 50.281C78.8297 49.9944 77.6034 49.6018 76.4171 49.1072C75.451 48.692 74.6099 48.0319 73.9769 47.1921C73.3039 46.2215 73.0041 45.0405 73.1326 43.8664C73.1657 43.0289 73.3648 42.2062 73.7183 41.4462C74.0718 40.6862 74.5727 40.0039 75.1919 39.439C76.7469 38.1113 78.6906 37.3237 80.7313 37.1944L80.9063 33.7451H83.9952L83.8099 37.1326C85.9943 37.2342 88.1183 37.8821 89.9877 39.0168L88.2373 42.8368C86.8138 41.9754 85.2243 41.4245 83.5731 41.2202L83.3054 46.5023C84.5426 46.7668 85.7525 47.1459 86.9194 47.6348C87.8792 48.0413 88.7167 48.6907 89.3493 49.5191C90.0191 50.4833 90.3189 51.6568 90.1936 52.8242C90.1621 53.6446 89.9674 54.4504 89.6209 55.1947C89.2744 55.939 88.7831 56.6067 88.1755 57.1589V57.1589ZM78.6514 44.8034C79.1402 45.1933 79.7047 45.4773 80.3091 45.6374L80.5459 41.2305C79.879 41.3561 79.2593 41.6624 78.7544 42.116C78.3786 42.4929 78.1549 42.9951 78.1263 43.5266C78.0857 43.7824 78.1128 44.0444 78.205 44.2865C78.2971 44.5285 78.451 44.7422 78.6514 44.9063V44.8034ZM84.6233 54.451C84.8124 54.2814 84.9654 54.0755 85.0733 53.8455C85.1812 53.6156 85.2418 53.3663 85.2514 53.1125C85.2747 52.8764 85.2411 52.6382 85.1533 52.4178C85.0655 52.1975 84.9261 52.0014 84.7468 51.846C84.2701 51.4543 83.7208 51.1604 83.1303 50.9811L82.9141 55.3056C83.5462 55.198 84.137 54.9204 84.6233 54.5025V54.451Z" fill="#D6D6D6"/>
<path opacity="0.1" d="M122.37 121.824C153.987 121.507 179.514 110.953 179.387 98.2491C179.26 85.5455 153.527 75.5034 121.91 75.8196C90.2927 76.1358 64.7651 86.6905 64.8921 99.3941C65.0192 112.098 90.7527 122.14 122.37 121.824Z" fill="#F0F0F0"/>
<path d="M162.357 6.54203L166.389 4L168.691 7.87522L173.341 7.10914L173.782 11.651L178.255 12.7902L176.759 17.2126L180.274 20.063L177.104 23.595L179.051 27.6643L174.751 29.7039L174.802 34.2805L170.121 34.4745L168.26 38.7726L164 37.0862L160.552 40.3645L157.453 37.0862L153.016 38.7726L151.616 34.4745L146.95 34.2805L147.493 29.7039L143.411 27.6643L145.794 23.595L143 20.063L146.819 17.2126L145.799 12.7902L150.389 11.651L151.317 7.10914L155.886 7.87522L158.599 4L162.357 6.54203Z" fill="#C4C4C4"/>
</svg>
