<svg width="206" height="206" viewBox="0 0 206 206" fill="none" xmlns="http://www.w3.org/2000/svg">
<path d="M195.56 102.853C195.56 93.9952 207.636 83.5725 205.451 75.3642C203.178 66.8755 187.455 63.9376 183.159 56.497C178.863 49.0564 184.059 33.8947 177.933 27.768C171.806 21.6413 156.762 26.9265 149.204 22.5566C141.645 18.1868 138.87 2.53789 130.351 0.264373C122.143 -1.92056 111.765 10.1557 102.862 10.1557C93.9603 10.1557 83.5818 -1.92056 75.3735 0.264373C66.8848 2.53789 63.9469 18.2606 56.5063 22.5566C49.0657 26.8527 33.904 21.6561 27.7773 27.7828C21.6507 33.9095 26.9358 48.9531 22.566 56.5118C18.1961 64.0705 2.54722 66.8459 0.273701 75.3642C-1.95553 83.5725 10.165 93.9952 10.165 102.853C10.165 111.711 -1.91124 122.134 0.273701 130.342C2.54722 138.831 18.2699 141.769 22.566 149.209C26.862 156.65 21.6654 171.811 27.7921 177.938C33.9188 184.065 48.9624 178.78 56.5211 183.15C64.0798 187.519 66.8552 203.168 75.3735 205.442C83.5818 207.627 93.9603 195.551 102.862 195.551C111.765 195.551 122.143 207.627 130.351 205.442C138.84 203.168 141.778 187.446 149.219 183.15C156.659 178.854 171.821 184.05 177.948 177.923C184.074 171.797 178.789 156.753 183.159 149.194C187.529 141.636 203.178 138.86 205.451 130.342C207.68 122.134 195.56 111.711 195.56 102.853Z" fill="#37474F"/>
<path d="M142.719 76.9087L91.5312 128.094L65.9375 102.502" stroke="#F0F0F0" stroke-width="10" stroke-linecap="round" stroke-linejoin="round"/>
</svg>
