<svg width="296" height="240" viewBox="0 0 296 240" fill="none" xmlns="http://www.w3.org/2000/svg">
<path d="M190.015 161.355L69.5957 61.9121L17.1228 125.454L137.542 224.896L190.015 161.355Z" fill="#F0F0F0" stroke="#263238" stroke-linecap="round" stroke-linejoin="round"/>
<path d="M65.3289 77.9687L32.4046 117.844C33.6715 119.389 34.3639 121.325 34.3639 123.323C34.3639 125.322 33.6715 127.258 32.4046 128.803L32.0645 129.18L129.716 209.84C129.817 209.712 129.909 209.565 130.019 209.436C131.483 207.684 133.581 206.582 135.854 206.37C138.128 206.159 140.392 206.854 142.155 208.305L174.877 168.687C174.004 167.962 173.283 167.071 172.754 166.067C172.225 165.063 171.899 163.964 171.795 162.833C171.69 161.703 171.81 160.563 172.146 159.479C172.483 158.394 173.03 157.387 173.756 156.514L76.0953 75.854C74.8208 77.3954 73.0522 78.4482 71.0896 78.8337C69.1271 79.2191 67.0917 78.9135 65.3289 77.9687Z" fill="#F0F0F0" stroke="#263238" stroke-linecap="round" stroke-linejoin="round"/>
<path d="M79.1483 131.902C76.8272 137.642 76.5189 144 78.2738 149.938C80.0287 155.876 83.7432 161.044 88.8119 164.601C93.8806 168.157 100.005 169.892 106.185 169.522C112.366 169.152 118.24 166.7 122.848 162.564" stroke="#263238" stroke-linecap="round" stroke-linejoin="round"/>
<path d="M91.8541 117.899C88.6079 119.594 85.7348 121.923 83.4047 124.749C83.1381 125.07 82.8806 125.392 82.6416 125.723" stroke="#263238" stroke-linecap="round" stroke-linejoin="round"/>
<path d="M129.394 153.756C131.647 148.873 132.414 143.436 131.599 138.12C130.784 132.805 128.423 127.847 124.809 123.864C121.196 119.881 116.491 117.05 111.28 115.723C106.069 114.395 100.582 114.631 95.5039 116.4" stroke="#263238" stroke-linecap="round" stroke-linejoin="round"/>
<path d="M122.259 159.961C132.058 150.163 132.058 134.276 122.259 124.477C112.46 114.679 96.5737 114.679 86.7751 124.477C76.9765 134.276 76.9765 150.163 86.7751 159.961C96.5737 169.76 112.46 169.76 122.259 159.961Z" fill="#263238"/>
<path d="M88.9951 143.642C88.8545 143.109 88.8933 142.543 89.1054 142.034C89.2817 141.56 89.6036 141.154 90.0248 140.875C90.4532 140.603 90.937 140.43 91.4407 140.369C91.9556 140.305 92.4761 140.432 92.9026 140.728C93.4017 141.099 93.7922 141.598 94.0335 142.171C94.0887 142.291 94.2358 142.631 94.4656 143.192C94.6955 143.753 94.8977 144.222 95.0816 144.617C95.344 145.142 95.6516 145.644 96.001 146.116C96.4504 146.739 96.9651 147.312 97.5365 147.826C97.9389 148.251 98.3893 148.627 98.8788 148.948C99.3627 149.298 99.8765 149.606 100.414 149.867C100.893 150.101 101.428 150.197 101.959 150.143C102.219 150.113 102.471 150.032 102.698 149.902C102.926 149.772 103.125 149.598 103.283 149.389C103.433 149.168 103.53 148.915 103.569 148.651C103.607 148.387 103.585 148.117 103.503 147.863C103.286 147.043 102.897 146.278 102.363 145.619L100.203 142.585C99.4029 141.427 98.7777 140.47 98.3639 139.726C97.8956 138.953 97.4898 138.145 97.1503 137.308C96.8184 136.569 96.6371 135.772 96.617 134.963C96.6261 134.217 96.7694 133.479 97.04 132.784C97.3822 131.922 97.8671 131.123 98.4743 130.421C99.2052 129.485 100.175 128.763 101.282 128.331C102.388 127.899 103.591 127.773 104.763 127.966C107.337 128.291 109.97 129.707 112.661 132.214C113.417 132.894 114.11 133.642 114.73 134.448C115.196 135.034 115.626 135.648 116.017 136.287C116.28 136.753 116.587 137.366 116.936 138.126C117.217 138.679 117.317 139.306 117.221 139.919C117.158 140.456 116.918 140.957 116.541 141.344C116.181 141.694 115.748 141.958 115.272 142.116C115.029 142.2 114.77 142.232 114.514 142.21C114.257 142.188 114.008 142.112 113.783 141.988C113.233 141.689 112.778 141.243 112.468 140.7C111.553 139.124 110.447 137.667 109.176 136.361C108.717 135.929 108.257 135.506 107.65 135.074C107.109 134.66 106.48 134.377 105.811 134.246C105.553 134.172 105.28 134.172 105.021 134.245C104.763 134.318 104.53 134.462 104.349 134.66C104.163 134.871 104.029 135.124 103.96 135.398C103.892 135.671 103.889 135.957 103.954 136.232C104.21 137.017 104.616 137.744 105.149 138.374L107.347 141.335C108.105 142.369 108.802 143.446 109.434 144.562C109.929 145.464 110.3 146.429 110.537 147.43C110.776 148.372 110.776 149.358 110.537 150.299C110.225 151.311 109.712 152.249 109.029 153.057C107.972 154.473 106.459 155.479 104.745 155.907C103.052 156.302 101.279 156.174 99.6603 155.54C97.7713 154.805 96.0418 153.712 94.5667 152.322C91.9097 150.028 89.9744 147.013 88.9951 143.642ZM114.141 126.311C114.291 126.104 114.487 125.933 114.713 125.812C114.94 125.691 115.19 125.623 115.447 125.613C115.905 125.592 116.354 125.743 116.706 126.036C117.057 126.338 117.28 126.762 117.331 127.222C117.372 127.469 117.355 127.723 117.284 127.963C117.212 128.204 117.087 128.425 116.918 128.61L112.734 133.639L109.976 131.35L114.141 126.311ZM94.769 150.547L97.5273 152.855L93.4267 157.847C93.2348 158.115 92.9688 158.32 92.6616 158.437C92.3544 158.555 92.0194 158.58 91.6982 158.509C91.3836 158.458 91.0877 158.326 90.8395 158.127C90.5913 157.927 90.3993 157.666 90.2823 157.369C90.1495 157.064 90.1109 156.726 90.1715 156.398C90.2321 156.07 90.3891 155.768 90.6224 155.531L94.769 150.547Z" fill="#F0F0F0" stroke="#263238" stroke-miterlimit="10"/>
<path d="M175.613 177.604L70.79 61.8384L9.70376 117.15L114.527 232.916L175.613 177.604Z" fill="#F0F0F0" stroke="#263238" stroke-linecap="round" stroke-linejoin="round"/>
<path d="M64.2906 77.1416L25.951 111.85C26.9767 113.566 27.376 115.585 27.081 117.563C26.786 119.541 25.8149 121.356 24.3328 122.699L23.9375 123.02L109.002 216.939C109.121 216.819 109.232 216.7 109.36 216.58C111.061 215.043 113.302 214.244 115.591 214.358C117.88 214.472 120.031 215.489 121.57 217.187L159.625 182.7C158.088 180.998 157.288 178.755 157.402 176.465C157.516 174.174 158.533 172.022 160.232 170.481L75.2409 76.5991C73.7592 77.9404 71.8588 78.7274 69.8627 78.8263C67.8665 78.9252 65.8976 78.3299 64.2906 77.1416Z" fill="#F0F0F0" stroke="#263238" stroke-linecap="round" stroke-linejoin="round"/>
<path d="M70.1836 132.499C67.0311 137.849 65.7902 144.112 66.6644 150.26C67.5387 156.408 70.4761 162.076 74.9951 166.335C79.514 170.594 85.3461 173.192 91.535 173.701C97.7239 174.21 103.902 172.601 109.056 169.138" stroke="#263238" stroke-linecap="round" stroke-linejoin="round"/>
<path d="M84.7748 120.501C81.317 121.711 78.1373 123.602 75.4243 126.063C75.1209 126.339 74.8175 126.624 74.5049 126.919" stroke="#263238" stroke-linecap="round" stroke-linejoin="round"/>
<path d="M116.761 161.314C119.696 156.808 121.24 151.539 121.201 146.162C121.161 140.785 119.54 135.539 116.539 131.077C113.538 126.616 109.29 123.136 104.325 121.072C99.3603 119.008 93.8976 118.451 88.6182 119.471" stroke="#263238" stroke-linecap="round" stroke-linejoin="round"/>
<path d="M111.549 164.105C121.348 154.306 121.348 138.419 111.549 128.621C101.75 118.822 85.8637 118.822 76.0651 128.621C66.2666 138.419 66.2666 154.306 76.0651 164.105C85.8637 173.903 101.75 173.903 111.549 164.105Z" fill="#263238"/>
<path d="M78.2467 145.482C78.181 144.934 78.3008 144.381 78.5868 143.909C78.8403 143.462 79.2301 143.108 79.6993 142.898C80.1622 142.693 80.6644 142.593 81.1704 142.604C81.692 142.608 82.192 142.812 82.5679 143.174C83.0134 143.607 83.3314 144.154 83.4873 144.755C83.4873 144.884 83.6252 145.243 83.7632 145.822C83.9011 146.401 84.0482 146.916 84.1769 147.32C84.3619 147.884 84.5989 148.428 84.8848 148.948C85.2407 149.629 85.6692 150.271 86.1628 150.86C86.4971 151.339 86.8858 151.777 87.3213 152.166C87.7592 152.565 88.2263 152.931 88.7188 153.26C89.1563 153.559 89.6695 153.728 90.1991 153.747C90.4611 153.759 90.7229 153.717 90.968 153.624C91.2132 153.531 91.4365 153.388 91.6241 153.205C91.8066 153.007 91.9406 152.769 92.0156 152.511C92.0906 152.252 92.1045 151.98 92.0563 151.715C91.9643 150.877 91.6947 150.069 91.2656 149.343L89.5647 146.024C88.9303 144.755 88.4522 143.726 88.112 142.926C87.7671 142.089 87.4844 141.229 87.2661 140.351C87.0396 139.576 86.9708 138.763 87.0639 137.961C87.1864 137.221 87.4385 136.508 87.8086 135.855C88.2695 135.056 88.8598 134.338 89.5555 133.731C90.414 132.908 91.4786 132.332 92.6372 132.064C93.7958 131.795 95.0054 131.844 96.1385 132.205C98.6454 132.898 101.048 134.682 103.347 137.556C104.475 138.93 105.403 140.456 106.105 142.089C106.298 142.595 106.528 143.257 106.785 144.084C106.982 144.681 106.982 145.326 106.785 145.923C106.632 146.448 106.308 146.907 105.866 147.229C105.462 147.524 104.997 147.725 104.505 147.817C104.253 147.865 103.993 147.859 103.743 147.801C103.493 147.742 103.257 147.632 103.052 147.477C102.55 147.099 102.162 146.59 101.931 146.006C101.251 144.314 100.368 142.712 99.3013 141.234C98.9059 140.747 98.4646 140.25 97.9681 139.744C97.5076 139.258 96.9368 138.889 96.304 138.669C96.06 138.553 95.7877 138.511 95.5201 138.547C95.2525 138.583 95.0011 138.695 94.7961 138.871C94.5783 139.049 94.408 139.278 94.3005 139.538C94.193 139.798 94.1516 140.081 94.1801 140.36C94.3271 141.178 94.64 141.957 95.0996 142.65L96.8372 145.905C97.4417 147.037 97.979 148.203 98.4462 149.398C98.8084 150.359 99.0373 151.364 99.1266 152.386C99.2161 153.356 99.0612 154.333 98.6761 155.227C98.0633 156.5 97.1446 157.601 96.0023 158.433C94.8599 159.264 93.5295 159.799 92.1298 159.99C90.3993 160.137 88.6648 159.756 87.1558 158.896C85.384 157.897 83.8228 156.564 82.5587 154.97C80.22 152.3 78.7202 148.999 78.2467 145.482ZM105.627 131.957C105.807 131.773 106.026 131.632 106.268 131.544C106.51 131.457 106.768 131.425 107.024 131.451C107.478 131.5 107.898 131.717 108.201 132.058C108.504 132.407 108.665 132.856 108.652 133.318C108.655 133.567 108.603 133.814 108.498 134.04C108.393 134.266 108.238 134.465 108.045 134.623L103.172 139.046L100.782 136.389L105.627 131.957ZM82.9725 153.104L85.4089 155.797L80.5544 160.238C80.3228 160.481 80.0237 160.648 79.6958 160.719C79.3679 160.789 79.0264 160.76 78.7156 160.634C78.4135 160.538 78.1414 160.366 77.9255 160.134C77.7097 159.902 77.5574 159.618 77.4835 159.31C77.3943 158.989 77.4036 158.65 77.5102 158.335C77.6168 158.02 77.8158 157.745 78.0812 157.544L82.9725 153.104Z" fill="#F0F0F0" stroke="#263238" stroke-miterlimit="10"/>
<path d="M149.859 197.839L72.624 62.1025L0.9998 102.857L78.2344 238.594L149.859 197.839Z" fill="#F0F0F0" stroke="#263238" stroke-linecap="round" stroke-linejoin="round"/>
<path d="M62.9569 75.606L18.0343 101.202C18.6669 103.106 18.6185 105.17 17.8973 107.042C17.1761 108.913 15.827 110.476 14.0808 111.463L13.6211 111.693L76.2976 221.793C76.4356 221.701 76.5735 221.609 76.7206 221.526C77.7074 220.963 78.7955 220.601 79.9227 220.459C81.0499 220.317 82.194 220.398 83.2897 220.699C84.3853 220.999 85.4109 221.513 86.3078 222.21C87.2047 222.908 87.9553 223.775 88.5167 224.763L133.173 199.35C132.038 197.357 131.742 194.994 132.349 192.782C132.956 190.57 134.416 188.69 136.409 187.554L73.7601 77.4448C72.0239 78.4325 69.9994 78.789 68.0302 78.4538C66.0611 78.1187 64.2686 77.1124 62.9569 75.606Z" fill="#F0F0F0" stroke="#263238" stroke-linecap="round" stroke-linejoin="round"/>
<path d="M56.7139 130.946C52.4901 135.485 49.9316 141.323 49.4565 147.505C48.9815 153.687 50.6181 159.848 54.0987 164.979C57.5793 170.11 62.6979 173.909 68.6176 175.753C74.5372 177.598 80.9075 177.379 86.6868 175.133" stroke="#263238" stroke-linecap="round" stroke-linejoin="round"/>
<path d="M73.5488 122.395C69.9148 122.829 66.4043 123.986 63.2238 125.797C62.8652 126.008 62.5066 126.22 62.1572 126.44" stroke="#263238" stroke-linecap="round" stroke-linejoin="round"/>
<path d="M95.9362 169.175C99.7749 165.413 102.422 160.604 103.548 155.349C104.675 150.093 104.23 144.622 102.27 139.617C100.31 134.612 96.9211 130.294 92.5252 127.201C88.1293 124.108 82.9207 122.376 77.5479 122.221" stroke="#263238" stroke-linecap="round" stroke-linejoin="round"/>
<path d="M95.6107 166.164C104.758 155.755 103.736 139.902 93.3271 130.754C82.9182 121.606 67.0645 122.629 57.9168 133.038C48.7692 143.447 49.7916 159.3 60.2005 168.448C70.6094 177.596 86.4631 176.573 95.6107 166.164Z" fill="#263238"/>
<path d="M61.7614 145.38C61.8187 144.833 62.0545 144.319 62.4326 143.918C62.7792 143.54 63.2358 143.279 63.7381 143.174C64.2347 143.064 64.7494 143.064 65.246 143.174C65.7507 143.291 66.1914 143.597 66.478 144.029C66.8226 144.548 67.0138 145.153 67.0296 145.776C67.0296 145.904 67.0296 146.272 67.0296 146.879C67.0296 147.486 67.0296 148.001 67.1032 148.433C67.168 149.02 67.2818 149.602 67.4434 150.171C67.6475 150.912 67.9278 151.629 68.28 152.313C68.5032 152.852 68.7869 153.364 69.1259 153.839C69.4675 154.324 69.8455 154.782 70.2568 155.209C70.6178 155.599 71.0839 155.877 71.5991 156.009C71.8525 156.074 72.1164 156.088 72.3753 156.05C72.6342 156.012 72.8829 155.923 73.107 155.788C73.327 155.633 73.5086 155.43 73.6377 155.194C73.7669 154.959 73.8401 154.696 73.8517 154.427C73.9405 153.587 73.8496 152.738 73.5851 151.936L72.6657 148.322C72.3255 146.953 72.0772 145.84 71.9209 144.994C71.7608 144.101 71.6685 143.198 71.6451 142.291C71.5972 141.483 71.7097 140.674 71.9761 139.91C72.2586 139.219 72.6566 138.582 73.153 138.025C73.7797 137.341 74.5162 136.766 75.332 136.324C76.3472 135.707 77.5105 135.376 78.6986 135.366C79.8867 135.356 81.0553 135.668 82.0805 136.269C84.379 137.495 86.3374 139.754 87.9555 143.045C88.4147 143.952 88.7961 144.896 89.0956 145.868C89.3211 146.588 89.5023 147.322 89.6381 148.065C89.7208 148.598 89.8036 149.297 89.8679 150.161C89.9384 150.78 89.8095 151.405 89.5002 151.945C89.2479 152.421 88.8477 152.801 88.3601 153.03C87.9007 153.234 87.4003 153.328 86.8982 153.306C86.642 153.298 86.3902 153.237 86.159 153.126C85.9278 153.015 85.7224 152.857 85.5559 152.662C85.1483 152.183 84.881 151.601 84.7836 150.98C84.4855 149.183 83.9698 147.429 83.2481 145.757C82.9723 145.196 82.6413 144.617 82.2736 144.01C81.9226 143.437 81.4444 142.953 80.8761 142.594C80.6631 142.432 80.4081 142.333 80.1409 142.31C79.8738 142.287 79.6057 142.341 79.3682 142.466C79.1184 142.595 78.904 142.783 78.7437 143.013C78.5834 143.244 78.4822 143.511 78.4488 143.79C78.4076 144.615 78.5294 145.439 78.8074 146.217L79.8003 149.766C80.1465 151.002 80.4167 152.258 80.6094 153.526C80.7472 154.545 80.7472 155.578 80.6094 156.597C80.5081 157.555 80.1735 158.474 79.6348 159.273C78.9853 160.13 78.1651 160.844 77.226 161.369C75.7331 162.314 73.9606 162.717 72.206 162.509C70.494 162.27 68.8928 161.524 67.6089 160.367C66.1015 159.006 64.8714 157.367 63.9864 155.54C62.2675 152.444 61.4939 148.912 61.7614 145.38ZM91.4217 138.117C91.637 137.977 91.8808 137.887 92.1354 137.854C92.3899 137.82 92.6487 137.844 92.8928 137.924C93.3295 138.063 93.6952 138.367 93.9134 138.77C94.1378 139.176 94.2002 139.652 94.088 140.103C94.0313 140.351 93.9191 140.584 93.7599 140.783C93.6007 140.982 93.3986 141.142 93.1686 141.252L87.4499 144.498L85.6662 141.372L91.4217 138.117ZM64.7587 153.885L66.5975 157.048L60.9247 160.275C60.6513 160.453 60.3318 160.548 60.0053 160.548C59.6788 160.548 59.3593 160.453 59.0859 160.275C58.8142 160.112 58.5876 159.884 58.427 159.611C58.2664 159.337 58.1768 159.029 58.1665 158.712C58.1527 158.38 58.238 158.051 58.4116 157.768C58.5851 157.485 58.8391 157.26 59.1411 157.121L64.7587 153.885Z" fill="#F0F0F0" stroke="#263238" stroke-miterlimit="10"/>
<path d="M280.08 1.48232L85.5794 14.0601C81.4597 14.3265 78.3361 17.8821 78.6025 22.0018L85.9158 135.093C86.1822 139.212 89.7378 142.336 93.8574 142.07L288.358 129.492C292.478 129.225 295.601 125.67 295.335 121.55L288.022 8.45922C287.755 4.33958 284.2 1.21591 280.08 1.48232Z" fill="#37474F" stroke="#263238" stroke-linecap="round" stroke-linejoin="round"/>
<path d="M281.116 1.42714L84.5447 14.1243C83.6997 14.178 82.8737 14.398 82.1139 14.7716C81.354 15.1452 80.6754 15.665 80.1168 16.3013C79.5582 16.9376 79.1307 17.6778 78.8587 18.4797C78.5867 19.2815 78.4756 20.1291 78.5317 20.9739L80.674 54.0729L290.098 40.5391L287.956 7.44011C287.902 6.59595 287.683 5.77068 287.31 5.01149C286.937 4.2523 286.418 3.57409 285.782 3.01563C285.147 2.45717 284.408 2.02943 283.607 1.75686C282.806 1.48429 281.96 1.37225 281.116 1.42714Z" fill="#263238" stroke="#263238" stroke-linecap="round" stroke-linejoin="round"/>
<path d="M159.238 110.111C123.289 128.61 99.8257 132.729 85.7402 132.554L85.9701 136.131C86.0239 136.976 86.2438 137.802 86.6174 138.561C86.991 139.321 87.5108 140 88.1471 140.558C88.7834 141.117 89.5237 141.545 90.3255 141.817C91.1273 142.089 91.9749 142.2 92.8197 142.144L289.382 129.437C290.227 129.383 291.053 129.163 291.812 128.79C292.572 128.416 293.251 127.896 293.809 127.26C294.368 126.624 294.796 125.884 295.068 125.082C295.34 124.28 295.451 123.432 295.395 122.588L291.248 58.3848C234.879 59.4421 218.908 79.4026 159.238 110.111Z" fill="#263238" stroke="#263238" stroke-linecap="round" stroke-linejoin="round"/>
<path d="M118.64 43.2547L101.868 44.3393C100.313 44.4399 99.1333 45.7826 99.2339 47.3382L100.27 63.3669C100.371 64.9225 101.714 66.1021 103.269 66.0015L120.041 64.9169C121.597 64.8163 122.776 63.4737 122.676 61.918L121.639 45.8893C121.539 44.3337 120.196 43.1541 118.64 43.2547Z" fill="white" stroke="#263238" stroke-linecap="round" stroke-linejoin="round"/>
<path d="M112.83 51.1394L108.637 51.4105C107.877 51.4597 107.301 52.1157 107.35 52.8758L107.606 56.8394C107.655 57.5994 108.311 58.1758 109.071 58.1266L113.264 57.8555C114.024 57.8063 114.601 57.1503 114.552 56.3902L114.295 52.4266C114.246 51.6665 113.59 51.0902 112.83 51.1394Z" fill="white" stroke="#263238" stroke-linecap="round" stroke-linejoin="round"/>
<path d="M99.2002 46.9567L105.765 46.5338C106.069 46.5138 106.375 46.5542 106.663 46.6525C106.952 46.7509 107.219 46.9053 107.448 47.1069C107.676 47.3085 107.863 47.5533 107.997 47.8273C108.131 48.1013 108.21 48.3991 108.229 48.7036L108.413 51.4618" stroke="#263238" stroke-linecap="round" stroke-linejoin="round"/>
<path d="M121.606 45.5132L115.124 45.9269C114.51 45.9671 113.937 46.249 113.531 46.7108C113.124 47.1726 112.917 47.7767 112.955 48.3909L113.138 51.1492" stroke="#263238" stroke-linecap="round" stroke-linejoin="round"/>
<path d="M100.304 63.9475L106.868 63.5245C107.172 63.5047 107.469 63.4251 107.742 63.2906C108.015 63.156 108.258 62.9689 108.459 62.7401C108.66 62.5113 108.813 62.2452 108.911 61.957C109.009 61.6688 109.049 61.3642 109.029 61.0605L108.854 58.3022" stroke="#263238" stroke-linecap="round" stroke-linejoin="round"/>
<path d="M122.71 62.5037L116.274 62.9174C115.969 62.9386 115.664 62.8995 115.375 62.8023C115.085 62.7051 114.818 62.5517 114.588 62.351C114.359 62.1502 114.171 61.906 114.035 61.6324C113.9 61.3589 113.821 61.0613 113.801 60.7568L113.626 57.9985" stroke="#263238" stroke-linecap="round" stroke-linejoin="round"/>
<path d="M99.8154 55.8842L107.511 55.3877" stroke="#263238" stroke-linecap="round" stroke-linejoin="round"/>
<path d="M114.27 54.9462L121.956 54.4497" stroke="#263238" stroke-linecap="round" stroke-linejoin="round"/>
<path d="M198.646 33.8515C197.818 33.9051 197.09 33.7733 196.462 33.4563C195.834 33.1309 195.332 32.6435 194.958 31.994C194.591 31.3357 194.378 30.5468 194.318 29.6274C194.259 28.7162 194.37 27.9148 194.649 27.2229C194.937 26.5223 195.371 25.9744 195.953 25.5791C196.534 25.1755 197.239 24.947 198.067 24.8934C198.622 24.8575 199.15 24.9149 199.65 25.0655C200.158 25.2073 200.605 25.4321 200.991 25.7398C201.132 25.8555 201.207 25.9962 201.218 26.1618C201.226 26.2778 201.199 26.3835 201.139 26.4789C201.078 26.566 201.002 26.6125 200.911 26.6184C200.811 26.6248 200.688 26.587 200.542 26.505C200.098 26.201 199.698 25.994 199.341 25.884C198.993 25.7734 198.595 25.7326 198.148 25.7615C197.187 25.8236 196.466 26.1863 195.985 26.8496C195.512 27.504 195.312 28.4069 195.387 29.5583C195.462 30.7179 195.776 31.5959 196.33 32.1922C196.892 32.7797 197.654 33.0423 198.615 32.9802C199.054 32.9518 199.443 32.8601 199.782 32.7051C200.122 32.55 200.492 32.2932 200.893 31.9346C201.028 31.8344 201.145 31.781 201.244 31.7746C201.335 31.7687 201.417 31.805 201.488 31.8836C201.56 31.9621 201.6 32.0635 201.608 32.1878C201.618 32.3534 201.562 32.5027 201.437 32.6355C201.094 32.9904 200.68 33.275 200.195 33.4894C199.717 33.6949 199.201 33.8156 198.646 33.8515ZM209.977 32.3827C210.04 32.4701 210.076 32.5634 210.082 32.6628C210.09 32.7871 210.047 32.8938 209.953 32.9831C209.867 33.0635 209.762 33.1078 209.637 33.1158C209.447 33.1281 209.292 33.0549 209.174 32.8962L207.339 30.3699C207.101 30.0442 206.863 29.8267 206.623 29.7175C206.382 29.6 206.063 29.5541 205.666 29.5798L204.1 29.681L204.31 32.9238C204.32 33.0812 204.283 33.2125 204.198 33.3178C204.113 33.4148 203.996 33.4681 203.847 33.4778C203.689 33.488 203.562 33.4504 203.465 33.3652C203.367 33.2717 203.314 33.1463 203.303 32.9889L202.799 25.1863C202.789 25.0372 202.827 24.9141 202.912 24.8171C203.006 24.7196 203.131 24.6657 203.289 24.6555L206.37 24.4563C207.322 24.3947 208.061 24.559 208.585 24.9493C209.118 25.3391 209.411 25.944 209.464 26.764C209.509 27.4598 209.342 28.032 208.963 28.4807C208.593 28.9288 208.038 29.2226 207.298 29.3619C207.51 29.4148 207.703 29.5104 207.878 29.6488C208.054 29.7872 208.233 29.9835 208.416 30.2379L209.977 32.3827ZM206.555 28.6738C207.234 28.6299 207.731 28.4564 208.044 28.1534C208.365 27.8498 208.507 27.4122 208.47 26.8407C208.434 26.2775 208.241 25.8699 207.892 25.618C207.543 25.366 207.025 25.2623 206.338 25.3068L203.828 25.4691L204.045 28.8361L206.555 28.6738ZM212.373 32.8641C212.215 32.8742 212.084 32.837 211.979 32.7523C211.882 32.6671 211.828 32.5499 211.819 32.4008L211.317 24.6355C211.307 24.4864 211.345 24.3633 211.43 24.2663C211.523 24.1688 211.649 24.1149 211.806 24.1047L216.453 23.8042C216.602 23.7946 216.72 23.8244 216.808 23.8936C216.896 23.9627 216.944 24.0636 216.952 24.1961C216.961 24.3287 216.926 24.4349 216.848 24.5148C216.77 24.5947 216.657 24.6395 216.508 24.6491L212.345 24.9183L212.542 27.9623L216.456 27.7092C216.605 27.6996 216.723 27.7293 216.811 27.7985C216.899 27.8677 216.947 27.9686 216.955 28.1011C216.964 28.2336 216.929 28.3398 216.851 28.4197C216.773 28.4996 216.66 28.5444 216.511 28.5541L212.597 28.8072L212.803 31.9878L216.965 31.7187C217.114 31.709 217.232 31.7388 217.32 31.808C217.407 31.8689 217.455 31.9698 217.464 32.1106C217.473 32.2431 217.438 32.3493 217.36 32.4292C217.282 32.5091 217.169 32.5539 217.019 32.5636L212.373 32.8641ZM219.604 32.3964C219.447 32.4066 219.315 32.3693 219.21 32.2847C219.113 32.1994 219.06 32.0823 219.05 31.9332L218.548 24.1678C218.538 24.0187 218.576 23.8957 218.661 23.7987C218.755 23.7011 218.88 23.6473 219.038 23.6371L221.46 23.4804C222.86 23.3899 223.966 23.701 224.777 24.4138C225.596 25.1177 226.051 26.1696 226.142 27.5694C226.232 28.9693 225.917 30.0751 225.196 30.887C224.475 31.6988 223.418 32.1498 222.027 32.2397L219.604 32.3964ZM221.909 31.374C224.178 31.2273 225.237 29.9818 225.086 27.6377C224.934 25.3019 223.724 24.2074 221.455 24.3541L219.591 24.4747L220.045 31.4946L221.909 31.374ZM228.781 31.8654C228.623 31.8756 228.496 31.838 228.399 31.7528C228.302 31.6593 228.248 31.5339 228.238 31.3765L227.731 23.5366C227.72 23.3792 227.758 23.252 227.843 23.155C227.928 23.0497 228.049 22.992 228.206 22.9818C228.364 22.9716 228.491 23.0133 228.589 23.1068C228.686 23.192 228.739 23.3133 228.749 23.4707L229.256 31.3106C229.267 31.468 229.229 31.5993 229.145 31.7046C229.059 31.8016 228.938 31.8552 228.781 31.8654ZM234.084 31.5224C233.927 31.5326 233.796 31.4953 233.69 31.4106C233.593 31.3171 233.539 31.1917 233.529 31.0343L233.048 23.6044L230.377 23.7772C230.228 23.7868 230.109 23.757 230.022 23.6878C229.934 23.6187 229.886 23.5137 229.877 23.3728C229.868 23.232 229.902 23.1217 229.98 23.0418C230.058 22.9619 230.172 22.9171 230.321 22.9074L236.694 22.4953C236.844 22.4856 236.962 22.5154 237.05 22.5846C237.137 22.6538 237.186 22.7588 237.195 22.8996C237.204 23.0404 237.169 23.1508 237.091 23.2307C237.013 23.3106 236.9 23.3554 236.751 23.365L234.079 23.5377L234.56 30.9676C234.57 31.125 234.533 31.2563 234.448 31.3616C234.363 31.4586 234.242 31.5122 234.084 31.5224ZM245.796 30.8024C244.968 30.856 244.24 30.7243 243.612 30.4072C242.984 30.0818 242.483 29.5944 242.108 28.9449C241.741 28.2866 241.528 27.4977 241.468 26.5783C241.409 25.6672 241.52 24.8657 241.799 24.1739C242.087 23.4732 242.521 22.9253 243.103 22.53C243.684 22.1264 244.389 21.8979 245.217 21.8443C245.772 21.8084 246.3 21.8658 246.8 22.0164C247.309 22.1582 247.756 22.383 248.141 22.6908C248.282 22.8064 248.358 22.9471 248.368 23.1128C248.376 23.2287 248.349 23.3344 248.289 23.4298C248.228 23.5169 248.152 23.5634 248.061 23.5693C247.962 23.5758 247.839 23.538 247.692 23.456C247.248 23.152 246.848 22.9449 246.491 22.8349C246.143 22.7243 245.746 22.6835 245.298 22.7124C244.337 22.7746 243.616 23.1373 243.135 23.8005C242.662 24.455 242.462 25.3579 242.537 26.5092C242.612 27.6688 242.927 28.5468 243.481 29.1431C244.043 29.7306 244.804 29.9933 245.765 29.9311C246.204 29.9027 246.593 29.811 246.933 29.656C247.272 29.501 247.642 29.2441 248.043 28.8855C248.178 28.7853 248.295 28.732 248.394 28.7255C248.486 28.7196 248.567 28.756 248.639 28.8345C248.71 28.9131 248.75 29.0144 248.758 29.1387C248.769 29.3044 248.712 29.4536 248.587 29.5864C248.244 29.9413 247.83 30.2259 247.345 30.4403C246.868 30.6458 246.351 30.7666 245.796 30.8024ZM257.781 29.3412C257.819 29.4053 257.84 29.4747 257.845 29.5492C257.853 29.6735 257.81 29.7802 257.716 29.8695C257.63 29.9582 257.521 30.0068 257.388 30.0154C257.181 30.0288 257.03 29.9388 256.934 29.7453L255.922 27.7896L251.238 28.0925L250.473 30.1631C250.403 30.3673 250.265 30.4761 250.058 30.4895C249.925 30.498 249.806 30.4641 249.702 30.3877C249.596 30.303 249.54 30.1986 249.532 30.0743C249.527 30.008 249.54 29.9407 249.569 29.8723L252.611 21.7405C252.653 21.6213 252.722 21.5295 252.818 21.4651C252.913 21.4007 253.019 21.3647 253.135 21.3572C253.259 21.3492 253.373 21.3751 253.477 21.4349C253.58 21.4865 253.66 21.5645 253.717 21.669L257.781 29.3412ZM251.556 27.2235L255.494 26.9688L253.23 22.6362L251.556 27.2235ZM265.948 28.7632C266.012 28.8506 266.047 28.9439 266.053 29.0433C266.061 29.1676 266.018 29.2743 265.924 29.3636C265.838 29.444 265.733 29.4883 265.609 29.4963C265.418 29.5086 265.264 29.4354 265.145 29.2767L263.31 26.7504C263.073 26.4247 262.834 26.2072 262.594 26.098C262.354 25.9805 262.034 25.9346 261.637 25.9603L260.071 26.0615L260.281 29.3043C260.291 29.4617 260.254 29.593 260.169 29.6983C260.084 29.7953 259.967 29.8486 259.818 29.8583C259.66 29.8685 259.533 29.8309 259.436 29.7457C259.339 29.6522 259.285 29.5268 259.275 29.3694L258.77 21.5668C258.761 21.4177 258.798 21.2946 258.884 21.1976C258.977 21.1001 259.102 21.0462 259.26 21.036L262.341 20.8368C263.294 20.7752 264.032 20.9395 264.556 21.3298C265.089 21.7196 265.382 22.3245 265.435 23.1445C265.48 23.8403 265.313 24.4125 264.934 24.8612C264.564 25.3093 264.009 25.6031 263.27 25.7424C263.481 25.7953 263.674 25.8909 263.85 26.0293C264.025 26.1677 264.204 26.364 264.387 26.6184L265.948 28.7632ZM262.527 25.0543C263.206 25.0104 263.702 24.8369 264.015 24.5339C264.336 24.2303 264.479 23.7927 264.442 23.2212C264.405 22.658 264.213 22.2504 263.864 21.9985C263.515 21.7465 262.996 21.6428 262.309 21.6873L259.799 21.8496L260.017 25.2166L262.527 25.0543ZM268.344 29.2446C268.187 29.2547 268.055 29.2175 267.95 29.1328C267.853 29.0476 267.8 28.9304 267.79 28.7813L267.288 21.016C267.278 20.8669 267.316 20.7438 267.401 20.6468C267.495 20.5493 267.62 20.4954 267.777 20.4852L270.2 20.3285C271.6 20.238 272.706 20.5491 273.517 21.2619C274.336 21.9659 274.791 23.0177 274.881 24.4176C274.972 25.8174 274.657 26.9233 273.936 27.7351C273.215 28.547 272.158 28.9979 270.767 29.0879L268.344 29.2446ZM270.648 28.2222C272.918 28.0754 273.977 26.83 273.825 24.4859C273.674 22.15 272.464 21.0555 270.194 21.2023L268.331 21.3228L268.785 28.3427L270.648 28.2222Z" fill="white"/>
<path d="M105.863 99.537C104.705 99.6119 103.796 99.2287 103.136 98.3873C102.476 97.5459 102.092 96.2832 101.983 94.599C101.874 92.9053 102.092 91.5988 102.638 90.6794C103.184 89.7601 104.035 89.263 105.193 89.1881C106.351 89.1132 107.26 89.4965 107.92 90.3378C108.579 91.1696 108.963 92.4324 109.073 94.1261C109.182 95.8198 108.964 97.1264 108.418 98.0457C107.872 98.9651 107.02 99.4622 105.863 99.537ZM105.798 98.5466C106.602 98.4947 107.174 98.1166 107.512 97.4124C107.851 96.7083 107.974 95.6385 107.881 94.2032C107.788 92.7582 107.528 91.7132 107.102 91.0682C106.686 90.4225 106.071 90.1259 105.257 90.1785C104.454 90.2305 103.882 90.6085 103.543 91.3127C103.204 92.0073 103.081 93.0723 103.173 94.5076C103.266 95.943 103.526 96.988 103.953 97.6426C104.379 98.2973 104.995 98.5986 105.798 98.5466ZM114.469 98.9805C113.311 99.0554 112.402 98.6721 111.743 97.8307C111.083 96.9894 110.699 95.7266 110.59 94.0425C110.48 92.3487 110.698 91.0422 111.244 90.1229C111.79 89.2035 112.642 88.7064 113.8 88.6315C114.958 88.5567 115.867 88.9399 116.526 89.7813C117.185 90.6131 117.57 91.8758 117.679 93.5696C117.789 95.2633 117.571 96.5698 117.025 97.4892C116.479 98.4085 115.627 98.9056 114.469 98.9805ZM114.405 97.9901C115.209 97.9381 115.78 97.56 116.119 96.8559C116.458 96.1517 116.581 95.082 116.488 93.6466C116.395 92.2017 116.135 91.1567 115.709 90.5116C115.292 89.8659 114.677 89.5693 113.864 89.6219C113.06 89.6739 112.489 90.052 112.15 90.7561C111.811 91.4507 111.687 92.5157 111.78 93.9511C111.873 95.3864 112.133 96.4314 112.559 97.0861C112.986 97.7407 113.601 98.0421 114.405 97.9901ZM123.076 98.4239C121.918 98.4988 121.009 98.1155 120.349 97.2742C119.689 96.4328 119.305 95.17 119.196 93.4859C119.087 91.7922 119.305 90.4856 119.851 89.5663C120.397 88.647 121.249 88.1499 122.406 88.075C123.564 88.0001 124.473 88.3834 125.133 89.2247C125.792 90.0565 126.176 91.3193 126.286 93.013C126.395 94.7067 126.177 96.0133 125.631 96.9326C125.085 97.8519 124.233 98.349 123.076 98.4239ZM123.012 97.4335C123.815 97.3815 124.387 97.0035 124.726 96.2993C125.064 95.5952 125.187 94.5254 125.095 93.09C125.001 91.6451 124.741 90.6001 124.315 89.955C123.899 89.3093 123.284 89.0128 122.47 89.0654C121.667 89.1174 121.095 89.4954 120.756 90.1996C120.417 90.8942 120.294 91.9591 120.387 93.3945C120.479 94.8299 120.739 95.8749 121.166 96.5295C121.593 97.1842 122.208 97.4855 123.012 97.4335ZM131.682 97.8674C130.524 97.9422 129.615 97.559 128.956 96.7176C128.296 95.8762 127.912 94.6135 127.803 92.9293C127.693 91.2356 127.911 89.9291 128.457 89.0097C129.003 88.0904 129.855 87.5933 131.013 87.5184C132.171 87.4435 133.08 87.8268 133.739 88.6682C134.399 89.5 134.783 90.7627 134.892 92.4564C135.002 94.1502 134.784 95.4567 134.238 96.376C133.692 97.2954 132.84 97.7925 131.682 97.8674ZM131.618 96.877C132.422 96.825 132.993 96.4469 133.332 95.7428C133.671 95.0386 133.794 93.9688 133.701 92.5335C133.608 91.0886 133.348 90.0436 132.922 89.3985C132.505 88.7528 131.89 88.4562 131.077 88.5088C130.273 88.5608 129.702 88.9389 129.363 89.643C129.024 90.3376 128.9 91.4026 128.993 92.8379C129.086 94.2733 129.346 95.3183 129.772 95.973C130.199 96.6276 130.814 96.9289 131.618 96.877ZM140.289 97.3108C139.131 97.3857 138.222 97.0024 137.562 96.1611C136.902 95.3197 136.518 94.0569 136.409 92.3728C136.3 90.6791 136.518 89.3725 137.064 88.4532C137.61 87.5338 138.462 87.0367 139.619 86.9619C140.777 86.887 141.686 87.2702 142.346 88.1116C143.005 88.9434 143.389 90.2062 143.499 91.8999C143.608 93.5936 143.39 94.9001 142.844 95.8195C142.298 96.7388 141.447 97.2359 140.289 97.3108ZM140.225 96.3204C141.028 96.2684 141.6 95.8904 141.939 95.1862C142.277 94.482 142.4 93.4123 142.308 91.9769C142.214 90.532 141.954 89.487 141.528 88.8419C141.112 88.1962 140.497 87.8997 139.684 87.9523C138.88 88.0042 138.308 88.3823 137.97 89.0865C137.63 89.781 137.507 90.846 137.6 92.2814C137.692 93.7167 137.952 94.7617 138.379 95.4164C138.806 96.071 139.421 96.3724 140.225 96.3204ZM148.895 96.7542C147.737 96.8291 146.829 96.4459 146.169 95.6045C145.509 94.7631 145.125 93.5004 145.016 91.8162C144.906 90.1225 145.124 88.816 145.67 87.8966C146.216 86.9773 147.068 86.4802 148.226 86.4053C149.384 86.3304 150.293 86.7137 150.952 87.555C151.612 88.3868 151.996 89.6496 152.105 91.3433C152.215 93.037 151.997 94.3436 151.451 95.2629C150.905 96.1823 150.053 96.6794 148.895 96.7542ZM148.831 95.7638C149.635 95.7119 150.206 95.3338 150.545 94.6296C150.884 93.9255 151.007 92.8557 150.914 91.4204C150.821 89.9754 150.561 88.9304 150.135 88.2854C149.718 87.6397 149.103 87.3431 148.29 87.3957C147.486 87.4477 146.915 87.8257 146.576 88.5299C146.237 89.2245 146.113 90.2895 146.206 91.7248C146.299 93.1602 146.559 94.2052 146.985 94.8598C147.412 95.5145 148.027 95.8158 148.831 95.7638ZM157.502 96.1977C156.344 96.2726 155.435 95.8893 154.775 95.0479C154.116 94.2066 153.731 92.9438 153.622 91.2597C153.513 89.5659 153.731 88.2594 154.277 87.3401C154.823 86.4207 155.675 85.9236 156.833 85.8487C157.99 85.7739 158.899 86.1571 159.559 86.9985C160.218 87.8303 160.603 89.093 160.712 90.7868C160.822 92.4805 160.603 93.787 160.057 94.7064C159.512 95.6257 158.66 96.1228 157.502 96.1977ZM157.438 95.2073C158.242 95.1553 158.813 94.7772 159.152 94.0731C159.491 93.3689 159.614 92.2992 159.521 90.8638C159.427 89.4189 159.167 88.3739 158.741 87.7288C158.325 87.0831 157.71 86.7865 156.897 86.8391C156.093 86.8911 155.521 87.2692 155.183 87.9733C154.843 88.6679 154.72 89.7329 154.813 91.1683C154.906 92.6036 155.165 93.6486 155.592 94.3033C156.019 94.9579 156.634 95.2593 157.438 95.2073ZM166.108 95.6411C164.95 95.716 164.042 95.3327 163.382 94.4914C162.722 93.65 162.338 92.3872 162.229 90.7031C162.119 89.0094 162.338 87.7028 162.883 86.7835C163.429 85.8642 164.281 85.3671 165.439 85.2922C166.597 85.2173 167.506 85.6006 168.166 86.4419C168.825 87.2737 169.209 88.5365 169.319 90.2302C169.428 91.9239 169.21 93.2305 168.664 94.1498C168.118 95.0691 167.266 95.5662 166.108 95.6411ZM166.044 94.6507C166.848 94.5987 167.419 94.2207 167.758 93.5165C168.097 92.8124 168.22 91.7426 168.127 90.3072C168.034 88.8623 167.774 87.8173 167.348 87.1722C166.931 86.5265 166.317 86.23 165.503 86.2826C164.699 86.3346 164.128 86.7126 163.789 87.4168C163.45 88.1114 163.326 89.1763 163.419 90.6117C163.512 92.0471 163.772 93.0921 164.199 93.7467C164.625 94.4014 165.24 94.7027 166.044 94.6507ZM174.715 95.0846C173.557 95.1594 172.648 94.7762 171.988 93.9348C171.329 93.0934 170.944 91.8307 170.835 90.1465C170.726 88.4528 170.944 87.1463 171.49 86.2269C172.036 85.3076 172.888 84.8105 174.046 84.7356C175.203 84.6607 176.112 85.044 176.772 85.8854C177.431 86.7172 177.816 87.9799 177.925 89.6736C178.035 91.3674 177.816 92.6739 177.271 93.5932C176.725 94.5126 175.873 95.0097 174.715 95.0846ZM174.651 94.0942C175.455 94.0422 176.026 93.6641 176.365 92.96C176.704 92.2558 176.827 91.186 176.734 89.7507C176.64 88.3058 176.381 87.2608 175.954 86.6157C175.538 85.97 174.923 85.6734 174.11 85.726C173.306 85.778 172.735 86.1561 172.396 86.8602C172.056 87.5548 171.933 88.6198 172.026 90.0551C172.119 91.4905 172.378 92.5355 172.805 93.1902C173.232 93.8448 173.847 94.1461 174.651 94.0942ZM183.321 94.528C182.164 94.6029 181.255 94.2196 180.595 93.3783C179.935 92.5369 179.551 91.2741 179.442 89.59C179.332 87.8963 179.551 86.5897 180.097 85.6704C180.642 84.751 181.494 84.2539 182.652 84.1791C183.81 84.1042 184.719 84.4874 185.379 85.3288C186.038 86.1606 186.422 87.4234 186.532 89.1171C186.641 90.8108 186.423 92.1173 185.877 93.0367C185.331 93.956 184.479 94.4531 183.321 94.528ZM183.257 93.5376C184.061 93.4856 184.632 93.1076 184.971 92.4034C185.31 91.6992 185.433 90.6295 185.34 89.1941C185.247 87.7492 184.987 86.7042 184.561 86.0591C184.145 85.4134 183.53 85.1169 182.716 85.1695C181.912 85.2214 181.341 85.5995 181.002 86.3037C180.663 86.9982 180.54 88.0632 180.632 89.4986C180.725 90.9339 180.985 91.9789 181.412 92.6336C181.838 93.2882 182.454 93.5896 183.257 93.5376ZM107.153 119.495C105.995 119.57 105.087 119.187 104.427 118.346C103.767 117.504 103.383 116.241 103.274 114.557C103.164 112.864 103.382 111.557 103.928 110.638C104.474 109.718 105.326 109.221 106.484 109.146C107.642 109.072 108.551 109.455 109.21 110.296C109.87 111.128 110.254 112.391 110.363 114.084C110.473 115.778 110.255 117.085 109.709 118.004C109.163 118.923 108.311 119.42 107.153 119.495ZM107.089 118.505C107.893 118.453 108.464 118.075 108.803 117.371C109.142 116.667 109.265 115.597 109.172 114.161C109.079 112.717 108.819 111.672 108.393 111.026C107.976 110.381 107.361 110.084 106.548 110.137C105.744 110.189 105.173 110.567 104.834 111.271C104.495 111.966 104.371 113.031 104.464 114.466C104.557 115.901 104.817 116.946 105.243 117.601C105.67 118.256 106.285 118.557 107.089 118.505ZM115.76 118.939C114.602 119.014 113.693 118.63 113.033 117.789C112.373 116.948 111.989 115.685 111.88 114.001C111.771 112.307 111.989 111.001 112.535 110.081C113.081 109.162 113.933 108.665 115.09 108.59C116.248 108.515 117.157 108.898 117.817 109.74C118.476 110.571 118.86 111.834 118.97 113.528C119.08 115.222 118.861 116.528 118.315 117.447C117.769 118.367 116.918 118.864 115.76 118.939ZM115.696 117.948C116.499 117.896 117.071 117.518 117.41 116.814C117.748 116.11 117.871 115.04 117.779 113.605C117.685 112.16 117.425 111.115 116.999 110.47C116.583 109.824 115.968 109.528 115.155 109.58C114.351 109.632 113.779 110.01 113.441 110.714C113.101 111.409 112.978 112.474 113.071 113.909C113.163 115.345 113.423 116.39 113.85 117.044C114.277 117.699 114.892 118 115.696 117.948ZM124.366 118.382C123.208 118.457 122.3 118.074 121.64 117.232C120.98 116.391 120.596 115.128 120.487 113.444C120.377 111.75 120.595 110.444 121.141 109.525C121.687 108.605 122.539 108.108 123.697 108.033C124.855 107.958 125.764 108.342 126.423 109.183C127.083 110.015 127.467 111.278 127.577 112.971C127.686 114.665 127.468 115.972 126.922 116.891C126.376 117.81 125.524 118.307 124.366 118.382ZM124.302 117.392C125.106 117.34 125.677 116.962 126.016 116.258C126.355 115.553 126.478 114.484 126.385 113.048C126.292 111.603 126.032 110.558 125.606 109.913C125.189 109.268 124.574 108.971 123.761 109.024C122.957 109.076 122.386 109.454 122.047 110.158C121.708 110.852 121.584 111.917 121.677 113.353C121.77 114.788 122.03 115.833 122.456 116.488C122.883 117.142 123.498 117.444 124.302 117.392ZM132.973 117.826C131.815 117.901 130.906 117.517 130.246 116.676C129.587 115.835 129.202 114.572 129.093 112.888C128.984 111.194 129.202 109.887 129.748 108.968C130.294 108.049 131.146 107.552 132.304 107.477C133.461 107.402 134.37 107.785 135.03 108.626C135.689 109.458 136.074 110.721 136.183 112.415C136.293 114.108 136.074 115.415 135.528 116.334C134.983 117.254 134.131 117.751 132.973 117.826ZM132.909 116.835C133.713 116.783 134.284 116.405 134.623 115.701C134.962 114.997 135.085 113.927 134.992 112.492C134.898 111.047 134.639 110.002 134.212 109.357C133.796 108.711 133.181 108.415 132.368 108.467C131.564 108.519 130.993 108.897 130.654 109.601C130.314 110.296 130.191 111.361 130.284 112.796C130.377 114.232 130.636 115.277 131.063 115.931C131.49 116.586 132.105 116.887 132.909 116.835ZM141.579 117.269C140.421 117.344 139.513 116.961 138.853 116.119C138.193 115.278 137.809 114.015 137.7 112.331C137.59 110.637 137.809 109.331 138.354 108.411C138.9 107.492 139.752 106.995 140.91 106.92C142.068 106.845 142.977 107.229 143.637 108.07C144.296 108.902 144.68 110.164 144.79 111.858C144.899 113.552 144.681 114.858 144.135 115.778C143.589 116.697 142.737 117.194 141.579 117.269ZM141.515 116.279C142.319 116.227 142.89 115.849 143.229 115.145C143.568 114.44 143.691 113.371 143.598 111.935C143.505 110.49 143.245 109.445 142.819 108.8C142.402 108.155 141.788 107.858 140.974 107.911C140.17 107.963 139.599 108.341 139.26 109.045C138.921 109.739 138.797 110.804 138.89 112.24C138.983 113.675 139.243 114.72 139.67 115.375C140.096 116.029 140.712 116.331 141.515 116.279ZM150.186 116.713C149.028 116.787 148.119 116.404 147.459 115.563C146.8 114.721 146.415 113.459 146.306 111.775C146.197 110.081 146.415 108.774 146.961 107.855C147.507 106.936 148.359 106.438 149.517 106.364C150.675 106.289 151.583 106.672 152.243 107.513C152.902 108.345 153.287 109.608 153.396 111.302C153.506 112.995 153.287 114.302 152.742 115.221C152.196 116.141 151.344 116.638 150.186 116.713ZM150.122 115.722C150.926 115.67 151.497 115.292 151.836 114.588C152.175 113.884 152.298 112.814 152.205 111.379C152.111 109.934 151.852 108.889 151.426 108.244C151.009 107.598 150.394 107.301 149.581 107.354C148.777 107.406 148.206 107.784 147.867 108.488C147.527 109.183 147.404 110.248 147.497 111.683C147.59 113.118 147.849 114.163 148.276 114.818C148.703 115.473 149.318 115.774 150.122 115.722Z" fill="white"/>
<path d="M103.136 98.3873L103.038 98.4644L103.136 98.3873ZM102.638 90.6794L102.53 90.6156L102.638 90.6794ZM107.92 90.3378L107.821 90.415L107.822 90.4155L107.92 90.3378ZM108.418 98.0457L108.311 97.9819L108.418 98.0457ZM107.512 97.4124L107.625 97.4666L107.512 97.4124ZM107.102 91.0682L106.997 91.1359L106.998 91.137L107.102 91.0682ZM103.543 91.3127L103.656 91.3676L103.656 91.3669L103.543 91.3127ZM103.953 97.6426L104.057 97.5744L103.953 97.6426ZM105.854 99.4123C104.734 99.4848 103.866 99.1159 103.234 98.3102L103.038 98.4644C103.725 99.3414 104.676 99.739 105.871 99.6618L105.854 99.4123ZM103.234 98.3102C102.597 97.4971 102.216 96.2634 102.108 94.5909L101.858 94.6071C101.968 96.303 102.356 97.5948 103.038 98.4644L103.234 98.3102ZM102.108 94.5909C101.999 92.9088 102.218 91.6316 102.745 90.7432L102.53 90.6156C101.966 91.5659 101.748 92.9018 101.858 94.6071L102.108 94.5909ZM102.745 90.7432C103.268 89.8628 104.081 89.3853 105.201 89.3128L105.185 89.0634C103.99 89.1406 103.099 89.6574 102.53 90.6156L102.745 90.7432ZM105.201 89.3128C106.322 89.2404 107.19 89.6092 107.821 90.415L108.018 90.2607C107.33 89.3838 106.38 88.9861 105.185 89.0634L105.201 89.3128ZM107.822 90.4155C108.458 91.2187 108.839 92.4519 108.948 94.1342L109.198 94.1181C109.087 92.4129 108.7 91.1206 108.018 90.2602L107.822 90.4155ZM108.948 94.1342C109.057 95.8163 108.838 97.0936 108.311 97.9819L108.526 98.1095C109.09 97.1592 109.308 95.8233 109.198 94.1181L108.948 94.1342ZM108.311 97.9819C107.788 98.8624 106.975 99.3398 105.854 99.4123L105.871 99.6618C107.065 99.5845 107.957 99.0678 108.526 98.1095L108.311 97.9819ZM105.807 98.6714C106.654 98.6166 107.266 98.213 107.625 97.4666L107.4 97.3582C107.081 98.0202 106.551 98.3727 105.79 98.4219L105.807 98.6714ZM107.625 97.4666C107.978 96.7329 108.099 95.6366 108.006 94.1951L107.757 94.2112C107.849 95.6404 107.724 96.6837 107.4 97.3582L107.625 97.4666ZM108.006 94.1951C107.912 92.7444 107.651 91.6723 107.206 90.9993L106.998 91.137C107.405 91.7542 107.664 92.7721 107.757 94.2112L108.006 94.1951ZM107.207 91.0004C106.988 90.6607 106.714 90.4084 106.383 90.2489C106.053 90.0896 105.673 90.0263 105.249 90.0538L105.265 90.3032C105.655 90.2781 105.99 90.3368 106.274 90.4741C106.559 90.6111 106.8 90.8299 106.997 91.1359L107.207 91.0004ZM105.249 90.0538C104.402 90.1085 103.79 90.5122 103.431 91.2585L103.656 91.3669C103.975 90.7049 104.505 90.3524 105.265 90.3032L105.249 90.0538ZM103.431 91.2578C103.077 91.9824 102.956 93.0744 103.049 94.5157L103.298 94.4996C103.206 93.0701 103.331 92.0321 103.656 91.3676L103.431 91.2578ZM103.049 94.5157C103.142 95.9572 103.403 97.0287 103.848 97.7109L104.057 97.5744C103.649 96.9473 103.391 95.9287 103.298 94.4996L103.049 94.5157ZM103.848 97.7109C104.3 98.4048 104.959 98.7262 105.807 98.6714L105.79 98.4219C105.03 98.4711 104.459 98.1898 104.057 97.5744L103.848 97.7109ZM111.743 97.8307L111.644 97.9079L111.743 97.8307ZM111.244 90.1229L111.137 90.059L111.244 90.1229ZM116.526 89.7813L116.428 89.8584L116.428 89.8589L116.526 89.7813ZM117.025 97.4892L116.917 97.4253L117.025 97.4892ZM116.119 96.8559L116.232 96.9101L116.119 96.8559ZM115.709 90.5116L115.604 90.5794L115.604 90.5805L115.709 90.5116ZM112.15 90.7561L112.262 90.811L112.263 90.8103L112.15 90.7561ZM112.559 97.0861L112.664 97.0178L112.559 97.0861ZM114.461 98.8557C113.34 98.9282 112.473 98.5594 111.841 97.7536L111.644 97.9079C112.332 98.7848 113.282 99.1825 114.477 99.1052L114.461 98.8557ZM111.841 97.7536C111.203 96.9405 110.822 95.7068 110.714 94.0344L110.465 94.0505C110.575 95.7464 110.962 97.0382 111.644 97.9079L111.841 97.7536ZM110.714 94.0344C110.606 92.3522 110.824 91.075 111.352 90.1867L111.137 90.059C110.572 91.0094 110.355 92.3452 110.465 94.0505L110.714 94.0344ZM111.352 90.1867C111.874 89.3062 112.687 88.8288 113.808 88.7563L113.792 88.5068C112.597 88.5841 111.706 89.1008 111.137 90.059L111.352 90.1867ZM113.808 88.7563C114.929 88.6838 115.796 89.0526 116.428 89.8584L116.625 89.7041C115.937 88.8272 114.987 88.4295 113.792 88.5068L113.808 88.7563ZM116.428 89.8589C117.065 90.6621 117.446 91.8953 117.555 93.5776L117.804 93.5615C117.694 91.8564 117.306 90.5641 116.624 89.7036L116.428 89.8589ZM117.555 93.5776C117.663 95.2598 117.445 96.537 116.917 97.4253L117.132 97.553C117.697 96.6026 117.914 95.2668 117.804 93.5615L117.555 93.5776ZM116.917 97.4253C116.394 98.3058 115.582 98.7833 114.461 98.8557L114.477 99.1052C115.672 99.0279 116.563 98.5112 117.132 97.553L116.917 97.4253ZM114.413 98.1148C115.26 98.06 115.872 97.6564 116.232 96.9101L116.006 96.8017C115.688 97.4636 115.157 97.8162 114.397 97.8653L114.413 98.1148ZM116.232 96.9101C116.585 96.1763 116.706 95.0801 116.613 93.6385L116.363 93.6547C116.456 95.0839 116.331 96.1271 116.006 96.8017L116.232 96.9101ZM116.613 93.6385C116.519 92.1878 116.258 91.1158 115.813 90.4427L115.604 90.5805C116.012 91.1976 116.27 92.2155 116.363 93.6547L116.613 93.6385ZM115.814 90.4438C115.595 90.1041 115.32 89.8518 114.989 89.6923C114.659 89.533 114.28 89.4698 113.856 89.4972L113.872 89.7467C114.261 89.7215 114.596 89.7802 114.881 89.9175C115.165 90.0546 115.406 90.2733 115.604 90.5794L115.814 90.4438ZM113.856 89.4972C113.009 89.552 112.396 89.9556 112.037 90.7019L112.263 90.8103C112.581 90.1484 113.111 89.7959 113.872 89.7467L113.856 89.4972ZM112.038 90.7013C111.684 91.4259 111.562 92.5178 111.655 93.9591L111.905 93.943C111.812 92.5136 111.937 91.4756 112.262 90.811L112.038 90.7013ZM111.655 93.9591C111.748 95.4007 112.01 96.4721 112.455 97.1543L112.664 97.0178C112.255 96.3907 111.997 95.3722 111.905 93.943L111.655 93.9591ZM112.455 97.1543C112.907 97.8482 113.566 98.1696 114.413 98.1148L114.397 97.8653C113.636 97.9145 113.065 97.6332 112.664 97.0178L112.455 97.1543ZM120.349 97.2742L120.251 97.3513L120.349 97.2742ZM119.851 89.5663L119.743 89.5025L119.851 89.5663ZM125.133 89.2247L125.034 89.3019L125.035 89.3024L125.133 89.2247ZM125.631 96.9326L125.524 96.8688L125.631 96.9326ZM124.726 96.2993L124.838 96.3535L124.726 96.2993ZM124.315 89.955L124.21 90.0228L124.211 90.0239L124.315 89.955ZM120.756 90.1996L120.869 90.2545L120.869 90.2538L120.756 90.1996ZM121.166 96.5295L121.271 96.4613L121.166 96.5295ZM123.068 98.2992C121.947 98.3717 121.079 98.0028 120.448 97.197L120.251 97.3513C120.938 98.2283 121.889 98.6259 123.084 98.5487L123.068 98.2992ZM120.448 97.197C119.81 96.384 119.429 95.1502 119.321 93.4778L119.071 93.494C119.181 95.1899 119.569 96.4817 120.251 97.3513L120.448 97.197ZM119.321 93.4778C119.212 91.7957 119.431 90.5185 119.958 89.6301L119.743 89.5025C119.179 90.4528 118.961 91.7887 119.071 93.494L119.321 93.4778ZM119.958 89.6301C120.481 88.7497 121.294 88.2722 122.414 88.1997L122.398 87.9502C121.203 88.0275 120.312 88.5443 119.743 89.5025L119.958 89.6301ZM122.414 88.1997C123.535 88.1272 124.403 88.4961 125.034 89.3019L125.231 89.1476C124.544 88.2706 123.593 87.873 122.398 87.9502L122.414 88.1997ZM125.035 89.3024C125.671 90.1055 126.052 91.3388 126.161 93.0211L126.411 93.0049C126.3 91.2998 125.913 90.0075 125.231 89.1471L125.035 89.3024ZM126.161 93.0211C126.27 94.7032 126.051 95.9804 125.524 96.8688L125.739 96.9964C126.303 96.0461 126.521 94.7102 126.411 93.0049L126.161 93.0211ZM125.524 96.8688C125.001 97.7492 124.188 98.2267 123.068 98.2992L123.084 98.5487C124.279 98.4714 125.17 97.9546 125.739 96.9964L125.524 96.8688ZM123.02 97.5583C123.867 97.5035 124.479 97.0999 124.838 96.3535L124.613 96.2451C124.294 96.9071 123.764 97.2596 123.004 97.3088L123.02 97.5583ZM124.838 96.3535C125.191 95.6198 125.312 94.5235 125.219 93.082L124.97 93.0981C125.062 94.5273 124.937 95.5706 124.613 96.2451L124.838 96.3535ZM125.219 93.082C125.125 91.6313 124.864 90.5592 124.42 89.8861L124.211 90.0239C124.619 90.641 124.877 91.659 124.97 93.0981L125.219 93.082ZM124.42 89.8873C124.201 89.5476 123.927 89.2952 123.596 89.1358C123.266 88.9765 122.886 88.9132 122.462 88.9406L122.478 89.1901C122.868 89.1649 123.203 89.2237 123.487 89.3609C123.772 89.498 124.013 89.7168 124.21 90.0228L124.42 89.8873ZM122.462 88.9406C121.615 88.9954 121.003 89.399 120.644 90.1454L120.869 90.2538C121.188 89.5918 121.718 89.2393 122.478 89.1901L122.462 88.9406ZM120.644 90.1447C120.29 90.8693 120.169 91.9613 120.262 93.4026L120.511 93.3864C120.419 91.957 120.544 90.919 120.869 90.2545L120.644 90.1447ZM120.262 93.4026C120.355 94.8441 120.616 95.9156 121.061 96.5978L121.271 96.4613C120.862 95.8341 120.604 94.8156 120.511 93.3864L120.262 93.4026ZM121.061 96.5978C121.513 97.2916 122.173 97.613 123.02 97.5583L123.004 97.3088C122.243 97.358 121.672 97.0767 121.271 96.4613L121.061 96.5978ZM128.956 96.7176L128.857 96.7947L128.956 96.7176ZM128.457 89.0097L128.35 88.9459L128.457 89.0097ZM133.739 88.6682L133.641 88.7453L133.641 88.7458L133.739 88.6682ZM134.238 96.376L134.13 96.3122L134.238 96.376ZM133.332 95.7428L133.445 95.797L133.332 95.7428ZM132.922 89.3985L132.817 89.4662L132.817 89.4674L132.922 89.3985ZM129.363 89.643L129.475 89.6979L129.476 89.6972L129.363 89.643ZM129.772 95.973L129.877 95.9047L129.772 95.973ZM131.674 97.7426C130.553 97.8151 129.686 97.4463 129.054 96.6405L128.857 96.7947C129.545 97.6717 130.495 98.0694 131.69 97.9921L131.674 97.7426ZM129.054 96.6405C128.416 95.8274 128.036 94.5937 127.927 92.9213L127.678 92.9374C127.788 94.6333 128.175 95.9251 128.857 96.7947L129.054 96.6405ZM127.927 92.9213C127.819 91.2391 128.037 89.9619 128.565 89.0736L128.35 88.9459C127.785 89.8963 127.568 91.2321 127.678 92.9374L127.927 92.9213ZM128.565 89.0736C129.088 88.1931 129.9 87.7156 131.021 87.6432L131.005 87.3937C129.81 87.471 128.919 87.9877 128.35 88.9459L128.565 89.0736ZM131.021 87.6432C132.142 87.5707 133.009 87.9395 133.641 88.7453L133.838 88.591C133.15 87.7141 132.2 87.3164 131.005 87.3937L131.021 87.6432ZM133.641 88.7458C134.278 89.549 134.659 90.7822 134.768 92.4645L135.017 92.4484C134.907 90.7432 134.519 89.451 133.837 88.5905L133.641 88.7458ZM134.768 92.4645C134.876 94.1467 134.658 95.4239 134.13 96.3122L134.345 96.4399C134.91 95.4895 135.127 94.1537 135.017 92.4484L134.768 92.4645ZM134.13 96.3122C133.608 97.1927 132.795 97.6701 131.674 97.7426L131.69 97.9921C132.885 97.9148 133.776 97.3981 134.345 96.4399L134.13 96.3122ZM131.626 97.0017C132.473 96.9469 133.086 96.5433 133.445 95.797L133.219 95.6886C132.901 96.3505 132.371 96.703 131.61 96.7522L131.626 97.0017ZM133.445 95.797C133.798 95.0632 133.919 93.967 133.826 92.5254L133.576 92.5416C133.669 93.9707 133.544 95.014 133.219 95.6886L133.445 95.797ZM133.826 92.5254C133.732 91.0747 133.471 90.0026 133.026 89.3296L132.817 89.4674C133.225 90.0845 133.483 91.1024 133.576 92.5416L133.826 92.5254ZM133.027 89.3307C132.808 88.991 132.533 88.7387 132.203 88.5792C131.872 88.4199 131.493 88.3567 131.069 88.3841L131.085 88.6336C131.474 88.6084 131.809 88.6671 132.094 88.8044C132.378 88.9414 132.619 89.1602 132.817 89.4662L133.027 89.3307ZM131.069 88.3841C130.222 88.4389 129.61 88.8425 129.25 89.5888L129.476 89.6972C129.794 89.0353 130.325 88.6827 131.085 88.6336L131.069 88.3841ZM129.251 89.5881C128.897 90.3128 128.775 91.4047 128.868 92.846L129.118 92.8299C129.025 91.4005 129.151 90.3625 129.475 89.6979L129.251 89.5881ZM128.868 92.846C128.962 94.2875 129.223 95.359 129.668 96.0412L129.877 95.9047C129.468 95.2776 129.21 94.2591 129.118 92.8299L128.868 92.846ZM129.668 96.0412C130.12 96.7351 130.779 97.0565 131.626 97.0017L131.61 96.7522C130.85 96.8014 130.278 96.5201 129.877 95.9047L129.668 96.0412ZM137.562 96.1611L137.464 96.2382L137.562 96.1611ZM137.064 88.4532L136.956 88.3894L137.064 88.4532ZM142.346 88.1116L142.248 88.1887L142.248 88.1892L142.346 88.1116ZM142.844 95.8195L142.737 95.7557L142.844 95.8195ZM141.939 95.1862L142.051 95.2404L141.939 95.1862ZM141.528 88.8419L141.423 88.9097L141.424 88.9108L141.528 88.8419ZM137.97 89.0865L138.082 89.1413L138.082 89.1407L137.97 89.0865ZM138.379 95.4164L138.484 95.3481L138.379 95.4164ZM140.281 97.1861C139.16 97.2585 138.292 96.8897 137.661 96.0839L137.464 96.2382C138.152 97.1151 139.102 97.5128 140.297 97.4355L140.281 97.1861ZM137.661 96.0839C137.023 95.2708 136.642 94.0371 136.534 92.3647L136.284 92.3808C136.394 94.0767 136.782 95.3685 137.464 96.2382L137.661 96.0839ZM136.534 92.3647C136.425 90.6825 136.644 89.4053 137.171 88.517L136.956 88.3894C136.392 89.3397 136.174 90.6756 136.284 92.3808L136.534 92.3647ZM137.171 88.517C137.694 87.6365 138.507 87.1591 139.628 87.0866L139.611 86.8371C138.417 86.9144 137.525 87.4311 136.956 88.3894L137.171 88.517ZM139.628 87.0866C140.748 87.0141 141.616 87.383 142.248 88.1887L142.444 88.0345C141.757 87.1575 140.806 86.7599 139.611 86.8371L139.628 87.0866ZM142.248 88.1892C142.884 88.9924 143.265 90.2256 143.374 91.908L143.624 91.8918C143.513 90.1867 143.126 88.8944 142.444 88.034L142.248 88.1892ZM143.374 91.908C143.483 93.5901 143.264 94.8673 142.737 95.7557L142.952 95.8833C143.516 94.933 143.734 93.5971 143.624 91.8918L143.374 91.908ZM142.737 95.7557C142.214 96.6361 141.401 97.1136 140.281 97.1861L140.297 97.4355C141.492 97.3583 142.383 96.8415 142.952 95.8833L142.737 95.7557ZM140.233 96.4451C141.08 96.3904 141.692 95.9867 142.051 95.2404L141.826 95.132C141.507 95.794 140.977 96.1465 140.217 96.1957L140.233 96.4451ZM142.051 95.2404C142.404 94.5066 142.526 93.4104 142.432 91.9689L142.183 91.985C142.275 93.4142 142.151 94.4575 141.826 95.132L142.051 95.2404ZM142.432 91.9689C142.339 90.5182 142.077 89.4461 141.633 88.773L141.424 88.9108C141.832 89.5279 142.09 90.5458 142.183 91.985L142.432 91.9689ZM141.633 88.7742C141.414 88.4345 141.14 88.1821 140.809 88.0226C140.479 87.8633 140.099 87.8001 139.675 87.8275L139.692 88.077C140.081 88.0518 140.416 88.1106 140.7 88.2478C140.985 88.3849 141.226 88.6037 141.423 88.9097L141.633 88.7742ZM139.675 87.8275C138.828 87.8823 138.216 88.2859 137.857 89.0323L138.082 89.1407C138.401 88.4787 138.931 88.1262 139.692 88.077L139.675 87.8275ZM137.857 89.0316C137.503 89.7562 137.382 90.8481 137.475 92.2894L137.724 92.2733C137.632 90.8439 137.757 89.8059 138.082 89.1413L137.857 89.0316ZM137.475 92.2894C137.568 93.731 137.83 94.8025 138.274 95.4846L138.484 95.3481C138.075 94.721 137.817 93.7025 137.724 92.2733L137.475 92.2894ZM138.274 95.4846C138.726 96.1785 139.386 96.4999 140.233 96.4451L140.217 96.1957C139.456 96.2448 138.885 95.9636 138.484 95.3481L138.274 95.4846ZM146.169 95.6045L146.07 95.6816L146.169 95.6045ZM145.67 87.8966L145.563 87.8328L145.67 87.8966ZM150.952 87.555L150.854 87.6322L150.854 87.6327L150.952 87.555ZM151.451 95.2629L151.343 95.1991L151.451 95.2629ZM150.545 94.6296L150.658 94.6838L150.545 94.6296ZM150.135 88.2854L150.03 88.3531L150.031 88.3542L150.135 88.2854ZM146.576 88.5299L146.688 88.5848L146.689 88.5841L146.576 88.5299ZM146.985 94.8598L147.09 94.7916L146.985 94.8598ZM148.887 96.6295C147.766 96.702 146.899 96.3331 146.267 95.5274L146.07 95.6816C146.758 96.5586 147.708 96.9562 148.903 96.879L148.887 96.6295ZM146.267 95.5274C145.63 94.7143 145.249 93.4806 145.14 91.8081L144.891 91.8243C145.001 93.5202 145.388 94.812 146.07 95.6816L146.267 95.5274ZM145.14 91.8081C145.032 90.126 145.25 88.8488 145.778 87.9604L145.563 87.8328C144.999 88.7831 144.781 90.119 144.891 91.8243L145.14 91.8081ZM145.778 87.9604C146.301 87.08 147.113 86.6025 148.234 86.53L148.218 86.2806C147.023 86.3578 146.132 86.8746 145.563 87.8328L145.778 87.9604ZM148.234 86.53C149.355 86.4576 150.222 86.8264 150.854 87.6322L151.051 87.4779C150.363 86.601 149.413 86.2033 148.218 86.2806L148.234 86.53ZM150.854 87.6327C151.491 88.4359 151.872 89.6691 151.981 91.3514L152.23 91.3353C152.12 89.6301 151.732 88.3378 151.05 87.4774L150.854 87.6327ZM151.981 91.3514C152.09 93.0335 151.871 94.3108 151.343 95.1991L151.558 95.3267C152.123 94.3764 152.341 93.0405 152.23 91.3353L151.981 91.3514ZM151.343 95.1991C150.821 96.0796 150.008 96.557 148.887 96.6295L148.903 96.879C150.098 96.8017 150.989 96.285 151.558 95.3267L151.343 95.1991ZM148.839 95.8886C149.686 95.8338 150.299 95.4302 150.658 94.6838L150.433 94.5754C150.114 95.2374 149.584 95.5899 148.823 95.6391L148.839 95.8886ZM150.658 94.6838C151.011 93.9501 151.132 92.8538 151.039 91.4123L150.789 91.4284C150.882 92.8576 150.757 93.9009 150.433 94.5754L150.658 94.6838ZM151.039 91.4123C150.945 89.9616 150.684 88.8895 150.239 88.2165L150.031 88.3542C150.438 88.9714 150.696 89.9893 150.789 91.4284L151.039 91.4123ZM150.24 88.2176C150.021 87.8779 149.746 87.6256 149.416 87.4661C149.085 87.3068 148.706 87.2435 148.282 87.271L148.298 87.5204C148.687 87.4953 149.022 87.554 149.307 87.6913C149.591 87.8283 149.832 88.0471 150.03 88.3531L150.24 88.2176ZM148.282 87.271C147.435 87.3257 146.823 87.7294 146.463 88.4757L146.689 88.5841C147.007 87.9221 147.538 87.5696 148.298 87.5204L148.282 87.271ZM146.464 88.475C146.11 89.1996 145.988 90.2916 146.081 91.7329L146.331 91.7168C146.238 90.2873 146.364 89.2493 146.688 88.5848L146.464 88.475ZM146.081 91.7329C146.175 93.1744 146.436 94.2459 146.881 94.9281L147.09 94.7916C146.681 94.1645 146.423 93.1459 146.331 91.7168L146.081 91.7329ZM146.881 94.9281C147.333 95.622 147.992 95.9434 148.839 95.8886L148.823 95.6391C148.063 95.6883 147.491 95.407 147.09 94.7916L146.881 94.9281ZM154.775 95.0479L154.677 95.1251L154.775 95.0479ZM154.277 87.3401L154.169 87.2762L154.277 87.3401ZM159.559 86.9985L159.461 87.0756L159.461 87.0761L159.559 86.9985ZM160.057 94.7064L159.95 94.6425L160.057 94.7064ZM159.152 94.0731L159.264 94.1273L159.152 94.0731ZM158.741 87.7288L158.636 87.7966L158.637 87.7977L158.741 87.7288ZM155.183 87.9733L155.295 88.0282L155.295 88.0275L155.183 87.9733ZM155.592 94.3033L155.697 94.235L155.592 94.3033ZM157.494 96.0729C156.373 96.1454 155.506 95.7766 154.874 94.9708L154.677 95.1251C155.365 96.002 156.315 96.3997 157.51 96.3224L157.494 96.0729ZM154.874 94.9708C154.236 94.1577 153.855 92.924 153.747 91.2516L153.498 91.2677C153.607 92.9636 153.995 94.2554 154.677 95.1251L154.874 94.9708ZM153.747 91.2516C153.638 89.5694 153.857 88.2922 154.384 87.4039L154.169 87.2762C153.605 88.2266 153.387 89.5624 153.498 91.2677L153.747 91.2516ZM154.384 87.4039C154.907 86.5234 155.72 86.046 156.841 85.9735L156.824 85.724C155.63 85.8013 154.738 86.318 154.169 87.2762L154.384 87.4039ZM156.841 85.9735C157.961 85.901 158.829 86.2698 159.461 87.0756L159.657 86.9213C158.97 86.0444 158.019 85.6467 156.824 85.724L156.841 85.9735ZM159.461 87.0761C160.098 87.8793 160.479 89.1125 160.587 90.7948L160.837 90.7787C160.727 89.0736 160.339 87.7813 159.657 86.9208L159.461 87.0761ZM160.587 90.7948C160.696 92.477 160.477 93.7542 159.95 94.6425L160.165 94.7702C160.729 93.8198 160.947 92.484 160.837 90.7787L160.587 90.7948ZM159.95 94.6425C159.427 95.523 158.615 96.0005 157.494 96.0729L157.51 96.3224C158.705 96.2451 159.596 95.7284 160.165 94.7702L159.95 94.6425ZM157.446 95.332C158.293 95.2772 158.905 94.8736 159.264 94.1273L159.039 94.0189C158.721 94.6808 158.19 95.0334 157.43 95.0825L157.446 95.332ZM159.264 94.1273C159.617 93.3935 159.739 92.2973 159.645 90.8557L159.396 90.8719C159.488 92.3011 159.364 93.3443 159.039 94.0189L159.264 94.1273ZM159.645 90.8557C159.552 89.405 159.29 88.333 158.846 87.6599L158.637 87.7977C159.045 88.4148 159.303 89.4327 159.396 90.8719L159.645 90.8557ZM158.846 87.661C158.627 87.3213 158.353 87.069 158.022 86.9095C157.692 86.7502 157.313 86.687 156.889 86.7144L156.905 86.9639C157.294 86.9387 157.629 86.9974 157.914 87.1347C158.198 87.2718 158.439 87.4905 158.636 87.7966L158.846 87.661ZM156.889 86.7144C156.041 86.7692 155.429 87.1728 155.07 87.9191L155.295 88.0275C155.614 87.3656 156.144 87.0131 156.905 86.9639L156.889 86.7144ZM155.07 87.9185C154.716 88.6431 154.595 89.735 154.688 91.1763L154.937 91.1602C154.845 89.7308 154.97 88.6928 155.295 88.0282L155.07 87.9185ZM154.688 91.1763C154.781 92.6179 155.043 93.6893 155.487 94.3715L155.697 94.235C155.288 93.6079 155.03 92.5894 154.937 91.1602L154.688 91.1763ZM155.487 94.3715C155.94 95.0654 156.599 95.3868 157.446 95.332L157.43 95.0825C156.669 95.1317 156.098 94.8504 155.697 94.235L155.487 94.3715ZM163.382 94.4914L163.284 94.5685L163.382 94.4914ZM162.883 86.7835L162.776 86.7197L162.883 86.7835ZM168.166 86.4419L168.067 86.5191L168.068 86.5196L168.166 86.4419ZM168.664 94.1498L168.557 94.086L168.664 94.1498ZM167.758 93.5165L167.871 93.5707L167.758 93.5165ZM167.348 87.1722L167.243 87.24L167.244 87.2411L167.348 87.1722ZM163.789 87.4168L163.901 87.4717L163.902 87.471L163.789 87.4168ZM164.199 93.7467L164.303 93.6785L164.199 93.7467ZM166.1 95.5164C164.979 95.5889 164.112 95.22 163.48 94.4142L163.284 94.5685C163.971 95.4455 164.922 95.8431 166.116 95.7659L166.1 95.5164ZM163.48 94.4142C162.843 93.6012 162.462 92.3674 162.354 90.695L162.104 90.7112C162.214 92.4071 162.602 93.6989 163.284 94.5685L163.48 94.4142ZM162.354 90.695C162.245 89.0129 162.463 87.7357 162.991 86.8473L162.776 86.7197C162.212 87.67 161.994 89.0059 162.104 90.7112L162.354 90.695ZM162.991 86.8473C163.514 85.9669 164.326 85.4894 165.447 85.4169L165.431 85.1674C164.236 85.2447 163.345 85.7615 162.776 86.7197L162.991 86.8473ZM165.447 85.4169C166.568 85.3444 167.435 85.7133 168.067 86.5191L168.264 86.3648C167.576 85.4878 166.626 85.0902 165.431 85.1674L165.447 85.4169ZM168.068 86.5196C168.704 87.3227 169.085 88.556 169.194 90.2383L169.443 90.2221C169.333 88.517 168.945 87.2247 168.264 86.3643L168.068 86.5196ZM169.194 90.2383C169.303 91.9204 169.084 93.1976 168.557 94.086L168.771 94.2136C169.336 93.2633 169.554 91.9274 169.443 90.2221L169.194 90.2383ZM168.557 94.086C168.034 94.9664 167.221 95.4439 166.1 95.5164L166.116 95.7659C167.311 95.6886 168.202 95.1718 168.771 94.2136L168.557 94.086ZM166.052 94.7755C166.899 94.7207 167.512 94.3171 167.871 93.5707L167.646 93.4623C167.327 94.1243 166.797 94.4768 166.036 94.526L166.052 94.7755ZM167.871 93.5707C168.224 92.837 168.345 91.7407 168.252 90.2992L168.002 90.3153C168.095 91.7445 167.97 92.7878 167.646 93.4623L167.871 93.5707ZM168.252 90.2992C168.158 88.8485 167.897 87.7764 167.452 87.1033L167.244 87.2411C167.651 87.8582 167.909 88.8762 168.002 90.3153L168.252 90.2992ZM167.453 87.1045C167.234 86.7648 166.959 86.5124 166.629 86.353C166.298 86.1937 165.919 86.1304 165.495 86.1578L165.511 86.4073C165.901 86.3821 166.235 86.4409 166.52 86.5781C166.804 86.7152 167.046 86.934 167.243 87.24L167.453 87.1045ZM165.495 86.1578C164.648 86.2126 164.036 86.6162 163.677 87.3626L163.902 87.471C164.22 86.809 164.751 86.4565 165.511 86.4073L165.495 86.1578ZM163.677 87.3619C163.323 88.0865 163.201 89.1785 163.295 90.6198L163.544 90.6036C163.452 89.1742 163.577 88.1362 163.901 87.4717L163.677 87.3619ZM163.295 90.6198C163.388 92.0613 163.649 93.1328 164.094 93.815L164.303 93.6785C163.894 93.0513 163.636 92.0328 163.544 90.6036L163.295 90.6198ZM164.094 93.815C164.546 94.5088 165.205 94.8302 166.052 94.7755L166.036 94.526C165.276 94.5752 164.704 94.2939 164.303 93.6785L164.094 93.815ZM171.988 93.9348L171.89 94.012L171.988 93.9348ZM171.49 86.2269L171.382 86.1631L171.49 86.2269ZM176.772 85.8854L176.674 85.9625L176.674 85.963L176.772 85.8854ZM177.271 93.5932L177.163 93.5294L177.271 93.5932ZM176.365 92.96L176.477 93.0142L176.365 92.96ZM175.954 86.6157L175.849 86.6834L175.85 86.6846L175.954 86.6157ZM172.396 86.8602L172.508 86.9151L172.508 86.9144L172.396 86.8602ZM172.805 93.1902L172.91 93.1219L172.805 93.1902ZM174.707 94.9598C173.586 95.0323 172.719 94.6635 172.087 93.8577L171.89 94.012C172.578 94.8889 173.528 95.2866 174.723 95.2093L174.707 94.9598ZM172.087 93.8577C171.449 93.0446 171.068 91.8109 170.96 90.1385L170.711 90.1546C170.82 91.8505 171.208 93.1423 171.89 94.012L172.087 93.8577ZM170.96 90.1385C170.851 88.4563 171.07 87.1791 171.597 86.2908L171.382 86.1631C170.818 87.1135 170.6 88.4493 170.711 90.1546L170.96 90.1385ZM171.597 86.2908C172.12 85.4103 172.933 84.9328 174.054 84.8604L174.038 84.6109C172.843 84.6882 171.951 85.2049 171.382 86.1631L171.597 86.2908ZM174.054 84.8604C175.175 84.7879 176.042 85.1567 176.674 85.9625L176.87 85.8082C176.183 84.9313 175.232 84.5336 174.038 84.6109L174.054 84.8604ZM176.674 85.963C177.311 86.7662 177.692 87.9994 177.8 89.6817L178.05 89.6656C177.94 87.9604 177.552 86.6682 176.87 85.8077L176.674 85.963ZM177.8 89.6817C177.909 91.3639 177.691 92.6411 177.163 93.5294L177.378 93.6571C177.942 92.7067 178.16 91.3709 178.05 89.6656L177.8 89.6817ZM177.163 93.5294C176.64 94.4099 175.828 94.8873 174.707 94.9598L174.723 95.2093C175.918 95.132 176.809 94.6153 177.378 93.6571L177.163 93.5294ZM174.659 94.2189C175.506 94.1641 176.118 93.7605 176.477 93.0142L176.252 92.9058C175.934 93.5677 175.403 93.9202 174.643 93.9694L174.659 94.2189ZM176.477 93.0142C176.83 92.2804 176.952 91.1842 176.859 89.7426L176.609 89.7588C176.701 91.1879 176.577 92.2312 176.252 92.9058L176.477 93.0142ZM176.859 89.7426C176.765 88.2919 176.503 87.2198 176.059 86.5468L175.85 86.6846C176.258 87.3017 176.516 88.3196 176.609 89.7588L176.859 89.7426ZM176.06 86.5479C175.84 86.2082 175.566 85.9559 175.235 85.7964C174.905 85.6371 174.526 85.5739 174.102 85.6013L174.118 85.8508C174.507 85.8256 174.842 85.8843 175.127 86.0216C175.411 86.1586 175.652 86.3774 175.849 86.6834L176.06 86.5479ZM174.102 85.6013C173.254 85.6561 172.642 86.0597 172.283 86.806L172.508 86.9144C172.827 86.2525 173.357 85.8999 174.118 85.8508L174.102 85.6013ZM172.283 86.8053C171.929 87.53 171.808 88.6219 171.901 90.0632L172.151 90.0471C172.058 88.6177 172.183 87.5797 172.508 86.9151L172.283 86.8053ZM171.901 90.0632C171.994 91.5047 172.256 92.5762 172.7 93.2584L172.91 93.1219C172.501 92.4948 172.243 91.4763 172.151 90.0471L171.901 90.0632ZM172.7 93.2584C173.153 93.9523 173.812 94.2737 174.659 94.2189L174.643 93.9694C173.882 94.0186 173.311 93.7373 172.91 93.1219L172.7 93.2584ZM180.595 93.3783L180.497 93.4554L180.595 93.3783ZM180.097 85.6704L179.989 85.6066L180.097 85.6704ZM185.379 85.3288L185.28 85.4059L185.281 85.4064L185.379 85.3288ZM185.877 93.0367L185.77 92.9729L185.877 93.0367ZM184.971 92.4034L185.084 92.4576L184.971 92.4034ZM184.561 86.0591L184.456 86.1269L184.457 86.128L184.561 86.0591ZM181.002 86.3037L181.115 86.3585L181.115 86.3579L181.002 86.3037ZM181.412 92.6336L181.516 92.5653L181.412 92.6336ZM183.313 94.4033C182.193 94.4757 181.325 94.1069 180.693 93.3011L180.497 93.4554C181.184 94.3323 182.135 94.73 183.329 94.6527L183.313 94.4033ZM180.693 93.3011C180.056 92.488 179.675 91.2543 179.567 89.5819L179.317 89.598C179.427 91.2939 179.815 92.5857 180.497 93.4554L180.693 93.3011ZM179.567 89.5819C179.458 87.8997 179.676 86.6225 180.204 85.7342L179.989 85.6066C179.425 86.5569 179.207 87.8928 179.317 89.598L179.567 89.5819ZM180.204 85.7342C180.727 84.8537 181.539 84.3763 182.66 84.3038L182.644 84.0543C181.449 84.1316 180.558 84.6483 179.989 85.6066L180.204 85.7342ZM182.66 84.3038C183.781 84.2313 184.648 84.6002 185.28 85.4059L185.477 85.2517C184.789 84.3747 183.839 83.9771 182.644 84.0543L182.66 84.3038ZM185.281 85.4064C185.917 86.2096 186.298 87.4428 186.407 89.1252L186.656 89.109C186.546 87.4039 186.158 86.1116 185.477 85.2512L185.281 85.4064ZM186.407 89.1252C186.516 90.8073 186.297 92.0845 185.77 92.9729L185.985 93.1005C186.549 92.1502 186.767 90.8143 186.656 89.109L186.407 89.1252ZM185.77 92.9729C185.247 93.8533 184.434 94.3308 183.313 94.4033L183.329 94.6527C184.524 94.5755 185.416 94.0587 185.985 93.1005L185.77 92.9729ZM183.265 93.6623C184.113 93.6076 184.725 93.2039 185.084 92.4576L184.859 92.3492C184.54 93.0112 184.01 93.3637 183.249 93.4129L183.265 93.6623ZM185.084 92.4576C185.437 91.7238 185.558 90.6276 185.465 89.1861L185.216 89.2022C185.308 90.6314 185.183 91.6747 184.859 92.3492L185.084 92.4576ZM185.465 89.1861C185.371 87.7354 185.11 86.6633 184.665 85.9902L184.457 86.128C184.864 86.7451 185.123 87.763 185.216 89.2022L185.465 89.1861ZM184.666 85.9914C184.447 85.6517 184.172 85.3993 183.842 85.2398C183.511 85.0805 183.132 85.0173 182.708 85.0447L182.724 85.2942C183.114 85.269 183.449 85.3278 183.733 85.465C184.017 85.6021 184.259 85.8209 184.456 86.1269L184.666 85.9914ZM182.708 85.0447C181.861 85.0995 181.249 85.5031 180.89 86.2495L181.115 86.3579C181.433 85.6959 181.964 85.3434 182.724 85.2942L182.708 85.0447ZM180.89 86.2488C180.536 86.9734 180.414 88.0653 180.508 89.5066L180.757 89.4905C180.665 88.0611 180.79 87.0231 181.115 86.3585L180.89 86.2488ZM180.508 89.5066C180.601 90.9482 180.862 92.0197 181.307 92.7018L181.516 92.5653C181.108 91.9382 180.849 90.9197 180.757 89.4905L180.508 89.5066ZM181.307 92.7018C181.759 93.3957 182.418 93.7171 183.265 93.6623L183.249 93.4129C182.489 93.462 181.917 93.1808 181.516 92.5653L181.307 92.7018ZM104.427 118.346L104.328 118.423L104.427 118.346ZM103.928 110.638L103.821 110.574L103.928 110.638ZM109.21 110.296L109.112 110.373L109.112 110.374L109.21 110.296ZM109.709 118.004L109.601 117.94L109.709 118.004ZM108.803 117.371L108.916 117.425L108.803 117.371ZM108.393 111.026L108.288 111.094L108.289 111.095L108.393 111.026ZM104.834 111.271L104.946 111.326L104.947 111.325L104.834 111.271ZM105.243 117.601L105.348 117.533L105.243 117.601ZM107.145 119.371C106.024 119.443 105.157 119.074 104.525 118.268L104.328 118.423C105.016 119.3 105.966 119.697 107.161 119.62L107.145 119.371ZM104.525 118.268C103.887 117.455 103.507 116.222 103.398 114.549L103.149 114.565C103.259 116.261 103.646 117.553 104.328 118.423L104.525 118.268ZM103.398 114.549C103.29 112.867 103.508 111.59 104.036 110.702L103.821 110.574C103.256 111.524 103.039 112.86 103.149 114.565L103.398 114.549ZM104.036 110.702C104.559 109.821 105.371 109.344 106.492 109.271L106.476 109.022C105.281 109.099 104.39 109.616 103.821 110.574L104.036 110.702ZM106.492 109.271C107.613 109.199 108.48 109.568 109.112 110.373L109.309 110.219C108.621 109.342 107.671 108.944 106.476 109.022L106.492 109.271ZM109.112 110.374C109.749 111.177 110.13 112.41 110.239 114.093L110.488 114.076C110.378 112.371 109.99 111.079 109.308 110.219L109.112 110.374ZM110.239 114.093C110.347 115.775 110.129 117.052 109.601 117.94L109.816 118.068C110.381 117.118 110.598 115.782 110.488 114.076L110.239 114.093ZM109.601 117.94C109.079 118.821 108.266 119.298 107.145 119.371L107.161 119.62C108.356 119.543 109.247 119.026 109.816 118.068L109.601 117.94ZM107.097 118.63C107.944 118.575 108.557 118.171 108.916 117.425L108.69 117.317C108.372 117.979 107.842 118.331 107.081 118.38L107.097 118.63ZM108.916 117.425C109.269 116.691 109.39 115.595 109.297 114.153L109.047 114.17C109.14 115.599 109.015 116.642 108.69 117.317L108.916 117.425ZM109.297 114.153C109.203 112.703 108.942 111.631 108.497 110.958L108.289 111.095C108.696 111.712 108.954 112.73 109.047 114.17L109.297 114.153ZM108.498 110.959C108.279 110.619 108.004 110.367 107.674 110.207C107.343 110.048 106.964 109.985 106.54 110.012L106.556 110.262C106.945 110.236 107.28 110.295 107.565 110.432C107.849 110.569 108.09 110.788 108.288 111.094L108.498 110.959ZM106.54 110.012C105.693 110.067 105.081 110.47 104.721 111.217L104.947 111.325C105.265 110.663 105.796 110.311 106.556 110.262L106.54 110.012ZM104.722 111.216C104.368 111.941 104.246 113.033 104.339 114.474L104.589 114.458C104.496 113.028 104.622 111.99 104.946 111.326L104.722 111.216ZM104.339 114.474C104.433 115.916 104.694 116.987 105.139 117.669L105.348 117.533C104.939 116.906 104.681 115.887 104.589 114.458L104.339 114.474ZM105.139 117.669C105.591 118.363 106.25 118.684 107.097 118.63L107.081 118.38C106.321 118.429 105.749 118.148 105.348 117.533L105.139 117.669ZM113.033 117.789L112.935 117.866L113.033 117.789ZM112.535 110.081L112.427 110.017L112.535 110.081ZM117.817 109.74L117.719 109.817L117.719 109.817L117.817 109.74ZM118.315 117.447L118.208 117.384L118.315 117.447ZM117.41 116.814L117.522 116.868L117.41 116.814ZM116.999 110.47L116.894 110.538L116.895 110.539L116.999 110.47ZM113.441 110.714L113.553 110.769L113.553 110.769L113.441 110.714ZM113.85 117.044L113.955 116.976L113.85 117.044ZM115.752 118.814C114.631 118.887 113.764 118.518 113.132 117.712L112.935 117.866C113.623 118.743 114.573 119.141 115.768 119.064L115.752 118.814ZM113.132 117.712C112.494 116.899 112.113 115.665 112.005 113.993L111.755 114.009C111.865 115.705 112.253 116.997 112.935 117.866L113.132 117.712ZM112.005 113.993C111.896 112.311 112.115 111.033 112.642 110.145L112.427 110.017C111.863 110.968 111.645 112.304 111.755 114.009L112.005 113.993ZM112.642 110.145C113.165 109.265 113.978 108.787 115.099 108.715L115.082 108.465C113.888 108.542 112.996 109.059 112.427 110.017L112.642 110.145ZM115.099 108.715C116.219 108.642 117.087 109.011 117.719 109.817L117.915 109.662C117.228 108.786 116.277 108.388 115.082 108.465L115.099 108.715ZM117.719 109.817C118.355 110.62 118.736 111.854 118.845 113.536L119.095 113.52C118.984 111.815 118.597 110.522 117.915 109.662L117.719 109.817ZM118.845 113.536C118.954 115.218 118.735 116.495 118.208 117.384L118.423 117.511C118.987 116.561 119.205 115.225 119.095 113.52L118.845 113.536ZM118.208 117.384C117.685 118.264 116.872 118.742 115.752 118.814L115.768 119.064C116.963 118.986 117.854 118.47 118.423 117.511L118.208 117.384ZM115.704 118.073C116.551 118.018 117.163 117.615 117.522 116.868L117.297 116.76C116.978 117.422 116.448 117.774 115.688 117.824L115.704 118.073ZM117.522 116.868C117.875 116.135 117.997 115.038 117.903 113.597L117.654 113.613C117.746 115.042 117.622 116.085 117.297 116.76L117.522 116.868ZM117.903 113.597C117.81 112.146 117.548 111.074 117.104 110.401L116.895 110.539C117.303 111.156 117.561 112.174 117.654 113.613L117.903 113.597ZM117.104 110.402C116.885 110.062 116.611 109.81 116.28 109.651C115.95 109.491 115.57 109.428 115.146 109.456L115.163 109.705C115.552 109.68 115.887 109.739 116.171 109.876C116.456 110.013 116.697 110.232 116.894 110.538L117.104 110.402ZM115.146 109.456C114.299 109.51 113.687 109.914 113.328 110.66L113.553 110.769C113.872 110.107 114.402 109.754 115.163 109.705L115.146 109.456ZM113.328 110.66C112.974 111.384 112.853 112.476 112.946 113.917L113.195 113.901C113.103 112.472 113.228 111.434 113.553 110.769L113.328 110.66ZM112.946 113.917C113.039 115.359 113.301 116.43 113.745 117.113L113.955 116.976C113.546 116.349 113.288 115.33 113.195 113.901L112.946 113.917ZM113.745 117.113C114.197 117.807 114.857 118.128 115.704 118.073L115.688 117.824C114.927 117.873 114.356 117.592 113.955 116.976L113.745 117.113ZM121.64 117.232L121.541 117.31L121.64 117.232ZM121.141 109.525L121.034 109.461L121.141 109.525ZM126.423 109.183L126.325 109.26L126.326 109.261L126.423 109.183ZM126.922 116.891L126.814 116.827L126.922 116.891ZM126.016 116.258L126.129 116.312L126.016 116.258ZM125.606 109.913L125.501 109.981L125.502 109.982L125.606 109.913ZM122.047 110.158L122.159 110.213L122.16 110.212L122.047 110.158ZM122.456 116.488L122.561 116.42L122.456 116.488ZM124.358 118.257C123.237 118.33 122.37 117.961 121.738 117.155L121.541 117.31C122.229 118.187 123.179 118.584 124.374 118.507L124.358 118.257ZM121.738 117.155C121.101 116.342 120.72 115.109 120.612 113.436L120.362 113.452C120.472 115.148 120.859 116.44 121.541 117.31L121.738 117.155ZM120.612 113.436C120.503 111.754 120.721 110.477 121.249 109.588L121.034 109.461C120.47 110.411 120.252 111.747 120.362 113.452L120.612 113.436ZM121.249 109.588C121.772 108.708 122.584 108.231 123.705 108.158L123.689 107.909C122.494 107.986 121.603 108.503 121.034 109.461L121.249 109.588ZM123.705 108.158C124.826 108.086 125.693 108.454 126.325 109.26L126.522 109.106C125.834 108.229 124.884 107.831 123.689 107.909L123.705 108.158ZM126.326 109.261C126.962 110.064 127.343 111.297 127.452 112.979L127.701 112.963C127.591 111.258 127.203 109.966 126.521 109.105L126.326 109.261ZM127.452 112.979C127.561 114.662 127.342 115.939 126.814 116.827L127.029 116.955C127.594 116.004 127.812 114.669 127.701 112.963L127.452 112.979ZM126.814 116.827C126.292 117.708 125.479 118.185 124.358 118.257L124.374 118.507C125.569 118.43 126.46 117.913 127.029 116.955L126.814 116.827ZM124.31 117.517C125.157 117.462 125.77 117.058 126.129 116.312L125.904 116.203C125.585 116.865 125.055 117.218 124.294 117.267L124.31 117.517ZM126.129 116.312C126.482 115.578 126.603 114.482 126.51 113.04L126.26 113.056C126.353 114.486 126.228 115.529 125.904 116.203L126.129 116.312ZM126.51 113.04C126.416 111.59 126.155 110.518 125.71 109.844L125.502 109.982C125.909 110.599 126.167 111.617 126.26 113.056L126.51 113.04ZM125.711 109.846C125.492 109.506 125.217 109.254 124.887 109.094C124.556 108.935 124.177 108.872 123.753 108.899L123.769 109.148C124.159 109.123 124.493 109.182 124.778 109.319C125.062 109.456 125.303 109.675 125.501 109.981L125.711 109.846ZM123.753 108.899C122.906 108.954 122.294 109.357 121.934 110.104L122.16 110.212C122.478 109.55 123.009 109.198 123.769 109.148L123.753 108.899ZM121.935 110.103C121.581 110.828 121.459 111.92 121.552 113.361L121.802 113.345C121.71 111.915 121.835 110.877 122.159 110.213L121.935 110.103ZM121.552 113.361C121.646 114.802 121.907 115.874 122.352 116.556L122.561 116.42C122.152 115.792 121.894 114.774 121.802 113.345L121.552 113.361ZM122.352 116.556C122.804 117.25 123.463 117.571 124.31 117.517L124.294 117.267C123.534 117.316 122.962 117.035 122.561 116.42L122.352 116.556ZM130.246 116.676L130.148 116.753L130.246 116.676ZM129.748 108.968L129.64 108.904L129.748 108.968ZM135.03 108.626L134.932 108.704L134.932 108.704L135.03 108.626ZM135.528 116.334L135.421 116.271L135.528 116.334ZM134.623 115.701L134.735 115.755L134.623 115.701ZM134.212 109.357L134.107 109.425L134.108 109.426L134.212 109.357ZM130.654 109.601L130.766 109.656L130.766 109.656L130.654 109.601ZM131.063 115.931L131.168 115.863L131.063 115.931ZM132.965 117.701C131.844 117.773 130.977 117.405 130.345 116.599L130.148 116.753C130.836 117.63 131.786 118.028 132.981 117.95L132.965 117.701ZM130.345 116.599C129.707 115.786 129.326 114.552 129.218 112.88L128.969 112.896C129.078 114.592 129.466 115.883 130.148 116.753L130.345 116.599ZM129.218 112.88C129.109 111.197 129.328 109.92 129.855 109.032L129.64 108.904C129.076 109.855 128.858 111.19 128.969 112.896L129.218 112.88ZM129.855 109.032C130.378 108.151 131.191 107.674 132.312 107.601L132.296 107.352C131.101 107.429 130.209 107.946 129.64 108.904L129.855 109.032ZM132.312 107.601C133.432 107.529 134.3 107.898 134.932 108.704L135.128 108.549C134.441 107.672 133.49 107.275 132.296 107.352L132.312 107.601ZM134.932 108.704C135.569 109.507 135.95 110.741 136.058 112.423L136.308 112.407C136.198 110.702 135.81 109.409 135.128 108.549L134.932 108.704ZM136.058 112.423C136.167 114.105 135.949 115.382 135.421 116.271L135.636 116.398C136.2 115.448 136.418 114.112 136.308 112.407L136.058 112.423ZM135.421 116.271C134.898 117.151 134.086 117.628 132.965 117.701L132.981 117.95C134.176 117.873 135.067 117.356 135.636 116.398L135.421 116.271ZM132.917 116.96C133.764 116.905 134.376 116.502 134.735 115.755L134.51 115.647C134.192 116.309 133.661 116.661 132.901 116.711L132.917 116.96ZM134.735 115.755C135.088 115.022 135.21 113.925 135.116 112.484L134.867 112.5C134.959 113.929 134.835 114.972 134.51 115.647L134.735 115.755ZM135.116 112.484C135.023 111.033 134.761 109.961 134.317 109.288L134.108 109.426C134.516 110.043 134.774 111.061 134.867 112.5L135.116 112.484ZM134.317 109.289C134.098 108.949 133.824 108.697 133.493 108.538C133.163 108.378 132.784 108.315 132.36 108.342L132.376 108.592C132.765 108.567 133.1 108.625 133.385 108.763C133.669 108.9 133.91 109.119 134.107 109.425L134.317 109.289ZM132.36 108.342C131.512 108.397 130.9 108.801 130.541 109.547L130.766 109.656C131.085 108.994 131.615 108.641 132.376 108.592L132.36 108.342ZM130.541 109.546C130.187 110.271 130.066 111.363 130.159 112.804L130.408 112.788C130.316 111.359 130.441 110.321 130.766 109.656L130.541 109.546ZM130.159 112.804C130.252 114.246 130.514 115.317 130.958 116L131.168 115.863C130.759 115.236 130.501 114.217 130.408 112.788L130.159 112.804ZM130.958 116C131.411 116.693 132.07 117.015 132.917 116.96L132.901 116.711C132.14 116.76 131.569 116.478 131.168 115.863L130.958 116ZM138.853 116.119L138.755 116.197L138.853 116.119ZM138.354 108.411L138.247 108.348L138.354 108.411ZM143.637 108.07L143.538 108.147L143.539 108.148L143.637 108.07ZM144.135 115.778L144.028 115.714L144.135 115.778ZM143.229 115.145L143.342 115.199L143.229 115.145ZM142.819 108.8L142.714 108.868L142.715 108.869L142.819 108.8ZM139.26 109.045L139.373 109.1L139.373 109.099L139.26 109.045ZM139.67 115.375L139.774 115.306L139.67 115.375ZM141.571 117.144C140.45 117.217 139.583 116.848 138.951 116.042L138.755 116.197C139.442 117.073 140.393 117.471 141.587 117.394L141.571 117.144ZM138.951 116.042C138.314 115.229 137.933 113.995 137.825 112.323L137.575 112.339C137.685 114.035 138.073 115.327 138.755 116.197L138.951 116.042ZM137.825 112.323C137.716 110.641 137.934 109.364 138.462 108.475L138.247 108.348C137.683 109.298 137.465 110.634 137.575 112.339L137.825 112.323ZM138.462 108.475C138.985 107.595 139.797 107.117 140.918 107.045L140.902 106.795C139.707 106.873 138.816 107.389 138.247 108.348L138.462 108.475ZM140.918 107.045C142.039 106.972 142.906 107.341 143.538 108.147L143.735 107.993C143.047 107.116 142.097 106.718 140.902 106.795L140.918 107.045ZM143.539 108.148C144.175 108.951 144.556 110.184 144.665 111.866L144.914 111.85C144.804 110.145 144.416 108.853 143.735 107.992L143.539 108.148ZM144.665 111.866C144.774 113.548 144.555 114.826 144.028 115.714L144.242 115.842C144.807 114.891 145.025 113.555 144.914 111.85L144.665 111.866ZM144.028 115.714C143.505 116.594 142.692 117.072 141.571 117.144L141.587 117.394C142.782 117.317 143.673 116.8 144.242 115.842L144.028 115.714ZM141.523 116.403C142.37 116.349 142.983 115.945 143.342 115.199L143.117 115.09C142.798 115.752 142.268 116.105 141.507 116.154L141.523 116.403ZM143.342 115.199C143.695 114.465 143.816 113.369 143.723 111.927L143.474 111.943C143.566 113.372 143.441 114.416 143.117 115.09L143.342 115.199ZM143.723 111.927C143.629 110.476 143.368 109.404 142.923 108.731L142.715 108.869C143.122 109.486 143.38 110.504 143.474 111.943L143.723 111.927ZM142.924 108.732C142.705 108.393 142.43 108.14 142.1 107.981C141.769 107.822 141.39 107.758 140.966 107.786L140.982 108.035C141.372 108.01 141.706 108.069 141.991 108.206C142.275 108.343 142.517 108.562 142.714 108.868L142.924 108.732ZM140.966 107.786C140.119 107.841 139.507 108.244 139.148 108.991L139.373 109.099C139.691 108.437 140.222 108.084 140.982 108.035L140.966 107.786ZM139.148 108.99C138.794 109.715 138.672 110.806 138.766 112.248L139.015 112.232C138.923 110.802 139.048 109.764 139.373 109.1L139.148 108.99ZM138.766 112.248C138.859 113.689 139.12 114.761 139.565 115.443L139.774 115.306C139.366 114.679 139.107 113.661 139.015 112.232L138.766 112.248ZM139.565 115.443C140.017 116.137 140.676 116.458 141.523 116.403L141.507 116.154C140.747 116.203 140.175 115.922 139.774 115.306L139.565 115.443ZM147.459 115.563L147.361 115.64L147.459 115.563ZM146.961 107.855L146.854 107.791L146.961 107.855ZM152.243 107.513L152.145 107.59L152.145 107.591L152.243 107.513ZM152.742 115.221L152.634 115.157L152.742 115.221ZM151.836 114.588L151.948 114.642L151.836 114.588ZM151.426 108.244L151.32 108.311L151.321 108.313L151.426 108.244ZM147.867 108.488L147.979 108.543L147.979 108.542L147.867 108.488ZM148.276 114.818L148.381 114.75L148.276 114.818ZM150.178 116.588C149.057 116.66 148.19 116.291 147.558 115.486L147.361 115.64C148.049 116.517 148.999 116.915 150.194 116.837L150.178 116.588ZM147.558 115.486C146.92 114.673 146.539 113.439 146.431 111.766L146.182 111.783C146.291 113.478 146.679 114.77 147.361 115.64L147.558 115.486ZM146.431 111.766C146.322 110.084 146.541 108.807 147.068 107.919L146.854 107.791C146.289 108.741 146.071 110.077 146.182 111.783L146.431 111.766ZM147.068 107.919C147.591 107.038 148.404 106.561 149.525 106.488L149.509 106.239C148.314 106.316 147.423 106.833 146.854 107.791L147.068 107.919ZM149.525 106.488C150.646 106.416 151.513 106.785 152.145 107.59L152.341 107.436C151.654 106.559 150.703 106.162 149.509 106.239L149.525 106.488ZM152.145 107.591C152.782 108.394 153.163 109.627 153.271 111.31L153.521 111.294C153.411 109.588 153.023 108.296 152.341 107.436L152.145 107.591ZM153.271 111.31C153.38 112.992 153.162 114.269 152.634 115.157L152.849 115.285C153.413 114.335 153.631 112.999 153.521 111.294L153.271 111.31ZM152.634 115.157C152.111 116.038 151.299 116.515 150.178 116.588L150.194 116.837C151.389 116.76 152.28 116.243 152.849 115.285L152.634 115.157ZM150.13 115.847C150.977 115.792 151.589 115.388 151.948 114.642L151.723 114.534C151.405 115.196 150.874 115.548 150.114 115.597L150.13 115.847ZM151.948 114.642C152.302 113.908 152.423 112.812 152.33 111.371L152.08 111.387C152.172 112.816 152.048 113.859 151.723 114.534L151.948 114.642ZM152.33 111.371C152.236 109.92 151.974 108.848 151.53 108.175L151.321 108.313C151.729 108.93 151.987 109.948 152.08 111.387L152.33 111.371ZM151.531 108.176C151.311 107.836 151.037 107.584 150.706 107.424C150.376 107.265 149.997 107.202 149.573 107.229L149.589 107.479C149.978 107.454 150.313 107.512 150.598 107.65C150.882 107.787 151.123 108.005 151.32 108.311L151.531 108.176ZM149.573 107.229C148.726 107.284 148.113 107.688 147.754 108.434L147.979 108.542C148.298 107.88 148.828 107.528 149.589 107.479L149.573 107.229ZM147.754 108.433C147.4 109.158 147.279 110.25 147.372 111.691L147.622 111.675C147.529 110.246 147.654 109.208 147.979 108.543L147.754 108.433ZM147.372 111.691C147.465 113.133 147.727 114.204 148.171 114.886L148.381 114.75C147.972 114.123 147.714 113.104 147.622 111.675L147.372 111.691ZM148.171 114.886C148.624 115.58 149.283 115.902 150.13 115.847L150.114 115.597C149.353 115.647 148.782 115.365 148.381 114.75L148.171 114.886Z" fill="#263238"/>
<path d="M260.787 114.432C262.868 109.019 260.167 102.944 254.754 100.863C249.342 98.7825 243.267 101.483 241.186 106.896C239.105 112.309 241.806 118.383 247.218 120.464C252.631 122.545 258.706 119.844 260.787 114.432Z" fill="white" stroke="#263238" stroke-linecap="round" stroke-linejoin="round"/>
<path d="M275.689 110.452C276.09 104.667 271.725 99.6528 265.94 99.2524C260.155 98.8519 255.14 103.217 254.74 109.002C254.339 114.787 258.704 119.801 264.489 120.202C270.274 120.602 275.289 116.237 275.689 110.452Z" fill="white" stroke="#263238" stroke-linecap="round" stroke-linejoin="round"/>
</svg>
