<svg width="538" height="400" viewBox="0 0 538 400" fill="none" xmlns="http://www.w3.org/2000/svg">
<path fill-rule="evenodd" clip-rule="evenodd" d="M46.9313 281.807C43.8016 280.1 40.1838 279.586 36.1225 280.775C23.5591 284.451 18.4768 294.289 17.7906 305.952C16.7892 322.981 25.3024 343.937 32.9118 354.353C33.2716 354.847 33.9635 354.953 34.4544 354.593C34.9481 354.233 35.0568 353.541 34.697 353.048C27.3107 342.939 19.0263 322.607 19.997 306.08C20.6274 295.372 25.2048 286.273 36.7445 282.897C40.1782 281.89 43.2298 282.334 45.8797 283.77C44.9676 285.517 44.1168 287.266 43.3302 289.014C41.16 293.843 37.916 307.249 39.1266 317.106C39.9969 324.177 43.1517 329.419 50.047 329.235C53.8796 329.131 56.6522 326.744 58.3481 322.945C60.6829 317.723 60.945 309.723 59.3021 302.058C57.9353 295.676 55.2576 289.536 51.4585 285.416C50.6216 284.512 49.7345 283.701 48.7945 283.003C61.9046 259.026 86.2587 236.605 111.268 227.149C111.837 226.931 112.127 226.295 111.91 225.723C111.695 225.152 111.056 224.864 110.487 225.079C85.0704 234.691 60.312 257.439 46.9313 281.807ZM47.7373 284.987C46.8838 286.63 46.0861 288.275 45.3469 289.921C43.2688 294.549 40.1614 307.391 41.3218 316.836C42.0331 322.632 44.3372 327.176 49.9885 327.025C52.9564 326.944 55.0148 324.984 56.3314 322.044C57.7763 318.808 58.3287 314.426 58.0971 309.754C57.7457 302.66 55.5784 294.9 51.8071 289.408C50.6133 287.667 49.2548 286.158 47.7373 284.987Z" fill="black"/>
<path fill-rule="evenodd" clip-rule="evenodd" d="M91.5061 263.332C93.732 250.334 102.229 236.493 111.386 226.908C111.807 226.468 111.791 225.768 111.35 225.346C110.909 224.925 110.209 224.939 109.788 225.38C100.343 235.263 91.6233 249.558 89.3276 262.958C89.2244 263.558 89.6289 264.13 90.2314 264.233C90.8311 264.336 91.4029 263.932 91.5061 263.332Z" fill="black"/>
<path fill-rule="evenodd" clip-rule="evenodd" d="M109.645 225.147C100.111 230.592 85.4865 231.345 74.8254 228.586C74.2341 228.433 73.6288 228.787 73.4782 229.378C73.3247 229.97 73.6789 230.572 74.2703 230.725C85.439 233.615 100.753 232.77 110.741 227.066C111.271 226.765 111.456 226.087 111.154 225.557C110.85 225.027 110.175 224.843 109.645 225.147Z" fill="black"/>
<circle cx="329" cy="200" r="200" fill="#F5F5F5"/>
<path d="M56.5059 65L391.818 185.518L428.594 241.8L56.5059 65Z" fill="#333333"/>
<path opacity="0.6" d="M56.5059 65L391.818 185.518L428.594 241.8L56.5059 65Z" fill="white"/>
<path d="M56.5059 65L391.818 185.518L361.924 249.888L56.5059 65Z" fill="#333333"/>
<path opacity="0.2" d="M56.5059 65L391.818 185.518L361.924 249.888L56.5059 65Z" fill="black"/>
<path d="M56.5059 65L327.601 191.107L361.924 249.888L56.5059 65Z" fill="#333333"/>
<path opacity="0.6" d="M56.5059 65L327.601 191.107L361.924 249.888L56.5059 65Z" fill="white"/>
<path d="M147.083 151.577L146.049 152.728L173.956 177.8L174.99 176.649L147.083 151.577Z" fill="#333333"/>
<path d="M187.313 187.708L186.279 188.858L196.314 197.874L197.348 196.723L187.313 187.708Z" fill="#333333"/>
<path d="M56.5059 65L327.601 191.107L258.531 246.52L56.5059 65Z" fill="#333333"/>
<path d="M405.162 301.761C404.778 301.684 404.412 301.534 404.084 301.319L361.441 273.444C360.76 272.993 360.285 272.291 360.119 271.491C359.954 270.691 360.112 269.858 360.559 269.173C361.005 268.489 361.704 268.01 362.504 267.839C363.303 267.668 364.137 267.821 364.824 268.263L407.482 296.141C408.086 296.535 408.533 297.128 408.746 297.816C408.96 298.505 408.926 299.246 408.651 299.912C408.376 300.579 407.877 301.128 407.24 301.466C406.603 301.803 405.868 301.908 405.162 301.761Z" fill="#333333"/>
<path opacity="0.3" d="M405.162 301.761C404.778 301.684 404.412 301.534 404.084 301.319L361.441 273.444C360.76 272.993 360.285 272.291 360.119 271.491C359.954 270.691 360.112 269.858 360.559 269.173C361.005 268.489 361.704 268.01 362.504 267.839C363.303 267.668 364.137 267.821 364.824 268.263L407.482 296.141C408.086 296.535 408.533 297.128 408.746 297.816C408.96 298.505 408.926 299.246 408.651 299.912C408.376 300.579 407.877 301.128 407.24 301.466C406.603 301.803 405.868 301.908 405.162 301.761Z" fill="black"/>
<path d="M407.871 274.586C407.491 274.506 407.131 274.352 406.811 274.132L383.914 259.098C383.571 258.877 383.274 258.591 383.042 258.255C382.811 257.919 382.647 257.541 382.562 257.142C382.477 256.743 382.471 256.331 382.546 255.93C382.621 255.529 382.774 255.146 382.997 254.805C383.22 254.463 383.509 254.169 383.846 253.939C384.183 253.709 384.562 253.549 384.962 253.466C385.362 253.384 385.774 253.381 386.174 253.458C386.575 253.535 386.956 253.691 387.296 253.917L410.203 268.905C410.89 269.352 411.371 270.054 411.542 270.855C411.712 271.657 411.557 272.494 411.112 273.181C410.779 273.718 410.291 274.141 409.711 274.392C409.132 274.643 408.49 274.711 407.871 274.586Z" fill="#333333"/>
<path opacity="0.5" d="M407.871 274.586C407.491 274.506 407.131 274.352 406.811 274.132L383.914 259.098C383.571 258.877 383.274 258.591 383.042 258.255C382.811 257.919 382.647 257.541 382.562 257.142C382.477 256.743 382.471 256.331 382.546 255.93C382.621 255.529 382.774 255.146 382.997 254.805C383.22 254.463 383.509 254.169 383.846 253.939C384.183 253.709 384.562 253.549 384.962 253.466C385.362 253.384 385.774 253.381 386.174 253.458C386.575 253.535 386.956 253.691 387.296 253.917L410.203 268.905C410.89 269.352 411.371 270.054 411.542 270.855C411.712 271.657 411.557 272.494 411.112 273.181C410.779 273.718 410.291 274.141 409.711 274.392C409.132 274.643 408.49 274.711 407.871 274.586Z" fill="white"/>
<path d="M350.379 290.128C350.002 290.046 349.642 289.898 349.317 289.69L307.729 262.441C307.386 262.221 307.09 261.934 306.858 261.598C306.626 261.263 306.463 260.884 306.377 260.485C306.292 260.086 306.287 259.674 306.362 259.273C306.436 258.872 306.589 258.49 306.813 258.148C307.036 257.806 307.324 257.512 307.661 257.282C307.998 257.053 308.378 256.892 308.777 256.809C309.177 256.727 309.589 256.724 309.99 256.801C310.39 256.879 310.772 257.035 311.112 257.26L352.712 284.447C353.315 284.842 353.762 285.434 353.976 286.123C354.189 286.811 354.155 287.552 353.88 288.219C353.605 288.885 353.106 289.434 352.469 289.772C351.832 290.11 351.098 290.214 350.392 290.068L350.379 290.128Z" fill="#333333"/>
<path opacity="0.3" d="M350.379 290.128C350.002 290.046 349.642 289.898 349.317 289.69L307.729 262.441C307.386 262.221 307.09 261.934 306.858 261.598C306.626 261.263 306.463 260.884 306.377 260.485C306.292 260.086 306.287 259.674 306.362 259.273C306.436 258.872 306.589 258.49 306.813 258.148C307.036 257.806 307.324 257.512 307.661 257.282C307.998 257.053 308.378 256.892 308.777 256.809C309.177 256.727 309.589 256.724 309.99 256.801C310.39 256.879 310.772 257.035 311.112 257.26L352.712 284.447C353.315 284.842 353.762 285.434 353.976 286.123C354.189 286.811 354.155 287.552 353.88 288.219C353.605 288.885 353.106 289.434 352.469 289.772C351.832 290.11 351.098 290.214 350.392 290.068L350.379 290.128Z" fill="black"/>
<path fill-rule="evenodd" clip-rule="evenodd" d="M520.606 138.777C522.808 138.656 524.989 138.556 527.186 138.371C527.659 138.333 528.007 137.923 527.966 137.455C527.926 136.984 527.509 136.635 527.039 136.674C524.853 136.856 522.692 136.956 520.504 137.075C520.032 137.103 519.672 137.505 519.7 137.971C519.729 138.442 520.133 138.804 520.606 138.777Z" fill="black"/>
<path fill-rule="evenodd" clip-rule="evenodd" d="M510.578 123.557C515.559 118.718 520.291 113.631 525.165 108.689C525.495 108.353 525.489 107.814 525.152 107.485C524.813 107.155 524.273 107.156 523.939 107.492C519.075 112.426 514.354 117.506 509.381 122.334C509.042 122.663 509.038 123.202 509.367 123.539C509.7 123.878 510.241 123.884 510.578 123.557Z" fill="black"/>
<path fill-rule="evenodd" clip-rule="evenodd" d="M487.715 113.069C488.908 107.326 489.942 101.54 491.2 95.8112C491.298 95.3528 491.006 94.8984 490.546 94.7957C490.084 94.6918 489.627 94.9841 489.526 95.4413C488.269 101.178 487.232 106.97 486.04 112.721C485.945 113.18 486.241 113.633 486.703 113.729C487.168 113.826 487.618 113.532 487.715 113.069Z" fill="black"/>
</svg>
