<svg width="331" height="195" viewBox="0 0 331 195" fill="none" xmlns="http://www.w3.org/2000/svg">
<path d="M41.1924 96.3046C41.379 96.8125 64.2759 120.145 64.2759 120.145L69.6037 115.387L46.0226 91.3604L41.1924 96.3046Z" fill="#A6A6A6"/>
<path d="M36.0294 158.817C11.6916 100.388 67.0424 81.9172 104.347 66.3796L132.406 54.6875L142.357 78.6832L139.247 85.9389L116.806 95.2677C81.4709 109.986 54.801 119.17 66.0784 146.224C77.3559 173.277 102.357 160.196 137.723 145.477L165.368 133.961L175.391 158.009L172.281 165.213L149.478 174.739C112.204 190.318 60.3775 217.236 36.0294 158.817Z" fill="#37474F"/>
<g opacity="0.1">
<path opacity="0.1" d="M36.0294 158.817C11.6916 100.388 67.0424 81.9172 104.347 66.3796L132.406 54.6875L142.357 78.6832L139.247 85.9389L116.806 95.2677C81.4709 109.986 54.801 119.17 66.0784 146.224C77.3559 173.277 102.357 160.196 137.723 145.477L165.368 133.961L175.391 158.009L172.281 165.213L149.478 174.739C112.204 190.318 60.3775 217.236 36.0294 158.817Z" fill="black"/>
</g>
<path d="M111.655 91.453L110.391 97.9935L139.331 85.9283L142.399 78.6519L111.655 91.453Z" fill="#C7C7C7"/>
<path d="M144.7 170.768L143.436 177.309L172.375 165.244L175.444 157.967L144.7 170.768Z" fill="#C7C7C7"/>
<path d="M33.8946 153.687C9.55687 95.2677 64.9076 76.7967 102.212 61.2487L130.271 49.5566L142.357 78.6832L114.713 90.199C79.3776 104.918 52.7077 114.101 63.9851 141.165C75.2626 168.229 100.264 155.138 135.63 140.419L163.274 128.893L175.402 157.988L147.343 169.68C110.069 185.197 58.2427 212.105 33.8946 153.687Z" fill="#37474F"/>
<path d="M130.271 49.5566L142.357 78.6832L114.713 90.199L111.603 91.4843L99.4756 62.3993L102.16 61.2798L130.271 49.5566Z" fill="#DBDBDB"/>
<path d="M144.7 170.769L132.583 141.684L135.693 140.388L163.337 128.862L175.464 157.957L147.405 169.649L144.7 170.769Z" fill="#DBDBDB"/>
<path d="M175.919 133.07L178.324 129.96C179.153 128.924 179.889 127.887 180.791 126.851C181.738 125.863 182.917 125.129 184.222 124.715C185.541 124.312 186.937 124.227 188.295 124.467C188.921 124.621 189.554 124.742 190.192 124.829C190.812 124.897 191.438 124.897 192.058 124.829C193.291 124.671 194.464 124.204 195.468 123.471C195.969 123.105 196.425 122.681 196.826 122.207L198.07 120.694C198.922 119.588 200.028 118.703 201.293 118.113C202.573 117.536 203.978 117.293 205.377 117.408C206.06 117.472 206.736 117.593 207.398 117.771C208.002 117.923 208.621 118.01 209.243 118.03C210.488 118.076 211.723 117.801 212.83 117.232C213.945 116.657 214.913 115.835 215.66 114.827C216.45 113.707 217.485 112.782 218.686 112.121C219.888 111.471 221.237 111.139 222.604 111.157C223.937 111.252 225.253 111.509 226.522 111.925L230.326 112.961L226.45 112.194C225.199 111.857 223.91 111.679 222.615 111.665C221.344 111.701 220.103 112.058 219.008 112.702C217.92 113.361 216.993 114.253 216.292 115.314C215.511 116.465 214.456 117.403 213.222 118.044C211.988 118.685 210.613 119.008 209.223 118.983C208.525 118.967 207.83 118.881 207.15 118.724C206.54 118.559 205.915 118.454 205.284 118.413C204.049 118.32 202.811 118.545 201.687 119.066C200.555 119.581 199.564 120.359 198.795 121.336L197.52 122.85C196.149 124.453 194.225 125.482 192.13 125.731C191.442 125.82 190.745 125.82 190.057 125.731C189.397 125.624 188.743 125.482 188.098 125.306C186.863 125.027 185.577 125.06 184.357 125.402C183.138 125.744 182.022 126.384 181.112 127.265C179.371 129.079 177.691 131.142 175.919 133.07Z" fill="#263238"/>
<path d="M178.812 143.092L181.206 139.983C182.035 138.946 182.771 137.91 183.683 136.873C184.629 135.882 185.809 135.144 187.114 134.728C188.43 134.323 189.823 134.241 191.177 134.489C191.872 134.624 192.452 134.779 193.085 134.842C193.701 134.914 194.324 134.914 194.94 134.842C196.801 134.595 198.503 133.659 199.708 132.219L200.952 130.706C201.809 129.6 202.918 128.716 204.186 128.125C205.467 127.555 206.872 127.316 208.27 127.43C208.949 127.486 209.622 127.604 210.281 127.783C210.889 127.933 211.51 128.024 212.136 128.052C213.38 128.086 214.613 127.809 215.722 127.244C216.832 126.665 217.795 125.843 218.542 124.839C219.338 123.724 220.372 122.8 221.568 122.134C222.774 121.483 224.127 121.151 225.497 121.17C226.826 121.265 228.138 121.522 229.405 121.937L233.209 122.973L229.342 122.206C228.09 121.875 226.802 121.698 225.507 121.678C224.234 121.715 222.99 122.071 221.89 122.714C220.803 123.37 219.878 124.263 219.184 125.326C218.404 126.478 217.349 127.417 216.115 128.059C214.881 128.702 213.506 129.027 212.115 129.006C211.417 128.986 210.722 128.896 210.042 128.736C209.431 128.574 208.807 128.47 208.176 128.425C206.945 128.338 205.711 128.562 204.59 129.078C203.458 129.593 202.467 130.371 201.698 131.348L200.402 132.82C199.946 133.348 199.428 133.817 198.858 134.22C197.723 135.032 196.399 135.542 195.012 135.702C194.324 135.785 193.628 135.785 192.939 135.702C192.266 135.609 191.571 135.401 190.991 135.266C189.754 134.988 188.467 135.022 187.245 135.364C186.024 135.706 184.907 136.345 183.994 137.226C182.263 139.091 180.574 141.154 178.812 143.092Z" fill="#263238"/>
<path d="M181.744 153.106L184.149 149.996C184.978 148.96 185.714 147.923 186.616 146.887C187.563 145.899 188.743 145.165 190.047 144.751C191.364 144.338 192.762 144.252 194.12 144.503C194.815 144.637 195.395 144.793 196.017 144.855C196.637 144.933 197.263 144.933 197.883 144.855C199.118 144.706 200.293 144.238 201.293 143.497C201.792 143.132 202.247 142.711 202.651 142.243L203.895 140.719C204.75 139.616 205.855 138.732 207.118 138.138C208.404 137.568 209.811 137.33 211.213 137.444C211.892 137.5 212.565 137.618 213.224 137.796C213.828 137.947 214.446 138.037 215.069 138.066C216.312 138.1 217.544 137.826 218.655 137.268C219.769 136.687 220.737 135.861 221.485 134.852C222.281 133.738 223.315 132.814 224.511 132.147C225.719 131.5 227.07 131.169 228.44 131.183C229.769 131.278 231.081 131.536 232.348 131.95L236.152 132.987L232.285 132.22C231.03 131.888 229.738 131.71 228.44 131.691C227.17 131.728 225.929 132.085 224.833 132.728C223.746 133.384 222.821 134.277 222.127 135.34C221.344 136.491 220.288 137.431 219.052 138.073C217.816 138.715 216.44 139.04 215.048 139.019C214.35 139 213.655 138.91 212.975 138.75C212.363 138.594 211.739 138.49 211.109 138.439C209.875 138.357 208.639 138.581 207.512 139.092C206.381 139.606 205.389 140.385 204.62 141.362L203.345 142.875C201.975 144.479 200.05 145.507 197.956 145.757C197.267 145.84 196.571 145.84 195.882 145.757C195.198 145.663 194.514 145.456 193.923 145.321C192.688 145.042 191.402 145.075 190.182 145.417C188.963 145.759 187.847 146.4 186.937 147.28C185.154 149.105 183.465 151.167 181.744 153.106Z" fill="#263238"/>
<path d="M144.668 56.2831L147.062 53.1735C147.892 52.137 148.627 51.1005 149.54 50.0639C150.483 49.0722 151.664 48.3373 152.971 47.9287C154.286 47.5255 155.679 47.4402 157.034 47.6799C157.663 47.8351 158.299 47.9562 158.941 48.0427C159.558 48.1102 160.18 48.1102 160.796 48.0427C162.029 47.8845 163.202 47.4174 164.207 46.6848C164.712 46.3241 165.169 45.899 165.564 45.4203L166.808 43.9069C167.663 42.7987 168.772 41.9132 170.042 41.326C171.322 40.7492 172.727 40.5066 174.126 40.6211C174.806 40.6802 175.479 40.8017 176.137 40.9839C176.745 41.1361 177.367 41.223 177.992 41.2431C179.236 41.2859 180.471 41.0112 181.579 40.4449C182.688 39.8663 183.652 39.0442 184.398 38.0402C185.192 36.923 186.226 35.9984 187.425 35.3348C188.631 34.6841 189.983 34.3523 191.353 34.3709C192.669 34.4727 193.967 34.7337 195.22 35.1483L199.024 36.1848L195.22 35.3763C193.965 35.0394 192.673 34.8618 191.374 34.8477C190.104 34.8861 188.864 35.2425 187.767 35.8842C186.68 36.5406 185.756 37.4334 185.062 38.4963C184.28 39.6466 183.225 40.5844 181.991 41.225C180.757 41.8656 179.383 42.1889 177.992 42.1656C177.294 42.1492 176.6 42.0624 175.919 41.9064C175.31 41.7391 174.685 41.6349 174.054 41.5955C172.822 41.5044 171.588 41.7292 170.467 42.2485C169.338 42.7485 168.346 43.5128 167.575 44.477L166.3 45.9904C165.844 46.5176 165.325 46.9875 164.756 47.3897C163.622 48.2031 162.298 48.7101 160.91 48.8616C160.223 48.9549 159.525 48.9549 158.837 48.8616C158.18 48.7562 157.529 48.6108 156.889 48.4262C155.65 48.1513 154.364 48.1873 153.143 48.5309C151.922 48.8746 150.805 49.5152 149.892 50.3956C148.12 52.2925 146.43 54.3552 144.668 56.2831Z" fill="#263238"/>
<path d="M147.539 66.2962L149.944 63.1866C150.773 62.1501 151.509 61.1136 152.411 60.077C153.359 59.0984 154.534 58.3686 155.831 57.9521C157.15 57.5467 158.548 57.465 159.905 57.7137C160.599 57.8485 161.18 58.004 161.802 58.0661C162.422 58.1335 163.047 58.1335 163.667 58.0661C164.903 57.917 166.078 57.449 167.078 56.7083C167.579 56.342 168.035 55.9175 168.436 55.4437L169.679 53.9304C170.535 52.8274 171.64 51.9429 172.903 51.3494C174.186 50.7823 175.588 50.5403 176.987 50.6446C177.67 50.7088 178.346 50.8301 179.008 51.0074C179.612 51.1596 180.231 51.2464 180.853 51.2665C182.097 51.3126 183.332 51.0377 184.44 50.4684C185.555 49.8941 186.523 49.0713 187.269 48.0636C188.06 46.944 189.095 46.0189 190.296 45.3583C191.498 44.7075 192.847 44.3757 194.214 44.3943C195.547 44.4885 196.862 44.7461 198.132 45.1613L201.936 46.1979L198.07 45.4308C196.815 45.0939 195.523 44.9163 194.224 44.9022C192.954 44.938 191.713 45.2945 190.617 45.9387C189.555 46.5863 188.649 47.4606 187.964 48.499C187.182 49.6508 186.125 50.5895 184.889 51.2302C183.653 51.8709 182.276 52.1933 180.884 52.1683C180.186 52.1578 179.491 52.0709 178.811 51.9091C178.2 51.7485 177.576 51.6444 176.945 51.5982C175.711 51.5112 174.474 51.7358 173.349 52.2512C172.217 52.7658 171.225 53.5442 170.457 54.5212L169.182 56.0345C167.811 57.6381 165.887 58.6669 163.792 58.9161C163.103 58.9999 162.407 58.9999 161.719 58.9161C161.035 58.8228 160.351 58.6155 159.76 58.4808C158.524 58.2016 157.239 58.2345 156.019 58.5766C154.799 58.9186 153.684 59.5589 152.774 60.4398C151.011 62.3056 149.322 64.3683 147.539 66.2962Z" fill="#263238"/>
<path d="M150.441 76.3195L152.846 73.2099C153.675 72.1734 154.401 71.1369 155.313 70.1003C156.262 69.1128 157.441 68.3756 158.744 67.9547C160.06 67.5498 161.453 67.468 162.807 67.7163C163.502 67.8511 164.082 68.0065 164.714 68.0687C165.33 68.1466 165.954 68.1466 166.57 68.0687C168.431 67.8219 170.133 66.8862 171.338 65.4463L172.582 63.933C173.439 62.8276 174.548 61.9427 175.816 61.352C177.097 60.7822 178.502 60.5434 179.9 60.6575C180.579 60.7133 181.252 60.8312 181.911 61.01C182.519 61.1604 183.14 61.2507 183.766 61.2795C185.009 61.3134 186.241 61.0392 187.352 60.4813C188.461 59.8967 189.424 59.0715 190.172 58.0662C190.97 56.9532 192.003 56.0295 193.198 55.3609C194.406 54.7148 195.757 54.3833 197.127 54.3969C198.456 54.4911 199.768 54.7487 201.034 55.1639L204.839 56.2004L200.972 55.4334C199.72 55.1023 198.432 54.9247 197.137 54.9048C195.864 54.9419 194.62 55.2983 193.52 55.9413C192.433 56.5977 191.508 57.4905 190.814 58.5534C190.034 59.7057 188.98 60.6455 187.745 61.2879C186.511 61.9304 185.136 62.2552 183.745 62.2331C183.047 62.2133 182.352 62.123 181.672 61.9636C181.06 61.8063 180.436 61.7023 179.806 61.6526C178.575 61.57 177.343 61.7944 176.22 62.3056C175.088 62.8202 174.097 63.5986 173.328 64.5756L172.053 66.089C171.597 66.6162 171.078 67.0861 170.509 67.4883C169.373 68.3005 168.05 68.8106 166.663 68.9705C165.975 69.0535 165.279 69.0535 164.59 68.9705C163.916 68.8772 163.222 68.6699 162.641 68.5352C161.404 68.257 160.117 68.2904 158.896 68.6324C157.675 68.9743 156.558 69.614 155.645 70.4942C153.893 72.3185 152.204 74.3812 150.441 76.3195Z" fill="#263238"/>
<path d="M253.949 80.4556L198.143 66.3692L210.063 19.1655L242.434 8.48926L265.87 33.252L253.949 80.4556Z" fill="#37474F"/>
<path opacity="0.2" d="M253.949 80.4556L198.143 66.3692L210.063 19.1655L242.434 8.48926L265.87 33.252L253.949 80.4556Z" fill="black"/>
<path d="M251.721 76.0503L202.206 63.5601L218.241 0L255.007 9.27695L264.699 24.6073L251.721 76.0503Z" fill="#EBEBEB"/>
<path d="M255.007 9.27734L264.699 24.6076L251.949 21.384L255.007 9.27734Z" fill="#DBDBDB"/>
<path d="M262.884 45.0682L253.949 80.4553L198.143 66.3689L207.077 31.0024C209.151 32.9615 211.13 34.9827 213.152 36.9729C215.173 38.963 217.163 41.005 219.143 43.0366C221.361 45.2824 223.565 47.5558 225.756 49.8569H225.849H225.766C227.411 51.5638 229.055 53.2913 230.7 55.0396C232.96 54.3037 235.219 53.5677 237.479 52.8525V52.78L237.551 52.8422C240.564 51.8678 243.584 50.9108 246.611 49.971C249.32 49.1279 252.032 48.3021 254.748 47.4937C257.411 46.6437 260.148 45.8145 262.884 45.0682Z" fill="#37474F"/>
<g opacity="0.2">
<path opacity="0.2" d="M262.885 45.0684C260.231 46.1049 257.547 47.0171 254.883 48.0018C252.219 48.9865 249.534 49.8986 246.85 50.8211C244.165 51.7437 241.242 52.7387 238.433 53.682L238.174 53.7753L230.711 56.2526L230.348 56.3666L230.089 56.0971L224.699 50.3754L224.513 50.1681C222.481 48.0121 220.463 45.8389 218.459 43.6483C216.542 41.5753 214.624 39.5022 212.727 37.367C210.83 35.2317 208.934 33.1379 207.078 30.9819C209.151 32.941 211.131 34.9622 213.152 36.9523C215.173 38.9425 217.164 40.9845 219.143 43.0161C221.362 45.2619 223.566 47.5353 225.756 49.8364C227.401 51.5433 229.046 53.2708 230.69 55.0191C232.95 54.2831 235.21 53.5472 237.469 52.832C240.482 51.8577 243.502 50.9006 246.528 49.9608C249.237 49.1178 251.95 48.292 254.665 47.4835C257.412 46.6439 260.149 45.8147 262.885 45.0684Z" fill="black"/>
<path opacity="0.2" d="M225.85 49.8052H225.767L224.73 50.3338C223.044 51.1561 221.317 51.9301 219.548 52.6556C217.475 53.5678 215.287 54.4074 213.131 55.2366C210.976 56.0658 208.82 56.9158 206.622 57.5999C204.425 58.284 202.227 59.0303 199.988 59.673C202.061 58.6364 204.134 57.6724 206.28 56.7707C208.426 55.8689 210.551 55.0293 212.696 54.2001C214.842 53.3708 217.018 52.5934 219.216 51.8679C220.957 51.277 222.719 50.7173 224.502 50.2198L225.746 49.8881L225.85 49.8052Z" fill="black"/>
<path opacity="0.2" d="M255.536 73.6349C253.836 72.0593 252.219 70.3905 250.654 68.7113C249.089 67.0322 247.544 65.3115 246.021 63.5805C244.497 61.8495 243.025 60.0667 241.595 58.2631C240.423 56.8016 239.273 55.309 238.174 53.7749C237.936 53.4536 237.708 53.1219 237.479 52.8006V52.728L237.552 52.7902L238.485 53.6816C239.822 54.9669 241.097 56.2937 242.362 57.6412C243.947 59.3204 245.471 61.041 246.984 62.8238C248.498 64.6067 249.98 66.3273 251.41 68.1412C252.841 69.9552 254.209 71.7276 255.536 73.6349Z" fill="black"/>
</g>
<path d="M330.705 167.68L286.414 180.429L275.624 142.958L293.732 122.528L319.925 130.209L330.705 167.68Z" fill="#37474F"/>
<path opacity="0.2" d="M330.705 167.68L286.414 180.429L275.624 142.958L293.732 122.528L319.925 130.209L330.705 167.68Z" fill="black"/>
<path d="M327.388 165.534L288.083 176.843L273.571 126.395L302.75 117.999L315.634 124.695L327.388 165.534Z" fill="#EBEBEB"/>
<path d="M302.75 117.999L315.634 124.695L305.518 127.608L302.75 117.999Z" fill="#DBDBDB"/>
<path d="M322.62 139.59L330.705 167.68L286.435 180.429L278.35 152.339C280.557 152.868 282.755 153.459 284.952 154.029C287.15 154.599 289.358 155.19 291.545 155.801C293.991 156.465 296.427 157.159 298.873 157.874V157.936L304.367 159.502C305.631 158.082 306.896 156.662 308.171 155.262C308.171 155.262 308.171 155.262 308.108 155.262H308.202C309.902 153.376 311.605 151.496 313.312 149.623C314.846 147.958 316.39 146.293 317.945 144.627C319.49 142.886 321.034 141.217 322.62 139.59Z" fill="#37474F"/>
<g opacity="0.2">
<path opacity="0.2" d="M322.62 139.59C321.2 141.362 319.718 143.093 318.277 144.845C316.836 146.597 315.333 148.317 313.851 150.028C312.369 151.738 310.741 153.614 309.176 155.397L309.041 155.573L304.895 160.289L304.688 160.517L304.398 160.434L298.365 158.641L298.147 158.579C295.867 157.905 293.597 157.221 291.327 156.506C289.057 155.791 286.994 155.159 284.828 154.433C282.662 153.707 280.495 153.044 278.35 152.298C280.557 152.826 282.755 153.417 284.952 153.987C287.15 154.557 289.358 155.148 291.545 155.76C293.991 156.423 296.427 157.118 298.873 157.833L304.367 159.398C305.631 157.978 306.896 156.558 308.171 155.159C309.871 153.272 311.574 151.392 313.281 149.52C314.815 147.854 316.359 146.189 317.914 144.524C319.49 142.886 321.034 141.217 322.62 139.59Z" fill="black"/>
<path opacity="0.2" d="M298.874 157.802V157.864L298.355 158.652C297.505 159.906 296.635 161.139 295.722 162.342C294.624 163.824 293.473 165.265 292.323 166.716C291.172 168.167 289.98 169.556 288.757 170.945C287.534 172.334 286.29 173.702 284.974 175.008C286.01 173.443 287.047 171.899 288.166 170.468C289.286 169.038 290.415 167.535 291.566 166.104C292.717 164.674 293.919 163.244 295.142 161.855C296.106 160.756 297.101 159.647 298.138 158.59L298.863 157.854L298.874 157.802Z" fill="black"/>
<path opacity="0.2" d="M329.047 162.321C327.244 161.917 325.451 161.419 323.689 160.891C321.926 160.362 320.164 159.782 318.413 159.201C316.661 158.621 314.93 157.978 313.23 157.304C311.831 156.765 310.431 156.206 309.084 155.584L308.203 155.19C308.203 155.19 308.203 155.19 308.141 155.19H308.203L309.239 155.428C310.68 155.781 312.1 156.185 313.52 156.61C315.293 157.139 317.044 157.709 318.786 158.3C320.527 158.89 322.269 159.523 323.968 160.196C325.668 160.87 327.368 161.534 329.047 162.321Z" fill="black"/>
</g>
<path d="M127.719 39.9948L125.938 65.0259L165.412 67.8347L167.194 42.8036L127.719 39.9948Z" fill="#37474F"/>
<path opacity="0.2" d="M167.234 42.8193C165.534 44.2289 163.803 45.5764 162.051 46.9654C160.299 48.3543 158.599 49.6707 156.868 51.0079C155.137 52.345 153.24 53.7858 151.426 55.154L151.271 55.2887L146.503 58.8959L146.265 59.0721L146.057 58.8648L141.797 54.5942C141.744 54.5475 141.695 54.4954 141.652 54.4388C140.045 52.8321 138.439 51.2048 136.853 49.5567C135.267 47.9086 133.805 46.4471 132.292 44.8301C130.779 43.2131 129.276 41.648 127.783 40.0103C129.39 41.4303 130.955 42.9229 132.541 44.3844C134.127 45.8459 135.65 47.3489 137.247 48.8519C138.988 50.5172 140.716 52.2033 142.429 53.9101L146.327 57.7246C147.778 56.688 149.25 55.5582 150.711 54.501C152.67 53.0705 154.619 51.6401 156.588 50.2305C158.34 48.9762 160.113 47.722 161.875 46.4886C163.637 45.2551 165.42 44.0009 167.234 42.8193Z" fill="black"/>
<path opacity="0.2" d="M142.429 54.4801H142.377L141.714 54.9673C140.677 55.7239 139.641 56.4599 138.511 57.1647C137.184 58.0354 135.837 58.8543 134.479 59.6835C133.121 60.5127 131.742 61.2797 130.333 62.0364C128.923 62.7931 127.534 63.5394 126.083 64.2028C127.358 63.2388 128.674 62.3474 129.991 61.487C131.307 60.6267 132.675 59.7871 134.033 58.9683C135.391 58.1494 136.77 57.3616 138.179 56.605C139.288 55.9934 140.418 55.4026 141.558 54.8532L142.367 54.4697L142.429 54.4801Z" fill="black"/>
<path opacity="0.2" d="M165.388 67.0428C164.051 66.1722 162.756 65.2393 161.491 64.296C160.226 63.3528 158.972 62.3681 157.739 61.373C156.505 60.378 155.282 59.3622 154.101 58.2634C153.126 57.4135 152.173 56.5428 151.25 55.641L150.659 55.0605H150.607H150.67C150.918 55.2264 151.167 55.3819 151.406 55.5581C152.442 56.2629 153.479 57.0092 154.515 57.7659C155.78 58.7091 157.024 59.6938 158.257 60.6889C159.49 61.684 160.703 62.6998 161.895 63.7985C163.087 64.8972 164.259 65.9027 165.388 67.0428Z" fill="black"/>
<path opacity="0.2" d="M326.942 47.6392C325.906 48.769 324.797 49.847 323.729 50.9457C322.661 52.0444 321.573 53.1224 320.485 54.19C319.396 55.2577 318.215 56.4186 317.075 57.5277C317.043 57.5648 317.008 57.5994 316.971 57.6313L313.944 60.5543L313.789 60.6891L313.633 60.5647L310.275 57.9526L310.161 57.8594C308.907 56.8228 307.663 55.8899 306.419 54.8845C305.175 53.8791 304.045 52.9669 302.864 52.003C301.682 51.039 300.5 50.0543 299.329 49.0385C300.563 49.8988 301.775 50.7902 302.988 51.6713L306.637 54.3559C307.984 55.3924 309.332 56.4289 310.669 57.4655L313.695 59.7769C314.608 58.9063 315.53 58.0252 316.453 57.1649L320.153 53.7132C321.266 52.6905 322.382 51.6747 323.501 50.6658C324.693 49.6604 325.823 48.6239 326.942 47.6392Z" fill="black"/>
<path opacity="0.2" d="M310.772 57.8386L310.358 58.2221C309.705 58.844 309.021 59.4452 308.285 60.0153C307.445 60.7409 306.574 61.425 305.704 62.0884C304.833 62.7518 303.952 63.4255 303.05 64.0682C302.148 64.7108 301.247 65.3431 300.293 65.9339C301.101 65.1565 301.931 64.4309 302.77 63.7157C303.61 63.0005 304.491 62.3164 305.351 61.6427C306.212 60.9689 307.113 60.2952 308.015 59.6525C308.73 59.1343 309.456 58.616 310.202 58.1496L310.731 57.8179L310.772 57.8386Z" fill="black"/>
<path opacity="0.2" d="M327.751 64.5654C326.714 64.0886 325.771 63.5289 324.818 63.0003C323.864 62.4716 322.91 61.8808 321.967 61.3004C321.024 60.7199 320.101 60.1187 319.189 59.4864C318.443 58.9889 317.707 58.4499 316.992 57.9213L316.525 57.5688L317.085 57.8487C317.873 58.2426 318.65 58.6779 319.417 59.1133C320.381 59.6626 321.325 60.2327 322.257 60.8236C323.19 61.4144 324.134 62.0052 325.046 62.6271C325.958 63.249 326.86 63.8813 327.751 64.5654Z" fill="black"/>
<path d="M140.306 61.4885L128.562 74.4722L149.033 92.9886L160.777 80.0049L140.306 61.4885Z" fill="white"/>
<path d="M149.032 92.9665L138.719 83.9176L128.353 74.7029L128.104 74.4748L128.333 74.226L140.035 61.2072L140.294 60.917L140.584 61.1761C147.374 67.3953 154.215 73.5419 160.963 79.8337L161.149 80.0099L160.983 80.1965C156.972 84.5084 152.94 88.7375 149.032 92.9665ZM149.032 92.9665C152.95 88.5405 156.744 84.1146 160.589 79.813V80.1654C153.686 74.0809 146.866 67.8928 140.014 61.7566H140.564L128.778 74.7029V74.2364L138.864 83.5652L149.032 92.9665Z" fill="#C7C7C7"/>
<path opacity="0.2" d="M160.776 79.9786C159.231 79.9786 157.666 79.9786 156.163 80.0511H151.582C149.985 80.0511 148.4 80.0511 146.814 79.9889H146.658L142.45 79.906H142.253V79.7091L141.755 75.563C141.755 75.563 141.755 75.4697 141.755 75.4178C141.569 73.8423 141.382 72.3082 141.216 70.6705C141.051 69.0328 140.895 67.6439 140.75 66.1202C140.605 64.5965 140.46 63.0624 140.346 61.5283C140.615 63.0002 140.833 64.4928 141.082 65.975C141.33 67.4573 141.538 68.9602 141.745 70.4529C141.983 72.1217 142.211 73.7905 142.429 75.48C142.605 76.7342 142.761 77.9884 142.927 79.2426L146.731 79.3567C148.417 79.4119 150.106 79.4741 151.799 79.5432C153.302 79.6054 154.816 79.6676 156.319 79.7505C157.822 79.8335 159.283 79.8646 160.776 79.9786Z" fill="black"/>
<path opacity="0.2" d="M142.139 75.7393H141.569C140.668 75.7393 139.766 75.646 138.864 75.5631C137.765 75.4801 136.667 75.3454 135.568 75.2107C134.469 75.0759 133.381 74.9204 132.282 74.7338C131.183 74.5473 130.105 74.3607 129.027 74.1016C130.136 74.1016 131.235 74.1949 132.344 74.2881C133.453 74.3814 134.542 74.5058 135.64 74.6406C136.739 74.7753 137.827 74.9308 138.926 75.1174C139.797 75.2625 140.668 75.418 141.538 75.6149L142.139 75.7496V75.7393Z" fill="black"/>
<path d="M284.658 88.2909L248.03 103.276L257.532 126.502L294.16 111.517L284.658 88.2909Z" fill="white"/>
<path d="M294.157 111.52L275.997 119.17L257.661 126.819L257.35 126.944L257.225 126.633L247.669 103.425L247.523 103.062L247.886 102.917C260.107 97.9624 272.307 92.9559 284.559 88.0635L284.797 87.9702L284.89 88.1983L294.157 111.52ZM294.157 111.52L284.424 88.3952L284.756 88.5299C272.587 93.6297 260.366 98.605 248.176 103.643L248.394 103.135L257.837 126.363L257.402 126.177L275.696 118.838L294.157 111.52Z" fill="#C7C7C7"/>
<path opacity="0.2" d="M284.652 88.2915C283.75 90.3646 282.807 92.2925 281.884 94.293C280.962 96.2935 279.987 98.2422 279.023 100.212C278.059 102.181 277.013 104.306 275.986 106.338C275.986 106.4 275.935 106.462 275.903 106.534C275.005 108.324 274.096 110.117 273.177 111.914L273.043 112.173L272.773 112.09L267.052 110.142L266.855 110.079C264.699 109.347 262.543 108.597 260.387 107.83C258.314 107.105 256.24 106.358 254.167 105.612C252.094 104.866 250.021 104.088 247.948 103.28C250.021 103.85 252.094 104.492 254.167 105.094C256.24 105.695 258.314 106.358 260.387 107.011C262.677 107.737 264.989 108.473 267.29 109.24L272.473 110.94C273.302 109.323 274.131 107.695 274.971 106.099C276.083 103.943 277.206 101.798 278.339 99.6623C279.376 97.755 280.412 95.8478 281.449 93.9613C282.485 92.0749 283.574 90.1573 284.652 88.2915Z" fill="black"/>
<path opacity="0.2" d="M267.623 109.779V109.831L267.249 110.556C266.648 111.707 266.006 112.837 265.342 113.946C264.544 115.314 263.694 116.651 262.844 117.988C261.994 119.325 261.113 120.631 260.191 121.937C259.268 123.243 258.346 124.518 257.351 125.762C258.066 124.332 258.843 122.953 259.652 121.616C260.46 120.279 261.3 118.911 262.15 117.574C263 116.236 263.891 114.92 264.803 113.624C265.529 112.588 266.275 111.551 267.063 110.515C267.239 110.276 267.426 110.048 267.612 109.82L267.623 109.779Z" fill="black"/>
<path opacity="0.2" d="M293.763 110.815C292.177 110.629 290.653 110.369 289.057 110.079C287.461 109.789 285.947 109.468 284.393 109.136C282.838 108.804 281.283 108.41 279.78 107.996C278.536 107.664 277.292 107.312 276.059 106.907L275.271 106.659H275.209H275.282L276.163 106.773C277.427 106.939 278.671 107.156 279.925 107.384C281.48 107.664 283.035 107.996 284.579 108.338C286.124 108.68 287.689 109.063 289.192 109.478C290.695 109.893 292.26 110.297 293.763 110.815Z" fill="black"/>
<path d="M169.612 130.358L155.716 167.744L214.672 189.658L228.568 152.271L169.612 130.358Z" fill="white"/>
<path d="M214.665 189.664L185.197 178.915L155.614 168.011L155.345 167.918L155.448 167.648L169.245 130.23L169.379 129.856L169.742 130.002L228.648 152.059L228.856 152.142L228.783 152.349L221.724 171.069L214.665 189.664ZM214.665 189.664L221.507 170.862L228.348 152.204L228.482 152.494L169.473 130.727L169.97 130.499L155.987 167.814L155.811 167.451L185.186 178.47L214.665 189.664Z" fill="#C7C7C7"/>
<path opacity="0.2" d="M228.565 152.277C225.331 153.666 222.097 154.94 218.863 156.298C215.629 157.656 212.395 158.879 209.151 160.144C205.906 161.408 202.392 162.756 199.013 164.041L198.702 164.166L189.716 167.534L189.28 167.69L189.052 167.286C187.518 164.521 185.991 161.716 184.471 158.869C184.409 158.772 184.354 158.672 184.305 158.568C182.577 155.397 180.85 152.201 179.122 148.98C177.491 145.926 175.878 142.844 174.282 139.735C172.716 136.625 171.099 133.515 169.565 130.406C171.379 133.298 173.1 136.273 174.862 139.196C176.624 142.119 178.345 145.125 180.045 148.12C181.952 151.437 183.849 154.785 185.735 158.164L190.037 165.751C192.742 164.715 195.468 163.751 198.174 162.787C201.791 161.481 205.429 160.175 209.037 158.9C212.281 157.77 215.525 156.64 218.78 155.542C222.035 154.443 225.279 153.313 228.565 152.277Z" fill="black"/>
<path opacity="0.2" d="M185.559 159.004H185.455L184.243 159.44C182.294 160.144 180.335 160.777 178.365 161.357C175.961 162.093 173.525 162.756 171.11 163.43C168.695 164.104 166.228 164.653 163.761 165.182C161.294 165.711 158.827 166.218 156.318 166.592C158.692 165.69 161.097 164.923 163.502 164.187C165.906 163.451 168.352 162.798 170.757 162.114C173.162 161.43 175.65 160.88 178.117 160.352C180.076 159.916 182.055 159.522 184.056 159.191L185.445 158.973L185.559 159.004Z" fill="black"/>
<path opacity="0.2" d="M214.966 188.41C213.318 186.493 211.763 184.492 210.25 182.481C208.737 180.47 207.275 178.418 205.824 176.355C204.373 174.293 202.994 172.209 201.678 170.053C200.579 168.322 199.511 166.581 198.506 164.788C198.278 164.404 198.071 164.021 197.863 163.637C197.865 163.61 197.865 163.582 197.863 163.554L197.936 163.627L198.848 164.663C200.144 166.218 201.367 167.773 202.59 169.421C204.103 171.442 205.554 173.495 206.995 175.557C208.436 177.62 209.835 179.703 211.141 181.859C212.447 184.015 213.764 186.182 214.966 188.41Z" fill="black"/>
<path d="M249.429 139.616L221.876 141.277L222.93 158.753L250.482 157.092L249.429 139.616Z" fill="#37474F"/>
<path opacity="0.2" d="M249.431 139.631C248.394 140.761 247.306 141.85 246.249 142.959C245.191 144.068 244.113 145.146 243.035 146.234C241.957 147.322 240.786 148.483 239.656 149.592L239.553 149.706L236.547 152.65L236.391 152.785L236.236 152.661L232.898 150.1L232.784 150.007L229.011 147.094C227.816 146.155 226.624 145.201 225.435 144.234C224.243 143.259 223.051 142.306 221.88 141.311C223.113 142.15 224.336 143.042 225.56 143.902C226.783 144.762 228.006 145.664 229.229 146.566C230.452 147.468 231.945 148.566 233.292 149.582L236.329 151.862C237.241 150.981 238.153 150.1 239.076 149.23L242.756 145.737L246.073 142.627C247.202 141.642 248.301 140.606 249.431 139.631Z" fill="black"/>
<path opacity="0.2" d="M233.355 149.955L232.95 150.349C232.287 150.981 231.613 151.582 230.929 152.163C230.09 152.888 229.229 153.583 228.369 154.236C227.509 154.889 226.627 155.594 225.736 156.247C224.845 156.9 223.933 157.532 222.989 158.123C223.787 157.346 224.617 156.61 225.446 155.894C226.275 155.179 227.146 154.474 228.006 153.821C228.866 153.168 229.758 152.463 230.649 151.81C231.364 151.292 232.09 150.774 232.826 150.287L233.355 149.955Z" fill="black"/>
<path opacity="0.2" d="M250.385 156.547C249.348 156.071 248.405 155.511 247.441 155.003C246.477 154.495 245.524 153.894 244.58 153.334C243.637 152.774 242.704 152.163 241.782 151.541C241.035 151.043 240.289 150.504 239.574 149.986L239.107 149.644L239.667 149.914C240.455 150.307 241.232 150.732 242.01 151.168C242.97 151.707 243.924 152.266 244.871 152.847C245.814 153.427 246.747 154.018 247.659 154.63C248.571 155.241 249.504 155.863 250.385 156.547Z" fill="black"/>
</svg>
