<svg width="281" height="173" viewBox="0 0 281 173" fill="none" xmlns="http://www.w3.org/2000/svg">
<path d="M147.048 130.199H6.88853C3.0841 130.199 0 133.283 0 137.088V162.091C0 165.896 3.0841 168.98 6.88853 168.98H147.048C150.852 168.98 153.936 165.896 153.936 162.091V137.088C153.936 133.283 150.852 130.199 147.048 130.199Z" fill="#2CA6B3"/>
<path d="M148.673 131.825H8.51353C4.7091 131.825 1.625 134.909 1.625 138.714V163.717C1.625 167.522 4.7091 170.606 8.51353 170.606H148.673C152.477 170.606 155.561 167.522 155.561 163.717V138.714C155.561 134.909 152.477 131.825 148.673 131.825Z" fill="#2CA6B3"/>
<path opacity="0.6" d="M148.673 131.825H8.51353C4.7091 131.825 1.625 134.909 1.625 138.714V163.717C1.625 167.522 4.7091 170.606 8.51353 170.606H148.673C152.477 170.606 155.561 167.522 155.561 163.717V138.714C155.561 134.909 152.477 131.825 148.673 131.825Z" fill="#FAFAFA"/>
<path d="M150.3 133.451H10.1405C6.33605 133.451 3.25195 136.535 3.25195 140.34V165.351C3.25195 169.156 6.33605 172.24 10.1405 172.24H150.3C154.104 172.24 157.188 169.156 157.188 165.351V140.34C157.188 136.535 154.104 133.451 150.3 133.451Z" fill="#2CA6B3"/>
<path opacity="0.8" d="M150.3 133.451H10.1405C6.33605 133.451 3.25195 136.535 3.25195 140.34V165.351C3.25195 169.156 6.33605 172.24 10.1405 172.24H150.3C154.104 172.24 157.188 169.156 157.188 165.351V140.34C157.188 136.535 154.104 133.451 150.3 133.451Z" fill="#FAFAFA"/>
<path d="M119.555 140.008H44.7285C43.9157 140.008 43.2568 140.667 43.2568 141.48V144.408C43.2568 145.221 43.9157 145.88 44.7285 145.88H119.555C120.367 145.88 121.026 145.221 121.026 144.408V141.48C121.026 140.667 120.367 140.008 119.555 140.008Z" fill="#2CA6B3"/>
<path d="M78.2466 149.91H44.7285C43.9157 149.91 43.2568 150.569 43.2568 151.381V154.309C43.2568 155.122 43.9157 155.781 44.7285 155.781H78.2466C79.0594 155.781 79.7183 155.122 79.7183 154.309V151.381C79.7183 150.569 79.0594 149.91 78.2466 149.91Z" fill="#2CA6B3"/>
<path d="M110.609 149.91H84.8809C84.0681 149.91 83.4092 150.569 83.4092 151.381V154.309C83.4092 155.122 84.0681 155.781 84.8809 155.781H110.609C111.422 155.781 112.081 155.122 112.081 154.309V151.381C112.081 150.569 111.422 149.91 110.609 149.91Z" fill="#2CA6B3"/>
<path d="M134.511 159.811H44.0582C43.6156 159.811 43.2568 160.17 43.2568 160.612V161.221C43.2568 161.664 43.6156 162.022 44.0582 162.022H134.511C134.953 162.022 135.312 161.664 135.312 161.221V160.612C135.312 160.17 134.953 159.811 134.511 159.811Z" fill="#2CA6B3"/>
<path opacity="0.5" d="M134.511 159.811H44.0582C43.6156 159.811 43.2568 160.17 43.2568 160.612V161.221C43.2568 161.664 43.6156 162.022 44.0582 162.022H134.511C134.953 162.022 135.312 161.664 135.312 161.221V160.612C135.312 160.17 134.953 159.811 134.511 159.811Z" fill="#FAFAFA"/>
<path d="M35.3929 156.058C37.1599 148.635 32.575 141.185 25.1523 139.418C17.7296 137.651 10.2798 142.236 8.51286 149.659C6.74589 157.082 11.3308 164.532 18.7535 166.299C26.1762 168.065 33.626 163.481 35.3929 156.058Z" fill="#2CA6B3"/>
<path d="M33.3565 152.845C33.3565 155.101 32.6877 157.305 31.4346 159.181C30.1815 161.056 28.4005 162.518 26.3167 163.381C24.2329 164.244 21.94 164.47 19.7279 164.03C17.5158 163.59 15.4838 162.504 13.8889 160.909C12.2941 159.314 11.208 157.282 10.768 155.07C10.3279 152.858 10.5538 150.565 11.4169 148.481C12.28 146.397 13.7417 144.616 15.617 143.363C17.4924 142.11 19.6972 141.441 21.9527 141.441C23.454 141.428 24.9429 141.714 26.3325 142.282C27.7221 142.851 28.9846 143.69 30.0462 144.752C31.1078 145.813 31.9473 147.076 32.5157 148.465C33.084 149.855 33.3699 151.344 33.3565 152.845Z" fill="#FAFAFA"/>
<path d="M147.048 85.3237H6.88853C3.0841 85.3237 0 88.4078 0 92.2123V117.216C0 121.02 3.0841 124.104 6.88853 124.104H147.048C150.852 124.104 153.936 121.02 153.936 117.216V92.2123C153.936 88.4078 150.852 85.3237 147.048 85.3237Z" fill="#2CA6B3"/>
<path d="M148.673 86.9492H8.51353C4.7091 86.9492 1.625 90.0333 1.625 93.8378V118.849C1.625 122.654 4.7091 125.738 8.51353 125.738H148.673C152.477 125.738 155.561 122.654 155.561 118.849V93.8378C155.561 90.0333 152.477 86.9492 148.673 86.9492Z" fill="#2CA6B3"/>
<path opacity="0.6" d="M148.673 86.9492H8.51353C4.7091 86.9492 1.625 90.0333 1.625 93.8378V118.849C1.625 122.654 4.7091 125.738 8.51353 125.738H148.673C152.477 125.738 155.561 122.654 155.561 118.849V93.8378C155.561 90.0333 152.477 86.9492 148.673 86.9492Z" fill="#FAFAFA"/>
<path d="M150.3 88.5752H10.1405C6.33605 88.5752 3.25195 91.6593 3.25195 95.4637V120.467C3.25195 124.272 6.33605 127.356 10.1405 127.356H150.3C154.104 127.356 157.188 124.272 157.188 120.467V95.4637C157.188 91.6593 154.104 88.5752 150.3 88.5752Z" fill="#2CA6B3"/>
<path opacity="0.8" d="M150.3 88.5752H10.1405C6.33605 88.5752 3.25195 91.6593 3.25195 95.4637V120.467C3.25195 124.272 6.33605 127.356 10.1405 127.356H150.3C154.104 127.356 157.188 124.272 157.188 120.467V95.4637C157.188 91.6593 154.104 88.5752 150.3 88.5752Z" fill="#FAFAFA"/>
<path d="M67.0277 95.1323H44.7285C43.9157 95.1323 43.2568 95.7912 43.2568 96.604V99.5321C43.2568 100.345 43.9157 101.004 44.7285 101.004H67.0277C67.8405 101.004 68.4994 100.345 68.4994 99.5321V96.604C68.4994 95.7912 67.8405 95.1323 67.0277 95.1323Z" fill="#2CA6B3"/>
<path d="M90.4684 95.1323H73.2471C72.4343 95.1323 71.7754 95.7912 71.7754 96.604V99.5321C71.7754 100.345 72.4343 101.004 73.2471 101.004H90.4684C91.2812 101.004 91.9401 100.345 91.9401 99.5321V96.604C91.9401 95.7912 91.2812 95.1323 90.4684 95.1323Z" fill="#2CA6B3"/>
<path d="M123.022 105.034H44.7285C43.9157 105.034 43.2568 105.693 43.2568 106.505V109.433C43.2568 110.246 43.9157 110.905 44.7285 110.905H123.022C123.835 110.905 124.494 110.246 124.494 109.433V106.505C124.494 105.693 123.835 105.034 123.022 105.034Z" fill="#2CA6B3"/>
<path d="M98.6502 114.935H44.0582C43.6156 114.935 43.2568 115.293 43.2568 115.736V116.345C43.2568 116.787 43.6156 117.146 44.0582 117.146H98.6502C99.0928 117.146 99.4515 116.787 99.4515 116.345V115.736C99.4515 115.293 99.0928 114.935 98.6502 114.935Z" fill="#2CA6B3"/>
<path opacity="0.5" d="M98.6502 114.935H44.0582C43.6156 114.935 43.2568 115.293 43.2568 115.736V116.345C43.2568 116.787 43.6156 117.146 44.0582 117.146H98.6502C99.0928 117.146 99.4515 116.787 99.4515 116.345V115.736C99.4515 115.293 99.0928 114.935 98.6502 114.935Z" fill="#FAFAFA"/>
<path d="M35.3958 111.184C37.1628 103.762 32.5779 96.3119 25.1552 94.5449C17.7325 92.7779 10.2828 97.3628 8.51579 104.786C6.74882 112.208 11.3337 119.658 18.7564 121.425C26.1792 123.192 33.6289 118.607 35.3958 111.184Z" fill="#2CA6B3"/>
<path d="M33.3565 107.97C33.3565 110.225 32.6877 112.43 31.4346 114.305C30.1815 116.181 28.4005 117.642 26.3167 118.505C24.2329 119.369 21.94 119.594 19.7279 119.154C17.5158 118.714 15.4838 117.628 13.8889 116.033C12.2941 114.439 11.208 112.407 10.768 110.194C10.3279 107.982 10.5538 105.689 11.4169 103.606C12.28 101.522 13.7417 99.7408 15.617 98.4878C17.4924 97.2347 19.6972 96.5659 21.9527 96.5659C23.454 96.5525 24.9429 96.8384 26.3325 97.4067C27.7221 97.9751 28.9846 98.8146 30.0462 99.8762C31.1078 100.938 31.9473 102.2 32.5157 103.59C33.084 104.979 33.3699 106.468 33.3565 107.97V107.97Z" fill="#FAFAFA"/>
<path d="M147.048 40.4482H6.88853C3.0841 40.4482 0 43.5323 0 47.3368V72.3481C0 76.1526 3.0841 79.2367 6.88853 79.2367H147.048C150.852 79.2367 153.936 76.1526 153.936 72.3481V47.3368C153.936 43.5323 150.852 40.4482 147.048 40.4482Z" fill="#2CA6B3"/>
<path d="M148.673 42.0737H8.51353C4.7091 42.0737 1.625 45.1578 1.625 48.9623V73.9659C1.625 77.7704 4.7091 80.8545 8.51353 80.8545H148.673C152.477 80.8545 155.561 77.7704 155.561 73.9659V48.9623C155.561 45.1578 152.477 42.0737 148.673 42.0737Z" fill="#2CA6B3"/>
<path opacity="0.6" d="M148.673 42.0737H8.51353C4.7091 42.0737 1.625 45.1578 1.625 48.9623V73.9659C1.625 77.7704 4.7091 80.8545 8.51353 80.8545H148.673C152.477 80.8545 155.561 77.7704 155.561 73.9659V48.9623C155.561 45.1578 152.477 42.0737 148.673 42.0737Z" fill="#FAFAFA"/>
<path d="M150.3 43.6997H10.1405C6.33605 43.6997 3.25195 46.7838 3.25195 50.5882V75.5996C3.25195 79.404 6.33605 82.4881 10.1405 82.4881H150.3C154.104 82.4881 157.188 79.404 157.188 75.5996V50.5882C157.188 46.7838 154.104 43.6997 150.3 43.6997Z" fill="#2CA6B3"/>
<path opacity="0.8" d="M150.3 43.6997H10.1405C6.33605 43.6997 3.25195 46.7838 3.25195 50.5882V75.5996C3.25195 79.404 6.33605 82.4881 10.1405 82.4881H150.3C154.104 82.4881 157.188 79.404 157.188 75.5996V50.5882C157.188 46.7838 154.104 43.6997 150.3 43.6997Z" fill="#FAFAFA"/>
<path d="M119 50.2568H44.7285C43.9157 50.2568 43.2568 50.9157 43.2568 51.7285V54.6566C43.2568 55.4694 43.9157 56.1283 44.7285 56.1283H119C119.813 56.1283 120.472 55.4694 120.472 54.6566V51.7285C120.472 50.9157 119.813 50.2568 119 50.2568Z" fill="#2CA6B3"/>
<path d="M93.9962 60.1582H44.7285C43.9157 60.1582 43.2568 60.8171 43.2568 61.6299V64.5579C43.2568 65.3707 43.9157 66.0296 44.7285 66.0296H93.9962C94.809 66.0296 95.4679 65.3707 95.4679 64.5579V61.6299C95.4679 60.8171 94.809 60.1582 93.9962 60.1582Z" fill="#2CA6B3"/>
<path d="M105.879 60.1582H101.302C100.489 60.1582 99.8301 60.8171 99.8301 61.6299V64.5579C99.8301 65.3707 100.489 66.0296 101.302 66.0296H105.879C106.692 66.0296 107.35 65.3707 107.35 64.5579V61.6299C107.35 60.8171 106.692 60.1582 105.879 60.1582Z" fill="#2CA6B3"/>
<path d="M83.7944 70.0596H44.0582C43.6156 70.0596 43.2568 70.4183 43.2568 70.8609V71.4696C43.2568 71.9122 43.6156 72.271 44.0582 72.271H83.7944C84.2369 72.271 84.5957 71.9122 84.5957 71.4696V70.8609C84.5957 70.4183 84.2369 70.0596 83.7944 70.0596Z" fill="#2CA6B3"/>
<path opacity="0.5" d="M83.7944 70.0596H44.0582C43.6156 70.0596 43.2568 70.4183 43.2568 70.8609V71.4696C43.2568 71.9122 43.6156 72.271 44.0582 72.271H83.7944C84.2369 72.271 84.5957 71.9122 84.5957 71.4696V70.8609C84.5957 70.4183 84.2369 70.0596 83.7944 70.0596Z" fill="#FAFAFA"/>
<path d="M135.166 70.0596H89.6051C89.1625 70.0596 88.8037 70.4183 88.8037 70.8609V71.4696C88.8037 71.9122 89.1625 72.271 89.6051 72.271H135.166C135.609 72.271 135.968 71.9122 135.968 71.4696V70.8609C135.968 70.4183 135.609 70.0596 135.166 70.0596Z" fill="#2CA6B3"/>
<path opacity="0.5" d="M135.166 70.0596H89.6051C89.1625 70.0596 88.8037 70.4183 88.8037 70.8609V71.4696C88.8037 71.9122 89.1625 72.271 89.6051 72.271H135.166C135.609 72.271 135.968 71.9122 135.968 71.4696V70.8609C135.968 70.4183 135.609 70.0596 135.166 70.0596Z" fill="#FAFAFA"/>
<path d="M31.7233 72.8594C37.1186 67.4641 37.1186 58.7166 31.7233 53.3212C26.328 47.9259 17.5804 47.9259 12.1851 53.3212C6.78979 58.7166 6.78979 67.4641 12.1851 72.8594C17.5804 78.2548 26.328 78.2548 31.7233 72.8594Z" fill="#2CA6B3"/>
<path d="M33.3565 63.0937C33.3565 65.3492 32.6877 67.554 31.4346 69.4294C30.1815 71.3047 28.4005 72.7664 26.3167 73.6295C24.2329 74.4926 21.94 74.7185 19.7279 74.2785C17.5158 73.8384 15.4838 72.7523 13.8889 71.1575C12.2941 69.5626 11.208 67.5306 10.768 65.3185C10.3279 63.1064 10.5538 60.8135 11.4169 58.7297C12.28 56.6459 13.7417 54.8649 15.617 53.6118C17.4924 52.3587 19.6972 51.6899 21.9527 51.6899C23.454 51.6765 24.9429 51.9624 26.3325 52.5308C27.7221 53.0991 28.9846 53.9386 30.0462 55.0002C31.1078 56.0618 31.9473 57.3243 32.5157 58.7139C33.084 60.1035 33.3699 61.5925 33.3565 63.0937V63.0937Z" fill="#FAFAFA"/>
<path d="M245.568 54.626L240.514 57.2535L246.177 61.6532C246.177 61.6532 249.983 58.4632 248.489 56.2595L245.568 54.626Z" fill="#2CA6B3"/>
<path d="M237.625 62.6086L242.456 65.9681L246.178 61.6532L240.514 57.2534L237.625 62.6086Z" fill="#2CA6B3"/>
<path d="M263.113 74.0892L127.67 38.0592C125.911 37.5786 124.412 36.4245 123.497 34.8468C122.583 33.2691 122.327 31.3948 122.784 29.6296L129.211 5.46581C129.696 3.71107 130.852 2.21766 132.429 1.30799C134.007 0.398328 135.878 0.145386 137.64 0.603776L273.084 36.626C274.845 37.1066 276.345 38.2618 277.259 39.8413C278.174 41.4208 278.429 43.2971 277.969 45.0633L271.543 69.1809C271.067 70.9442 269.915 72.4486 268.337 73.3676C266.759 74.2866 264.881 74.5459 263.113 74.0892V74.0892Z" fill="#2CA6B3"/>
<path opacity="0.8" d="M263.113 74.0892L127.67 38.0592C125.911 37.5786 124.412 36.4245 123.497 34.8468C122.583 33.2691 122.327 31.3948 122.784 29.6296L129.211 5.46581C129.696 3.71107 130.852 2.21766 132.429 1.30799C134.007 0.398328 135.878 0.145386 137.64 0.603776L273.084 36.626C274.845 37.1066 276.345 38.2618 277.259 39.8413C278.174 41.4208 278.429 43.2971 277.969 45.0633L271.543 69.1809C271.067 70.9442 269.915 72.4486 268.337 73.3676C266.759 74.2866 264.881 74.5459 263.113 74.0892V74.0892Z" fill="#FAFAFA"/>
<path d="M264.262 76.116L128.826 40.0476C127.066 39.5686 125.565 38.4152 124.649 36.8373C123.733 35.2594 123.476 33.3842 123.933 31.618L130.367 7.46187C130.846 5.70143 132 4.20066 133.577 3.28479C135.155 2.36892 137.031 2.11176 138.797 2.56901L274.233 38.599C275.993 39.0779 277.494 40.2313 278.41 41.8092C279.326 43.3871 279.583 45.2624 279.126 47.0286L272.699 71.1923C272.227 72.9602 271.075 74.4697 269.495 75.392C267.914 76.3142 266.034 76.5745 264.262 76.116V76.116Z" fill="#2CA6B3"/>
<path opacity="0.4" d="M264.262 76.116L128.826 40.0476C127.066 39.5686 125.565 38.4152 124.649 36.8373C123.733 35.2594 123.476 33.3842 123.933 31.618L130.367 7.46187C130.846 5.70143 132 4.20066 133.577 3.28479C135.155 2.36892 137.031 2.11176 138.797 2.56901L274.233 38.599C275.993 39.0779 277.494 40.2313 278.41 41.8092C279.326 43.3871 279.583 45.2624 279.126 47.0286L272.699 71.1923C272.227 72.9602 271.075 74.4697 269.495 75.392C267.914 76.3142 266.034 76.5745 264.262 76.116V76.116Z" fill="#FAFAFA"/>
<path d="M265.416 78.0731L129.98 42.0431C128.22 41.5641 126.719 40.4107 125.803 38.8328C124.887 37.255 124.63 35.3797 125.088 33.6135L131.514 9.44971C131.994 7.68899 133.15 6.18871 134.729 5.2742C136.309 4.3597 138.185 4.10471 139.951 4.56455L275.387 40.5868C277.158 41.0653 278.667 42.2259 279.584 43.8144C280.501 45.4029 280.751 47.29 280.28 49.0626L273.846 73.2187C273.359 74.972 272.202 76.4636 270.625 77.3717C269.048 78.2798 267.177 78.5317 265.416 78.0731V78.0731Z" fill="#2CA6B3"/>
<path opacity="0.2" d="M265.416 78.0731L129.98 42.0431C128.22 41.5641 126.719 40.4107 125.803 38.8328C124.887 37.255 124.63 35.3797 125.088 33.6135L131.514 9.44971C131.994 7.68899 133.15 6.18871 134.729 5.2742C136.309 4.3597 138.185 4.10471 139.951 4.56455L275.387 40.5868C277.158 41.0653 278.667 42.2259 279.584 43.8144C280.501 45.4029 280.751 47.29 280.28 49.0626L273.846 73.2187C273.359 74.972 272.202 76.4636 270.625 77.3717C269.048 78.2798 267.177 78.5317 265.416 78.0731V78.0731Z" fill="black"/>
<path d="M257.788 42.7192L171.672 19.8057C170.887 19.5967 170.081 20.064 169.872 20.8495L169.119 23.679C168.91 24.4645 169.377 25.2707 170.162 25.4797L256.278 48.3932C257.063 48.6022 257.87 48.1349 258.079 47.3494L258.831 44.5199C259.04 43.7344 258.573 42.9282 257.788 42.7192Z" fill="#2CA6B3"/>
<path opacity="0.7" d="M257.788 42.7192L171.672 19.8057C170.887 19.5967 170.081 20.064 169.872 20.8495L169.119 23.679C168.91 24.4645 169.377 25.2707 170.162 25.4797L256.278 48.3932C257.063 48.6022 257.87 48.1349 258.079 47.3494L258.831 44.5199C259.04 43.7344 258.573 42.9282 257.788 42.7192Z" fill="#FAFAFA"/>
<path d="M223.526 43.8415L169.131 29.3682C168.346 29.1592 167.54 29.6265 167.331 30.412L166.578 33.2415C166.369 34.027 166.836 34.8332 167.621 35.0422L222.016 49.5155C222.802 49.7245 223.608 49.2571 223.817 48.4717L224.57 45.6421C224.779 44.8566 224.311 44.0504 223.526 43.8415Z" fill="#2CA6B3"/>
<path opacity="0.7" d="M223.526 43.8415L169.131 29.3682C168.346 29.1592 167.54 29.6265 167.331 30.412L166.578 33.2415C166.369 34.027 166.836 34.8332 167.621 35.0422L222.016 49.5155C222.802 49.7245 223.608 49.2571 223.817 48.4717L224.57 45.6421C224.779 44.8566 224.311 44.0504 223.526 43.8415Z" fill="#FAFAFA"/>
<path d="M245.307 59.8783L165.937 38.7598C165.51 38.646 165.071 38.9004 164.957 39.3281L164.801 39.9164C164.687 40.3441 164.941 40.783 165.369 40.8968L244.738 62.0153C245.166 62.1291 245.605 61.8747 245.718 61.447L245.875 60.8587C245.989 60.431 245.734 59.9921 245.307 59.8783Z" fill="#FAFAFA"/>
<path d="M157.172 33.6603C161.521 27.4035 159.975 18.8058 153.718 14.4566C147.461 10.1074 138.864 11.6538 134.515 17.9105C130.165 24.1672 131.712 32.765 137.968 37.1141C144.225 41.4633 152.823 39.917 157.172 33.6603Z" fill="#2CA6B3"/>
<path d="M157.397 29.2677C156.817 31.4471 155.603 33.4056 153.91 34.8955C152.217 36.3854 150.12 37.3399 147.885 37.6382C145.649 37.9364 143.375 37.5652 141.351 36.5713C139.326 35.5774 137.642 34.0055 136.511 32.0545C135.38 30.1034 134.852 27.8607 134.996 25.6099C135.139 23.3592 135.946 21.2015 137.316 19.4096C138.686 17.6177 140.556 16.2721 142.69 15.543C144.824 14.8139 147.126 14.734 149.306 15.3134C150.759 15.6899 152.122 16.3512 153.317 17.2587C154.512 18.1662 155.515 19.3019 156.267 20.6C157.02 21.8981 157.507 23.3327 157.701 24.8206C157.895 26.3085 157.792 27.8201 157.397 29.2677Z" fill="#FAFAFA"/>
</svg>
