<svg width="72" height="72" viewBox="0 0 72 72" fill="none" xmlns="http://www.w3.org/2000/svg">
<circle cx="36" cy="36" r="36" fill="#FFEBEB"/>
<path d="M49.4995 54H22.498C22.1002 54 21.7187 53.842 21.4374 53.5607C21.1561 53.2794 20.998 52.8978 20.998 52.5L20.998 19.5C20.998 19.1022 21.1561 18.7206 21.4374 18.4393C21.7187 18.158 22.1002 18 22.498 18H40.4995L50.9995 28.5V52.5C50.9995 52.697 50.9607 52.892 50.8853 53.074C50.81 53.256 50.6995 53.4214 50.5602 53.5607C50.4209 53.7 50.2555 53.8104 50.0735 53.8858C49.8915 53.9612 49.6965 54 49.4995 54Z" stroke="#F34E4E" stroke-width="2.5" stroke-linecap="round" stroke-linejoin="round"/>
<path d="M40.5 18V28.5H51.0015" stroke="#F34E4E" stroke-width="2" stroke-linecap="round" stroke-linejoin="round"/>
<path d="M38.9609 43.4623L41.9609 46.4623" stroke="#F34E4E" stroke-width="1.5" stroke-linecap="round" stroke-linejoin="round"/>
<path d="M35.249 45C38.1485 45 40.499 42.6495 40.499 39.75C40.499 36.8505 38.1485 34.5 35.249 34.5C32.3495 34.5 29.999 36.8505 29.999 39.75C29.999 42.6495 32.3495 45 35.249 45Z" stroke="#F34E4E" stroke-width="2" stroke-linecap="round" stroke-linejoin="round"/>
</svg>
