<svg width="313" height="33" viewBox="0 0 313 33" fill="none" xmlns="http://www.w3.org/2000/svg">
<path d="M290.564 30.12C289.772 30.12 289.096 29.956 288.536 29.628C287.984 29.292 287.604 28.812 287.396 28.188L288.956 27.504C289.116 28.36 289.644 28.788 290.54 28.788C290.94 28.788 291.252 28.684 291.476 28.476C291.708 28.26 291.824 27.976 291.824 27.624C291.824 26.952 291.408 26.616 290.576 26.616C290.384 26.616 290.184 26.628 289.976 26.652V25.44C290.096 25.456 290.232 25.464 290.384 25.464C290.832 25.464 291.152 25.372 291.344 25.188C291.544 25.004 291.644 24.716 291.644 24.324C291.644 23.996 291.544 23.744 291.344 23.568C291.144 23.384 290.868 23.292 290.516 23.292C290.132 23.292 289.828 23.388 289.604 23.58C289.38 23.772 289.224 24.056 289.136 24.432L287.66 23.88C287.804 23.28 288.144 22.808 288.68 22.464C289.216 22.12 289.856 21.948 290.6 21.948C291.48 21.948 292.148 22.148 292.604 22.548C293.06 22.948 293.288 23.46 293.288 24.084C293.288 24.516 293.204 24.868 293.036 25.14C292.868 25.412 292.668 25.616 292.436 25.752C292.204 25.888 291.992 25.968 291.8 25.992V26.028C292.04 26.036 292.288 26.1 292.544 26.22C292.8 26.34 293.016 26.524 293.192 26.772C293.368 27.02 293.456 27.336 293.456 27.72C293.456 28.208 293.328 28.632 293.072 28.992C292.824 29.352 292.484 29.632 292.052 29.832C291.62 30.024 291.124 30.12 290.564 30.12ZM294.966 30V28.872C295.926 28.232 296.694 27.668 297.27 27.18C297.846 26.684 298.258 26.228 298.506 25.812C298.762 25.396 298.89 24.984 298.89 24.576C298.89 24.208 298.778 23.908 298.554 23.676C298.33 23.436 298.014 23.316 297.606 23.316C297.158 23.316 296.806 23.468 296.55 23.772C296.302 24.076 296.166 24.508 296.142 25.068L294.714 24.528C294.762 23.72 295.054 23.092 295.59 22.644C296.134 22.188 296.838 21.96 297.702 21.96C298.342 21.96 298.87 22.08 299.286 22.32C299.71 22.552 300.026 22.86 300.234 23.244C300.45 23.628 300.558 24.04 300.558 24.48C300.558 25.24 300.27 25.952 299.694 26.616C299.126 27.272 298.242 27.968 297.042 28.704V28.716C297.218 28.708 297.45 28.7 297.738 28.692C298.034 28.676 298.286 28.668 298.494 28.668H300.678V30H294.966ZM303.916 21.96C304.556 21.96 305.068 22.164 305.452 22.572C305.836 22.98 306.028 23.52 306.028 24.192C306.028 24.864 305.836 25.404 305.452 25.812C305.068 26.22 304.556 26.424 303.916 26.424C303.276 26.424 302.764 26.22 302.38 25.812C301.996 25.404 301.804 24.864 301.804 24.192C301.804 23.52 301.996 22.98 302.38 22.572C302.764 22.164 303.276 21.96 303.916 21.96ZM303.52 30L308.86 22.08H310.18L304.84 30H303.52ZM303.916 23.1C303.644 23.1 303.436 23.196 303.292 23.388C303.148 23.58 303.076 23.848 303.076 24.192C303.076 24.536 303.148 24.804 303.292 24.996C303.436 25.18 303.644 25.272 303.916 25.272C304.188 25.272 304.396 25.18 304.54 24.996C304.684 24.804 304.756 24.536 304.756 24.192C304.756 23.848 304.684 23.58 304.54 23.388C304.396 23.196 304.188 23.1 303.916 23.1ZM309.772 25.656C310.412 25.656 310.924 25.86 311.308 26.268C311.692 26.676 311.884 27.216 311.884 27.888C311.884 28.56 311.692 29.1 311.308 29.508C310.924 29.916 310.412 30.12 309.772 30.12C309.132 30.12 308.62 29.916 308.236 29.508C307.852 29.1 307.66 28.56 307.66 27.888C307.66 27.216 307.852 26.676 308.236 26.268C308.62 25.86 309.132 25.656 309.772 25.656ZM309.772 26.808C309.5 26.808 309.292 26.904 309.148 27.096C309.004 27.28 308.932 27.544 308.932 27.888C308.932 28.232 309.004 28.5 309.148 28.692C309.292 28.884 309.5 28.98 309.772 28.98C310.044 28.98 310.252 28.884 310.396 28.692C310.54 28.5 310.612 28.232 310.612 27.888C310.612 27.544 310.54 27.28 310.396 27.096C310.252 26.904 310.044 26.808 309.772 26.808Z" fill="#484848"/>
<path d="M8.582 3.76V9.556C8.582 10.7413 8.26933 11.6373 7.644 12.244C7.01867 12.8413 6.12267 13.14 4.956 13.14C3.79867 13.14 2.90267 12.8413 2.268 12.244C1.64267 11.6373 1.33 10.7413 1.33 9.556V3.76H2.45V9.276C2.45 10.2373 2.65067 10.9467 3.052 11.404C3.46267 11.8613 4.09733 12.09 4.956 12.09C5.81467 12.09 6.44467 11.8613 6.846 11.404C7.25667 10.9467 7.462 10.2373 7.462 9.276V3.76H8.582ZM11.2858 13V6H12.2658L12.3358 7.092C12.5784 6.65333 12.9098 6.34067 13.3298 6.154C13.7498 5.958 14.2024 5.86 14.6878 5.86C15.1918 5.86 15.6491 5.958 16.0598 6.154C16.4704 6.34067 16.7971 6.63 17.0398 7.022C17.2918 7.414 17.4178 7.91333 17.4178 8.52V13H16.2978V8.912C16.2978 8.13733 16.1298 7.60067 15.7938 7.302C15.4671 6.994 15.0611 6.84 14.5758 6.84C14.2398 6.84 13.9038 6.91933 13.5678 7.078C13.2318 7.23667 12.9518 7.49333 12.7278 7.848C12.5131 8.20267 12.4058 8.67867 12.4058 9.276V13H11.2858ZM24.1817 8.478C24.1817 7.95533 24.0417 7.554 23.7617 7.274C23.4817 6.98467 23.0851 6.84 22.5717 6.84C22.0864 6.84 21.6757 6.94733 21.3397 7.162C21.0037 7.36733 20.7564 7.70333 20.5977 8.17L19.6877 7.61C19.8744 7.08733 20.2197 6.66733 20.7237 6.35C21.2277 6.02333 21.8531 5.86 22.5997 5.86C23.1037 5.86 23.5611 5.94867 23.9717 6.126C24.3824 6.294 24.7044 6.55533 24.9377 6.91C25.1804 7.25533 25.3017 7.70333 25.3017 8.254V11.642C25.3017 11.978 25.4791 12.146 25.8337 12.146C26.0111 12.146 26.1837 12.1227 26.3517 12.076L26.2957 12.958C26.1091 13.0513 25.8664 13.098 25.5677 13.098C25.2224 13.098 24.9237 13.014 24.6717 12.846C24.4291 12.678 24.2704 12.4213 24.1957 12.076C23.9531 12.44 23.6217 12.7107 23.2017 12.888C22.7817 13.056 22.3664 13.14 21.9557 13.14C21.5451 13.14 21.1624 13.07 20.8077 12.93C20.4531 12.79 20.1684 12.58 19.9537 12.3C19.7484 12.0107 19.6457 11.656 19.6457 11.236C19.6457 10.7133 19.8184 10.284 20.1637 9.948C20.5184 9.60267 21.0084 9.36933 21.6337 9.248L24.1817 8.744V8.478ZM20.7937 11.18C20.7937 11.4693 20.9057 11.7073 21.1297 11.894C21.3631 12.0713 21.6897 12.16 22.1097 12.16C22.4737 12.16 22.8097 12.0993 23.1177 11.978C23.4351 11.8473 23.6917 11.656 23.8877 11.404C24.0837 11.1427 24.1817 10.8113 24.1817 10.41V9.668L22.1517 10.088C21.6944 10.1813 21.3537 10.312 21.1297 10.48C20.9057 10.648 20.7937 10.8813 20.7937 11.18ZM30.6834 13.14C30.0021 13.14 29.3721 12.9953 28.7934 12.706C28.2241 12.4167 27.7854 12.006 27.4774 11.474L28.4294 10.788C28.6347 11.2173 28.9334 11.5533 29.3254 11.796C29.7267 12.0387 30.2074 12.16 30.7674 12.16C31.2621 12.16 31.6494 12.0667 31.9294 11.88C32.2094 11.684 32.3494 11.432 32.3494 11.124C32.3494 10.928 32.2841 10.7507 32.1534 10.592C32.0321 10.424 31.7941 10.3027 31.4394 10.228L29.7594 9.878C29.0781 9.738 28.5881 9.50467 28.2894 9.178C28.0001 8.85133 27.8554 8.44533 27.8554 7.96C27.8554 7.57733 27.9627 7.22733 28.1774 6.91C28.4014 6.59267 28.7141 6.34067 29.1154 6.154C29.5261 5.958 30.0067 5.86 30.5574 5.86C31.2481 5.86 31.8314 5.99533 32.3074 6.266C32.7834 6.53667 33.1381 6.91933 33.3714 7.414L32.4334 8.03C32.2747 7.61933 32.0181 7.32067 31.6634 7.134C31.3087 6.938 30.9401 6.84 30.5574 6.84C30.0534 6.84 29.6614 6.94267 29.3814 7.148C29.1014 7.35333 28.9614 7.61 28.9614 7.918C28.9614 8.12333 29.0314 8.31467 29.1714 8.492C29.3114 8.66 29.5727 8.78133 29.9554 8.856L31.7054 9.22C32.3587 9.35067 32.8161 9.56533 33.0774 9.864C33.3387 10.1627 33.4694 10.5267 33.4694 10.956C33.4694 11.6187 33.2127 12.1507 32.6994 12.552C32.1861 12.944 31.5141 13.14 30.6834 13.14ZM38.2062 13.14C37.5249 13.14 36.8949 12.9953 36.3162 12.706C35.7469 12.4167 35.3082 12.006 35.0002 11.474L35.9522 10.788C36.1576 11.2173 36.4562 11.5533 36.8482 11.796C37.2496 12.0387 37.7302 12.16 38.2902 12.16C38.7849 12.16 39.1722 12.0667 39.4522 11.88C39.7322 11.684 39.8722 11.432 39.8722 11.124C39.8722 10.928 39.8069 10.7507 39.6762 10.592C39.5549 10.424 39.3169 10.3027 38.9622 10.228L37.2822 9.878C36.6009 9.738 36.1109 9.50467 35.8122 9.178C35.5229 8.85133 35.3782 8.44533 35.3782 7.96C35.3782 7.57733 35.4856 7.22733 35.7002 6.91C35.9242 6.59267 36.2369 6.34067 36.6382 6.154C37.0489 5.958 37.5296 5.86 38.0802 5.86C38.7709 5.86 39.3542 5.99533 39.8302 6.266C40.3062 6.53667 40.6609 6.91933 40.8942 7.414L39.9562 8.03C39.7976 7.61933 39.5409 7.32067 39.1862 7.134C38.8316 6.938 38.4629 6.84 38.0802 6.84C37.5762 6.84 37.1842 6.94267 36.9042 7.148C36.6242 7.35333 36.4842 7.61 36.4842 7.918C36.4842 8.12333 36.5542 8.31467 36.6942 8.492C36.8342 8.66 37.0956 8.78133 37.4782 8.856L39.2282 9.22C39.8816 9.35067 40.3389 9.56533 40.6002 9.864C40.8616 10.1627 40.9922 10.5267 40.9922 10.956C40.9922 11.6187 40.7356 12.1507 40.2222 12.552C39.7089 12.944 39.0369 13.14 38.2062 13.14ZM43.769 4.656C43.517 4.656 43.3117 4.58133 43.153 4.432C43.0037 4.27333 42.929 4.068 42.929 3.816C42.929 3.564 43.0037 3.36333 43.153 3.214C43.3117 3.05533 43.517 2.976 43.769 2.976C44.021 2.976 44.2217 3.05533 44.371 3.214C44.5297 3.36333 44.609 3.564 44.609 3.816C44.609 4.068 44.5297 4.27333 44.371 4.432C44.2217 4.58133 44.021 4.656 43.769 4.656ZM44.329 6V13H43.209V6H44.329ZM50.8338 12.104C51.4964 12.104 52.0144 12.258 52.3878 12.566C52.7611 12.8647 52.9478 13.266 52.9478 13.77C52.9478 14.2273 52.7938 14.624 52.4858 14.96C52.1871 15.296 51.7811 15.5527 51.2678 15.73C50.7638 15.9167 50.1944 16.01 49.5598 16.01C48.4584 16.01 47.6324 15.8233 47.0818 15.45C46.5404 15.0767 46.2698 14.6287 46.2698 14.106C46.2698 13.7887 46.3584 13.4993 46.5358 13.238C46.7131 12.9767 47.0071 12.79 47.4178 12.678C47.1938 12.5753 47.0118 12.4353 46.8718 12.258C46.7318 12.0713 46.6618 11.824 46.6618 11.516C46.6618 11.2267 46.7458 10.9653 46.9138 10.732C47.0818 10.4893 47.3338 10.3027 47.6698 10.172C47.3151 9.96667 47.0444 9.696 46.8578 9.36C46.6711 9.024 46.5778 8.646 46.5778 8.226C46.5778 7.75933 46.6991 7.34867 46.9418 6.994C47.1938 6.63933 47.5344 6.364 47.9638 6.168C48.3931 5.96267 48.8878 5.86 49.4478 5.86C50.0358 5.86 50.5631 5.97667 51.0298 6.21C51.0951 5.74333 51.3004 5.37933 51.6458 5.118C52.0004 4.84733 52.4158 4.712 52.8918 4.712H52.9618L53.2138 5.706H53.1158C52.6864 5.706 52.3504 5.78533 52.1078 5.944C51.8651 6.10267 51.7298 6.35 51.7018 6.686C52.1124 7.11533 52.3178 7.62867 52.3178 8.226C52.3178 8.68333 52.1964 9.094 51.9538 9.458C51.7111 9.81267 51.3704 10.0927 50.9318 10.298C50.5024 10.494 50.0078 10.592 49.4478 10.592C49.1024 10.592 48.7804 10.5593 48.4818 10.494C48.2018 10.578 48.0011 10.6947 47.8798 10.844C47.7584 10.9933 47.6978 11.1567 47.6978 11.334C47.6978 11.8473 48.0618 12.104 48.7898 12.104H50.8338ZM49.4478 6.77C48.9624 6.77 48.5564 6.90533 48.2298 7.176C47.9031 7.43733 47.7398 7.78733 47.7398 8.226C47.7398 8.65533 47.9031 9.00533 48.2298 9.276C48.5564 9.54667 48.9624 9.682 49.4478 9.682C49.9331 9.682 50.3391 9.54667 50.6658 9.276C50.9924 9.00533 51.1558 8.65533 51.1558 8.226C51.1558 7.78733 50.9924 7.43733 50.6658 7.176C50.3391 6.90533 49.9331 6.77 49.4478 6.77ZM49.5458 15.072C50.3578 15.072 50.9551 14.9507 51.3378 14.708C51.7204 14.4747 51.9118 14.204 51.9118 13.896C51.9118 13.644 51.8091 13.4433 51.6038 13.294C51.4078 13.1447 51.0484 13.07 50.5258 13.07H48.3698C48.0711 13.07 47.8191 13.1447 47.6138 13.294C47.4084 13.4527 47.3058 13.6673 47.3058 13.938C47.3058 14.2833 47.5018 14.5587 47.8938 14.764C48.2951 14.9693 48.8458 15.072 49.5458 15.072ZM54.659 13V6H55.639L55.709 7.092C55.9516 6.65333 56.283 6.34067 56.703 6.154C57.123 5.958 57.5756 5.86 58.061 5.86C58.565 5.86 59.0223 5.958 59.433 6.154C59.8436 6.34067 60.1703 6.63 60.413 7.022C60.665 7.414 60.791 7.91333 60.791 8.52V13H59.671V8.912C59.671 8.13733 59.503 7.60067 59.167 7.302C58.8403 6.994 58.4343 6.84 57.949 6.84C57.613 6.84 57.277 6.91933 56.941 7.078C56.605 7.23667 56.325 7.49333 56.101 7.848C55.8863 8.20267 55.779 8.67867 55.779 9.276V13H54.659ZM66.3929 13.14C65.7303 13.14 65.1376 12.9953 64.6149 12.706C64.1016 12.4167 63.7003 12.0013 63.4109 11.46C63.1216 10.9093 62.9769 10.256 62.9769 9.5C62.9769 8.744 63.1216 8.09533 63.4109 7.554C63.7003 7.00333 64.0969 6.58333 64.6009 6.294C65.1049 6.00467 65.6789 5.86 66.3229 5.86C66.9763 5.86 67.5316 6 67.9889 6.28C68.4556 6.56 68.8103 6.94267 69.0529 7.428C69.2956 7.904 69.4169 8.44067 69.4169 9.038C69.4169 9.19667 69.4123 9.34133 69.4029 9.472C69.3936 9.60267 69.3796 9.71933 69.3609 9.822H64.0829C64.1389 10.5593 64.3676 11.1333 64.7689 11.544C65.1703 11.9547 65.7023 12.16 66.3649 12.16C66.8783 12.16 67.2936 12.062 67.6109 11.866C67.9376 11.67 68.1989 11.404 68.3949 11.068L69.2769 11.586C69.0156 12.062 68.6376 12.44 68.1429 12.72C67.6576 13 67.0743 13.14 66.3929 13.14ZM66.2949 6.84C65.7069 6.84 65.2216 7.01733 64.8389 7.372C64.4656 7.71733 64.2276 8.20267 64.1249 8.828H68.2969C68.2689 8.19333 68.0729 7.70333 67.7089 7.358C67.3449 7.01267 66.8736 6.84 66.2949 6.84ZM74.417 13.14C73.8383 13.14 73.3063 12.9953 72.821 12.706C72.3357 12.4167 71.9483 12.0013 71.659 11.46C71.3697 10.9093 71.225 10.256 71.225 9.5C71.225 8.72533 71.379 8.06733 71.687 7.526C71.995 6.98467 72.401 6.574 72.905 6.294C73.409 6.00467 73.9503 5.86 74.529 5.86C75.033 5.86 75.481 5.97667 75.873 6.21C76.265 6.434 76.5543 6.742 76.741 7.134V2.78H77.861V13H76.881L76.811 11.684C76.615 12.16 76.2977 12.524 75.859 12.776C75.4203 13.0187 74.9397 13.14 74.417 13.14ZM74.529 12.16C75.1917 12.16 75.7237 11.9127 76.125 11.418C76.5357 10.9233 76.741 10.2513 76.741 9.402C76.741 8.59933 76.5403 7.974 76.139 7.526C75.7377 7.06867 75.2197 6.84 74.585 6.84C73.8757 6.84 73.325 7.08267 72.933 7.568C72.541 8.05333 72.345 8.69733 72.345 9.5C72.345 10.3027 72.5363 10.9467 72.919 11.432C73.3017 11.9173 73.8383 12.16 74.529 12.16Z" fill="#484848"/>
<rect y="24" width="281" height="6" fill="#D1E6FA"/>
<rect y="24" width="121" height="6" fill="#1976D2"/>
</svg>
