<svg width="54" height="54" viewBox="0 0 54 54" fill="none" xmlns="http://www.w3.org/2000/svg">
<circle cx="27" cy="27" r="27" fill="#F0F0F0"/>
<path d="M18.4141 16H35.5856C35.7834 16 35.9768 16.0586 36.1412 16.1685C36.3057 16.2784 36.4338 16.4346 36.5095 16.6173C36.5852 16.8 36.605 17.0011 36.5664 17.1951C36.5278 17.3891 36.4326 17.5673 36.2927 17.7071L26.9998 27L17.707 17.7071C17.5671 17.5673 17.4719 17.3891 17.4333 17.1951C17.3947 17.0011 17.4145 16.8 17.4902 16.6173C17.5659 16.4346 17.694 16.2784 17.8585 16.1685C18.0229 16.0586 18.2163 16 18.4141 16Z" stroke="#484848" stroke-width="1.5" stroke-linecap="round" stroke-linejoin="round"/>
<path d="M18.4141 38H35.5856C35.7834 38 35.9768 37.9414 36.1412 37.8315C36.3057 37.7216 36.4338 37.5654 36.5095 37.3827C36.5852 37.2 36.605 36.9989 36.5664 36.8049C36.5278 36.6109 36.4326 36.4327 36.2927 36.2929L26.9998 27L17.707 36.2929C17.5671 36.4327 17.4719 36.6109 17.4333 36.8049C17.3947 36.9989 17.4145 37.2 17.4902 37.3827C17.5659 37.5654 17.694 37.7216 17.8585 37.8315C18.0229 37.9414 18.2163 38 18.4141 38Z" stroke="#484848" stroke-width="1.5" stroke-linecap="round" stroke-linejoin="round"/>
</svg>
