<svg width="398" height="270" viewBox="0 0 398 270" fill="none" xmlns="http://www.w3.org/2000/svg">
<g filter="url(#filter0_d_1019_2423)">
<rect x="8" y="6" width="382" height="254" rx="2" fill="white"/>
<rect x="8.5" y="6.5" width="381" height="253" rx="1.5" stroke="#D6D6D6"/>
</g>
<path d="M8 75H390" stroke="#E5E5E5"/>
<path d="M55 121H264" stroke="#E5E5E5" stroke-dasharray="8 4"/>
<path d="M55 142H264" stroke="#E5E5E5" stroke-dasharray="8 4"/>
<path d="M55 161H264" stroke="#E5E5E5" stroke-dasharray="8 4"/>
<path d="M55 183H264" stroke="#E5E5E5" stroke-dasharray="8 4"/>
<path d="M55 204H264" stroke="#E5E5E5" stroke-dasharray="8 4"/>
<path d="M55 226H264" stroke="#E5E5E5" stroke-dasharray="8 4"/>
<path d="M58 233.34C84.7392 233.34 81.5797 226.729 108.319 226.729C135.058 226.729 131.894 228.492 158.633 228.492C185.372 228.492 181.253 231.388 207.993 231.388C234.732 231.388 239.261 232.876 266 232.876" stroke="#FFBA69" stroke-width="2" stroke-linecap="round"/>
<path d="M57 233.34C82.8842 233.34 86.1907 183.872 112.075 183.872C137.959 183.872 133.668 144.569 159.552 144.569C185.436 144.569 184.942 200.136 210.826 200.136C236.71 200.136 238.116 228.142 264 228.142" stroke="#8676FF" stroke-width="2" stroke-linecap="round"/>
<path d="M55 98V238H279" stroke="#484848"/>
<path d="M54 226H49" stroke="#333333"/>
<path d="M54 204H49" stroke="#333333"/>
<path d="M54 183H49" stroke="#333333"/>
<path d="M54 161H49" stroke="#333333"/>
<path d="M54 142H49" stroke="#333333"/>
<path d="M54 121H49" stroke="#333333"/>
<path d="M32.96 31.634C32.6707 32.4273 32.1947 33.0433 31.532 33.482C30.8693 33.9207 30.104 34.14 29.236 34.14C28.3587 34.14 27.598 33.9487 26.954 33.566C26.3193 33.174 25.8247 32.6233 25.47 31.914C25.1247 31.2047 24.952 30.36 24.952 29.38C24.952 28.4 25.1247 27.5553 25.47 26.846C25.8247 26.1367 26.3193 25.5907 26.954 25.208C27.598 24.816 28.3493 24.62 29.208 24.62C30.104 24.62 30.8507 24.8067 31.448 25.18C32.0547 25.544 32.5027 26.076 32.792 26.776L31.686 27.294C31.4807 26.762 31.182 26.3607 30.79 26.09C30.4073 25.81 29.908 25.67 29.292 25.67C28.6667 25.67 28.116 25.8193 27.64 26.118C27.164 26.4073 26.7907 26.8273 26.52 27.378C26.2587 27.9287 26.128 28.596 26.128 29.38C26.128 30.5373 26.4033 31.4473 26.954 32.11C27.514 32.7633 28.2747 33.09 29.236 33.09C29.852 33.09 30.3887 32.936 30.846 32.628C31.3033 32.3107 31.6347 31.8393 31.84 31.214L32.96 31.634ZM34.8997 34V23.78H36.0197V28.05C36.2623 27.63 36.5843 27.3267 36.9857 27.14C37.387 26.9533 37.8257 26.86 38.3017 26.86C38.8057 26.86 39.263 26.958 39.6737 27.154C40.0843 27.3407 40.411 27.63 40.6537 28.022C40.9057 28.414 41.0317 28.9133 41.0317 29.52V34H39.9117V29.912C39.9117 29.1373 39.7437 28.6007 39.4077 28.302C39.081 27.994 38.675 27.84 38.1897 27.84C37.8537 27.84 37.5177 27.9193 37.1817 28.078C36.8457 28.2367 36.5657 28.498 36.3417 28.862C36.127 29.2167 36.0197 29.6927 36.0197 30.29V34H34.8997ZM47.6556 29.478C47.6556 28.9553 47.5156 28.554 47.2356 28.274C46.9556 27.9847 46.559 27.84 46.0456 27.84C45.5603 27.84 45.1496 27.9473 44.8136 28.162C44.4776 28.3673 44.2303 28.7033 44.0716 29.17L43.1616 28.61C43.3483 28.0873 43.6936 27.6673 44.1976 27.35C44.7016 27.0233 45.327 26.86 46.0736 26.86C46.5776 26.86 47.035 26.9487 47.4456 27.126C47.8563 27.294 48.1783 27.5553 48.4116 27.91C48.6543 28.2553 48.7756 28.7033 48.7756 29.254V32.642C48.7756 32.978 48.953 33.146 49.3076 33.146C49.485 33.146 49.6576 33.1227 49.8256 33.076L49.7696 33.958C49.583 34.0513 49.3403 34.098 49.0416 34.098C48.6963 34.098 48.3976 34.014 48.1456 33.846C47.903 33.678 47.7443 33.4213 47.6696 33.076C47.427 33.44 47.0956 33.7107 46.6756 33.888C46.2556 34.056 45.8403 34.14 45.4296 34.14C45.019 34.14 44.6363 34.07 44.2816 33.93C43.927 33.79 43.6423 33.58 43.4276 33.3C43.2223 33.0107 43.1196 32.656 43.1196 32.236C43.1196 31.7133 43.2923 31.284 43.6376 30.948C43.9923 30.6027 44.4823 30.3693 45.1076 30.248L47.6556 29.744V29.478ZM44.2676 32.18C44.2676 32.4693 44.3796 32.7073 44.6036 32.894C44.837 33.0713 45.1636 33.16 45.5836 33.16C45.9476 33.16 46.2836 33.0993 46.5916 32.978C46.909 32.8473 47.1656 32.656 47.3616 32.404C47.5576 32.1427 47.6556 31.8113 47.6556 31.41V30.668L45.6256 31.088C45.1683 31.1813 44.8276 31.312 44.6036 31.48C44.3796 31.648 44.2676 31.8813 44.2676 32.18ZM51.4973 34V27H52.4073L52.5613 28.148C52.9533 27.2893 53.7 26.86 54.8013 26.86C54.9226 26.86 55.0533 26.8693 55.1933 26.888C55.3426 26.9067 55.4686 26.944 55.5713 27L55.3753 28.022C55.2726 27.9847 55.1606 27.9567 55.0393 27.938C54.918 27.9193 54.7453 27.91 54.5213 27.91C54.232 27.91 53.938 27.994 53.6393 28.162C53.35 28.33 53.1073 28.5867 52.9113 28.932C52.7153 29.268 52.6173 29.6973 52.6173 30.22V34H51.4973ZM60.9883 27V27.966H58.4403V32.068C58.4403 32.4133 58.5383 32.67 58.7343 32.838C58.9303 33.006 59.1823 33.09 59.4903 33.09C59.761 33.09 59.9943 33.0433 60.1903 32.95C60.3863 32.8567 60.5637 32.7307 60.7223 32.572L61.1143 33.51C60.8997 33.706 60.643 33.86 60.3443 33.972C60.055 34.084 59.719 34.14 59.3363 34.14C58.9817 34.14 58.6503 34.0793 58.3423 33.958C58.0343 33.8273 57.787 33.6267 57.6003 33.356C57.423 33.076 57.3297 32.712 57.3203 32.264V27.966H55.9203V27H57.3203V25.32L58.4403 25.012V27H60.9883Z" fill="#333333"/>
<path d="M28.592 228V227.48C29.12 227.091 29.56 226.749 29.912 226.456C30.2693 226.163 30.5547 225.896 30.768 225.656C30.9813 225.416 31.1333 225.189 31.224 224.976C31.3147 224.757 31.36 224.531 31.36 224.296C31.36 223.981 31.2587 223.728 31.056 223.536C30.8587 223.339 30.5867 223.24 30.24 223.24C29.8773 223.24 29.5867 223.36 29.368 223.6C29.1493 223.835 29.0213 224.149 28.984 224.544L28.424 224.208C28.4933 223.749 28.6827 223.373 28.992 223.08C29.3067 222.787 29.7307 222.64 30.264 222.64C30.6267 222.64 30.9387 222.712 31.2 222.856C31.4667 222.995 31.672 223.189 31.816 223.44C31.96 223.685 32.032 223.971 32.032 224.296C32.032 224.627 31.952 224.952 31.792 225.272C31.632 225.587 31.368 225.917 31 226.264C30.632 226.611 30.1333 226.995 29.504 227.416V227.424C29.5627 227.419 29.6427 227.416 29.744 227.416C29.8507 227.411 29.9547 227.408 30.056 227.408C30.1627 227.403 30.2427 227.4 30.296 227.4H32.144V228H28.592ZM35.1521 228.08C34.5547 228.08 34.0774 227.848 33.7201 227.384C33.3627 226.92 33.1841 226.245 33.1841 225.36C33.1841 224.475 33.3627 223.8 33.7201 223.336C34.0774 222.872 34.5547 222.64 35.1521 222.64C35.7547 222.64 36.2321 222.872 36.5841 223.336C36.9414 223.8 37.1201 224.475 37.1201 225.36C37.1201 226.245 36.9414 226.92 36.5841 227.384C36.2321 227.848 35.7547 228.08 35.1521 228.08ZM35.1521 227.504C35.5787 227.504 35.9014 227.32 36.1201 226.952C36.3441 226.584 36.4561 226.053 36.4561 225.36C36.4561 224.661 36.3441 224.131 36.1201 223.768C35.9014 223.4 35.5787 223.216 35.1521 223.216C34.7307 223.216 34.4081 223.4 34.1841 223.768C33.9601 224.131 33.8481 224.661 33.8481 225.36C33.8481 226.053 33.9601 226.584 34.1841 226.952C34.4081 227.32 34.7307 227.504 35.1521 227.504ZM41.8966 224L40.3366 225.56L41.9926 228H41.2166L39.8726 226.024L39.0246 226.872V228H38.3846V222.16H39.0246V226.072L41.0886 224H41.8966Z" fill="#333333"/>
<path d="M30.928 207V205.616H28.352V205.144L30.76 201.72H31.568V205.064H32.504V205.616H31.568V207H30.928ZM29.032 205.064H30.928V203.088C30.928 202.949 30.9307 202.808 30.936 202.664C30.9467 202.52 30.9547 202.379 30.96 202.24H30.944C30.88 202.373 30.7973 202.523 30.696 202.688C30.5947 202.853 30.5013 202.997 30.416 203.12L29.032 205.064ZM35.3786 207.08C34.7813 207.08 34.304 206.848 33.9466 206.384C33.5893 205.92 33.4106 205.245 33.4106 204.36C33.4106 203.475 33.5893 202.8 33.9466 202.336C34.304 201.872 34.7813 201.64 35.3786 201.64C35.9813 201.64 36.4586 201.872 36.8106 202.336C37.168 202.8 37.3466 203.475 37.3466 204.36C37.3466 205.245 37.168 205.92 36.8106 206.384C36.4586 206.848 35.9813 207.08 35.3786 207.08ZM35.3786 206.504C35.8053 206.504 36.128 206.32 36.3466 205.952C36.5706 205.584 36.6826 205.053 36.6826 204.36C36.6826 203.661 36.5706 203.131 36.3466 202.768C36.128 202.4 35.8053 202.216 35.3786 202.216C34.9573 202.216 34.6346 202.4 34.4106 202.768C34.1866 203.131 34.0746 203.661 34.0746 204.36C34.0746 205.053 34.1866 205.584 34.4106 205.952C34.6346 206.32 34.9573 206.504 35.3786 206.504ZM42.1232 203L40.5632 204.56L42.2192 207H41.4432L40.0992 205.024L39.2512 205.872V207H38.6112V201.16H39.2512V205.072L41.3152 203H42.1232Z" fill="#333333"/>
<path d="M30.584 179.64C31.0053 179.64 31.3493 179.728 31.616 179.904C31.8827 180.075 32.0987 180.357 32.264 180.752L31.672 181.032C31.592 180.787 31.4613 180.595 31.28 180.456C31.104 180.312 30.8587 180.24 30.544 180.24C30.24 180.24 29.9813 180.341 29.768 180.544C29.5547 180.741 29.392 181.008 29.28 181.344C29.1733 181.68 29.12 182.059 29.12 182.48V182.624H29.152C29.2107 182.395 29.3173 182.211 29.472 182.072C29.632 181.928 29.8107 181.824 30.008 181.76C30.2107 181.691 30.408 181.656 30.6 181.656C30.9573 181.656 31.2693 181.725 31.536 181.864C31.8027 182.003 32.008 182.2 32.152 182.456C32.3013 182.712 32.376 183.016 32.376 183.368C32.376 183.891 32.2107 184.307 31.88 184.616C31.5547 184.925 31.1147 185.08 30.56 185.08C30.1173 185.08 29.744 184.963 29.44 184.728C29.136 184.493 28.9067 184.173 28.752 183.768C28.5973 183.357 28.52 182.888 28.52 182.36C28.52 181.768 28.6107 181.272 28.792 180.872C28.9733 180.467 29.2187 180.16 29.528 179.952C29.8427 179.744 30.1947 179.64 30.584 179.64ZM30.552 182.272C30.2107 182.272 29.9333 182.373 29.72 182.576C29.5067 182.779 29.4 183.04 29.4 183.36C29.4 183.563 29.4507 183.749 29.552 183.92C29.6533 184.085 29.7893 184.219 29.96 184.32C30.136 184.416 30.3333 184.464 30.552 184.464C30.9147 184.464 31.1973 184.368 31.4 184.176C31.6027 183.979 31.704 183.707 31.704 183.36C31.704 183.024 31.6027 182.76 31.4 182.568C31.1973 182.371 30.9147 182.272 30.552 182.272ZM35.3552 185.08C34.7579 185.08 34.2805 184.848 33.9232 184.384C33.5659 183.92 33.3872 183.245 33.3872 182.36C33.3872 181.475 33.5659 180.8 33.9232 180.336C34.2805 179.872 34.7579 179.64 35.3552 179.64C35.9579 179.64 36.4352 179.872 36.7872 180.336C37.1445 180.8 37.3232 181.475 37.3232 182.36C37.3232 183.245 37.1445 183.92 36.7872 184.384C36.4352 184.848 35.9579 185.08 35.3552 185.08ZM35.3552 184.504C35.7819 184.504 36.1045 184.32 36.3232 183.952C36.5472 183.584 36.6592 183.053 36.6592 182.36C36.6592 181.661 36.5472 181.131 36.3232 180.768C36.1045 180.4 35.7819 180.216 35.3552 180.216C34.9339 180.216 34.6112 180.4 34.3872 180.768C34.1632 181.131 34.0512 181.661 34.0512 182.36C34.0512 183.053 34.1632 183.584 34.3872 183.952C34.6112 184.32 34.9339 184.504 35.3552 184.504ZM42.0998 181L40.5398 182.56L42.1958 185H41.4198L40.0758 183.024L39.2278 183.872V185H38.5878V179.16H39.2278V183.072L41.2918 181H42.0998Z" fill="#333333"/>
<path d="M30.464 157.648C30.9707 157.648 31.376 157.773 31.68 158.024C31.9893 158.269 32.144 158.605 32.144 159.032C32.144 159.304 32.0773 159.544 31.944 159.752C31.816 159.955 31.6347 160.109 31.4 160.216V160.224C31.6987 160.336 31.936 160.507 32.112 160.736C32.2933 160.965 32.384 161.245 32.384 161.576C32.384 161.885 32.304 162.152 32.144 162.376C31.984 162.6 31.76 162.773 31.472 162.896C31.1893 163.019 30.8533 163.08 30.464 163.08C30.08 163.08 29.744 163.019 29.456 162.896C29.168 162.773 28.944 162.6 28.784 162.376C28.624 162.152 28.544 161.885 28.544 161.576C28.544 161.251 28.632 160.973 28.808 160.744C28.984 160.509 29.2267 160.336 29.536 160.224V160.216C29.3067 160.115 29.1227 159.963 28.984 159.76C28.8507 159.552 28.784 159.309 28.784 159.032C28.784 158.605 28.936 158.269 29.24 158.024C29.5493 157.773 29.9573 157.648 30.464 157.648ZM30.464 158.248C30.1547 158.248 29.9067 158.323 29.72 158.472C29.5387 158.621 29.448 158.829 29.448 159.096C29.448 159.357 29.5413 159.563 29.728 159.712C29.9147 159.861 30.16 159.936 30.464 159.936C30.768 159.936 31.0133 159.861 31.2 159.712C31.3867 159.563 31.48 159.357 31.48 159.096C31.48 158.829 31.3893 158.621 31.208 158.472C31.0267 158.323 30.7787 158.248 30.464 158.248ZM30.464 162.48C30.8533 162.48 31.16 162.395 31.384 162.224C31.608 162.048 31.72 161.811 31.72 161.512C31.72 161.208 31.6053 160.971 31.376 160.8C31.1467 160.624 30.8427 160.536 30.464 160.536C30.0907 160.536 29.7867 160.624 29.552 160.8C29.3227 160.971 29.208 161.208 29.208 161.512C29.208 161.811 29.32 162.048 29.544 162.224C29.7733 162.395 30.08 162.48 30.464 162.48ZM35.4177 163.08C34.8204 163.08 34.343 162.848 33.9857 162.384C33.6284 161.92 33.4497 161.245 33.4497 160.36C33.4497 159.475 33.6284 158.8 33.9857 158.336C34.343 157.872 34.8204 157.64 35.4177 157.64C36.0204 157.64 36.4977 157.872 36.8497 158.336C37.207 158.8 37.3857 159.475 37.3857 160.36C37.3857 161.245 37.207 161.92 36.8497 162.384C36.4977 162.848 36.0204 163.08 35.4177 163.08ZM35.4177 162.504C35.8444 162.504 36.167 162.32 36.3857 161.952C36.6097 161.584 36.7217 161.053 36.7217 160.36C36.7217 159.661 36.6097 159.131 36.3857 158.768C36.167 158.4 35.8444 158.216 35.4177 158.216C34.9964 158.216 34.6737 158.4 34.4497 158.768C34.2257 159.131 34.1137 159.661 34.1137 160.36C34.1137 161.053 34.2257 161.584 34.4497 161.952C34.6737 162.32 34.9964 162.504 35.4177 162.504ZM42.1623 159L40.6023 160.56L42.2583 163H41.4823L40.1383 161.024L39.2903 161.872V163H38.6503V157.16H39.2903V161.072L41.3543 159H42.1623Z" fill="#333333"/>
<path d="M26.664 144V140.128C26.664 140.037 26.664 139.941 26.664 139.84C26.6693 139.733 26.6747 139.624 26.68 139.512C26.4987 139.688 26.288 139.843 26.048 139.976C25.808 140.104 25.5627 140.197 25.312 140.256L25.144 139.672C25.24 139.661 25.36 139.627 25.504 139.568C25.6533 139.504 25.808 139.427 25.968 139.336C26.1333 139.24 26.2853 139.139 26.424 139.032C26.5627 138.925 26.6693 138.821 26.744 138.72H27.304V144H26.664ZM30.6052 144.08C30.0079 144.08 29.5305 143.848 29.1732 143.384C28.8159 142.92 28.6372 142.245 28.6372 141.36C28.6372 140.475 28.8159 139.8 29.1732 139.336C29.5305 138.872 30.0079 138.64 30.6052 138.64C31.2079 138.64 31.6852 138.872 32.0372 139.336C32.3945 139.8 32.5732 140.475 32.5732 141.36C32.5732 142.245 32.3945 142.92 32.0372 143.384C31.6852 143.848 31.2079 144.08 30.6052 144.08ZM30.6052 143.504C31.0319 143.504 31.3545 143.32 31.5732 142.952C31.7972 142.584 31.9092 142.053 31.9092 141.36C31.9092 140.661 31.7972 140.131 31.5732 139.768C31.3545 139.4 31.0319 139.216 30.6052 139.216C30.1839 139.216 29.8612 139.4 29.6372 139.768C29.4132 140.131 29.3012 140.661 29.3012 141.36C29.3012 142.053 29.4132 142.584 29.6372 142.952C29.8612 143.32 30.1839 143.504 30.6052 143.504ZM35.5818 144.08C34.9844 144.08 34.5071 143.848 34.1497 143.384C33.7924 142.92 33.6138 142.245 33.6138 141.36C33.6138 140.475 33.7924 139.8 34.1497 139.336C34.5071 138.872 34.9844 138.64 35.5818 138.64C36.1844 138.64 36.6618 138.872 37.0138 139.336C37.3711 139.8 37.5498 140.475 37.5498 141.36C37.5498 142.245 37.3711 142.92 37.0138 143.384C36.6618 143.848 36.1844 144.08 35.5818 144.08ZM35.5818 143.504C36.0084 143.504 36.3311 143.32 36.5498 142.952C36.7738 142.584 36.8858 142.053 36.8858 141.36C36.8858 140.661 36.7738 140.131 36.5498 139.768C36.3311 139.4 36.0084 139.216 35.5818 139.216C35.1604 139.216 34.8378 139.4 34.6138 139.768C34.3898 140.131 34.2778 140.661 34.2778 141.36C34.2778 142.053 34.3898 142.584 34.6138 142.952C34.8378 143.32 35.1604 143.504 35.5818 143.504ZM42.3263 140L40.7663 141.56L42.4223 144H41.6463L40.3023 142.024L39.4543 142.872V144H38.8143V138.16H39.4543V142.072L41.5183 140H42.3263Z" fill="#333333"/>
<path d="M26.664 122V118.128C26.664 118.037 26.664 117.941 26.664 117.84C26.6693 117.733 26.6747 117.624 26.68 117.512C26.4987 117.688 26.288 117.843 26.048 117.976C25.808 118.104 25.5627 118.197 25.312 118.256L25.144 117.672C25.24 117.661 25.36 117.627 25.504 117.568C25.6533 117.504 25.808 117.427 25.968 117.336C26.1333 117.24 26.2853 117.139 26.424 117.032C26.5627 116.925 26.6693 116.821 26.744 116.72H27.304V122H26.664ZM28.7092 122V121.48C29.2372 121.091 29.6772 120.749 30.0292 120.456C30.3865 120.163 30.6719 119.896 30.8852 119.656C31.0985 119.416 31.2505 119.189 31.3412 118.976C31.4319 118.757 31.4772 118.531 31.4772 118.296C31.4772 117.981 31.3759 117.728 31.1732 117.536C30.9759 117.339 30.7039 117.24 30.3572 117.24C29.9945 117.24 29.7039 117.36 29.4852 117.6C29.2665 117.835 29.1385 118.149 29.1012 118.544L28.5412 118.208C28.6105 117.749 28.7999 117.373 29.1092 117.08C29.4239 116.787 29.8479 116.64 30.3812 116.64C30.7439 116.64 31.0559 116.712 31.3172 116.856C31.5839 116.995 31.7892 117.189 31.9332 117.44C32.0772 117.685 32.1492 117.971 32.1492 118.296C32.1492 118.627 32.0692 118.952 31.9092 119.272C31.7492 119.587 31.4852 119.917 31.1172 120.264C30.7492 120.611 30.2505 120.995 29.6212 121.416V121.424C29.6799 121.419 29.7599 121.416 29.8612 121.416C29.9679 121.411 30.0719 121.408 30.1732 121.408C30.2799 121.403 30.3599 121.4 30.4132 121.4H32.2612V122H28.7092ZM35.2693 122.08C34.6719 122.08 34.1946 121.848 33.8372 121.384C33.4799 120.92 33.3013 120.245 33.3013 119.36C33.3013 118.475 33.4799 117.8 33.8372 117.336C34.1946 116.872 34.6719 116.64 35.2693 116.64C35.8719 116.64 36.3493 116.872 36.7013 117.336C37.0586 117.8 37.2373 118.475 37.2373 119.36C37.2373 120.245 37.0586 120.92 36.7013 121.384C36.3493 121.848 35.8719 122.08 35.2693 122.08ZM35.2693 121.504C35.6959 121.504 36.0186 121.32 36.2373 120.952C36.4613 120.584 36.5733 120.053 36.5733 119.36C36.5733 118.661 36.4613 118.131 36.2373 117.768C36.0186 117.4 35.6959 117.216 35.2693 117.216C34.8479 117.216 34.5253 117.4 34.3013 117.768C34.0773 118.131 33.9653 118.661 33.9653 119.36C33.9653 120.053 34.0773 120.584 34.3013 120.952C34.5253 121.32 34.8479 121.504 35.2693 121.504ZM42.0138 118L40.4538 119.56L42.1098 122H41.3338L39.9898 120.024L39.1418 120.872V122H38.5018V116.16H39.1418V120.072L41.2058 118H42.0138Z" fill="#333333"/>
<rect x="294" y="127" width="10" height="10" fill="#8676FF"/>
<path d="M313.88 128.4V135H313.08V128.4H313.88ZM316.04 135V130H316.74L316.79 130.78C316.97 130.473 317.203 130.25 317.49 130.11C317.783 129.97 318.083 129.9 318.39 129.9C318.743 129.9 319.077 129.98 319.39 130.14C319.703 130.3 319.943 130.547 320.11 130.88C320.217 130.653 320.367 130.47 320.56 130.33C320.753 130.183 320.963 130.077 321.19 130.01C321.423 129.937 321.643 129.9 321.85 129.9C322.17 129.9 322.473 129.967 322.76 130.1C323.053 130.233 323.293 130.44 323.48 130.72C323.667 131 323.76 131.36 323.76 131.8V135H322.96V131.88C322.96 131.427 322.847 131.1 322.62 130.9C322.393 130.7 322.113 130.6 321.78 130.6C321.52 130.6 321.277 130.663 321.05 130.79C320.823 130.917 320.64 131.103 320.5 131.35C320.367 131.597 320.3 131.9 320.3 132.26V135H319.5V131.88C319.5 131.427 319.387 131.1 319.16 130.9C318.933 130.7 318.653 130.6 318.32 130.6C318.1 130.6 317.873 130.66 317.64 130.78C317.413 130.893 317.223 131.077 317.07 131.33C316.917 131.583 316.84 131.917 316.84 132.33V135H316.04ZM325.771 137.1V130H326.471L326.521 130.88C326.675 130.587 326.901 130.35 327.201 130.17C327.508 129.99 327.858 129.9 328.251 129.9C328.658 129.9 329.031 130.003 329.371 130.21C329.718 130.417 329.995 130.713 330.201 131.1C330.408 131.487 330.511 131.953 330.511 132.5C330.511 133.04 330.405 133.507 330.191 133.9C329.985 134.287 329.708 134.583 329.361 134.79C329.015 134.997 328.635 135.1 328.221 135.1C327.848 135.1 327.518 135.02 327.231 134.86C326.945 134.693 326.725 134.48 326.571 134.22V137.1H325.771ZM328.141 134.4C328.635 134.4 329.018 134.227 329.291 133.88C329.571 133.533 329.711 133.073 329.711 132.5C329.711 131.927 329.575 131.467 329.301 131.12C329.035 130.773 328.658 130.6 328.171 130.6C327.691 130.6 327.305 130.773 327.011 131.12C326.718 131.467 326.571 131.927 326.571 132.5C326.571 133.073 326.715 133.533 327.001 133.88C327.288 134.227 327.668 134.4 328.141 134.4ZM332.241 135V130H332.891L333.001 130.82C333.281 130.207 333.814 129.9 334.601 129.9C334.688 129.9 334.781 129.907 334.881 129.92C334.988 129.933 335.078 129.96 335.151 130L335.011 130.73C334.938 130.703 334.858 130.683 334.771 130.67C334.684 130.657 334.561 130.65 334.401 130.65C334.194 130.65 333.984 130.71 333.771 130.83C333.564 130.95 333.391 131.133 333.251 131.38C333.111 131.62 333.041 131.927 333.041 132.3V135H332.241ZM338.457 135.1C337.983 135.1 337.56 134.997 337.187 134.79C336.82 134.583 336.533 134.287 336.327 133.9C336.12 133.507 336.017 133.04 336.017 132.5C336.017 131.96 336.12 131.497 336.327 131.11C336.533 130.717 336.817 130.417 337.177 130.21C337.537 130.003 337.947 129.9 338.407 129.9C338.873 129.9 339.27 130 339.597 130.2C339.93 130.4 340.183 130.673 340.357 131.02C340.53 131.36 340.617 131.743 340.617 132.17C340.617 132.283 340.613 132.387 340.607 132.48C340.6 132.573 340.59 132.657 340.577 132.73H336.807C336.847 133.257 337.01 133.667 337.297 133.96C337.583 134.253 337.963 134.4 338.437 134.4C338.803 134.4 339.1 134.33 339.327 134.19C339.56 134.05 339.747 133.86 339.887 133.62L340.517 133.99C340.33 134.33 340.06 134.6 339.707 134.8C339.36 135 338.943 135.1 338.457 135.1ZM338.387 130.6C337.967 130.6 337.62 130.727 337.347 130.98C337.08 131.227 336.91 131.573 336.837 132.02H339.817C339.797 131.567 339.657 131.217 339.397 130.97C339.137 130.723 338.8 130.6 338.387 130.6ZM344.138 135.1C343.652 135.1 343.202 134.997 342.788 134.79C342.382 134.583 342.068 134.29 341.848 133.91L342.528 133.42C342.675 133.727 342.888 133.967 343.168 134.14C343.455 134.313 343.798 134.4 344.198 134.4C344.552 134.4 344.828 134.333 345.028 134.2C345.228 134.06 345.328 133.88 345.328 133.66C345.328 133.52 345.282 133.393 345.188 133.28C345.102 133.16 344.932 133.073 344.678 133.02L343.478 132.77C342.992 132.67 342.642 132.503 342.428 132.27C342.222 132.037 342.118 131.747 342.118 131.4C342.118 131.127 342.195 130.877 342.348 130.65C342.508 130.423 342.732 130.243 343.018 130.11C343.312 129.97 343.655 129.9 344.048 129.9C344.542 129.9 344.958 129.997 345.298 130.19C345.638 130.383 345.892 130.657 346.058 131.01L345.388 131.45C345.275 131.157 345.092 130.943 344.838 130.81C344.585 130.67 344.322 130.6 344.048 130.6C343.688 130.6 343.408 130.673 343.208 130.82C343.008 130.967 342.908 131.15 342.908 131.37C342.908 131.517 342.958 131.653 343.058 131.78C343.158 131.9 343.345 131.987 343.618 132.04L344.868 132.3C345.335 132.393 345.662 132.547 345.848 132.76C346.035 132.973 346.128 133.233 346.128 133.54C346.128 134.013 345.945 134.393 345.578 134.68C345.212 134.96 344.732 135.1 344.138 135.1ZM349.612 135.1C349.125 135.1 348.675 134.997 348.262 134.79C347.855 134.583 347.542 134.29 347.322 133.91L348.002 133.42C348.148 133.727 348.362 133.967 348.642 134.14C348.928 134.313 349.272 134.4 349.672 134.4C350.025 134.4 350.302 134.333 350.502 134.2C350.702 134.06 350.802 133.88 350.802 133.66C350.802 133.52 350.755 133.393 350.662 133.28C350.575 133.16 350.405 133.073 350.152 133.02L348.952 132.77C348.465 132.67 348.115 132.503 347.902 132.27C347.695 132.037 347.592 131.747 347.592 131.4C347.592 131.127 347.668 130.877 347.822 130.65C347.982 130.423 348.205 130.243 348.492 130.11C348.785 129.97 349.128 129.9 349.522 129.9C350.015 129.9 350.432 129.997 350.772 130.19C351.112 130.383 351.365 130.657 351.532 131.01L350.862 131.45C350.748 131.157 350.565 130.943 350.312 130.81C350.058 130.67 349.795 130.6 349.522 130.6C349.162 130.6 348.882 130.673 348.682 130.82C348.482 130.967 348.382 131.15 348.382 131.37C348.382 131.517 348.432 131.653 348.532 131.78C348.632 131.9 348.818 131.987 349.092 132.04L350.342 132.3C350.808 132.393 351.135 132.547 351.322 132.76C351.508 132.973 351.602 133.233 351.602 133.54C351.602 134.013 351.418 134.393 351.052 134.68C350.685 134.96 350.205 135.1 349.612 135.1ZM353.685 129.04C353.505 129.04 353.358 128.987 353.245 128.88C353.138 128.767 353.085 128.62 353.085 128.44C353.085 128.26 353.138 128.117 353.245 128.01C353.358 127.897 353.505 127.84 353.685 127.84C353.865 127.84 354.008 127.897 354.115 128.01C354.228 128.117 354.285 128.26 354.285 128.44C354.285 128.62 354.228 128.767 354.115 128.88C354.008 128.987 353.865 129.04 353.685 129.04ZM354.085 130V135H353.285V130H354.085ZM358.211 129.9C358.685 129.9 359.101 130.003 359.461 130.21C359.828 130.417 360.115 130.717 360.321 131.11C360.528 131.497 360.631 131.96 360.631 132.5C360.631 133.04 360.528 133.507 360.321 133.9C360.115 134.287 359.828 134.583 359.461 134.79C359.101 134.997 358.685 135.1 358.211 135.1C357.745 135.1 357.328 134.997 356.961 134.79C356.595 134.583 356.308 134.287 356.101 133.9C355.895 133.507 355.791 133.04 355.791 132.5C355.791 131.96 355.895 131.497 356.101 131.11C356.308 130.717 356.595 130.417 356.961 130.21C357.328 130.003 357.745 129.9 358.211 129.9ZM358.211 130.59C357.705 130.59 357.308 130.76 357.021 131.1C356.735 131.44 356.591 131.907 356.591 132.5C356.591 133.093 356.735 133.56 357.021 133.9C357.308 134.24 357.705 134.41 358.211 134.41C358.718 134.41 359.115 134.24 359.401 133.9C359.688 133.56 359.831 133.093 359.831 132.5C359.831 131.907 359.688 131.44 359.401 131.1C359.115 130.76 358.718 130.59 358.211 130.59ZM362.337 135V130H363.037L363.087 130.78C363.261 130.467 363.497 130.243 363.797 130.11C364.097 129.97 364.421 129.9 364.767 129.9C365.127 129.9 365.454 129.97 365.747 130.11C366.041 130.243 366.274 130.45 366.447 130.73C366.627 131.01 366.717 131.367 366.717 131.8V135H365.917V132.08C365.917 131.527 365.797 131.143 365.557 130.93C365.324 130.71 365.034 130.6 364.687 130.6C364.447 130.6 364.207 130.657 363.967 130.77C363.727 130.883 363.527 131.067 363.367 131.32C363.214 131.573 363.137 131.913 363.137 132.34V135H362.337ZM370.529 135.1C370.042 135.1 369.592 134.997 369.179 134.79C368.772 134.583 368.459 134.29 368.239 133.91L368.919 133.42C369.065 133.727 369.279 133.967 369.559 134.14C369.845 134.313 370.189 134.4 370.589 134.4C370.942 134.4 371.219 134.333 371.419 134.2C371.619 134.06 371.719 133.88 371.719 133.66C371.719 133.52 371.672 133.393 371.579 133.28C371.492 133.16 371.322 133.073 371.069 133.02L369.869 132.77C369.382 132.67 369.032 132.503 368.819 132.27C368.612 132.037 368.509 131.747 368.509 131.4C368.509 131.127 368.585 130.877 368.739 130.65C368.899 130.423 369.122 130.243 369.409 130.11C369.702 129.97 370.045 129.9 370.439 129.9C370.932 129.9 371.349 129.997 371.689 130.19C372.029 130.383 372.282 130.657 372.449 131.01L371.779 131.45C371.665 131.157 371.482 130.943 371.229 130.81C370.975 130.67 370.712 130.6 370.439 130.6C370.079 130.6 369.799 130.673 369.599 130.82C369.399 130.967 369.299 131.15 369.299 131.37C369.299 131.517 369.349 131.653 369.449 131.78C369.549 131.9 369.735 131.987 370.009 132.04L371.259 132.3C371.725 132.393 372.052 132.547 372.239 132.76C372.425 132.973 372.519 133.233 372.519 133.54C372.519 134.013 372.335 134.393 371.969 134.68C371.602 134.96 371.122 135.1 370.529 135.1Z" fill="#333333"/>
<rect x="294" y="149" width="10" height="10" fill="#FFBA69"/>
<path d="M318.4 155.31C318.193 155.877 317.853 156.317 317.38 156.63C316.907 156.943 316.36 157.1 315.74 157.1C315.113 157.1 314.57 156.963 314.11 156.69C313.657 156.41 313.303 156.017 313.05 155.51C312.803 155.003 312.68 154.4 312.68 153.7C312.68 153 312.803 152.397 313.05 151.89C313.303 151.383 313.657 150.993 314.11 150.72C314.57 150.44 315.107 150.3 315.72 150.3C316.36 150.3 316.893 150.433 317.32 150.7C317.753 150.96 318.073 151.34 318.28 151.84L317.49 152.21C317.343 151.83 317.13 151.543 316.85 151.35C316.577 151.15 316.22 151.05 315.78 151.05C315.333 151.05 314.94 151.157 314.6 151.37C314.26 151.577 313.993 151.877 313.8 152.27C313.613 152.663 313.52 153.14 313.52 153.7C313.52 154.527 313.717 155.177 314.11 155.65C314.51 156.117 315.053 156.35 315.74 156.35C316.18 156.35 316.563 156.24 316.89 156.02C317.217 155.793 317.453 155.457 317.6 155.01L318.4 155.31ZM320.745 149.7V155.73C320.745 155.983 320.792 156.16 320.885 156.26C320.979 156.353 321.129 156.4 321.335 156.4C321.469 156.4 321.579 156.39 321.665 156.37C321.752 156.35 321.869 156.313 322.015 156.26L321.885 156.96C321.665 157.053 321.419 157.1 321.145 157.1C320.345 157.1 319.945 156.653 319.945 155.76V149.7H320.745ZM323.642 151.04C323.462 151.04 323.315 150.987 323.202 150.88C323.095 150.767 323.042 150.62 323.042 150.44C323.042 150.26 323.095 150.117 323.202 150.01C323.315 149.897 323.462 149.84 323.642 149.84C323.822 149.84 323.965 149.897 324.072 150.01C324.185 150.117 324.242 150.26 324.242 150.44C324.242 150.62 324.185 150.767 324.072 150.88C323.965 150.987 323.822 151.04 323.642 151.04ZM324.042 152V157H323.242V152H324.042ZM328.168 151.9C328.682 151.9 329.108 152.02 329.448 152.26C329.788 152.493 330.052 152.817 330.238 153.23L329.478 153.59C329.372 153.27 329.208 153.027 328.988 152.86C328.775 152.687 328.495 152.6 328.148 152.6C327.648 152.6 327.255 152.77 326.968 153.11C326.688 153.443 326.548 153.907 326.548 154.5C326.548 155.093 326.688 155.56 326.968 155.9C327.255 156.233 327.648 156.4 328.148 156.4C328.542 156.4 328.855 156.31 329.088 156.13C329.322 155.95 329.475 155.697 329.548 155.37L330.288 155.63C330.122 156.09 329.858 156.45 329.498 156.71C329.145 156.97 328.702 157.1 328.168 157.1C327.702 157.1 327.285 156.997 326.918 156.79C326.552 156.583 326.265 156.287 326.058 155.9C325.852 155.507 325.748 155.04 325.748 154.5C325.748 153.96 325.852 153.497 326.058 153.11C326.265 152.717 326.552 152.417 326.918 152.21C327.285 152.003 327.702 151.9 328.168 151.9ZM336.284 152L334.334 153.95L336.404 157H335.434L333.754 154.53L332.694 155.59V157H331.894V149.7H332.694V154.59L335.274 152H336.284ZM339.46 157.1C338.974 157.1 338.524 156.997 338.11 156.79C337.704 156.583 337.39 156.29 337.17 155.91L337.85 155.42C337.997 155.727 338.21 155.967 338.49 156.14C338.777 156.313 339.12 156.4 339.52 156.4C339.874 156.4 340.15 156.333 340.35 156.2C340.55 156.06 340.65 155.88 340.65 155.66C340.65 155.52 340.604 155.393 340.51 155.28C340.424 155.16 340.254 155.073 340 155.02L338.8 154.77C338.314 154.67 337.964 154.503 337.75 154.27C337.544 154.037 337.44 153.747 337.44 153.4C337.44 153.127 337.517 152.877 337.67 152.65C337.83 152.423 338.054 152.243 338.34 152.11C338.634 151.97 338.977 151.9 339.37 151.9C339.864 151.9 340.28 151.997 340.62 152.19C340.96 152.383 341.214 152.657 341.38 153.01L340.71 153.45C340.597 153.157 340.414 152.943 340.16 152.81C339.907 152.67 339.644 152.6 339.37 152.6C339.01 152.6 338.73 152.673 338.53 152.82C338.33 152.967 338.23 153.15 338.23 153.37C338.23 153.517 338.28 153.653 338.38 153.78C338.48 153.9 338.667 153.987 338.94 154.04L340.19 154.3C340.657 154.393 340.984 154.547 341.17 154.76C341.357 154.973 341.45 155.233 341.45 155.54C341.45 156.013 341.267 156.393 340.9 156.68C340.534 156.96 340.054 157.1 339.46 157.1Z" fill="#333333"/>
<path d="M34.944 46.12V48.118H30.966V58H28.482V48.118H24.486V46.12H34.944ZM35.5265 58V49H37.6685L37.8305 50.764C38.0585 50.152 38.4005 49.678 38.8565 49.342C39.3245 48.994 39.9125 48.82 40.6205 48.82C41.0405 48.82 41.3645 48.886 41.5925 49.018L41.3045 51.088C41.1845 51.052 41.0345 51.022 40.8545 50.998C40.6865 50.962 40.4645 50.944 40.1885 50.944C39.8165 50.944 39.4625 51.034 39.1265 51.214C38.8025 51.382 38.5325 51.646 38.3165 52.006C38.1005 52.354 37.9925 52.798 37.9925 53.338V58H35.5265ZM48.092 52.258C48.092 51.742 47.942 51.34 47.642 51.052C47.354 50.764 46.97 50.62 46.49 50.62C46.046 50.62 45.656 50.734 45.32 50.962C44.984 51.19 44.738 51.568 44.582 52.096L42.476 51.448C42.68 50.656 43.124 50.02 43.808 49.54C44.504 49.06 45.434 48.82 46.598 48.82C47.774 48.82 48.722 49.102 49.442 49.666C50.174 50.218 50.54 51.046 50.54 52.15V55.804C50.54 56.26 50.756 56.488 51.188 56.488C51.392 56.488 51.584 56.458 51.764 56.398L51.62 57.928C51.308 58.084 50.918 58.162 50.45 58.162C49.934 58.162 49.484 58.054 49.1 57.838C48.728 57.622 48.476 57.298 48.344 56.866C48.056 57.298 47.642 57.628 47.102 57.856C46.574 58.072 46.028 58.18 45.464 58.18C44.552 58.18 43.826 57.976 43.286 57.568C42.758 57.148 42.494 56.542 42.494 55.75C42.494 55.078 42.71 54.532 43.142 54.112C43.574 53.68 44.192 53.386 44.996 53.23L48.092 52.6V52.258ZM44.96 55.516C44.96 55.816 45.068 56.044 45.284 56.2C45.512 56.356 45.782 56.434 46.094 56.434C46.442 56.434 46.766 56.38 47.066 56.272C47.366 56.164 47.612 55.984 47.804 55.732C47.996 55.468 48.092 55.12 48.092 54.688V54.13L46.202 54.508C45.794 54.592 45.482 54.706 45.266 54.85C45.062 54.982 44.96 55.204 44.96 55.516ZM59.0952 49V50.836H56.3592V58H53.8932V50.836H52.3272V49H53.8932V47.92C53.8932 46.9 54.2112 46.138 54.8472 45.634C55.4832 45.13 56.2872 44.878 57.2592 44.878C57.6792 44.878 58.0572 44.926 58.3932 45.022C58.7292 45.106 58.9872 45.214 59.1672 45.346L58.8252 46.984C58.6932 46.9 58.5432 46.834 58.3752 46.786C58.2072 46.738 58.0092 46.714 57.7812 46.714C57.3132 46.714 56.9412 46.822 56.6652 47.038C56.3892 47.242 56.2512 47.596 56.2512 48.1V49H59.0952ZM66.2772 49V50.836H63.5412V58H61.0752V50.836H59.5092V49H61.0752V47.92C61.0752 46.9 61.3932 46.138 62.0292 45.634C62.6652 45.13 63.4692 44.878 64.4412 44.878C64.8612 44.878 65.2392 44.926 65.5752 45.022C65.9112 45.106 66.1692 45.214 66.3492 45.346L66.0072 46.984C65.8752 46.9 65.7252 46.834 65.5572 46.786C65.3892 46.738 65.1912 46.714 64.9632 46.714C64.4952 46.714 64.1232 46.822 63.8472 47.038C63.5712 47.242 63.4332 47.596 63.4332 48.1V49H66.2772ZM68.9952 47.704C67.9752 47.704 67.4652 47.266 67.4652 46.39C67.4652 45.502 67.9752 45.058 68.9952 45.058C70.0152 45.058 70.5252 45.502 70.5252 46.39C70.5252 47.266 70.0152 47.704 68.9952 47.704ZM70.2192 49V58H67.7532V49H70.2192ZM76.9133 48.82C78.1133 48.82 79.0433 49.078 79.7033 49.594C80.3753 50.11 80.8193 50.734 81.0352 51.466L78.7313 52.294C78.4913 51.202 77.8973 50.656 76.9493 50.656C76.2653 50.656 75.7313 50.896 75.3473 51.376C74.9753 51.856 74.7893 52.57 74.7893 53.518C74.7893 54.478 74.9813 55.192 75.3653 55.66C75.7613 56.116 76.2953 56.344 76.9673 56.344C78.0113 56.344 78.6353 55.81 78.8393 54.742L81.0713 55.462C80.8673 56.266 80.4113 56.92 79.7033 57.424C79.0073 57.928 78.1013 58.18 76.9853 58.18C76.0493 58.18 75.2273 57.994 74.5193 57.622C73.8233 57.25 73.2833 56.716 72.8993 56.02C72.5153 55.324 72.3233 54.484 72.3233 53.5C72.3233 52.516 72.5153 51.676 72.8993 50.98C73.2953 50.284 73.8353 49.75 74.5193 49.378C75.2153 49.006 76.0133 48.82 76.9133 48.82Z" fill="#333333"/>
<path d="M284 40L279 45L274 40" stroke="#35469C" stroke-width="1.5" stroke-linecap="round" stroke-linejoin="round"/>
<path d="M293.46 44.896H297.828V46H292.176V38.08H293.46V44.896ZM302.648 42.148C302.648 41.748 302.536 41.44 302.312 41.224C302.096 41 301.796 40.888 301.412 40.888C301.052 40.888 300.74 40.972 300.476 41.14C300.22 41.308 300.036 41.58 299.924 41.956L298.844 41.5C298.996 41.012 299.292 40.62 299.732 40.324C300.18 40.028 300.756 39.88 301.46 39.88C301.932 39.88 302.352 39.96 302.72 40.12C303.096 40.272 303.388 40.508 303.596 40.828C303.812 41.14 303.92 41.536 303.92 42.016V44.692C303.92 44.988 304.068 45.136 304.364 45.136C304.508 45.136 304.648 45.116 304.784 45.076L304.712 45.964C304.528 46.052 304.296 46.096 304.016 46.096C303.696 46.096 303.42 46.024 303.188 45.88C302.956 45.736 302.8 45.52 302.72 45.232C302.528 45.528 302.252 45.752 301.892 45.904C301.532 46.048 301.172 46.12 300.812 46.12C300.244 46.12 299.772 45.984 299.396 45.712C299.02 45.44 298.832 45.032 298.832 44.488C298.832 44.048 298.976 43.684 299.264 43.396C299.56 43.108 299.976 42.908 300.512 42.796L302.648 42.376V42.148ZM300.128 44.392C300.128 44.616 300.212 44.796 300.38 44.932C300.556 45.06 300.788 45.124 301.076 45.124C301.348 45.124 301.604 45.08 301.844 44.992C302.084 44.904 302.276 44.76 302.42 44.56C302.572 44.36 302.648 44.1 302.648 43.78V43.276L301.136 43.588C300.792 43.652 300.536 43.744 300.368 43.864C300.208 43.984 300.128 44.16 300.128 44.392ZM308.303 46.12C307.703 46.12 307.155 46.004 306.659 45.772C306.163 45.54 305.771 45.212 305.483 44.788L306.371 44.02C306.547 44.348 306.799 44.612 307.127 44.812C307.463 45.004 307.863 45.1 308.327 45.1C308.695 45.1 308.987 45.036 309.203 44.908C309.419 44.78 309.527 44.6 309.527 44.368C309.527 44.216 309.475 44.084 309.371 43.972C309.275 43.852 309.087 43.76 308.807 43.696L307.547 43.432C306.907 43.304 306.451 43.096 306.179 42.808C305.907 42.52 305.771 42.16 305.771 41.728C305.771 41.4 305.867 41.096 306.059 40.816C306.259 40.536 306.543 40.312 306.911 40.144C307.279 39.968 307.723 39.88 308.243 39.88C308.835 39.88 309.343 39.988 309.767 40.204C310.199 40.412 310.527 40.712 310.751 41.104L309.863 41.848C309.703 41.528 309.475 41.292 309.179 41.14C308.891 40.98 308.587 40.9 308.267 40.9C307.875 40.9 307.571 40.972 307.355 41.116C307.147 41.252 307.043 41.432 307.043 41.656C307.043 41.808 307.103 41.948 307.223 42.076C307.343 42.196 307.559 42.288 307.871 42.352L309.239 42.64C309.815 42.752 310.219 42.944 310.451 43.216C310.691 43.48 310.811 43.804 310.811 44.188C310.811 44.764 310.587 45.232 310.139 45.592C309.691 45.944 309.079 46.12 308.303 46.12ZM316.191 40V41.008H314.127V44.2C314.127 44.488 314.207 44.704 314.367 44.848C314.527 44.984 314.735 45.052 314.991 45.052C315.215 45.052 315.403 45.02 315.555 44.956C315.715 44.884 315.863 44.788 315.999 44.668L316.287 45.604C316.103 45.764 315.875 45.892 315.603 45.988C315.339 46.076 315.043 46.12 314.715 46.12C314.187 46.12 313.743 45.992 313.383 45.736C313.023 45.472 312.843 45.032 312.843 44.416V41.008H311.691V40H312.843V38.596L314.127 38.236V40H316.191ZM321.207 46V45.052C321.967 44.524 322.603 44.052 323.115 43.636C323.635 43.212 324.051 42.828 324.363 42.484C324.675 42.132 324.899 41.796 325.035 41.476C325.179 41.156 325.251 40.832 325.251 40.504C325.251 40.088 325.115 39.748 324.843 39.484C324.579 39.212 324.215 39.076 323.751 39.076C323.255 39.076 322.859 39.244 322.563 39.58C322.275 39.908 322.111 40.36 322.071 40.936L320.955 40.42C321.027 39.668 321.315 39.072 321.819 38.632C322.323 38.184 322.991 37.96 323.823 37.96C324.407 37.96 324.903 38.072 325.311 38.296C325.719 38.52 326.031 38.82 326.247 39.196C326.463 39.572 326.571 39.992 326.571 40.456C326.571 40.96 326.447 41.448 326.199 41.92C325.951 42.384 325.559 42.86 325.023 43.348C324.487 43.836 323.783 44.36 322.911 44.92V44.944C323.007 44.936 323.139 44.928 323.307 44.92C323.475 44.912 323.643 44.908 323.811 44.908C323.979 44.9 324.115 44.896 324.219 44.896H326.715V46H321.207ZM331.497 46V44.02H327.633V43.144C327.665 43.072 327.733 42.96 327.837 42.808L331.137 38.08H332.709V43.024H334.053V44.02H332.709V46H331.497ZM328.833 43.024H331.497V40.228C331.497 40.036 331.501 39.84 331.509 39.64C331.525 39.432 331.537 39.228 331.545 39.028H331.521C331.433 39.22 331.317 39.432 331.173 39.664C331.037 39.888 330.909 40.084 330.789 40.252L328.917 42.916C328.893 42.956 328.865 42.992 328.833 43.024ZM339.469 46V37.3H340.753V40.96C340.953 40.584 341.221 40.312 341.557 40.144C341.901 39.968 342.281 39.88 342.697 39.88C343.121 39.88 343.501 39.964 343.837 40.132C344.181 40.292 344.453 40.54 344.653 40.876C344.853 41.204 344.953 41.616 344.953 42.112V46H343.669V42.52C343.669 41.92 343.545 41.508 343.297 41.284C343.057 41.052 342.753 40.936 342.385 40.936C342.121 40.936 341.865 41 341.617 41.128C341.369 41.248 341.161 41.448 340.993 41.728C340.833 42 340.753 42.368 340.753 42.832V46H339.469ZM349.502 39.88C350.086 39.88 350.602 40.004 351.05 40.252C351.498 40.5 351.846 40.86 352.094 41.332C352.35 41.796 352.478 42.352 352.478 43C352.478 43.648 352.35 44.208 352.094 44.68C351.846 45.144 351.498 45.5 351.05 45.748C350.602 45.996 350.086 46.12 349.502 46.12C348.918 46.12 348.402 45.996 347.954 45.748C347.506 45.5 347.154 45.144 346.898 44.68C346.642 44.208 346.514 43.648 346.514 43C346.514 42.352 346.642 41.796 346.898 41.332C347.154 40.86 347.506 40.5 347.954 40.252C348.402 40.004 348.918 39.88 349.502 39.88ZM349.502 40.888C348.974 40.888 348.558 41.072 348.254 41.44C347.95 41.8 347.798 42.32 347.798 43C347.798 43.68 347.95 44.204 348.254 44.572C348.558 44.932 348.974 45.112 349.502 45.112C350.03 45.112 350.442 44.932 350.738 44.572C351.042 44.204 351.194 43.68 351.194 43C351.194 42.32 351.042 41.8 350.738 41.44C350.442 41.072 350.03 40.888 349.502 40.888ZM356.23 46.12C355.838 46.12 355.474 46.048 355.138 45.904C354.81 45.76 354.546 45.528 354.346 45.208C354.146 44.888 354.046 44.472 354.046 43.96V40H355.33V43.636C355.33 44.18 355.442 44.556 355.666 44.764C355.898 44.964 356.226 45.064 356.65 45.064C356.922 45.064 357.178 45.004 357.418 44.884C357.658 44.756 357.85 44.56 357.994 44.296C358.146 44.024 358.222 43.676 358.222 43.252V40H359.506V46H358.378L358.318 45.028C358.11 45.404 357.83 45.68 357.478 45.856C357.126 46.032 356.71 46.12 356.23 46.12ZM361.512 46V40H362.604L362.724 41.08C363.052 40.28 363.68 39.88 364.608 39.88C364.728 39.88 364.848 39.892 364.968 39.916C365.088 39.932 365.188 39.96 365.268 40L365.088 41.128C365 41.096 364.9 41.072 364.788 41.056C364.684 41.032 364.54 41.02 364.356 41.02C364.1 41.02 363.852 41.088 363.612 41.224C363.38 41.352 363.184 41.552 363.024 41.824C362.872 42.088 362.796 42.42 362.796 42.82V46H361.512ZM368.561 46.12C367.961 46.12 367.413 46.004 366.917 45.772C366.421 45.54 366.029 45.212 365.741 44.788L366.629 44.02C366.805 44.348 367.057 44.612 367.385 44.812C367.721 45.004 368.121 45.1 368.585 45.1C368.953 45.1 369.245 45.036 369.461 44.908C369.677 44.78 369.785 44.6 369.785 44.368C369.785 44.216 369.733 44.084 369.629 43.972C369.533 43.852 369.345 43.76 369.065 43.696L367.805 43.432C367.165 43.304 366.709 43.096 366.437 42.808C366.165 42.52 366.029 42.16 366.029 41.728C366.029 41.4 366.125 41.096 366.317 40.816C366.517 40.536 366.801 40.312 367.169 40.144C367.537 39.968 367.981 39.88 368.501 39.88C369.093 39.88 369.601 39.988 370.025 40.204C370.457 40.412 370.785 40.712 371.009 41.104L370.121 41.848C369.961 41.528 369.733 41.292 369.437 41.14C369.149 40.98 368.845 40.9 368.525 40.9C368.133 40.9 367.829 40.972 367.613 41.116C367.405 41.252 367.301 41.432 367.301 41.656C367.301 41.808 367.361 41.948 367.481 42.076C367.601 42.196 367.817 42.288 368.129 42.352L369.497 42.64C370.073 42.752 370.477 42.944 370.709 43.216C370.949 43.48 371.069 43.804 371.069 44.188C371.069 44.764 370.845 45.232 370.397 45.592C369.949 45.944 369.337 46.12 368.561 46.12Z" fill="#19216C"/>
<defs>
<filter id="filter0_d_1019_2423" x="0" y="0" width="398" height="270" filterUnits="userSpaceOnUse" color-interpolation-filters="sRGB">
<feFlood flood-opacity="0" result="BackgroundImageFix"/>
<feColorMatrix in="SourceAlpha" type="matrix" values="0 0 0 0 0 0 0 0 0 0 0 0 0 0 0 0 0 0 127 0" result="hardAlpha"/>
<feOffset dy="2"/>
<feGaussianBlur stdDeviation="4"/>
<feComposite in2="hardAlpha" operator="out"/>
<feColorMatrix type="matrix" values="0 0 0 0 0 0 0 0 0 0 0 0 0 0 0 0 0 0 0.12 0"/>
<feBlend mode="normal" in2="BackgroundImageFix" result="effect1_dropShadow_1019_2423"/>
<feBlend mode="normal" in="SourceGraphic" in2="effect1_dropShadow_1019_2423" result="shape"/>
</filter>
</defs>
</svg>
