<svg width="42" height="42" viewBox="0 0 42 42" fill="none" xmlns="http://www.w3.org/2000/svg">
<circle cx="21" cy="21" r="21" fill="#D6D9F5"/>
<path d="M21.032 29.24C19.544 29.24 18.248 28.912 17.144 28.256C16.056 27.584 15.312 26.648 14.912 25.448L17.408 24.272C17.632 25.152 18.032 25.832 18.608 26.312C19.184 26.792 20.024 27.032 21.128 27.032C22.056 27.032 22.776 26.792 23.288 26.312C23.8 25.816 24.056 25.168 24.056 24.368C24.056 23.584 23.824 23.008 23.36 22.64C22.912 22.256 22.192 22.064 21.2 22.064C20.832 22.064 20.424 22.088 19.976 22.136V19.976C20.12 19.992 20.256 20.008 20.384 20.024C20.528 20.024 20.664 20.024 20.792 20.024C21.832 20.024 22.576 19.816 23.024 19.4C23.472 18.984 23.696 18.336 23.696 17.456C23.696 16.704 23.464 16.128 23 15.728C22.536 15.328 21.888 15.128 21.056 15.128C20.176 15.128 19.488 15.336 18.992 15.752C18.496 16.168 18.128 16.752 17.888 17.504L15.536 16.52C15.872 15.432 16.544 14.56 17.552 13.904C18.56 13.232 19.768 12.896 21.176 12.896C22.312 12.896 23.256 13.088 24.008 13.472C24.776 13.84 25.344 14.344 25.712 14.984C26.096 15.608 26.288 16.312 26.288 17.096C26.288 17.896 26.136 18.576 25.832 19.136C25.528 19.68 25.144 20.104 24.68 20.408C24.232 20.712 23.776 20.904 23.312 20.984V21.032C23.92 21.048 24.472 21.2 24.968 21.488C25.48 21.776 25.888 22.176 26.192 22.688C26.496 23.2 26.648 23.784 26.648 24.44C26.648 25.4 26.408 26.24 25.928 26.96C25.448 27.68 24.784 28.24 23.936 28.64C23.104 29.04 22.136 29.24 21.032 29.24Z" fill="#19216C"/>
</svg>
