<svg width="311" height="33" viewBox="0 0 311 33" fill="none" xmlns="http://www.w3.org/2000/svg">
<path d="M289.364 30V24.984C289.364 24.8 289.364 24.612 289.364 24.42C289.372 24.22 289.38 24.016 289.388 23.808C289.116 24.064 288.812 24.284 288.476 24.468C288.14 24.644 287.796 24.768 287.444 24.84L287.228 23.448C287.404 23.424 287.608 23.368 287.84 23.28C288.072 23.192 288.304 23.084 288.536 22.956C288.776 22.828 288.992 22.688 289.184 22.536C289.384 22.384 289.536 22.232 289.64 22.08H290.984V30H289.364ZM296.504 30V28.14H292.64V27.06C292.68 26.98 292.736 26.884 292.808 26.772C292.888 26.652 292.976 26.516 293.072 26.364L296.024 22.08H298.004V26.94H299.288V28.14H298.004V30H296.504ZM294.056 26.94H296.516V24.324C296.516 24.148 296.52 23.968 296.528 23.784C296.536 23.6 296.544 23.412 296.552 23.22H296.528C296.44 23.396 296.332 23.588 296.204 23.796C296.084 24.004 295.972 24.184 295.868 24.336L294.212 26.712C294.156 26.792 294.104 26.868 294.056 26.94ZM302.346 21.96C302.986 21.96 303.498 22.164 303.882 22.572C304.266 22.98 304.458 23.52 304.458 24.192C304.458 24.864 304.266 25.404 303.882 25.812C303.498 26.22 302.986 26.424 302.346 26.424C301.706 26.424 301.194 26.22 300.81 25.812C300.426 25.404 300.234 24.864 300.234 24.192C300.234 23.52 300.426 22.98 300.81 22.572C301.194 22.164 301.706 21.96 302.346 21.96ZM301.95 30L307.29 22.08H308.61L303.27 30H301.95ZM302.346 23.1C302.074 23.1 301.866 23.196 301.722 23.388C301.578 23.58 301.506 23.848 301.506 24.192C301.506 24.536 301.578 24.804 301.722 24.996C301.866 25.18 302.074 25.272 302.346 25.272C302.618 25.272 302.826 25.18 302.97 24.996C303.114 24.804 303.186 24.536 303.186 24.192C303.186 23.848 303.114 23.58 302.97 23.388C302.826 23.196 302.618 23.1 302.346 23.1ZM308.202 25.656C308.842 25.656 309.354 25.86 309.738 26.268C310.122 26.676 310.314 27.216 310.314 27.888C310.314 28.56 310.122 29.1 309.738 29.508C309.354 29.916 308.842 30.12 308.202 30.12C307.562 30.12 307.05 29.916 306.666 29.508C306.282 29.1 306.09 28.56 306.09 27.888C306.09 27.216 306.282 26.676 306.666 26.268C307.05 25.86 307.562 25.656 308.202 25.656ZM308.202 26.808C307.93 26.808 307.722 26.904 307.578 27.096C307.434 27.28 307.362 27.544 307.362 27.888C307.362 28.232 307.434 28.5 307.578 28.692C307.722 28.884 307.93 28.98 308.202 28.98C308.474 28.98 308.682 28.884 308.826 28.692C308.97 28.5 309.042 28.232 309.042 27.888C309.042 27.544 308.97 27.28 308.826 27.096C308.682 26.904 308.474 26.808 308.202 26.808Z" fill="#484848"/>
<path d="M2.632 3.76V13H1.512V3.76H2.632ZM8.2052 13.14C7.62654 13.14 7.09454 12.9953 6.6092 12.706C6.12387 12.4167 5.73654 12.0013 5.4472 11.46C5.15787 10.9093 5.0132 10.256 5.0132 9.5C5.0132 8.72533 5.1672 8.06733 5.4752 7.526C5.7832 6.98467 6.1892 6.574 6.6932 6.294C7.1972 6.00467 7.73854 5.86 8.3172 5.86C8.8212 5.86 9.2692 5.97667 9.6612 6.21C10.0532 6.434 10.3425 6.742 10.5292 7.134V2.78H11.6492V13H10.6692L10.5992 11.684C10.4032 12.16 10.0859 12.524 9.6472 12.776C9.20854 13.0187 8.72787 13.14 8.2052 13.14ZM8.3172 12.16C8.97987 12.16 9.51187 11.9127 9.9132 11.418C10.3239 10.9233 10.5292 10.2513 10.5292 9.402C10.5292 8.59933 10.3285 7.974 9.9272 7.526C9.52587 7.06867 9.00787 6.84 8.3732 6.84C7.66387 6.84 7.1132 7.08267 6.7212 7.568C6.3292 8.05333 6.1332 8.69733 6.1332 9.5C6.1332 10.3027 6.32454 10.9467 6.7072 11.432C7.08987 11.9173 7.62654 12.16 8.3172 12.16ZM15.4565 2.78V11.222C15.4565 11.5767 15.5219 11.824 15.6525 11.964C15.7832 12.0947 15.9932 12.16 16.2825 12.16C16.4692 12.16 16.6232 12.146 16.7445 12.118C16.8659 12.09 17.0292 12.0387 17.2345 11.964L17.0525 12.944C16.7445 13.0747 16.3992 13.14 16.0165 13.14C14.8965 13.14 14.3365 12.5147 14.3365 11.264V2.78H15.4565ZM21.7378 13.14C21.0752 13.14 20.4825 12.9953 19.9598 12.706C19.4465 12.4167 19.0452 12.0013 18.7558 11.46C18.4665 10.9093 18.3218 10.256 18.3218 9.5C18.3218 8.744 18.4665 8.09533 18.7558 7.554C19.0452 7.00333 19.4418 6.58333 19.9458 6.294C20.4498 6.00467 21.0238 5.86 21.6678 5.86C22.3212 5.86 22.8765 6 23.3338 6.28C23.8005 6.56 24.1552 6.94267 24.3978 7.428C24.6405 7.904 24.7618 8.44067 24.7618 9.038C24.7618 9.19667 24.7572 9.34133 24.7478 9.472C24.7385 9.60267 24.7245 9.71933 24.7058 9.822H19.4278C19.4838 10.5593 19.7125 11.1333 20.1138 11.544C20.5152 11.9547 21.0472 12.16 21.7098 12.16C22.2232 12.16 22.6385 12.062 22.9558 11.866C23.2825 11.67 23.5438 11.404 23.7398 11.068L24.6218 11.586C24.3605 12.062 23.9825 12.44 23.4878 12.72C23.0025 13 22.4192 13.14 21.7378 13.14ZM21.6398 6.84C21.0518 6.84 20.5665 7.01733 20.1838 7.372C19.8105 7.71733 19.5725 8.20267 19.4698 8.828H23.6418C23.6138 8.19333 23.4178 7.70333 23.0538 7.358C22.6898 7.01267 22.2185 6.84 21.6398 6.84Z" fill="#484848"/>
<rect y="24" width="281" height="6" fill="#FAD1D1"/>
<rect y="24" width="48" height="6" fill="#D61818"/>
</svg>
