<svg width="50" height="50" viewBox="0 0 50 50" fill="none" xmlns="http://www.w3.org/2000/svg">
<circle cx="25" cy="25" r="25" fill="#FFEBEB"/>
<path d="M24.5 30.5781C26.6574 30.5781 28.4062 28.8292 28.4062 26.6719C28.4062 24.5145 26.6574 22.7656 24.5 22.7656C22.3426 22.7656 20.5938 24.5145 20.5938 26.6719C20.5938 28.8292 22.3426 30.5781 24.5 30.5781Z" stroke="#F34E4E" stroke-width="1.5" stroke-linecap="round" stroke-linejoin="round"/>
<path d="M31.1406 24.3281C32.0504 24.3274 32.9478 24.5388 33.7615 24.9456C34.5752 25.3523 35.2829 25.9433 35.8282 26.6715" stroke="#F34E4E" stroke-width="1.5" stroke-linecap="round" stroke-linejoin="round"/>
<path d="M13.1714 26.6717C13.7167 25.9435 14.4244 25.3524 15.2382 24.9456C16.0519 24.5388 16.9494 24.3274 17.8592 24.3281" stroke="#F34E4E" stroke-width="1.5" stroke-linecap="round" stroke-linejoin="round"/>
<path d="M18.8784 34.0937C19.3916 33.0396 20.1908 32.151 21.1849 31.5294C22.1789 30.9078 23.3277 30.5781 24.5001 30.5781C25.6724 30.5781 26.8212 30.9077 27.8152 31.5294C28.8093 32.151 29.6085 33.0395 30.1217 34.0936" stroke="#F34E4E" stroke-width="1.5" stroke-linecap="round" stroke-linejoin="round"/>
<path d="M17.8593 24.3281C17.2663 24.328 16.6857 24.1592 16.1851 23.8415C15.6845 23.5237 15.2846 23.0701 15.0322 22.5335C14.7798 21.997 14.6852 21.3998 14.7595 20.8115C14.8338 20.2233 15.0739 19.6683 15.4518 19.2114C15.8297 18.7545 16.3298 18.4145 16.8937 18.2312C17.4576 18.0479 18.062 18.0288 18.6363 18.1761C19.2107 18.3235 19.7312 18.6311 20.1373 19.0632C20.5433 19.4954 20.818 20.0341 20.9293 20.6164" stroke="#F34E4E" stroke-width="1.5" stroke-linecap="round" stroke-linejoin="round"/>
<path d="M28.0708 20.6165C28.1821 20.0341 28.4567 19.4953 28.8628 19.0631C29.2688 18.6308 29.7894 18.3231 30.3638 18.1757C30.9382 18.0283 31.5427 18.0474 32.1067 18.2307C32.6706 18.414 33.1708 18.754 33.5488 19.211C33.9267 19.6679 34.1669 20.223 34.2412 20.8113C34.3155 21.3997 34.2209 21.997 33.9684 22.5336C33.7159 23.0701 33.316 23.5238 32.8153 23.8416C32.3146 24.1593 31.7338 24.3281 31.1408 24.3282" stroke="#F34E4E" stroke-width="1.5" stroke-linecap="round" stroke-linejoin="round"/>
</svg>
