<svg width="313" height="33" viewBox="0 0 313 33" fill="none" xmlns="http://www.w3.org/2000/svg">
<path d="M0.364 13L3.962 3.76H5.292L8.876 13H7.686L6.706 10.438H2.52L1.54 13H0.364ZM4.186 6.07L2.926 9.388H6.3L5.054 6.112L4.62 4.824H4.592L4.186 6.07ZM13.1358 13.14C12.4545 13.14 11.8245 12.9953 11.2458 12.706C10.6765 12.4167 10.2378 12.006 9.92983 11.474L10.8818 10.788C11.0872 11.2173 11.3858 11.5533 11.7778 11.796C12.1792 12.0387 12.6598 12.16 13.2198 12.16C13.7145 12.16 14.1018 12.0667 14.3818 11.88C14.6618 11.684 14.8018 11.432 14.8018 11.124C14.8018 10.928 14.7365 10.7507 14.6058 10.592C14.4845 10.424 14.2465 10.3027 13.8918 10.228L12.2118 9.878C11.5305 9.738 11.0405 9.50467 10.7418 9.178C10.4525 8.85133 10.3078 8.44533 10.3078 7.96C10.3078 7.57733 10.4152 7.22733 10.6298 6.91C10.8538 6.59267 11.1665 6.34067 11.5678 6.154C11.9785 5.958 12.4592 5.86 13.0098 5.86C13.7005 5.86 14.2838 5.99533 14.7598 6.266C15.2358 6.53667 15.5905 6.91933 15.8238 7.414L14.8858 8.03C14.7272 7.61933 14.4705 7.32067 14.1158 7.134C13.7612 6.938 13.3925 6.84 13.0098 6.84C12.5058 6.84 12.1138 6.94267 11.8338 7.148C11.5538 7.35333 11.4138 7.61 11.4138 7.918C11.4138 8.12333 11.4838 8.31467 11.6238 8.492C11.7638 8.66 12.0252 8.78133 12.4078 8.856L14.1578 9.22C14.8112 9.35067 15.2685 9.56533 15.5298 9.864C15.7912 10.1627 15.9218 10.5267 15.9218 10.956C15.9218 11.6187 15.6652 12.1507 15.1518 12.552C14.6385 12.944 13.9665 13.14 13.1358 13.14ZM20.6586 13.14C19.9773 13.14 19.3473 12.9953 18.7686 12.706C18.1993 12.4167 17.7606 12.006 17.4526 11.474L18.4046 10.788C18.61 11.2173 18.9086 11.5533 19.3006 11.796C19.702 12.0387 20.1826 12.16 20.7426 12.16C21.2373 12.16 21.6246 12.0667 21.9046 11.88C22.1846 11.684 22.3246 11.432 22.3246 11.124C22.3246 10.928 22.2593 10.7507 22.1286 10.592C22.0073 10.424 21.7693 10.3027 21.4146 10.228L19.7346 9.878C19.0533 9.738 18.5633 9.50467 18.2646 9.178C17.9753 8.85133 17.8306 8.44533 17.8306 7.96C17.8306 7.57733 17.938 7.22733 18.1526 6.91C18.3766 6.59267 18.6893 6.34067 19.0906 6.154C19.5013 5.958 19.982 5.86 20.5326 5.86C21.2233 5.86 21.8066 5.99533 22.2826 6.266C22.7586 6.53667 23.1133 6.91933 23.3466 7.414L22.4086 8.03C22.25 7.61933 21.9933 7.32067 21.6386 7.134C21.284 6.938 20.9153 6.84 20.5326 6.84C20.0286 6.84 19.6366 6.94267 19.3566 7.148C19.0766 7.35333 18.9366 7.61 18.9366 7.918C18.9366 8.12333 19.0066 8.31467 19.1466 8.492C19.2866 8.66 19.548 8.78133 19.9306 8.856L21.6806 9.22C22.334 9.35067 22.7913 9.56533 23.0526 9.864C23.314 10.1627 23.4446 10.5267 23.4446 10.956C23.4446 11.6187 23.188 12.1507 22.6746 12.552C22.1613 12.944 21.4893 13.14 20.6586 13.14ZM26.2215 4.656C25.9695 4.656 25.7641 4.58133 25.6055 4.432C25.4561 4.27333 25.3815 4.068 25.3815 3.816C25.3815 3.564 25.4561 3.36333 25.6055 3.214C25.7641 3.05533 25.9695 2.976 26.2215 2.976C26.4735 2.976 26.6741 3.05533 26.8235 3.214C26.9821 3.36333 27.0615 3.564 27.0615 3.816C27.0615 4.068 26.9821 4.27333 26.8235 4.432C26.6741 4.58133 26.4735 4.656 26.2215 4.656ZM26.7815 6V13H25.6615V6H26.7815ZM33.2862 12.104C33.9489 12.104 34.4669 12.258 34.8402 12.566C35.2135 12.8647 35.4002 13.266 35.4002 13.77C35.4002 14.2273 35.2462 14.624 34.9382 14.96C34.6395 15.296 34.2335 15.5527 33.7202 15.73C33.2162 15.9167 32.6469 16.01 32.0122 16.01C30.9109 16.01 30.0849 15.8233 29.5342 15.45C28.9929 15.0767 28.7222 14.6287 28.7222 14.106C28.7222 13.7887 28.8109 13.4993 28.9882 13.238C29.1655 12.9767 29.4595 12.79 29.8702 12.678C29.6462 12.5753 29.4642 12.4353 29.3242 12.258C29.1842 12.0713 29.1142 11.824 29.1142 11.516C29.1142 11.2267 29.1982 10.9653 29.3662 10.732C29.5342 10.4893 29.7862 10.3027 30.1222 10.172C29.7675 9.96667 29.4969 9.696 29.3102 9.36C29.1235 9.024 29.0302 8.646 29.0302 8.226C29.0302 7.75933 29.1515 7.34867 29.3942 6.994C29.6462 6.63933 29.9869 6.364 30.4162 6.168C30.8455 5.96267 31.3402 5.86 31.9002 5.86C32.4882 5.86 33.0155 5.97667 33.4822 6.21C33.5475 5.74333 33.7529 5.37933 34.0982 5.118C34.4529 4.84733 34.8682 4.712 35.3442 4.712H35.4142L35.6662 5.706H35.5682C35.1389 5.706 34.8029 5.78533 34.5602 5.944C34.3175 6.10267 34.1822 6.35 34.1542 6.686C34.5649 7.11533 34.7702 7.62867 34.7702 8.226C34.7702 8.68333 34.6489 9.094 34.4062 9.458C34.1635 9.81267 33.8229 10.0927 33.3842 10.298C32.9549 10.494 32.4602 10.592 31.9002 10.592C31.5549 10.592 31.2329 10.5593 30.9342 10.494C30.6542 10.578 30.4535 10.6947 30.3322 10.844C30.2109 10.9933 30.1502 11.1567 30.1502 11.334C30.1502 11.8473 30.5142 12.104 31.2422 12.104H33.2862ZM31.9002 6.77C31.4149 6.77 31.0089 6.90533 30.6822 7.176C30.3555 7.43733 30.1922 7.78733 30.1922 8.226C30.1922 8.65533 30.3555 9.00533 30.6822 9.276C31.0089 9.54667 31.4149 9.682 31.9002 9.682C32.3855 9.682 32.7915 9.54667 33.1182 9.276C33.4449 9.00533 33.6082 8.65533 33.6082 8.226C33.6082 7.78733 33.4449 7.43733 33.1182 7.176C32.7915 6.90533 32.3855 6.77 31.9002 6.77ZM31.9982 15.072C32.8102 15.072 33.4075 14.9507 33.7902 14.708C34.1729 14.4747 34.3642 14.204 34.3642 13.896C34.3642 13.644 34.2615 13.4433 34.0562 13.294C33.8602 13.1447 33.5009 13.07 32.9782 13.07H30.8222C30.5235 13.07 30.2715 13.1447 30.0662 13.294C29.8609 13.4527 29.7582 13.6673 29.7582 13.938C29.7582 14.2833 29.9542 14.5587 30.3462 14.764C30.7475 14.9693 31.2982 15.072 31.9982 15.072ZM37.1114 13V6H38.0914L38.1614 7.092C38.404 6.65333 38.7354 6.34067 39.1554 6.154C39.5754 5.958 40.028 5.86 40.5134 5.86C41.0174 5.86 41.4747 5.958 41.8854 6.154C42.296 6.34067 42.6227 6.63 42.8654 7.022C43.1174 7.414 43.2434 7.91333 43.2434 8.52V13H42.1234V8.912C42.1234 8.13733 41.9554 7.60067 41.6194 7.302C41.2927 6.994 40.8867 6.84 40.4014 6.84C40.0654 6.84 39.7294 6.91933 39.3934 7.078C39.0574 7.23667 38.7774 7.49333 38.5534 7.848C38.3387 8.20267 38.2314 8.67867 38.2314 9.276V13H37.1114ZM48.8453 13.14C48.1827 13.14 47.59 12.9953 47.0673 12.706C46.554 12.4167 46.1527 12.0013 45.8633 11.46C45.574 10.9093 45.4293 10.256 45.4293 9.5C45.4293 8.744 45.574 8.09533 45.8633 7.554C46.1527 7.00333 46.5493 6.58333 47.0533 6.294C47.5573 6.00467 48.1313 5.86 48.7753 5.86C49.4287 5.86 49.984 6 50.4413 6.28C50.908 6.56 51.2627 6.94267 51.5053 7.428C51.748 7.904 51.8693 8.44067 51.8693 9.038C51.8693 9.19667 51.8647 9.34133 51.8553 9.472C51.846 9.60267 51.832 9.71933 51.8133 9.822H46.5353C46.5913 10.5593 46.82 11.1333 47.2213 11.544C47.6227 11.9547 48.1547 12.16 48.8173 12.16C49.3307 12.16 49.746 12.062 50.0633 11.866C50.39 11.67 50.6513 11.404 50.8473 11.068L51.7293 11.586C51.468 12.062 51.09 12.44 50.5953 12.72C50.11 13 49.5267 13.14 48.8453 13.14ZM48.7473 6.84C48.1593 6.84 47.674 7.01733 47.2913 7.372C46.918 7.71733 46.68 8.20267 46.5773 8.828H50.7493C50.7213 8.19333 50.5253 7.70333 50.1613 7.358C49.7973 7.01267 49.326 6.84 48.7473 6.84ZM56.8694 13.14C56.2908 13.14 55.7588 12.9953 55.2734 12.706C54.7881 12.4167 54.4008 12.0013 54.1114 11.46C53.8221 10.9093 53.6774 10.256 53.6774 9.5C53.6774 8.72533 53.8314 8.06733 54.1394 7.526C54.4474 6.98467 54.8534 6.574 55.3574 6.294C55.8614 6.00467 56.4028 5.86 56.9814 5.86C57.4854 5.86 57.9334 5.97667 58.3254 6.21C58.7174 6.434 59.0068 6.742 59.1934 7.134V2.78H60.3134V13H59.3334L59.2634 11.684C59.0674 12.16 58.7501 12.524 58.3114 12.776C57.8728 13.0187 57.3921 13.14 56.8694 13.14ZM56.9814 12.16C57.6441 12.16 58.1761 11.9127 58.5774 11.418C58.9881 10.9233 59.1934 10.2513 59.1934 9.402C59.1934 8.59933 58.9928 7.974 58.5914 7.526C58.1901 7.06867 57.6721 6.84 57.0374 6.84C56.3281 6.84 55.7774 7.08267 55.3854 7.568C54.9934 8.05333 54.7974 8.69733 54.7974 9.5C54.7974 10.3027 54.9888 10.9467 55.3714 11.432C55.7541 11.9173 56.2908 12.16 56.9814 12.16Z" fill="#484848"/>
<path d="M290.432 30.12C289.736 30.12 289.148 29.976 288.668 29.688C288.196 29.4 287.808 28.96 287.504 28.368L288.992 27.624C289.096 27.976 289.26 28.26 289.484 28.476C289.708 28.692 290.036 28.8 290.468 28.8C290.908 28.8 291.252 28.684 291.5 28.452C291.756 28.22 291.884 27.888 291.884 27.456C291.884 27.024 291.764 26.696 291.524 26.472C291.292 26.248 290.952 26.136 290.504 26.136C289.848 26.136 289.364 26.328 289.052 26.712L287.756 26.472L288.248 22.08H293.036V23.412H289.496L289.256 25.344L289.22 25.5H289.244C289.412 25.316 289.64 25.172 289.928 25.068C290.224 24.956 290.56 24.9 290.936 24.9C291.448 24.9 291.888 25.004 292.256 25.212C292.632 25.42 292.92 25.712 293.12 26.088C293.32 26.456 293.42 26.88 293.42 27.36C293.42 27.968 293.284 28.48 293.012 28.896C292.748 29.304 292.388 29.612 291.932 29.82C291.484 30.02 290.984 30.12 290.432 30.12ZM298.496 30V28.14H294.632V27.06C294.672 26.98 294.728 26.884 294.8 26.772C294.88 26.652 294.968 26.516 295.064 26.364L298.016 22.08H299.996V26.94H301.28V28.14H299.996V30H298.496ZM296.048 26.94H298.508V24.324C298.508 24.148 298.512 23.968 298.52 23.784C298.528 23.6 298.536 23.412 298.544 23.22H298.52C298.432 23.396 298.324 23.588 298.196 23.796C298.076 24.004 297.964 24.184 297.86 24.336L296.204 26.712C296.148 26.792 296.096 26.868 296.048 26.94ZM304.338 21.96C304.978 21.96 305.49 22.164 305.874 22.572C306.258 22.98 306.45 23.52 306.45 24.192C306.45 24.864 306.258 25.404 305.874 25.812C305.49 26.22 304.978 26.424 304.338 26.424C303.698 26.424 303.186 26.22 302.802 25.812C302.418 25.404 302.226 24.864 302.226 24.192C302.226 23.52 302.418 22.98 302.802 22.572C303.186 22.164 303.698 21.96 304.338 21.96ZM303.942 30L309.282 22.08H310.602L305.262 30H303.942ZM304.338 23.1C304.066 23.1 303.858 23.196 303.714 23.388C303.57 23.58 303.498 23.848 303.498 24.192C303.498 24.536 303.57 24.804 303.714 24.996C303.858 25.18 304.066 25.272 304.338 25.272C304.61 25.272 304.818 25.18 304.962 24.996C305.106 24.804 305.178 24.536 305.178 24.192C305.178 23.848 305.106 23.58 304.962 23.388C304.818 23.196 304.61 23.1 304.338 23.1ZM310.194 25.656C310.834 25.656 311.346 25.86 311.73 26.268C312.114 26.676 312.306 27.216 312.306 27.888C312.306 28.56 312.114 29.1 311.73 29.508C311.346 29.916 310.834 30.12 310.194 30.12C309.554 30.12 309.042 29.916 308.658 29.508C308.274 29.1 308.082 28.56 308.082 27.888C308.082 27.216 308.274 26.676 308.658 26.268C309.042 25.86 309.554 25.656 310.194 25.656ZM310.194 26.808C309.922 26.808 309.714 26.904 309.57 27.096C309.426 27.28 309.354 27.544 309.354 27.888C309.354 28.232 309.426 28.5 309.57 28.692C309.714 28.884 309.922 28.98 310.194 28.98C310.466 28.98 310.674 28.884 310.818 28.692C310.962 28.5 311.034 28.232 311.034 27.888C311.034 27.544 310.962 27.28 310.818 27.096C310.674 26.904 310.466 26.808 310.194 26.808Z" fill="#484848"/>
<rect y="24" width="281" height="6" fill="#DBDEF0"/>
<rect y="24" width="181" height="6" fill="#2D356B"/>
</svg>
