<svg width="42" height="42" viewBox="0 0 42 42" fill="none" xmlns="http://www.w3.org/2000/svg">
<circle cx="21" cy="21" r="21" fill="#D6D9F5"/>
<path d="M21.784 29V25.04H14.056V23.288C14.12 23.144 14.256 22.92 14.464 22.616L21.064 13.16H24.208V23.048H26.896V25.04H24.208V29H21.784ZM16.456 23.048H21.784V17.456C21.784 17.072 21.792 16.68 21.808 16.28C21.84 15.864 21.864 15.456 21.88 15.056H21.832C21.656 15.44 21.424 15.864 21.136 16.328C20.864 16.776 20.608 17.168 20.368 17.504L16.624 22.832C16.576 22.912 16.52 22.984 16.456 23.048Z" fill="#19216C"/>
</svg>
