<svg width="172" height="35" viewBox="0 0 172 35" fill="none" xmlns="http://www.w3.org/2000/svg">
<path d="M9.31618 17.5806C9.54437 17.4193 9.58898 17.306 9.36079 17.1225C7.85442 15.9592 6.32402 14.7943 4.83996 13.607C4.24804 13.1283 3.58579 12.7166 3.03677 12.147H3.01447V22.3742H3.03677C3.22035 22.2146 3.42451 22.0551 3.60809 21.8955C5.49535 20.4801 7.39804 19.0183 9.31618 17.5806Z" fill="#292525"/>
<path d="M169.354 0.480367C169.354 0.13723 169.285 0.0686035 168.942 0.0686035H2.62673C2.28359 0.0686035 2.21497 0.13723 2.21497 0.480367V8.20096V27.6054V34.5196C2.21497 34.8627 2.28359 34.9313 2.62673 34.9313H168.92C169.263 34.9313 169.33 34.8627 169.33 34.5196C169.354 23.1497 169.354 11.8262 169.354 0.480367ZM168.554 33.6755C168.554 34.0409 168.463 34.1318 168.098 34.1318H3.47085C3.0608 34.1318 3.01448 33.9946 3.01448 33.6515V22.4206H2.99217V12.1916H3.01448V1.3485C3.01448 0.983063 3.10541 0.890419 3.47085 0.890419H168.098C168.463 0.890419 168.554 0.959043 168.554 1.3485V33.6755Z" fill="white"/>
<path d="M116.799 3.03679C116.799 2.44316 116.799 2.44316 116.227 2.44316H5.96028C5.80037 2.45517 5.63979 2.45517 5.47988 2.44316C5.22939 2.42086 5.16077 2.53581 5.16077 2.76399V11.4848C5.1518 11.5632 5.16394 11.6425 5.19591 11.7146C5.22788 11.7867 5.27854 11.8489 5.34263 11.8949C6.14214 12.5125 6.94165 13.1508 7.74459 13.7667C9.26469 14.9539 10.7985 16.1275 12.3289 17.3062C11.9189 17.6253 11.5534 17.9444 11.164 18.2412C9.29214 19.6566 7.39802 21.0721 5.52621 22.4875C5.29802 22.6711 5.13675 22.853 5.16077 23.1961C5.18307 25.9807 5.18307 28.7892 5.16077 31.5755C5.16077 32.0079 5.2517 32.1451 5.73037 32.1451C42.5776 32.1222 79.4328 32.1222 116.296 32.1451C116.73 32.1451 116.821 32.0319 116.821 31.6201C116.799 22.1238 116.799 12.576 116.799 3.03679ZM20.8679 24.5652C19.9997 25.6392 18.809 26.0956 17.488 26.1642C16.9612 26.1904 16.4332 26.16 15.913 26.0733C14.6125 25.8897 13.3394 26.0493 12.0321 26.0956H11.6443L11.4162 25.8674C11.4046 25.8008 11.4198 25.7324 11.4583 25.6768C11.4968 25.6213 11.5556 25.5831 11.622 25.5706H11.6666C12.0098 25.5483 12.3752 25.6152 12.6034 25.2961C12.8762 24.9307 12.9002 24.4743 12.9002 24.0402C12.9448 22.9216 12.9677 21.803 12.9689 20.6843V10.6853C12.9689 10.3885 12.9448 10.0694 12.9225 9.77257C12.8762 9.11032 12.5794 8.81351 11.9189 8.69856L11.3921 8.62992C11.2566 8.62992 11.1193 8.58532 11.1193 8.42576C11.1193 8.2662 11.2566 8.17356 11.4162 8.17356H12.8316C13.1044 8.17356 13.3566 8.19757 13.6311 8.19757H14.4289C15.5475 8.19757 16.6902 8.06032 17.8088 8.24218C20.0907 8.58532 20.897 10.3885 20.7255 12.1008C20.6105 13.4733 19.9723 14.6125 18.9909 15.5476C18.7387 15.7758 18.6941 15.8684 19.0578 16.0503C22.551 17.9221 22.8032 22.1924 20.8627 24.5652H20.8679ZM38.4314 8.65395C37.5426 8.7912 37.3814 8.92674 37.3367 9.81718C37.1772 12.1917 37.2904 14.5439 37.2681 16.9184C37.2681 18.1966 37.2681 19.4748 37.0845 20.753C36.8872 22.0775 36.5441 23.3557 35.6863 24.452C34.3617 26.1179 32.5586 26.552 30.5255 26.3238C27.5814 26.0047 26.3478 23.9716 25.8691 21.6211C25.6747 20.6133 25.5827 19.5884 25.5946 18.562V10.7076C25.5946 10.4794 25.5946 10.2289 25.5723 10.0008C25.5037 9.064 25.2291 8.7912 24.2941 8.65395C24.0882 8.62993 23.7228 8.76718 23.7691 8.40174C23.8154 8.0363 24.1345 8.19757 24.3627 8.19757C25.96 8.21988 27.559 8.26449 29.1564 8.19757L29.5441 8.21988L29.7277 8.44806L29.5441 8.65395H29.4995C28.2882 8.95076 28.2659 8.95076 28.1973 10.2066C28.1527 11.0971 28.1527 11.9635 28.175 12.8539C28.1973 15.388 28.06 17.8998 28.2659 20.4338C28.3345 21.3929 28.4941 22.3211 28.9522 23.1789C29.6144 24.3799 30.5958 25.0508 32.0113 25.0044C33.473 24.9358 34.3858 24.138 34.9571 22.8581C35.3912 21.8767 35.4598 20.7993 35.4821 19.7544C35.5044 18.9772 35.5044 18.2017 35.5044 17.4486V10.6373C35.5081 10.4163 35.5006 10.1953 35.4821 9.97503C35.3912 9.0863 35.139 8.81179 34.2262 8.69684L33.998 8.67453C33.8385 8.67453 33.6789 8.62821 33.7012 8.42405C33.7235 8.21988 33.8608 8.21816 34.0203 8.21816H34.113C35.5284 8.24047 36.9662 8.26277 38.3816 8.21816C38.5635 8.21816 38.8157 8.17184 38.8157 8.44635C38.838 8.67454 38.5875 8.62821 38.4262 8.65223L38.4314 8.65395ZM47.9929 24.9512C47.6742 25.3327 47.2823 25.6463 46.8402 25.8735C46.3982 26.1008 45.915 26.237 45.4193 26.274C44.2098 26.4113 43.0174 26.3427 41.8816 25.9086C41.2193 25.6358 41.1507 25.5449 41.1507 24.8363C41.173 23.8069 41.2193 22.7775 41.2416 21.7481V21.6177C41.3103 21.4804 41.2416 21.2059 41.4939 21.2299C41.7461 21.2539 41.6534 21.4804 41.6534 21.6177C41.679 22.0979 41.7631 22.5733 41.9039 23.0331C42.0981 23.7091 42.5321 24.291 43.1246 24.67C43.7171 25.049 44.4274 25.199 45.1225 25.0919C46.3338 24.9324 47.2242 23.7691 47.2912 22.3297C47.3581 20.8902 46.7439 19.8419 45.6939 18.9978C44.8034 18.2669 43.8443 17.6253 43.0689 16.7829C41.5848 15.1392 41.1284 13.2211 41.722 11.1211C42.247 9.2716 43.8907 8.03287 45.8088 7.92478C46.7741 7.88098 47.7405 7.98571 48.674 8.23532C48.9931 8.32625 49.0858 8.48752 49.0617 8.80664C49.0394 9.24071 49.0617 9.69708 49.0617 10.1312H49.0394C49.0394 10.6561 49.0617 11.1812 49.0394 11.7062C49.0394 11.8657 49.0617 12.1162 48.8113 12.1162C48.5608 12.1162 48.6517 11.8657 48.6294 11.7062C48.5144 10.6767 48.149 9.76571 47.1453 9.33165C46.7097 9.12744 46.2261 9.04773 45.748 9.10133C45.2698 9.15492 44.8159 9.33973 44.4363 9.63532C43.2713 10.5035 43.1804 12.4439 44.2544 13.6535C44.8017 14.2694 45.4863 14.7498 46.1416 15.2285C47.3752 16.1412 48.5162 17.1466 48.9948 18.6598C49.772 20.9194 49.6125 23.0657 47.9912 24.9615L47.9929 24.9512ZM57.5801 26.1025C57.237 26.1025 56.8715 26.1248 56.5301 26.1025C55.3446 26.0115 54.1539 26.0115 52.9684 26.1025C52.7162 26.1248 52.4657 26.1025 52.2152 26.1025C52.0556 26.1025 51.9184 26.0562 51.8943 25.8743C51.8703 25.6924 52.0093 25.5998 52.1688 25.5998C52.512 25.5775 52.8997 25.6461 53.1279 25.303C53.3561 24.9598 53.3784 24.5035 53.4024 24.0711C53.4934 21.8407 53.4934 19.5966 53.4711 17.3799C53.4488 15.1633 53.4711 12.95 53.447 10.7368C53.447 10.4623 53.4247 10.1878 53.4024 9.89095C53.3338 9.02453 53.1056 8.79635 52.2598 8.6814C52.0779 8.65909 51.8257 8.7037 51.8257 8.43091C51.8257 8.15812 52.1002 8.20272 52.2838 8.20272H57.0774C57.2593 8.20272 57.5115 8.1564 57.5115 8.43091C57.5115 8.70542 57.2833 8.63507 57.1238 8.65909C56.2333 8.79635 56.0943 8.95591 56.0274 9.82233C55.9811 10.3027 55.9588 10.7591 55.9588 11.2378V22.7843C55.9588 23.3334 56.0051 23.9047 56.0274 24.452C56.072 25.2275 56.3706 25.5243 57.1461 25.5706H57.5338C57.7174 25.5706 57.9679 25.5706 57.9679 25.8211C57.9679 26.0716 57.762 26.0956 57.5801 26.0956V26.1025ZM75.4233 8.62992C74.3046 8.85811 74.26 8.88213 74.1451 10.0025C74.0078 11.4402 74.1005 12.878 74.0541 14.3174C73.9855 17.9701 73.9409 21.6005 73.8946 25.2532V25.6856C73.8483 25.9138 73.8946 26.2346 73.6201 26.3255C73.3456 26.4164 73.1414 26.2106 72.9818 26.0287C72.5924 25.5723 72.2046 25.0919 71.8392 24.6356C68.8951 20.9829 65.9492 17.3302 63.2608 13.4716L63.0789 13.2434C63.0789 14.7515 63.0549 16.2338 63.0789 17.7179C63.1235 19.727 63.1921 21.7361 63.2385 23.7451C63.2409 24.038 63.2789 24.3295 63.3517 24.6133C63.5112 25.2995 63.7635 25.5037 64.4943 25.526L64.7912 25.55C64.9267 25.5723 65.088 25.5946 65.088 25.8005C65.088 26.0064 64.9267 26.051 64.7448 26.051C64.4703 26.051 64.2198 26.075 63.9453 26.051C62.7358 25.9378 61.5434 26.0287 60.3424 26.051C60.1588 26.051 59.886 26.1437 59.862 25.8228C59.838 25.502 60.1365 25.55 60.3424 25.526C61.1642 25.4814 61.3924 25.2978 61.4387 24.4966C61.5983 21.712 61.5742 18.9275 61.6206 16.1189C61.6669 13.5848 61.6892 11.0285 61.7115 8.49439V8.31081C61.7578 8.12895 61.7578 7.85444 61.986 7.80812C62.2142 7.76179 62.3514 7.96939 62.4647 8.12895C63.5833 9.61302 64.6951 11.0971 65.8446 12.5794C68.0578 15.4343 70.2728 18.3098 72.4414 21.2093L72.5564 21.3466L72.625 20.9125C72.5787 17.4434 72.51 13.9726 72.4414 10.5035C72.4341 10.1968 72.4037 9.89111 72.3505 9.589C72.2372 8.90272 71.9164 8.67625 71.0723 8.60763C70.8664 8.58532 70.5473 8.69855 70.5473 8.37944C70.5473 8.06032 70.8664 8.15125 71.0946 8.15125C72.4191 8.17356 73.7659 8.21988 75.0904 8.15125H75.3649L75.6154 8.35713C75.7064 8.5613 75.5931 8.60762 75.4318 8.62992H75.4233ZM87.6921 22.8307C87.6779 23.7564 87.5942 24.6797 87.4416 25.5929C87.373 26.0047 87.1671 26.1865 86.7331 26.1865C85.6608 26.1642 84.5867 26.1865 83.5144 26.0956C81.984 25.9584 80.4262 26.027 78.9027 26.1179C78.7576 26.1216 78.6125 26.1142 78.4686 26.0956L78.2867 25.8897L78.4463 25.6152L78.5836 25.5706C79.6336 25.3647 79.7708 25.2275 79.7931 24.1089C79.8389 22.8312 79.8617 21.553 79.8617 20.2743V10.7539C79.8617 10.4348 79.8394 10.114 79.8154 9.79488C79.7708 9.1086 79.4723 8.8135 78.786 8.72257C78.6024 8.69855 78.3965 8.67625 78.2147 8.65395L78.0088 8.47037L78.1924 8.26449C78.3351 8.23861 78.4797 8.22369 78.6247 8.21988C79.8583 8.26449 81.0902 8.31081 81.9583 8.28851H85.6573C86.0999 8.3019 86.541 8.23206 86.9578 8.08262C87.186 7.99169 87.3233 8.0363 87.2786 8.28851C87.1174 9.3385 87.1414 10.3885 87.0041 11.4385C86.9818 11.5535 86.9578 11.7353 86.776 11.713C86.5941 11.6907 86.661 11.5294 86.6387 11.4162C86.6424 11.2712 86.6349 11.126 86.6164 10.9821C86.4568 10.0454 86.0914 9.74856 85.1546 9.67993C84.3328 9.63532 83.511 9.589 82.6892 9.589C82.4387 9.589 82.3237 9.65763 82.3237 9.93214V15.5716C82.3237 15.7535 82.3238 15.9147 82.5742 15.8907C83.626 15.8684 84.6983 15.8684 85.7483 15.8221C85.9193 15.823 86.0879 15.7819 86.2393 15.7023C86.3907 15.6227 86.5202 15.5071 86.6164 15.3657L86.8669 15.1821L86.9818 15.503C86.9132 16.2562 86.8446 16.987 86.7983 17.7334C86.776 18.1211 86.7536 18.5312 86.7536 18.9206C86.7536 19.0579 86.7073 19.2174 86.5701 19.2174C86.3882 19.2174 86.4105 19.0338 86.4105 18.9206C86.2733 17.4365 86.1137 17.277 84.6073 17.2049C83.9674 17.1809 83.3514 17.1586 82.7201 17.1123C82.4696 17.1123 82.3546 17.1586 82.3546 17.4554C82.3546 19.2826 82.3323 21.1304 82.3787 22.9576C82.401 24.1449 82.9037 24.6476 84.1132 24.7162C84.5919 24.7385 85.05 24.7385 85.5287 24.7162C86.6473 24.6476 87.126 24.1895 87.3095 23.0949L87.3782 22.7071C87.4228 22.5699 87.3782 22.3177 87.6063 22.364C87.7196 22.4326 87.6973 22.6608 87.6973 22.8204L87.6921 22.8307ZM97.4681 24.9444C97.1495 25.3258 96.7575 25.6395 96.3155 25.8667C95.8734 26.0939 95.3902 26.2301 94.8946 26.2672C93.6861 26.4259 92.4571 26.2929 91.3105 25.8794C90.8301 25.6976 90.5796 25.4008 90.6242 24.85C90.6929 23.8 90.6929 22.7723 90.7169 21.7223V21.5868C90.7838 21.4495 90.7169 21.175 90.9674 21.1973C91.1733 21.2213 91.1269 21.4495 91.1269 21.5868C91.1417 22.0682 91.2261 22.545 91.3774 23.0022C91.8355 24.44 93.1137 25.2618 94.5978 25.0611C95.8073 24.9015 96.6978 23.7365 96.7664 22.2988C96.835 20.861 96.2174 19.8111 95.1451 18.9652C94.2546 18.2343 93.2956 17.5927 92.5201 16.752C91.0583 15.153 90.6242 13.2811 91.1475 11.2035C91.6056 9.33164 93.3402 7.98483 95.2806 7.8939C96.2184 7.85456 97.1568 7.95458 98.0652 8.19071C98.4306 8.28164 98.5902 8.4412 98.5456 8.82895C98.5224 9.25469 98.5224 9.68139 98.5456 10.1071H98.4992C98.4992 10.6321 98.5215 11.1571 98.4992 11.6821C98.4992 11.8194 98.5215 12.0939 98.2711 12.0939C98.0206 12.0939 98.1115 11.8434 98.0892 11.6821C97.9742 10.6527 97.6088 9.74169 96.6051 9.30934C96.1677 9.10026 95.6806 9.01742 95.1986 9.07017C94.7167 9.12291 94.259 9.30913 93.8772 9.60787C92.7139 10.4743 92.6213 12.4147 93.6953 13.626C94.2426 14.2419 94.9272 14.7206 95.5826 15.201C96.8161 16.1138 97.9571 17.1174 98.4375 18.6324C99.2353 20.9142 99.0757 23.0606 97.4544 24.9564L97.4681 24.9444ZM108.847 24.9324C108.527 25.3238 108.132 25.6469 107.684 25.8827C107.237 26.1185 106.747 26.2621 106.244 26.3049C105.037 26.459 103.81 26.3226 102.667 25.9069C102.188 25.725 101.936 25.4282 101.98 24.8775C102.049 23.8275 102.049 22.7998 102.095 21.7498L102.118 21.5662C102.186 21.4289 102.14 21.2008 102.368 21.2231C102.552 21.2454 102.528 21.4272 102.528 21.5885C102.544 22.0845 102.629 22.5759 102.78 23.0486C103.236 24.4863 104.514 25.3098 105.999 25.1074C107.199 24.9478 108.099 23.7829 108.167 22.3451C108.236 20.9074 107.62 19.8557 106.546 19.0115C105.655 18.2807 104.698 17.639 103.921 16.7966C102.459 15.1993 102.034 13.3275 102.548 11.2498C103.005 9.37797 104.739 8.02943 106.68 7.9385C107.62 7.90024 108.56 8.00025 109.471 8.23532C109.814 8.32625 109.996 8.48753 109.95 8.87527C109.927 9.30102 109.927 9.72771 109.95 10.1535H109.903C109.903 10.6785 109.927 11.2035 109.903 11.7285C109.903 11.888 109.927 12.1402 109.675 12.1402C109.423 12.1402 109.516 11.888 109.493 11.7285C109.378 10.699 109.013 9.78801 108.009 9.35394C107.577 9.14799 107.096 9.06666 106.62 9.1191C106.144 9.17153 105.693 9.35565 105.316 9.65076C104.151 10.5189 104.06 12.4593 105.132 13.6689C105.681 14.2848 106.366 14.7652 107.028 15.2439C108.26 16.1343 109.378 17.1397 109.881 18.6238C110.612 20.8542 110.475 23.0074 108.852 24.9238" fill="#EA2127"/>
<path d="M166.614 2.44312H118.329C117.758 2.44312 117.758 2.44312 117.758 3.01444V31.5686C117.758 32.1382 117.758 32.1382 118.329 32.1382H166.636C167.207 32.1382 167.207 32.1382 167.207 31.5686V3.06076C167.23 2.44312 167.23 2.44312 166.614 2.44312ZM128.944 26.1865C127.415 26.3924 125.885 26.1865 124.379 26.0492C123.664 26.0046 122.947 26.0046 122.232 26.0492C121.845 26.0733 121.433 26.0733 121.045 26.0956C120.863 26.0956 120.68 26.0956 120.68 25.8451C120.68 25.5946 120.863 25.5929 121.023 25.5929C121.982 25.6152 122.117 25.2051 122.186 24.3147C122.255 23.4242 122.279 22.5561 122.279 21.6657V10.1603C122.232 9.08797 121.913 8.74483 120.863 8.67621L120.589 8.6539L120.361 8.42571C120.361 8.28846 120.474 8.21983 120.589 8.19753L120.977 8.17351C122.164 8.15121 123.351 8.31076 124.607 8.19753C126.341 8.19753 128.169 8.08258 129.95 8.37939C132.866 8.88209 134.765 10.5703 135.587 13.4012C136.57 16.6902 136.296 19.8865 134.469 22.8529C133.213 24.886 131.25 25.8451 128.944 26.1865ZM151.454 26.0733C150.063 26.0733 148.669 26.1179 147.276 26.0046C147.139 25.9806 146.933 26.0733 146.866 25.8451C146.799 25.6169 147.003 25.6152 147.117 25.5483C147.195 25.5048 147.253 25.4326 147.278 25.3471C147.304 25.2615 147.295 25.1694 147.254 25.0902C146.775 23.4929 146.273 21.8956 145.792 20.3189C145.783 20.2806 145.766 20.2447 145.742 20.2134C145.718 20.182 145.688 20.1559 145.654 20.1367C145.62 20.1176 145.582 20.1057 145.543 20.1019C145.504 20.0981 145.464 20.1025 145.427 20.1147H141.295C141.113 20.1147 140.999 20.137 140.93 20.3429C140.52 21.7343 139.971 23.088 139.698 24.4966C139.561 25.1828 139.674 25.6838 140.556 25.5929C140.739 25.5706 140.968 25.5706 140.968 25.8674C140.968 26.1642 140.739 26.1179 140.556 26.1179C139.183 26.0046 137.794 26.0733 136.425 26.1179C136.241 26.1179 136.013 26.1419 136.013 25.8674C136.013 25.6392 136.196 25.5929 136.378 25.5929C137.222 25.6392 137.725 25.1588 138 24.4296C138.456 23.1961 138.866 21.9402 139.3 20.7083C140.673 16.6439 142.062 12.6034 143.433 8.53895C143.524 8.26444 143.57 7.90072 143.912 7.8767C144.3 7.85439 144.346 8.26444 144.437 8.53895C146.058 13.3103 147.655 18.0593 149.277 22.8306C149.486 23.5176 149.777 24.1767 150.145 24.7934C150.464 25.3201 150.876 25.6169 151.517 25.5929C151.701 25.5929 151.951 25.5706 151.929 25.8451C151.861 26.0956 151.632 26.0733 151.449 26.0733H151.454ZM163.676 8.6539C163.332 8.69213 163.002 8.81405 162.716 9.00903C162.429 9.20401 162.195 9.46613 162.033 9.77253C160.801 11.7816 159.842 13.9039 158.837 16.0279C158.449 16.8257 158.015 17.6252 157.946 18.538C157.924 18.9034 157.901 19.2689 157.901 19.6343C157.924 21.2333 157.833 22.8306 157.97 24.4296C158.039 25.2515 158.336 25.5242 159.171 25.5706C159.346 25.5669 159.522 25.5743 159.696 25.5929C159.856 25.6152 159.993 25.6838 159.993 25.8674C159.979 25.9393 159.939 26.0032 159.879 26.0457C159.82 26.0883 159.746 26.1061 159.674 26.0956C159.193 26.0956 158.737 26.1179 158.258 26.0733C156.934 25.936 155.609 26.0733 154.285 26.0956H153.942L153.713 25.8674L153.918 25.6152L154.17 25.5929C154.901 25.5483 155.174 25.3201 155.22 24.5892C155.335 22.6488 155.402 20.7083 155.242 18.7902C155.176 18.1874 154.99 17.604 154.695 17.0745C153.645 14.9745 152.595 12.8505 151.521 10.7505C151.306 10.3183 151.054 9.90561 150.768 9.51689C150.619 9.29573 150.427 9.10693 150.204 8.96186C149.98 8.8168 149.73 8.71846 149.467 8.67277C149.308 8.65047 149.146 8.62645 149.17 8.42228C149.194 8.21812 149.352 8.1941 149.536 8.1941C151.042 8.23871 152.526 8.23871 154.033 8.1941C154.17 8.1941 154.352 8.1941 154.376 8.37596C154.4 8.55782 154.238 8.62645 154.101 8.65047C153.713 8.7414 153.645 9.01591 153.758 9.35733L153.873 9.70047C154.945 12.051 155.995 14.3809 157.114 16.8223C158.097 14.3568 159.344 12.1659 160.128 9.74508C160.334 9.08454 160.266 8.96959 159.648 8.62645L159.488 8.35366L159.717 8.1941H159.854C161.132 8.26101 162.412 8.23871 163.69 8.1941C163.85 8.1941 164.009 8.1941 164.033 8.37596C164.011 8.58184 163.851 8.62645 163.668 8.65047" fill="#292525"/>
<path d="M75.4301 8.19752H75.1574C73.8328 8.26443 72.486 8.21982 71.1615 8.19752C70.9556 8.19752 70.6365 8.12889 70.6142 8.4257C70.5919 8.72251 70.9333 8.62987 71.1392 8.65389C71.9833 8.72252 72.3025 8.9507 72.4174 9.63526C72.4706 9.93679 72.501 10.2419 72.5083 10.548C72.577 14.0188 72.6456 17.488 72.6919 20.9365L72.6233 21.3688L72.5083 21.2333C70.3397 18.3338 68.1248 15.4566 65.9115 12.6034C64.7689 11.1416 63.6502 9.63526 62.5316 8.15119C62.4184 7.99163 62.2811 7.78575 62.0529 7.83207C61.8248 7.8784 61.8248 8.15119 61.7784 8.33306V8.51664C61.7561 11.0507 61.7338 13.6071 61.6875 16.1411C61.6412 18.9274 61.6875 21.712 61.5039 24.5206C61.4593 25.3201 61.2311 25.5242 60.4093 25.5705C60.2034 25.5705 59.9066 25.5242 59.9289 25.8674C59.9512 26.2105 60.2257 26.0955 60.4093 26.0955C61.6103 26.0732 62.8113 25.9806 64.0123 26.0955C64.2645 26.1179 64.5373 26.0955 64.8118 26.0955C64.9936 26.0955 65.1549 26.0492 65.1549 25.8451C65.1549 25.6409 64.9953 25.6152 64.8598 25.5929L64.563 25.5705C63.8544 25.5242 63.5799 25.3201 63.4203 24.6578C63.3476 24.3741 63.3095 24.0826 63.3071 23.7897C63.2385 21.7806 63.1699 19.7715 63.1476 17.7625C63.1235 16.2784 63.1476 14.772 63.1476 13.288L63.3294 13.5161C66.023 17.3524 68.9689 21.0051 71.9078 24.6801C72.2733 25.1588 72.661 25.6152 73.0505 26.0732C73.21 26.2551 73.4142 26.461 73.6887 26.3701C73.9632 26.2791 73.9409 25.9583 73.9632 25.7301C73.9744 25.5856 73.9744 25.4405 73.9632 25.296C74.0078 21.6433 74.0542 18.013 74.1228 14.3603C74.1451 12.9225 74.0542 11.4848 74.1914 10.0453C74.3047 8.92668 74.351 8.92668 75.4696 8.67276C75.6069 8.65045 75.7201 8.58183 75.7201 8.42227L75.4301 8.19752Z" fill="white"/>
<path d="M19.0441 16.0725C18.701 15.8906 18.725 15.7997 18.9755 15.5715C19.9569 14.6347 20.5968 13.4938 20.7118 12.123C20.8473 10.4073 20.0718 8.60753 17.7951 8.2644C16.6765 8.10484 15.5355 8.24209 14.4169 8.21979H13.6071C13.3343 8.21979 13.0821 8.19748 12.8076 8.19748H11.3922C11.2326 8.19748 11.0953 8.26439 11.0953 8.44797C11.0953 8.63155 11.2326 8.65385 11.3698 8.65385C11.5462 8.66478 11.7216 8.68771 11.8948 8.72248C12.5571 8.81341 12.8316 9.13253 12.9002 9.79479C12.9225 10.0916 12.9448 10.4107 12.9448 10.7075C12.9448 14.0411 12.9689 17.3747 12.9448 20.7083C12.9448 21.8269 12.9002 22.9387 12.8762 24.0642C12.8539 24.4965 12.8539 24.9546 12.5794 25.32C12.3512 25.6392 11.9858 25.5705 11.6444 25.5928H11.598C11.4608 25.6392 11.3698 25.7078 11.3922 25.8897L11.6221 26.1178H12.0098C13.3103 26.0955 14.5833 25.9119 15.8684 26.0955C16.3898 26.1711 16.9167 26.2015 17.4434 26.1865C18.7902 26.0955 19.9534 25.6392 20.8216 24.5892C22.8083 22.1872 22.5561 17.922 19.0407 16.0725H19.0441ZM15.8684 9.26464C16.6902 9.17371 17.4125 9.4019 17.8534 10.1088C18.7902 11.6168 18.9498 13.2142 18.1502 14.8355C17.7402 15.6573 16.3471 16.0673 15.5252 15.6796C15.3194 15.5887 15.3657 15.4291 15.3657 15.2695V12.4884C15.3657 11.598 15.388 10.6852 15.3657 9.79479C15.3657 9.42934 15.5252 9.31611 15.8684 9.26979V9.26464ZM19.2002 23.8119C18.514 25.2737 16.8721 25.2514 15.9404 24.6801C15.8119 24.5978 15.7038 24.4871 15.6247 24.3565C15.5456 24.226 15.4975 24.079 15.4841 23.9269C15.4078 23.4592 15.3774 22.9851 15.3931 22.5115V17.2597C15.3931 16.8943 15.5081 16.8257 15.8495 16.8034C17.0831 16.7124 17.9495 17.2838 18.6118 18.2651C19.3203 19.3151 19.5949 20.4561 19.6618 21.6433C19.5949 22.4428 19.5262 23.1497 19.2054 23.8119" fill="white"/>
<path d="M38.4005 8.19746C36.9851 8.24207 35.5473 8.21976 34.1319 8.19746H34.0409C33.8797 8.19746 33.7201 8.21976 33.7201 8.42564C33.7201 8.63152 33.8574 8.65383 34.0169 8.65383L34.2451 8.67614C35.1596 8.79109 35.4101 9.06388 35.501 9.95432C35.521 10.1745 35.529 10.3956 35.525 10.6166V17.4193C35.525 18.1965 35.525 18.972 35.501 19.7251C35.4787 20.7769 35.4101 21.8492 34.976 22.8305C34.4287 24.1087 33.4919 24.9082 32.0319 24.9769C30.6164 25.0455 29.6299 24.3609 28.9728 23.1497C28.5147 22.3055 28.3552 21.3688 28.2865 20.4046C28.1047 17.8705 28.2419 15.3587 28.1956 12.8247C28.1956 11.9342 28.1733 11.0661 28.2419 10.1756C28.3106 8.91976 28.3329 8.91976 29.5424 8.62295H29.5887L29.7706 8.41878L29.5887 8.2129L29.201 8.19059C27.602 8.2575 26.0047 8.2129 24.4057 8.19059C24.1998 8.19059 23.8583 8.05334 23.812 8.39476C23.7657 8.73618 24.1552 8.62295 24.337 8.64697C25.2738 8.78422 25.5483 9.05702 25.6152 9.99378C25.6352 10.2288 25.6432 10.4648 25.6392 10.7006V18.5551C25.6257 19.5823 25.7154 20.6082 25.9069 21.6176C26.3873 23.968 27.5968 26.0011 30.565 26.3202C32.5963 26.5484 34.3772 26.1144 35.724 24.4484C36.5922 23.3744 36.9113 22.0962 37.1172 20.7494C37.299 19.4712 37.299 18.193 37.299 16.9149C37.3231 14.5403 37.2321 12.1881 37.3677 9.81364C37.414 8.92319 37.5735 8.78422 38.464 8.6504C38.6235 8.62638 38.8757 8.6727 38.8757 8.42221C38.8071 8.1477 38.5789 8.17001 38.3954 8.19403" fill="white"/>
<path d="M87.5309 22.4205C87.3027 22.3742 87.349 22.6247 87.3027 22.7637L87.2341 23.1514C87.0522 24.2478 86.5718 24.7041 85.4532 24.7728C84.9745 24.7951 84.5164 24.7951 84.0377 24.7728C82.8505 24.7041 82.322 24.2014 82.3032 23.0159C82.2791 21.1887 82.3032 19.3392 82.2792 17.5137C82.2792 17.2169 82.4164 17.1705 82.6446 17.1705C83.2845 17.1928 83.9005 17.2392 84.5404 17.2615C86.0245 17.3078 86.2064 17.4674 86.3436 18.9772C86.3436 19.1144 86.3213 19.274 86.5032 19.274C86.685 19.274 86.6868 19.0921 86.6868 18.9772C86.7091 18.5894 86.7091 18.1794 86.7314 17.7899C86.7777 17.0367 86.8463 16.3058 86.9149 15.5595L86.8 15.2404L86.5495 15.4223C86.4534 15.5639 86.3239 15.6797 86.1726 15.7596C86.0212 15.8395 85.8525 15.8809 85.6814 15.8803C84.6314 15.925 83.5591 15.925 82.5091 15.9473C82.2792 15.9473 82.2568 15.7877 82.2568 15.6281V9.97667C82.2568 9.70388 82.3478 9.63353 82.6223 9.63353C83.4441 9.63353 84.2659 9.67814 85.0877 9.72447C86.0468 9.79309 86.3899 10.0899 86.5495 11.0267C86.568 11.17 86.5755 11.3146 86.5718 11.459C86.5718 11.574 86.5495 11.7335 86.7091 11.7558C86.8686 11.7781 86.9149 11.5963 86.9372 11.483C87.0745 10.433 87.0282 9.38304 87.2118 8.33133C87.2564 8.08084 87.1191 8.03452 86.8909 8.12716C86.474 8.27602 86.0329 8.34528 85.5904 8.33133H81.8914C81.025 8.35535 79.7914 8.30903 78.5578 8.2627C78.4127 8.2671 78.2682 8.28258 78.1255 8.30902L77.9419 8.51491L78.1478 8.69677C78.3296 8.72079 78.5355 8.74309 78.7191 8.7654C79.4054 8.88035 79.7005 9.15314 79.7485 9.83942C79.7725 10.1585 79.7948 10.4777 79.7948 10.7985C79.7948 13.9708 79.8171 17.1465 79.8171 20.3171C79.8171 21.597 79.7725 22.8752 79.7485 24.1534C79.7262 25.272 79.589 25.4093 78.539 25.6134L78.4017 25.6375L78.2353 25.9068L78.4189 26.1127C78.5621 26.1327 78.7067 26.1407 78.8512 26.1367C80.4039 26.0441 81.9394 25.9754 83.463 26.1127C84.537 26.2036 85.6093 26.1813 86.6833 26.2036C87.1157 26.2036 87.3216 26.0218 87.3902 25.61C87.5537 24.6983 87.6375 23.774 87.6407 22.8477C87.687 22.6659 87.7093 22.4377 87.5274 22.4154" fill="white"/>
<path d="M107.004 15.2285C106.343 14.7498 105.657 14.2694 105.117 13.6535C104.044 12.4439 104.113 10.5035 105.299 9.63533C105.68 9.33921 106.136 9.15468 106.615 9.10227C107.095 9.04987 107.58 9.13165 108.016 9.33851C109.02 9.77258 109.389 10.6853 109.5 11.713C109.523 11.8726 109.432 12.1231 109.682 12.1231C109.933 12.1231 109.888 11.8726 109.91 11.713C109.934 11.188 109.91 10.663 109.91 10.138H109.957C109.957 9.70396 109.934 9.29219 109.957 8.85812C110.003 8.47038 109.842 8.31082 109.478 8.21989C108.569 7.98459 107.63 7.88457 106.692 7.92307C104.729 8.01401 103.017 9.36082 102.56 11.2326C102.035 13.3103 102.468 15.1787 103.933 16.7812C104.71 17.6253 105.667 18.2875 106.558 18.9961C107.632 19.854 108.248 20.9125 108.179 22.328C108.111 23.7434 107.22 24.9307 106.011 25.0902C105.315 25.205 104.601 25.0582 104.006 24.6781C103.412 24.298 102.98 23.7114 102.792 23.0314C102.641 22.5582 102.556 22.0662 102.54 21.5696C102.54 21.4324 102.564 21.2265 102.38 21.2042C102.152 21.1819 102.174 21.4101 102.13 21.5473L102.107 21.7292C102.083 22.7792 102.061 23.8069 101.992 24.8569C101.946 25.4059 102.198 25.7027 102.679 25.8863C103.844 26.3204 105.053 26.389 106.263 26.2741C106.769 26.2292 107.262 26.0849 107.713 25.8494C108.164 25.6139 108.563 25.2918 108.889 24.9015C110.487 22.9834 110.646 20.837 109.871 18.5775C109.346 17.1157 108.227 16.112 107.016 15.2216" fill="white"/>
<path d="M95.6118 15.2285C94.9513 14.7498 94.265 14.2694 93.7245 13.6535C92.6522 12.4439 92.7432 10.5035 93.9064 9.63533C94.2876 9.33921 94.7434 9.15468 95.2232 9.10227C95.703 9.04987 96.188 9.13165 96.624 9.33852C97.6277 9.77258 97.9966 10.6853 98.1081 11.713C98.1304 11.8726 98.0395 12.1231 98.29 12.1231C98.5405 12.1231 98.4958 11.8503 98.5181 11.713C98.5422 11.188 98.5181 10.663 98.5181 10.138H98.5645C98.5645 9.70396 98.5422 9.29219 98.5645 8.85813C98.6108 8.47038 98.4512 8.31082 98.0858 8.21989C97.1767 7.98459 96.2378 7.88457 95.2995 7.92307C93.3368 8.01401 91.6245 9.33852 91.1682 11.2326C90.6432 13.3103 91.0995 15.1787 92.5407 16.7812C93.3179 17.6253 94.2753 18.2652 95.1657 18.9961C96.2397 19.854 96.8557 20.9125 96.787 22.328C96.7184 23.7434 95.828 24.9307 94.6184 25.0902C93.9224 25.205 93.2085 25.0582 92.6142 24.6781C92.02 24.298 91.5874 23.7114 91.3998 23.0314C91.2559 22.5724 91.1677 22.0978 91.1373 21.6177C91.1373 21.4581 91.1836 21.2522 90.9777 21.2299C90.7272 21.2059 90.7718 21.4804 90.7272 21.6177V21.7549C90.7049 22.8049 90.6809 23.8326 90.6363 24.8826C90.59 25.4299 90.8405 25.7268 91.3226 25.9121C92.4858 26.3461 93.6971 26.4147 94.9066 26.3015C95.9037 26.2103 96.8264 25.7354 97.4802 24.977C99.0998 23.0812 99.261 20.9366 98.5096 18.6753C97.9846 17.1466 96.866 16.1412 95.6101 15.2285" fill="white"/>
<path d="M46.14 15.2283C45.4777 14.7497 44.7931 14.2693 44.2527 13.6533C43.1787 12.4438 43.2696 10.5033 44.4346 9.63519C44.8157 9.33907 45.2716 9.15454 45.7514 9.10213C46.2312 9.04973 46.7161 9.13151 47.1522 9.33838C48.1559 9.77244 48.5248 10.6852 48.6363 11.7129C48.6586 11.8724 48.5677 12.1229 48.8181 12.1229C49.0686 12.1229 49.024 11.8501 49.0463 11.7129C49.0686 11.1879 49.0463 10.6629 49.0463 10.1379H49.0927C49.0927 9.70382 49.0686 9.24745 49.0927 8.81338C49.1058 8.75019 49.1061 8.68501 49.0935 8.62172C49.0808 8.55843 49.0556 8.49833 49.0193 8.445C48.9829 8.39168 48.9362 8.34623 48.8819 8.31136C48.8276 8.27649 48.7668 8.25292 48.7032 8.24206C47.7692 7.97626 46.7973 7.8684 45.8277 7.92294C44.8965 7.95688 43.9999 8.28427 43.2659 8.85832C42.532 9.43236 41.9982 10.2237 41.7409 11.1193C41.1473 13.2416 41.6037 15.1374 43.0877 16.781C43.8632 17.6474 44.8223 18.2651 45.7128 18.996C46.7868 19.8538 47.4027 20.9124 47.3118 22.3278C47.2208 23.7433 46.3527 24.9305 45.1431 25.0901C44.4469 25.205 43.7328 25.0582 43.1382 24.6781C42.5437 24.298 42.1108 23.7114 41.9228 23.0313C41.7828 22.5712 41.6987 22.096 41.6723 21.6158C41.6723 21.4563 41.7186 21.2504 41.4904 21.2281C41.2623 21.2058 41.3069 21.4786 41.2382 21.6158V21.7531C41.2159 22.7825 41.1696 23.8119 41.1473 24.8413C41.125 25.5499 41.1936 25.6631 41.8782 25.9136C43.0191 26.3717 44.2064 26.4163 45.4159 26.2791C46.4132 26.1897 47.3364 25.7152 47.9895 24.9563C49.6108 23.0604 49.7704 20.9141 49.0189 18.6322C48.5162 17.1482 47.3976 16.1205 46.1417 15.23" fill="white"/>
<path d="M57.5544 25.5638H57.1666C56.3912 25.5175 56.0943 25.2207 56.048 24.4452C56.0034 23.8979 55.9794 23.3266 55.9794 22.7775V11.2327C55.9794 10.754 56.0034 10.2976 56.048 9.81725C56.1166 8.9268 56.2539 8.78783 57.1443 8.65401C57.3039 8.62999 57.5544 8.67631 57.5321 8.42582C57.5098 8.17533 57.2816 8.19764 57.098 8.19764H52.3044C52.1208 8.19764 51.8703 8.17361 51.848 8.42582C51.8257 8.67803 52.0985 8.65401 52.2821 8.67631C53.1262 8.79127 53.3544 9.04175 53.423 9.88587C53.4453 10.1604 53.4693 10.4349 53.4693 10.7317C53.4693 12.9449 53.4916 15.1599 53.4916 17.3748C53.4916 19.5898 53.514 21.8494 53.423 24.066C53.4007 24.4984 53.4007 24.9239 53.1485 25.2979C52.8963 25.6719 52.5326 25.5724 52.1894 25.5947C52.0299 25.617 51.8926 25.6856 51.9167 25.8692C51.9407 26.0528 52.0762 26.0974 52.2358 26.0974C52.4863 26.0974 52.7385 26.1197 52.989 26.0974C54.1745 26.0065 55.3652 26.0065 56.5507 26.0974C56.8938 26.1197 57.2576 26.0974 57.6007 26.0974C57.8066 26.0974 58.0125 26.1197 58.0125 25.8469C58.0125 25.5741 57.7603 25.5724 57.5544 25.5724" fill="white"/>
<path d="M135.587 13.4012C134.765 10.5944 132.871 8.88213 129.95 8.37944C128.145 8.08262 126.347 8.19757 124.607 8.19757C123.351 8.31081 122.164 8.15125 120.976 8.17356L120.589 8.19757C120.474 8.21988 120.361 8.26449 120.361 8.40174L120.589 8.62993L120.863 8.65395C121.936 8.74488 122.255 9.08802 122.279 10.138V21.6434C122.279 22.5339 122.255 23.402 122.186 24.2924C122.117 25.1829 121.982 25.5929 121.023 25.5706C120.863 25.5706 120.68 25.6152 120.68 25.8211C120.68 26.0733 120.863 26.0956 121.045 26.0733C121.433 26.0733 121.845 26.0493 122.232 26.027C122.947 25.9807 123.664 25.9807 124.379 26.027C125.907 26.1419 127.415 26.3701 128.944 26.1642C131.25 25.8451 133.213 24.8861 134.469 22.8307C136.296 19.8865 136.546 16.6902 135.587 13.3944V13.4012ZM132.671 21.9111C131.917 23.8738 130.342 24.8552 128.265 24.9993C127.561 25.0728 126.849 25.0188 126.165 24.8397C125.274 24.5652 124.977 24.1535 124.909 23.2184C124.772 21.0498 124.84 18.8812 124.84 17.6939V10.2941C124.84 9.60787 124.953 9.47233 125.64 9.4037C129.087 9.10689 131.94 10.7968 132.876 14.0841C133.63 16.7314 133.652 19.3564 132.671 21.9145" fill="#FCFDFF"/>
<path d="M151.454 25.5636C150.838 25.5859 150.404 25.2891 150.081 24.7641C149.723 24.1427 149.432 23.4847 149.213 22.8014C147.594 18.03 145.995 13.281 144.373 8.5097C144.282 8.23519 144.238 7.82342 143.848 7.84744C143.505 7.86974 143.461 8.23519 143.37 8.5097C141.997 12.5724 140.607 16.6146 139.237 20.6773C138.804 21.9332 138.392 23.1668 137.936 24.3987C137.662 25.1296 137.183 25.5996 136.315 25.5636C136.133 25.5413 135.949 25.5859 135.949 25.8381C135.949 26.0903 136.177 26.0886 136.361 26.0886C137.734 26.0423 139.123 25.9737 140.492 26.0886C140.676 26.1109 140.904 26.1349 140.904 25.8381C140.904 25.5413 140.676 25.5636 140.492 25.5636C139.602 25.6322 139.489 25.1519 139.635 24.4673C139.931 23.0519 140.479 21.705 140.866 20.3119C140.935 20.1077 141.05 20.0837 141.232 20.0837H145.365C145.547 20.0837 145.684 20.1077 145.729 20.2896C146.209 21.8886 146.712 23.4859 147.19 25.0609C147.223 25.1412 147.227 25.2303 147.202 25.3134C147.177 25.3964 147.125 25.4684 147.053 25.5173C146.94 25.5859 146.756 25.6322 146.803 25.8141C146.847 26.0423 147.053 25.9737 147.213 25.9737C148.606 26.0886 149.999 26.0423 151.39 26.0423C151.574 26.0423 151.802 26.0663 151.824 25.7918C151.893 25.5413 151.665 25.5636 151.459 25.5636H151.454ZM144.61 18.7609H141.711C141.575 18.7609 141.367 18.8278 141.46 18.531C142.1 16.546 142.716 14.5849 143.378 12.4592C143.972 14.422 144.543 16.2715 145.113 18.121C145.296 18.7609 145.296 18.7609 144.61 18.7609Z" fill="#FCFDFF"/>
<path d="M163.646 8.19744C162.367 8.24205 161.089 8.26435 159.811 8.19744H159.674L159.446 8.357L159.605 8.62979C160.221 8.97293 160.312 9.08788 160.084 9.74842C159.308 12.1693 158.052 14.3602 157.071 16.8256C155.952 14.3842 154.878 12.032 153.828 9.70381L153.715 9.36068C153.6 9.01754 153.669 8.76705 154.058 8.65381C154.196 8.60749 154.355 8.56117 154.333 8.3793C154.311 8.19744 154.151 8.17342 153.99 8.19744C152.483 8.24205 150.999 8.24205 149.493 8.19744C149.333 8.19744 149.15 8.19744 149.127 8.42563C149.127 8.60749 149.287 8.6298 149.424 8.67612C149.687 8.72299 149.937 8.82181 150.161 8.96676C150.384 9.11172 150.577 9.29989 150.726 9.52023C151.02 9.90402 151.272 10.3175 151.48 10.7538C152.53 12.8538 153.602 14.9538 154.652 17.0778C154.937 17.6118 155.123 18.1931 155.201 18.7935C155.341 20.7243 155.333 22.663 155.177 24.5925C155.132 25.3457 154.858 25.5516 154.127 25.5962L153.876 25.6185L153.671 25.8707L153.897 26.0955H154.24C155.565 26.0732 156.887 25.9582 158.212 26.0732C158.668 26.1178 159.149 26.0955 159.627 26.0955C159.7 26.106 159.773 26.0882 159.833 26.0456C159.892 26.0031 159.933 25.9392 159.947 25.8673C159.971 25.6837 159.811 25.6151 159.65 25.5928C159.475 25.5742 159.3 25.5667 159.125 25.5705C158.281 25.5242 158.006 25.2737 157.915 24.4296C157.778 22.8305 157.871 21.2332 157.847 19.6342C157.847 19.2688 157.871 18.9033 157.893 18.5379C157.984 17.6251 158.418 16.8222 158.783 16.0278C159.787 13.9038 160.746 11.7815 161.98 9.77244C162.151 9.47373 162.388 9.21785 162.673 9.02407C162.957 8.8303 163.282 8.7037 163.623 8.65381C163.805 8.6298 163.966 8.58519 163.942 8.3793C163.989 8.17342 163.805 8.17342 163.646 8.19744Z" fill="#FCFDFF"/>
<path d="M15.8221 16.8258C15.4789 16.8499 15.3657 16.9185 15.3657 17.2839C15.388 19.0408 15.3657 20.7754 15.3657 22.5339C15.3506 23.0076 15.381 23.4816 15.4566 23.9494C15.5253 24.2685 15.6385 24.543 15.913 24.7026C16.8498 25.2739 18.4865 25.2962 19.1728 23.8361C19.4919 23.1739 19.5846 22.4636 19.6069 21.6898C19.5814 20.4869 19.2175 19.3155 18.5569 18.3099C17.9169 17.3062 17.0505 16.7349 15.8118 16.8258" fill="#EA2127"/>
<path d="M15.388 12.5125V15.2971C15.388 15.4566 15.3434 15.6162 15.5475 15.7071C16.3693 16.0966 17.7625 15.6848 18.1743 14.863C18.9497 13.2417 18.8125 11.6444 17.8774 10.138C17.4434 9.42944 16.7125 9.20125 15.8907 9.29218C15.5252 9.33851 15.388 9.45174 15.388 9.8412C15.4103 10.7076 15.388 11.6221 15.388 12.5125Z" fill="#EA2127"/>
<path d="M125.635 9.43623C124.948 9.50485 124.835 9.64211 124.835 10.3267V17.723C124.857 18.8879 124.766 21.0789 124.904 23.2492C124.948 24.1843 125.269 24.596 126.16 24.8688C126.846 25.097 127.551 25.0747 128.26 25.0301C130.337 24.8928 131.912 23.9115 132.665 21.9419C133.647 19.3855 133.625 16.7365 132.871 14.1338C131.936 10.8225 129.081 9.13255 125.635 9.43623Z" fill="#292525"/>
<path d="M143.373 12.4661C142.711 14.5661 142.095 16.5528 141.455 18.5379C141.364 18.8587 141.57 18.7678 141.705 18.7678H144.605C145.291 18.7678 145.291 18.7678 145.085 18.1278C144.538 16.2783 143.967 14.4288 143.37 12.4661" fill="#292525"/>
</svg>
