<svg width="72" height="72" viewBox="0 0 72 72" fill="none" xmlns="http://www.w3.org/2000/svg">
<circle cx="36" cy="36" r="36" fill="#E6F7F9"/>
<path d="M19.8906 21H52.109C52.3996 21 52.6839 21.0844 52.9274 21.243C53.171 21.4015 53.3632 21.6274 53.4807 21.8932C53.5983 22.1589 53.6361 22.4531 53.5897 22.74C53.5432 23.0268 53.4144 23.294 53.2189 23.509L40.8899 37.0709C40.6389 37.347 40.4998 37.7068 40.4998 38.0799V48.6972C40.4998 48.9442 40.4388 49.1873 40.3223 49.405C40.2058 49.6227 40.0373 49.8083 39.8319 49.9453L33.8318 53.9453C33.6059 54.0959 33.3434 54.1824 33.0722 54.1955C32.801 54.2086 32.5314 54.1478 32.292 54.0197C32.0526 53.8916 31.8525 53.701 31.713 53.468C31.5735 53.2351 31.4998 52.9687 31.4998 52.6972V38.0799C31.4998 37.7068 31.3607 37.347 31.1097 37.0709L18.7807 23.509C18.5852 23.294 18.4564 23.0268 18.4099 22.74C18.3635 22.4531 18.4013 22.1589 18.5189 21.8932C18.6364 21.6274 18.8286 21.4015 19.0722 21.243C19.3157 21.0844 19.6 21 19.8906 21V21Z" stroke="#4CAF50" stroke-width="2.5" stroke-linecap="round" stroke-linejoin="round"/>
</svg>
