<svg width="42" height="42" viewBox="0 0 42 42" fill="none" xmlns="http://www.w3.org/2000/svg">
<circle cx="21" cy="21" r="21" fill="#D6D9F5"/>
<path d="M20.872 29V18.128C20.872 17.824 20.872 17.496 20.872 17.144C20.888 16.792 20.904 16.424 20.92 16.04C20.376 16.568 19.752 17.024 19.048 17.408C18.344 17.776 17.632 18.04 16.912 18.2L16.432 15.968C16.752 15.92 17.136 15.808 17.584 15.632C18.048 15.456 18.52 15.232 19 14.96C19.48 14.688 19.92 14.4 20.32 14.096C20.72 13.776 21.032 13.464 21.256 13.16H23.416V29H20.872Z" fill="#19216C"/>
</svg>
