<svg width="42" height="42" viewBox="0 0 42 42" fill="none" xmlns="http://www.w3.org/2000/svg">
<circle cx="21" cy="21" r="21" fill="#D6D9F5"/>
<path d="M15.68 29V27.104C17.2 26.048 18.472 25.104 19.496 24.272C20.536 23.424 21.368 22.656 21.992 21.968C22.616 21.264 23.064 20.592 23.336 19.952C23.624 19.312 23.768 18.664 23.768 18.008C23.768 17.176 23.496 16.496 22.952 15.968C22.424 15.424 21.696 15.152 20.768 15.152C19.776 15.152 18.984 15.488 18.392 16.16C17.816 16.816 17.488 17.72 17.408 18.872L15.176 17.84C15.32 16.336 15.896 15.144 16.904 14.264C17.912 13.368 19.248 12.92 20.912 12.92C22.08 12.92 23.072 13.144 23.888 13.592C24.704 14.04 25.328 14.64 25.76 15.392C26.192 16.144 26.408 16.984 26.408 17.912C26.408 18.92 26.16 19.896 25.664 20.84C25.168 21.768 24.384 22.72 23.312 23.696C22.24 24.672 20.832 25.72 19.088 26.84V26.888C19.28 26.872 19.544 26.856 19.88 26.84C20.216 26.824 20.552 26.816 20.888 26.816C21.224 26.8 21.496 26.792 21.704 26.792H26.696V29H15.68Z" fill="#19216C"/>
</svg>
