<svg width="54" height="54" viewBox="0 0 54 54" fill="none" xmlns="http://www.w3.org/2000/svg">
<circle cx="27" cy="27" r="27" fill="#EBF1FF"/>
<path d="M27 39C33.6274 39 39 33.6274 39 27C39 20.3726 33.6274 15 27 15C20.3726 15 15 20.3726 15 27C15 33.6274 20.3726 39 27 39Z" stroke="#35469C" stroke-width="1.5" stroke-linecap="round" stroke-linejoin="round"/>
<path d="M27 31C29.7614 31 32 28.7614 32 26C32 23.2386 29.7614 21 27 21C24.2386 21 22 23.2386 22 26C22 28.7614 24.2386 31 27 31Z" stroke="#35469C" stroke-width="1.5" stroke-linecap="round" stroke-linejoin="round"/>
<path d="M18.9746 35.9218C19.7279 34.4408 20.8763 33.1971 22.2926 32.3284C23.709 31.4598 25.3382 31 26.9997 31C28.6613 31 30.2904 31.4598 31.7068 32.3284C33.1232 33.1971 34.2716 34.4407 35.0248 35.9217" stroke="#35469C" stroke-width="1.5" stroke-linecap="round" stroke-linejoin="round"/>
</svg>
