<svg width="54" height="54" viewBox="0 0 54 54" fill="none" xmlns="http://www.w3.org/2000/svg">
<circle cx="27" cy="27" r="27" fill="#EBF1FF"/>
<path d="M21 30C22.6569 30 24 28.6569 24 27C24 25.3431 22.6569 24 21 24C19.3431 24 18 25.3431 18 27C18 28.6569 19.3431 30 21 30Z" stroke="#35469C" stroke-width="1.5" stroke-linecap="round" stroke-linejoin="round"/>
<path d="M31.5 36.75C33.1569 36.75 34.5 35.4069 34.5 33.75C34.5 32.0931 33.1569 30.75 31.5 30.75C29.8431 30.75 28.5 32.0931 28.5 33.75C28.5 35.4069 29.8431 36.75 31.5 36.75Z" stroke="#35469C" stroke-width="1.5" stroke-linecap="round" stroke-linejoin="round"/>
<path d="M31.5 23.25C33.1569 23.25 34.5 21.9069 34.5 20.25C34.5 18.5931 33.1569 17.25 31.5 17.25C29.8431 17.25 28.5 18.5931 28.5 20.25C28.5 21.9069 29.8431 23.25 31.5 23.25Z" stroke="#35469C" stroke-width="1.5" stroke-linecap="round" stroke-linejoin="round"/>
<path d="M28.977 21.8721L23.5234 25.3779" stroke="#35469C" stroke-width="1.5" stroke-linecap="round" stroke-linejoin="round"/>
<path d="M23.5234 28.6221L28.977 32.1279" stroke="#35469C" stroke-width="1.5" stroke-linecap="round" stroke-linejoin="round"/>
</svg>
