<svg width="72" height="72" viewBox="0 0 72 72" fill="none" xmlns="http://www.w3.org/2000/svg">
<circle cx="36" cy="36" r="36" fill="#FFF1E0"/>
<path d="M30 40.5H42" stroke="#FFBA69" stroke-width="2.5" stroke-linecap="round" stroke-linejoin="round"/>
<path d="M30 34.5H42" stroke="#FFBA69" stroke-width="2.5" stroke-linecap="round" stroke-linejoin="round"/>
<path d="M42.0004 19.5H49.5C49.8978 19.5 50.2794 19.658 50.5607 19.9393C50.842 20.2206 51 20.6022 51 21V52.5C51 52.8978 50.842 53.2794 50.5607 53.5607C50.2794 53.842 49.8978 54 49.5 54H22.5C22.1022 54 21.7206 53.842 21.4393 53.5607C21.158 53.2794 21 52.8978 21 52.5V21C21 20.6022 21.158 20.2206 21.4393 19.9393C21.7206 19.658 22.1022 19.5 22.5 19.5H29.9996" stroke="#FFBA69" stroke-width="2.5" stroke-linecap="round" stroke-linejoin="round"/>
<path d="M28.5 25.5V24C28.5 22.0109 29.2902 20.1032 30.6967 18.6967C32.1032 17.2902 34.0109 16.5 36 16.5C37.9891 16.5 39.8968 17.2902 41.3033 18.6967C42.7098 20.1032 43.5 22.0109 43.5 24V25.5H28.5Z" stroke="#FFBA69" stroke-width="2.5" stroke-linecap="round" stroke-linejoin="round"/>
</svg>
