<svg width="255" height="193" viewBox="0 0 255 193" fill="none" xmlns="http://www.w3.org/2000/svg">
<path d="M1.15131 88.1268L44.1984 182.143C45.1852 184.279 46.9773 185.939 49.1834 186.759C51.3895 187.579 53.8304 187.492 55.9732 186.519L62.8072 183.397L221.053 110.946C223.191 109.962 224.852 108.172 225.674 105.967C226.495 103.762 226.41 101.322 225.438 99.1792L187.398 16.1409L182.416 5.17156C181.427 3.03638 179.635 1.37834 177.429 0.558666C175.224 -0.26101 172.784 -0.175901 170.641 0.795442L5.55235 76.3603C3.41483 77.3443 1.75282 79.1331 0.928457 81.3371C0.104097 83.5411 0.184201 85.9816 1.15131 88.1268Z" fill="#2CA6B3"/>
<path opacity="0.1" d="M1.15131 88.1268L44.1984 182.143C45.1852 184.279 46.9773 185.939 49.1834 186.759C51.3895 187.579 53.8304 187.492 55.9732 186.519L62.8072 183.397L221.053 110.946C223.191 109.962 224.852 108.172 225.674 105.967C226.495 103.762 226.41 101.322 225.438 99.1792L187.398 16.1409L182.416 5.17156C181.427 3.03638 179.635 1.37834 177.429 0.558666C175.224 -0.26101 172.784 -0.175901 170.641 0.795442L5.55235 76.3603C3.41483 77.3443 1.75282 79.1331 0.928457 81.3371C0.104097 83.5411 0.184201 85.9816 1.15131 88.1268Z" fill="white"/>
<path d="M39.8338 172.61L221.067 89.6348L199.857 43.3071L18.6234 126.282L39.8338 172.61Z" fill="#2CA6B3"/>
<path opacity="0.3" d="M39.8338 172.61L221.067 89.6348L199.857 43.3071L18.6234 126.282L39.8338 172.61Z" fill="white"/>
<path d="M85.4143 133.752L199.942 81.3169L192.351 64.7368L77.8233 117.172L85.4143 133.752Z" fill="#2CA6B3"/>
<path opacity="0.8" d="M85.4143 133.752L199.942 81.3169L192.351 64.7368L77.8233 117.172L85.4143 133.752Z" fill="white"/>
<path d="M22.6697 135.138L203.903 52.1631L192.586 27.4439L11.3524 110.419L22.6697 135.138Z" fill="#2CA6B3"/>
<path opacity="0.3" d="M22.6697 135.138L203.903 52.1631L192.586 27.4439L11.3524 110.419L22.6697 135.138Z" fill="black"/>
<g style="mix-blend-mode:multiply">
<path d="M25.7635 89.3062L62.8069 183.364L221.053 110.913C223.191 109.929 224.852 108.139 225.673 105.934C226.495 103.729 226.41 101.289 225.437 99.1462L187.398 16.1079L30.779 77.7887C28.5913 78.6568 26.836 80.3553 25.8962 82.5132C24.9565 84.6711 24.9088 87.1132 25.7635 89.3062Z" fill="#2CA6B3"/>
</g>
<path d="M235.221 59.5758L234.438 59.8511L235.734 63.541L236.517 63.2658L235.221 59.5758Z" fill="#2CA6B3"/>
<path opacity="0.1" d="M235.221 59.5758L234.438 59.8511L235.734 63.541L236.517 63.2658L235.221 59.5758Z" fill="white"/>
<path d="M228.676 41.0208L227.893 41.2959L232.999 55.8372L233.783 55.5621L228.676 41.0208Z" fill="#2CA6B3"/>
<path opacity="0.1" d="M228.676 41.0208L227.893 41.2959L232.999 55.8372L233.783 55.5621L228.676 41.0208Z" fill="white"/>
<path d="M36.7835 78.1123L208.091 17.9511C210.314 17.1777 212.752 17.3157 214.873 18.3349C216.994 19.3541 218.625 21.1717 219.41 23.3901L253.671 120.952C254.445 123.174 254.309 125.613 253.291 127.735C252.274 129.857 250.458 131.49 248.24 132.278L76.9325 192.439C74.7089 193.211 72.2705 193.072 70.1489 192.053C68.0272 191.034 66.3943 189.218 65.6061 187L31.3445 89.4388C30.5708 87.2153 30.7086 84.7759 31.7277 82.6537C32.7468 80.5314 34.5645 78.8987 36.7835 78.1123Z" fill="#2CA6B3"/>
<path opacity="0.1" d="M36.7835 78.1123L208.091 17.9511C210.314 17.1777 212.752 17.3157 214.873 18.3349C216.994 19.3541 218.625 21.1717 219.41 23.3901L253.671 120.952C254.445 123.174 254.309 125.613 253.291 127.735C252.274 129.857 250.458 131.49 248.24 132.278L76.9325 192.439C74.7089 193.211 72.2705 193.072 70.1489 192.053C68.0272 191.034 66.3943 189.218 65.6061 187L31.3445 89.4388C30.5708 87.2153 30.7086 84.7759 31.7277 82.6537C32.7468 80.5314 34.5645 78.8987 36.7835 78.1123Z" fill="white"/>
<path d="M59.3621 169.21L247.428 103.166L232.524 60.7251L44.4579 126.769L59.3621 169.21Z" fill="#2CA6B3"/>
<path opacity="0.3" d="M59.3621 169.21L247.428 103.166L232.524 60.7251L44.4579 126.769L59.3621 169.21Z" fill="white"/>
<path d="M173.263 59.7827L212.139 46.1304L210.012 40.0741L171.136 53.7264L173.263 59.7827Z" fill="#2CA6B3"/>
<path opacity="0.8" d="M173.263 59.7827L212.139 46.1304L210.012 40.0741L171.136 53.7264L173.263 59.7827Z" fill="white"/>
<path d="M205.98 128.355L237.17 117.401L236.058 114.236L204.868 125.189L205.98 128.355Z" fill="#2CA6B3"/>
<path opacity="0.8" d="M205.98 128.355L237.17 117.401L236.058 114.236L204.868 125.189L205.98 128.355Z" fill="white"/>
<path d="M199.103 137.575L239.295 123.46L238.183 120.295L197.991 134.41L199.103 137.575Z" fill="#2CA6B3"/>
<path opacity="0.8" d="M199.103 137.575L239.295 123.46L238.183 120.295L197.991 134.41L199.103 137.575Z" fill="white"/>
<path d="M77.1655 180.397L97.2617 173.339L94.8708 166.531L74.7746 173.588L77.1655 180.397Z" fill="#2CA6B3"/>
<path opacity="0.8" d="M77.1655 180.397L97.2617 173.339L94.8708 166.531L74.7746 173.588L77.1655 180.397Z" fill="white"/>
<path d="M202.32 108.214L225.786 99.9762C227.023 99.5359 228.037 98.6251 228.606 97.4418C229.175 96.2584 229.254 94.8982 228.826 93.657C228.385 92.4199 227.475 91.4066 226.291 90.8375C225.108 90.2684 223.748 90.1894 222.506 90.6178L199.031 98.8635C197.794 99.3037 196.781 100.215 196.212 101.398C195.643 102.581 195.564 103.941 195.992 105.183C196.434 106.42 197.347 107.433 198.532 108.001C199.717 108.568 201.079 108.645 202.32 108.214Z" fill="#2CA6B3"/>
<path d="M162.12 122.33L185.595 114.085C186.823 113.642 187.828 112.736 188.395 111.561C188.962 110.385 189.045 109.034 188.626 107.799C188.184 106.563 187.272 105.552 186.089 104.984C184.906 104.417 183.547 104.339 182.307 104.768L158.84 113.013C157.603 113.454 156.59 114.364 156.021 115.548C155.452 116.731 155.373 118.091 155.801 119.333C156.249 120.562 157.164 121.566 158.346 122.127C159.529 122.687 160.884 122.761 162.12 122.33Z" fill="#2CA6B3"/>
<path d="M121.947 136.447L145.422 128.201C146.647 127.756 147.648 126.848 148.212 125.673C148.775 124.498 148.856 123.149 148.436 121.915C147.994 120.68 147.083 119.668 145.9 119.101C144.717 118.533 143.357 118.456 142.117 118.884L118.626 127.097C117.39 127.539 116.379 128.45 115.811 129.633C115.244 130.817 115.166 132.176 115.595 133.416C116.036 134.659 116.953 135.677 118.144 136.245C119.335 136.813 120.703 136.886 121.947 136.447Z" fill="#2CA6B3"/>
<path d="M81.7314 150.564L105.206 142.318C106.436 141.877 107.443 140.972 108.011 139.796C108.58 138.621 108.664 137.269 108.246 136.032C107.804 134.796 106.892 133.785 105.709 133.218C104.526 132.65 103.167 132.572 101.926 133.001L78.4514 141.247C77.2143 141.687 76.2011 142.598 75.6319 143.781C75.0628 144.964 74.9839 146.325 75.4122 147.566C75.8607 148.795 76.775 149.799 77.9574 150.36C79.1398 150.921 80.4955 150.994 81.7314 150.564Z" fill="#2CA6B3"/>
<g opacity="0.8">
<path opacity="0.8" d="M202.32 108.214L225.786 99.9767C227.023 99.5364 228.037 98.6256 228.606 97.4422C229.175 96.2589 229.254 94.8987 228.826 93.6575C228.385 92.4204 227.475 91.4071 226.291 90.838C225.108 90.2689 223.748 90.1899 222.506 90.6183L199.031 98.864C197.794 99.3042 196.781 100.215 196.212 101.398C195.643 102.582 195.564 103.942 195.992 105.183C196.434 106.421 197.347 107.434 198.532 108.001C199.717 108.569 201.079 108.645 202.32 108.214Z" fill="white"/>
<path opacity="0.8" d="M162.12 122.331L185.595 114.085C186.823 113.643 187.828 112.737 188.395 111.561C188.962 110.386 189.045 109.035 188.626 107.799C188.184 106.563 187.272 105.552 186.089 104.985C184.906 104.417 183.547 104.339 182.307 104.768L158.84 113.014C157.603 113.454 156.59 114.365 156.021 115.548C155.452 116.732 155.373 118.092 155.801 119.333C156.249 120.563 157.164 121.566 158.346 122.127C159.529 122.688 160.884 122.761 162.12 122.331Z" fill="white"/>
<path opacity="0.8" d="M121.946 136.447L145.421 128.201C146.646 127.756 147.647 126.848 148.211 125.673C148.774 124.498 148.855 123.149 148.435 121.915C147.993 120.68 147.082 119.668 145.899 119.101C144.716 118.533 143.356 118.456 142.116 118.884L118.625 127.097C117.389 127.539 116.378 128.45 115.81 129.633C115.243 130.817 115.165 132.176 115.594 133.416C116.035 134.659 116.952 135.677 118.143 136.245C119.334 136.813 120.702 136.886 121.946 136.447Z" fill="white"/>
<path opacity="0.8" d="M81.7314 150.564L105.206 142.318C106.436 141.877 107.443 140.972 108.011 139.796C108.58 138.621 108.664 137.269 108.246 136.032C107.804 134.796 106.892 133.785 105.709 133.218C104.526 132.65 103.167 132.572 101.926 133.001L78.4514 141.247C77.2143 141.687 76.2011 142.598 75.6319 143.781C75.0628 144.964 74.9839 146.325 75.4122 147.566C75.8607 148.795 76.775 149.799 77.9574 150.36C79.1398 150.921 80.4955 150.994 81.7314 150.564Z" fill="white"/>
</g>
<path d="M200.23 89.327L221.118 81.9918C222.892 81.3688 223.825 79.4256 223.202 77.6515L218.849 65.2569C218.226 63.4829 216.283 62.5497 214.509 63.1727L193.622 70.5079C191.847 71.1309 190.914 73.0741 191.537 74.8482L195.89 87.2428C196.513 89.0169 198.456 89.95 200.23 89.327Z" fill="#2CA6B3"/>
<path opacity="0.3" d="M200.23 89.327L221.118 81.9918C222.892 81.3688 223.825 79.4256 223.202 77.6515L218.849 65.2569C218.226 63.4829 216.283 62.5497 214.509 63.1727L193.622 70.5079C191.847 71.1309 190.914 73.0741 191.537 74.8482L195.89 87.2428C196.513 89.0169 198.456 89.95 200.23 89.327Z" fill="black"/>
<path d="M77.1061 102.16C74.0928 102.161 71.189 101.03 68.9697 98.9919C66.7503 96.9536 65.3773 94.1563 65.1223 91.1538C64.8673 88.1513 65.7489 85.1624 67.5927 82.7791C69.4365 80.3957 72.108 78.7915 75.0783 78.284C78.0486 77.7766 81.1012 78.403 83.6316 80.0391C86.1621 81.6752 87.986 84.2018 88.7422 87.1187C89.4984 90.0356 89.1319 93.1301 87.7151 95.7896C86.2983 98.4491 83.9346 100.48 81.0919 101.479C79.8115 101.93 78.4637 102.161 77.1061 102.16ZM77.1061 78.9095C75.8308 78.912 74.5649 79.1281 73.3611 79.5489C70.5402 80.5404 68.2287 82.6116 66.9347 85.3071C65.6407 88.0026 65.4701 91.1016 66.4606 93.9228C67.1471 95.871 68.3559 97.593 69.9548 98.9006C71.5538 100.208 73.4815 101.051 75.5271 101.337C77.5728 101.624 79.6577 101.342 81.5542 100.523C83.4506 99.7047 85.0856 98.3805 86.2803 96.6956C87.4751 95.0106 88.1837 93.0296 88.3288 90.9691C88.4739 88.9086 88.0498 86.8479 87.1029 85.0122C86.156 83.1764 84.7227 81.6362 82.9596 80.56C81.1966 79.4837 79.1717 78.9127 77.1061 78.9095Z" fill="#2CA6B3"/>
<path opacity="0.8" d="M77.1061 102.16C74.0928 102.161 71.189 101.03 68.9697 98.9919C66.7503 96.9536 65.3773 94.1563 65.1223 91.1538C64.8673 88.1513 65.7489 85.1624 67.5927 82.7791C69.4365 80.3957 72.108 78.7915 75.0783 78.284C78.0486 77.7766 81.1012 78.403 83.6316 80.0391C86.1621 81.6752 87.986 84.2018 88.7422 87.1187C89.4984 90.0356 89.1319 93.1301 87.7151 95.7896C86.2983 98.4491 83.9346 100.48 81.0919 101.479C79.8115 101.93 78.4637 102.161 77.1061 102.16ZM77.1061 78.9095C75.8308 78.912 74.5649 79.1281 73.3611 79.5489C70.5402 80.5404 68.2287 82.6116 66.9347 85.3071C65.6407 88.0026 65.4701 91.1016 66.4606 93.9228C67.1471 95.871 68.3559 97.593 69.9548 98.9006C71.5538 100.208 73.4815 101.051 75.5271 101.337C77.5728 101.624 79.6577 101.342 81.5542 100.523C83.4506 99.7047 85.0856 98.3805 86.2803 96.6956C87.4751 95.0106 88.1837 93.0296 88.3288 90.9691C88.4739 88.9086 88.0498 86.8479 87.1029 85.0122C86.156 83.1764 84.7227 81.6362 82.9596 80.56C81.1966 79.4837 79.1717 78.9127 77.1061 78.9095Z" fill="white"/>
<path d="M48.9396 100.051C49.7051 102.218 51.0953 104.109 52.9348 105.485C54.7742 106.862 56.9804 107.663 59.2747 107.787C61.569 107.91 63.8485 107.351 65.8254 106.18C67.8022 105.01 69.3878 103.279 70.3818 101.208C71.3759 99.1361 71.7338 96.8165 71.4104 94.5418C71.087 92.267 70.0968 90.1391 68.5648 88.4268C67.0329 86.7144 65.0279 85.4944 62.803 84.9208C60.5781 84.3472 58.2332 84.4458 56.0642 85.204C54.62 85.7089 53.2897 86.4939 52.1494 87.514C51.0092 88.5341 50.0816 89.7692 49.4197 91.1486C48.7578 92.5279 48.3746 94.0243 48.2923 95.5521C48.2099 97.0798 48.4298 98.6087 48.9396 100.051Z" fill="#2CA6B3"/>
<path opacity="0.8" d="M48.9396 100.051C49.7051 102.218 51.0953 104.109 52.9348 105.485C54.7742 106.862 56.9804 107.663 59.2747 107.787C61.569 107.91 63.8485 107.351 65.8254 106.18C67.8022 105.01 69.3878 103.279 70.3818 101.208C71.3759 99.1361 71.7338 96.8165 71.4104 94.5418C71.087 92.267 70.0968 90.1391 68.5648 88.4268C67.0329 86.7144 65.0279 85.4944 62.803 84.9208C60.5781 84.3472 58.2332 84.4458 56.0642 85.204C54.62 85.7089 53.2897 86.4939 52.1494 87.514C51.0092 88.5341 50.0816 89.7692 49.4197 91.1486C48.7578 92.5279 48.3746 94.0243 48.2923 95.5521C48.2099 97.0798 48.4298 98.6087 48.9396 100.051Z" fill="white"/>
</svg>
