<svg width="240" height="31" viewBox="0 0 240 31" fill="none" xmlns="http://www.w3.org/2000/svg">
<g clip-path="url(#clip0_30_288)">
<path d="M197.944 28.9639V30.0482C196.493 29.9682 195.084 29.8314 193.675 29.8288C191.633 29.8288 189.589 29.9759 187.547 29.9501C186.812 29.9501 186.068 29.4338 185.347 29.4673C183.303 29.5835 181.269 29.8675 179.23 30.087C179.024 30.1102 178.818 30.1412 178.531 30.1799V28.3081C177.512 28.8942 176.615 29.599 175.603 29.9553C171.871 31.2462 167.486 29.4751 166.115 25.1687C165.505 23.2582 165.143 21.2961 165.274 19.3133C165.467 16.3675 166.248 13.5947 168.215 11.3486C169.722 9.63429 171.683 8.79263 173.911 8.68678C175.357 8.61707 176.811 8.68678 178.403 8.68678C178.343 7.30296 178.315 5.75649 178.19 4.21518C178.16 3.81267 177.984 3.43651 177.696 3.1618C177.408 2.88708 177.031 2.73405 176.638 2.73326C175.663 2.70744 175.633 2.26595 175.807 1.38299C176.436 1.42172 177.066 1.42172 177.695 1.38299C179.743 1.1317 181.787 0.847713 183.828 0.531018C184.534 0.420002 184.765 0.57749 184.652 1.29005C184.58 1.65947 184.536 2.03411 184.521 2.41054V25.1739C184.521 27.1721 184.805 27.5413 186.621 28.1532C186.854 28.2333 187.01 28.5586 187.216 28.7909C188.974 28.3262 189.338 26.8391 189.363 25.2668C189.423 21.3296 189.461 17.3899 189.348 13.4553C189.293 11.5913 189.119 11.1627 187.033 10.6954V9.46905C187.854 9.46905 188.63 9.53102 189.396 9.46905C191.119 9.34449 192.834 9.1308 194.537 8.82878C195.466 8.64032 195.541 8.9682 195.541 9.71432C195.541 15.0293 195.549 20.3434 195.564 25.6567C195.564 27.766 195.983 28.3598 197.944 28.9639ZM178.423 19.2229V12.6988C178.423 11.5086 178.157 11.1498 177.042 10.7754C175.005 10.1016 173.232 10.9613 172.622 13.2178C172.179 14.9421 171.926 16.7123 171.869 18.4949C171.776 20.6919 171.869 22.9123 172.715 24.9957C173.594 27.1412 175.478 27.9699 177.602 27.2031C178.172 26.9966 178.446 26.7049 178.434 26.031C178.401 23.7642 178.434 21.4949 178.434 19.2229H178.423Z" fill="#03ADED"/>
<path d="M55.1172 29.2996V30.2936H44.5493L44.5016 29.3125C46.2596 28.7961 46.9477 27.6731 46.9401 25.7807C46.9175 19.5199 47.0406 13.2591 47.0858 6.99837C47.0933 6.21063 47.0345 5.42371 46.91 4.6464C46.7392 3.60079 45.9406 3.08185 44.5594 3.03796V1.98461L53.2211 0.951904V11.1473C54.5572 9.81765 56.0816 9.04313 57.95 9.04313C59.7783 9.04313 61.594 8.95276 63.1712 10.2127C64.6203 11.3693 65.1577 12.9622 65.2104 14.7178C65.3134 18.1077 65.2933 21.5027 65.331 24.8925C65.331 25.4347 65.3536 25.9794 65.3913 26.5216C65.5118 28.2566 65.9814 28.8452 67.6339 29.3073V30.2032H57.2368V29.266C57.7863 29.112 58.2685 28.7705 58.6044 28.2976C58.9403 27.8248 59.1098 27.2486 59.0852 26.6636C59.1153 22.9226 59.2308 19.1765 59.0249 15.4459C58.8617 12.5027 56.3905 11.217 53.751 12.4614C53.6019 12.5461 53.4736 12.6649 53.3761 12.8086C53.2786 12.9522 53.2144 13.117 53.1885 13.2901C53.1885 17.9373 53.2136 22.5784 53.2638 27.2135C53.2914 28.3056 53.7987 28.8245 55.1197 29.3047L55.1172 29.2996Z" fill="#242021"/>
<path d="M106.618 1.65915V6.50253H105.493C105.242 4.6953 104.142 3.58773 102.412 3.38635C99.7168 3.07396 96.9769 2.97843 94.8146 5.11096C93.4484 6.45864 92.6824 8.20907 92.2731 10.0989C91.3137 14.5499 91.3087 18.9827 92.7226 23.3304C93.9281 27.0404 96.6529 28.7056 100.4 28.2357V21.9517C100.4 21.7607 100.382 21.5671 100.4 21.376C100.443 20.0851 100.091 19.5172 98.9835 19.0524C98.1422 18.6936 98.1422 18.6936 98.1899 17.7951H108.971L109.016 18.7297L108.582 18.8717C107.118 19.3287 106.59 20.0516 106.573 21.6652C106.555 23.9061 106.533 26.1497 106.555 28.3777C106.555 29.0129 106.435 29.2865 105.749 29.4698C102.959 30.2237 100.129 30.2624 97.2833 30.1488C94.5057 30.0378 91.9215 29.2788 89.6035 27.66C87.1122 25.9173 85.8038 23.4156 85.3341 20.4311C85.1056 19.0008 84.8695 17.5395 84.9223 16.1015C85.0529 12.5232 85.6355 9.0533 87.9208 6.12817C89.7667 3.76587 92.2078 2.4595 95.0004 1.75985C99.0764 0.745217 103.137 1.10408 106.628 1.65399L106.618 1.65915ZM225.248 8.82352L225.331 10.6746C226.084 10.1815 226.675 9.62129 227.38 9.34762C229.924 8.35623 232.511 8.16518 234.98 9.55158C236.713 10.5275 237.376 12.2547 237.426 14.1987C237.529 18.0714 237.539 21.944 237.619 25.7986C237.662 27.8459 238.139 28.45 240.002 28.9948V29.9165H229.5C229.314 29.2839 229.392 28.9354 230.125 28.5869C230.627 28.3442 231.097 27.58 231.225 26.9681C231.409 25.8973 231.479 24.8092 231.436 23.7228C231.421 20.8106 231.338 17.8984 231.316 14.9862C231.293 11.9733 229.055 11.4079 226.712 11.8648C225.753 12.0533 225.384 12.4896 225.406 13.5817C225.494 17.808 225.454 22.037 225.467 26.2633C225.467 27.7968 225.858 28.3622 227.287 28.9173V29.9139H216.74L216.677 28.938C218.686 28.5301 219.276 27.0223 219.296 25.2022C219.336 21.296 219.382 17.3872 219.276 13.481C219.226 11.6299 219.048 11.0671 216.918 10.6824V9.64969L225.248 8.82352Z" fill="#03ADED"/>
<path d="M107.372 10.8993V9.83042L115.91 8.79772V22.8528C115.912 23.5477 115.987 24.2404 116.136 24.9182C116.526 26.6402 118.108 27.4845 120.099 27.0636C120.523 27.0008 120.929 26.8459 121.29 26.6093C121.447 26.4924 121.581 26.3446 121.682 26.1745C121.784 26.0043 121.852 25.8152 121.882 25.6179C121.915 21.8382 121.897 18.0585 121.882 14.2814C121.882 13.623 121.93 12.8846 121.664 12.3296C121.377 11.7207 120.887 11.2385 120.283 10.9716C119.509 10.7134 119.318 10.3416 119.479 9.70908L128.058 8.82354V12.4148C128.058 16.7392 128.04 21.0611 128.058 25.3855C128.058 27.3735 128.477 27.8279 130.336 28.1867C130.569 29.364 130.527 29.4569 129.442 29.4234C127.155 29.3138 124.864 29.5486 122.643 30.1204C122.141 30.2573 121.857 30.1204 121.89 29.5215C121.907 29.0568 121.89 28.5921 121.89 28.2848C120.634 28.8967 119.456 29.679 118.176 30.0352C115.87 30.6781 113.57 30.4586 111.608 28.8993C111.12 28.5119 110.72 28.0187 110.438 27.4547C110.156 26.8907 109.998 26.2697 109.976 25.6359C109.843 21.9698 109.835 18.2986 109.76 14.6325C109.784 13.938 109.718 13.2433 109.562 12.5671C109.255 11.5499 108.482 10.9896 107.374 10.8993H107.372ZM140.58 28.3364C139.841 28.7495 138.791 29.6609 137.596 29.9475C133.796 30.8666 130.511 29.6247 130.346 24.8356C130.339 23.9635 130.449 23.0946 130.675 22.2538C131.139 20.3588 132.408 19.228 134.236 18.8976C135.843 18.5955 137.501 18.4948 139.108 18.3373C139.625 18.2857 140.15 18.3373 140.838 18.3373C140.753 16.7883 140.876 15.2986 140.539 13.9225C140.115 12.1876 138.701 11.2168 136.345 11.5989C135.019 11.821 134.14 12.6807 133.432 13.7883C133.382 13.7941 133.331 13.7842 133.287 13.7599C132.031 12.5877 132.076 12.2108 133.287 10.9199C134.793 9.29084 136.654 8.68929 138.749 8.70736C140.045 8.70736 141.373 8.70736 142.631 8.96554C145.04 9.48189 146.667 11.6041 146.727 14.2917C146.805 17.7771 146.742 21.2624 146.748 24.7504C146.748 26.7203 147.179 27.0533 149.071 26.6273C149.256 26.586 149.623 26.7229 149.671 26.8623C149.764 27.1385 149.814 27.5619 149.671 27.7685C148.666 29.2065 147.313 30.1101 145.565 30.1901C144.48 30.2418 143.345 30.4483 142.363 29.6609C141.755 29.1704 141.107 28.7418 140.567 28.3416L140.58 28.3364ZM140.831 19.9767C140.178 20.0413 139.686 20.0748 139.196 20.1368C137.958 20.2943 136.998 20.8803 136.639 22.1635C136.24 23.5783 136.137 25.0189 137.076 26.2762C137.802 27.2573 139.64 27.3889 140.554 26.5809C140.709 26.4365 140.804 26.2371 140.821 26.0232C140.838 24.0533 140.821 22.0834 140.821 19.9741L140.831 19.9767ZM208.367 18.3218C208.261 16.8037 208.314 15.3864 208.033 14.0413C207.593 11.9397 205.795 11.1213 203.831 11.6764C202.711 11.9939 201.729 12.8356 200.566 13.5043C199.439 12.7297 199.479 12.3296 200.566 11.1084C202.236 9.2108 204.318 8.59376 206.687 8.68671C207.859 8.73318 209.065 8.7022 210.19 8.98877C212.742 9.63938 214.138 11.555 214.208 14.5602C214.304 18.0791 214.228 21.6032 214.233 25.1247C214.233 26.6196 215.022 27.1902 216.391 26.7306C216.614 26.6557 217.059 26.7151 217.144 26.8571C217.212 26.9957 217.248 27.1482 217.251 27.3033C217.254 27.4584 217.222 27.6121 217.159 27.753C216.069 29.2478 214.63 30.1514 212.772 30.2005C211.451 30.234 210.079 30.3786 209.148 29.0748C208.879 28.7005 208.645 28.3003 208.394 27.895C207.799 28.3674 207.194 28.8218 206.616 29.3098C205.079 30.6007 200.961 30.6291 199.461 29.0361C198.767 28.2574 198.268 27.3163 198.007 26.2943C197.455 24.1772 197.658 22.0525 199.127 20.3562C199.8 19.639 200.663 19.1407 201.609 18.9234C203.196 18.5593 204.848 18.4819 206.478 18.3192C207.023 18.2624 207.583 18.3192 208.367 18.3192V18.3218ZM208.279 19.9793C207.551 20.0645 206.935 20.1032 206.333 20.2117C205.19 20.4156 204.323 21.0869 204.11 22.2538C203.904 23.249 203.889 24.2759 204.065 25.2771C204.424 27.0068 206.576 27.6988 207.957 26.6377C208.047 26.5604 208.12 26.4655 208.173 26.3587C208.226 26.2518 208.258 26.1351 208.266 26.0154C208.286 24.0507 208.266 22.0989 208.266 19.9664L208.279 19.9793Z" fill="#03ADED"/>
<path d="M44.3283 6.70388H43.0576C42.8416 4.4939 41.9124 3.65741 39.7275 3.66516H36.4401V25.4526C36.4401 27.8252 37.2337 28.6953 39.5843 28.8941C39.5843 29.0696 39.6145 29.2529 39.6145 29.4388C39.6105 29.5935 39.5979 29.7478 39.5768 29.901H26.9446L26.9094 29.1264C27.7608 28.7443 28.5945 28.5429 29.1922 28.0447C29.6569 27.6574 29.9733 26.9268 30.0963 26.2942C30.2409 25.3623 30.2964 24.418 30.2621 23.475V3.68322C28.7377 3.68322 27.2158 3.54898 25.7265 3.72196C24.3252 3.88203 23.7752 4.77015 23.4362 6.71421H22.3713V1.59717H44.0521L44.3283 6.70388Z" fill="#242021"/>
<path d="M83.6364 18.2934H72.5035C72.6316 21.0868 72.5763 23.8958 74.716 25.9741C75.4366 26.6497 76.3311 27.0979 77.2927 27.265C78.9523 27.5482 80.6558 27.3543 82.215 26.7047C82.3581 26.6788 82.5052 26.6888 82.6438 26.7337C82.7823 26.7787 82.9083 26.8573 83.0111 26.9629C83.1166 27.0817 83.0111 27.5619 82.8554 27.7374C81.5581 29.1731 79.7708 30.0372 77.8678 30.1488C75.7984 30.2624 73.719 30.4354 71.6622 29.6763C69.4195 28.8476 68.0156 27.2727 67.109 25.1066C66.1296 22.7598 66.1597 20.2504 66.4109 17.8313C66.7097 14.9345 67.7369 12.172 70.1252 10.3674C71.2726 9.54584 72.5849 8.99969 73.9651 8.76929C75.3062 8.52918 76.7578 8.65828 78.1189 8.88547C81.0673 9.38117 82.8629 11.9629 83.3526 14.7796C83.5435 15.8949 83.541 17.0309 83.6364 18.2934ZM72.4658 16.1557H77.579C77.4534 14.8054 77.4233 13.4965 77.1922 12.2263C76.9612 10.956 76.1877 10.3777 75.0475 10.3984C73.9073 10.419 73.164 10.9767 72.9179 12.2701C72.6667 13.512 72.619 14.7874 72.4708 16.1428L72.4658 16.1557Z" fill="#252122"/>
<path d="M161.125 28.907V29.901H149.226L149.173 28.9354C150.178 28.6772 151.072 28.2564 151.434 27.2573C151.68 26.548 151.806 25.8004 151.805 25.0473C151.841 21.2366 151.878 17.4234 151.805 13.6153C151.763 11.5705 151.348 10.9483 149.442 10.6798V9.64711L157.747 8.81578V11.1729C158.235 10.7444 158.596 10.5197 158.84 10.1996C160.274 8.31234 164.001 8.2762 165.759 9.45348C166.208 9.75296 166.316 10.1041 166.11 10.574C165.462 12.043 164.817 13.512 164.134 14.9629C164.07 15.0741 163.981 15.1682 163.875 15.2377C163.769 15.3072 163.649 15.3501 163.523 15.3631C163.34 15.3631 163.114 15.0895 162.996 14.8855C162.494 14.0025 162.177 12.9027 161.025 12.6678C160.164 12.502 159.293 12.4071 158.418 12.3838C158.277 12.3838 157.991 12.8227 157.988 13.0602C157.963 17.4156 157.931 21.771 157.988 26.1265C158.014 27.9827 158.877 28.6798 161.125 28.907Z" fill="#03ADED"/>
<path d="M18.8379 30.5001H0.00256348V1.00098H18.8379V30.5001ZM0.695704 1.66191V29.7875H18.1146V1.66191H0.695704Z" fill="#0CB0EE"/>
<path d="M189.009 4.71339C188.981 3.30375 189.413 2.27363 191.056 2.15487C192.147 2.08312 193.243 2.1429 194.32 2.33301C195.37 2.51115 195.827 3.38637 195.918 4.39841C196.033 5.53955 195.554 6.46381 194.619 6.9182C194.001 7.22511 193.33 7.40215 192.645 7.43895C191.96 7.47575 191.274 7.37156 190.629 7.13249C189.433 6.71683 189.014 6.03267 189.009 4.71339Z" fill="#03ADED"/>
<path d="M11.7809 13.1428C14.3225 12.0507 15.9197 8.22455 14.9377 5.58858C14.6113 4.71336 14.1241 4.50682 13.5138 5.0051C13.564 5.05308 13.6197 5.09469 13.6795 5.12903C14.4857 5.46207 14.7017 5.83126 14.433 6.43539C14.2069 6.95174 13.5565 7.08342 12.9261 6.75554C12.6108 6.59371 12.3577 6.32731 12.2078 5.99939C12.0579 5.67147 12.0198 5.30117 12.0999 4.94831C12.2581 4.0008 12.8131 3.39925 13.6368 3.31405C14.8724 3.17205 15.8971 3.84589 16.2512 5.17808C16.8715 7.47842 16.6731 11.2684 14.006 13.3984C13.2074 14.0361 12.2481 14.4466 11.3967 14.9294C11.3364 14.8984 11.4469 15.0068 11.5524 14.9991C12.351 14.95 12.4841 15.4715 12.4515 16.1066C12.4113 16.9147 12.1777 17.1006 11.3565 17.1161C10.2364 17.1161 10.0456 17.2504 10.1988 18.3863C10.4273 20.08 10.8015 21.7426 11.0878 23.4388C11.2709 24.3392 11.3892 25.2521 11.4419 26.1703C11.472 27.3967 10.5554 28.1944 9.2997 28.1815C8.04401 28.1686 7.13991 27.438 7.25041 26.1962C7.39858 24.5232 7.78534 22.8734 8.03898 21.2082C8.20725 20.111 8.35793 19.0085 8.4609 17.9036C8.51112 17.3433 8.23236 17.0929 7.6221 17.098C6.53718 17.098 6.36641 16.8812 6.34129 15.9647C6.34129 15.3295 6.53718 14.9552 7.22279 15.012C7.38648 15.002 7.54839 14.9717 7.70497 14.9216C7.63968 14.8261 7.61707 14.7667 7.58945 14.7641C3.89019 14.2065 2.4361 10.9225 2.29797 7.9199C2.24523 6.77877 2.24272 5.6273 2.85048 4.58944C3.75708 3.04039 5.67578 2.89064 6.56732 4.2977C7.23534 5.35364 6.63764 6.80975 5.49245 6.8175C5.31354 6.81196 5.13785 6.76718 4.97716 6.68614C4.81646 6.6051 4.67448 6.48968 4.56072 6.34761C4.30959 5.92679 4.51803 5.48531 4.95501 5.21939L5.20615 5.06707C4.80433 4.71595 4.45274 4.71853 4.2016 5.21164C3.94918 5.68453 3.77919 6.19917 3.69932 6.73229C3.27741 9.36568 4.57579 12.1127 6.71298 13.1325C7.07964 13.308 7.46639 13.419 7.86319 13.5559L8.02392 13.3752C7.89333 13.259 7.77278 13.117 7.62963 13.024C7.41365 12.8588 7.04448 12.7349 7.00179 12.5283C6.8938 12.0326 7.28557 12.012 7.65223 12.012C7.76273 12.012 7.87323 11.9087 8.15451 11.7538C7.95066 11.7169 7.75116 11.6581 7.55931 11.5783C7.3568 11.4381 7.16149 11.2873 6.97416 11.1264C7.15247 10.9741 7.32073 10.814 7.5116 10.6772C7.63214 10.5894 7.78031 10.543 7.87072 10.3158C7.75888 10.3044 7.64952 10.2748 7.54675 10.228C7.33831 10.0886 7.14996 9.92334 6.95407 9.76586C7.13489 9.60321 7.3132 9.43281 7.50155 9.27016C7.62963 9.16689 7.77278 9.0817 7.90839 8.98875C7.77898 8.91141 7.6548 8.82515 7.53671 8.73058C7.34333 8.56793 7.16503 8.38462 6.97918 8.21423C7.15498 8.02834 7.30817 7.71853 7.51411 7.6798C7.95611 7.58686 8.04401 7.35966 8.01638 6.95433C7.99378 6.34245 8.03396 5.78221 7.5342 5.24778C7.25543 4.9483 7.19014 4.28737 7.26297 3.8304C7.36091 3.21594 7.96867 3.35794 8.41318 3.35278C9.11637 3.35278 9.82206 3.42248 10.5202 3.35278C11.8236 3.23918 11.9693 4.32868 11.4193 5.1187C11.2172 5.3773 11.0699 5.67648 10.9869 5.99704C10.9038 6.3176 10.8869 6.65246 10.9371 6.98015C10.9748 7.23832 11.1883 7.43195 11.3615 7.63849C11.5348 7.84503 11.7081 8.01543 11.8864 8.20131C11.6905 8.37429 11.4972 8.55243 11.2988 8.71766C11.2181 8.78145 11.1343 8.84091 11.0476 8.89581L11.8714 9.69874L10.9346 10.4423C11.0457 10.5092 11.153 10.5825 11.2561 10.6617C11.4369 10.8089 11.6051 10.969 11.7809 11.1239C11.6077 11.2788 11.4394 11.4414 11.2561 11.5808C11.0803 11.6812 10.8972 11.7675 10.7086 11.839C11.3641 12.0972 12.2154 12.012 11.6478 12.9517L10.8693 13.2099L10.9673 13.4681L11.7809 13.1428ZM10.1988 6.94658C9.83462 6.65226 9.62367 6.3502 9.39011 6.33212C9.21431 6.31663 8.84514 6.6755 8.8577 6.82782C8.87948 6.96944 8.93487 7.10335 9.01897 7.21773C9.10307 7.3321 9.21329 7.42341 9.33988 7.48358C9.5433 7.54555 9.80448 7.22541 10.1963 6.96723L10.1988 6.94658ZM10.1988 13.5739C9.83462 13.2796 9.62367 12.9801 9.39764 12.9621C9.21933 12.9621 8.85518 13.3003 8.86523 13.4578C8.88658 13.5979 8.94195 13.7303 9.02623 13.8427C9.11051 13.955 9.22097 14.0438 9.34741 14.1006C9.55084 14.1548 9.807 13.8425 10.1988 13.5843V13.5739ZM9.3449 8.66861L8.7045 9.03522C8.92335 9.16076 9.16099 9.24801 9.40769 9.2934C9.61111 9.2934 9.81453 9.11784 10.0154 9.01715L9.3449 8.66861ZM8.62162 10.2693C8.87276 10.9896 9.37504 10.6617 9.7191 10.7263C9.79946 10.7418 9.90745 10.5843 10.0029 10.5042C9.90745 10.4242 9.82206 10.2874 9.72161 10.277C9.40769 10.2461 9.07367 10.277 8.63669 10.277L8.62162 10.2693ZM8.72208 11.617L8.64674 11.8054C8.76226 11.8984 8.87528 12.0636 8.99331 12.0636C9.32357 12.0574 9.65316 12.0307 9.98028 11.9836C9.91499 11.8597 9.86225 11.6351 9.78439 11.6273C9.43502 11.6025 9.08462 11.5965 8.73464 11.6092L8.72208 11.617Z" fill="#282425"/>
<path d="M10.2087 6.94666C9.81446 7.20483 9.55076 7.5353 9.35739 7.49657C9.2308 7.4364 9.12058 7.34509 9.03648 7.23072C8.95238 7.11634 8.89699 6.98242 8.8752 6.84081C8.86014 6.67816 9.22931 6.32445 9.40762 6.34511C9.63615 6.34511 9.83957 6.64976 10.2113 6.94666H10.2087Z" fill="#EFEEEE"/>
<path d="M10.2113 13.5792C9.81701 13.8374 9.55834 14.1498 9.35743 14.1162C9.23098 14.0594 9.12052 13.9707 9.03624 13.8583C8.95197 13.7459 8.89659 13.6136 8.87524 13.4734C8.87524 13.3081 9.22684 12.957 9.40766 12.9777C9.6387 12.9777 9.83961 13.2797 10.2138 13.5818L10.2113 13.5792Z" fill="#F4F4F4"/>
<path d="M9.35244 8.65845L10.023 9.00698C9.81956 9.10508 9.61362 9.28581 9.41522 9.28323C9.16853 9.23784 8.93089 9.15059 8.71204 9.02505L9.35244 8.65845Z" fill="#E1E0E0"/>
<path d="M8.6416 10.259C9.07858 10.259 9.4126 10.2409 9.74159 10.259C9.83953 10.259 9.92994 10.4062 10.0229 10.4862C9.92743 10.5637 9.81693 10.7186 9.73908 10.7082C9.3925 10.654 8.89274 10.9664 8.6416 10.2616V10.259ZM8.74206 11.6067C9.09706 11.5934 9.4525 11.5994 9.80688 11.6248C9.88474 11.6248 9.93747 11.8545 10.0028 11.981C9.67565 12.0282 9.34606 12.0549 9.0158 12.0611C8.89776 12.0611 8.76466 11.8907 8.66923 11.8029L8.74206 11.6067Z" fill="#F9F9F9"/>
<path d="M11.7809 13.143L10.9496 13.4993L10.8517 13.2411L11.6302 12.9829L11.7809 13.143Z" fill="#FCFDFD"/>
</g>
<defs>
<clipPath id="clip0_30_288">
<rect width="240" height="30" fill="white" transform="translate(0 0.5)"/>
</clipPath>
</defs>
</svg>
