<svg width="24" height="24" viewBox="0 0 24 24" fill="none" xmlns="http://www.w3.org/2000/svg">
<path d="M22.5673 11.4173L20.25 12.576L17.25 6.83079L19.5909 5.66036C19.7667 5.57242 19.9701 5.55707 20.1572 5.61761C20.3443 5.67814 20.5001 5.80973 20.5911 5.98403L22.8967 10.3994C22.9428 10.4877 22.9708 10.5842 22.9792 10.6835C22.9876 10.7827 22.9761 10.8827 22.9454 10.9774C22.9148 11.0722 22.8655 11.1599 22.8006 11.2354C22.7357 11.311 22.6564 11.3728 22.5673 11.4173V11.4173Z" stroke="white" stroke-width="1.5" stroke-linecap="round" stroke-linejoin="round"/>
<path d="M3.75042 12.4755L1.43314 11.3168C1.34406 11.2723 1.26474 11.2104 1.19981 11.1349C1.13488 11.0594 1.08565 10.9717 1.05498 10.8769C1.02432 10.7821 1.01284 10.6822 1.02121 10.583C1.02958 10.4837 1.05763 10.3871 1.10374 10.2988L3.40932 5.8835C3.50034 5.70921 3.65616 5.57762 3.84323 5.51708C4.03031 5.45655 4.23368 5.4719 4.40955 5.55983L6.75042 6.73027L3.75042 12.4755Z" stroke="white" stroke-width="1.5" stroke-linecap="round" stroke-linejoin="round"/>
<path d="M20.25 12.5759L18.75 14.3308L15.3003 17.7805C15.2087 17.8721 15.095 17.9384 14.9701 17.9729C14.8453 18.0075 14.7137 18.0092 14.588 17.9778L9.15458 16.6194C9.05266 16.5939 8.95724 16.5473 8.87448 16.4826L3.75 12.4755" stroke="white" stroke-width="1.5" stroke-linecap="round" stroke-linejoin="round"/>
<path d="M18.7498 14.3308L14.6248 11.3308L13.4248 12.2308C12.9055 12.6202 12.2739 12.8308 11.6248 12.8308C10.9757 12.8308 10.3441 12.6202 9.8248 12.2308L9.3166 11.8496C9.23064 11.7851 9.15953 11.7029 9.1081 11.6086C9.05667 11.5142 9.02611 11.41 9.01849 11.3028C9.01087 11.1956 9.02637 11.088 9.06395 10.9873C9.10152 10.8867 9.16029 10.7953 9.23627 10.7193L12.9051 7.05042C12.9748 6.98078 13.0574 6.92553 13.1484 6.88784C13.2394 6.85015 13.337 6.83075 13.4355 6.83075H17.2498" stroke="white" stroke-width="1.5" stroke-linecap="round" stroke-linejoin="round"/>
<path d="M6.80371 6.73029L11.615 5.32764C11.7868 5.27754 11.971 5.29056 12.1341 5.36436L15.3749 6.83077" stroke="white" stroke-width="1.5" stroke-linecap="round" stroke-linejoin="round"/>
<path d="M10.5 19.9558L7.67443 19.2494C7.55977 19.2207 7.4535 19.1654 7.3643 19.0878L5.25 17.25" stroke="white" stroke-width="1.5" stroke-linecap="round" stroke-linejoin="round"/>
</svg>
