<svg width="19" height="21" viewBox="0 0 19 21" fill="none" xmlns="http://www.w3.org/2000/svg">
<path fill-rule="evenodd" clip-rule="evenodd" d="M6.35714 19.5971C4.54291 19.0835 2.64348 18.8244 0.800907 18.587C0.404045 18.5373 0.0355856 18.815 0.00723837 19.2062C-0.0494562 19.5977 0.234183 19.9557 0.602697 20.0055C2.38858 20.234 4.23098 20.4785 5.96016 20.9729C6.32868 21.0801 6.72571 20.8594 6.8391 20.4796C6.95249 20.1001 6.72565 19.7046 6.35714 19.5971Z" fill="black"/>
<path fill-rule="evenodd" clip-rule="evenodd" d="M11.856 12.3154C8.93619 9.30951 5.64791 6.69056 2.78483 3.60405C2.52971 3.31579 2.07615 3.30035 1.79268 3.56945C1.50921 3.83884 1.48097 4.29182 1.76444 4.58008C4.62752 7.67545 7.9158 10.303 10.8356 13.3177C11.119 13.5991 11.5725 13.6031 11.856 13.3263C12.1111 13.0497 12.1394 12.5968 11.856 12.3154Z" fill="black"/>
<path fill-rule="evenodd" clip-rule="evenodd" d="M17.328 0.753757C17.413 2.47417 17.4979 4.19458 17.5829 5.91528C17.5829 6.30936 17.9233 6.61363 18.3201 6.59447C18.717 6.57502 19.0003 6.23958 19.0003 5.84522C18.9152 4.12195 18.8304 2.39896 18.7453 0.675971C18.717 0.2819 18.3768 -0.0203736 17.9799 0.00107435C17.6114 0.0225223 17.2996 0.359972 17.328 0.753757Z" fill="black"/>
</svg>
