<svg width="154" height="236" viewBox="0 0 154 236" fill="none" xmlns="http://www.w3.org/2000/svg">
<path d="M142.036 235.987H19.192C17.2166 235.958 15.3248 235.185 13.8961 233.82C12.4673 232.456 11.6073 230.602 11.4884 228.63L0.472264 15.2877C0.411189 14.3388 0.546795 13.3874 0.870589 12.4933C1.19438 11.5992 1.69938 10.7817 2.35392 10.0919C3.00847 9.40207 3.79845 8.8549 4.67435 8.48469C5.55024 8.11447 6.49317 7.92918 7.44403 7.94042H130.288C132.262 7.96602 134.154 8.73777 135.583 10.1007C137.012 11.4635 137.872 13.3166 137.991 15.2877L148.988 228.63C149.049 229.577 148.914 230.527 148.592 231.421C148.269 232.314 147.766 233.131 147.114 233.822C146.461 234.512 145.674 235.06 144.8 235.433C143.926 235.805 142.985 235.994 142.036 235.987Z" fill="#2CA6B3"/>
<path opacity="0.8" d="M142.036 235.987H19.192C17.2166 235.958 15.3248 235.185 13.8961 233.82C12.4673 232.456 11.6073 230.602 11.4884 228.63L0.472264 15.2877C0.411189 14.3388 0.546795 13.3874 0.870589 12.4933C1.19438 11.5992 1.69938 10.7817 2.35392 10.0919C3.00847 9.40207 3.79845 8.8549 4.67435 8.48469C5.55024 8.11447 6.49317 7.92918 7.44403 7.94042H130.288C132.262 7.96602 134.154 8.73777 135.583 10.1007C137.012 11.4635 137.872 13.3166 137.991 15.2877L148.988 228.63C149.049 229.577 148.914 230.527 148.592 231.421C148.269 232.314 147.766 233.131 147.114 233.822C146.461 234.512 145.674 235.06 144.8 235.433C143.926 235.805 142.985 235.994 142.036 235.987Z" fill="white"/>
<path d="M118.164 0.987793H104.577V1.95074H118.164V0.987793Z" fill="#2CA6B3"/>
<path d="M99.8681 0.987793H94.8896V1.95074H99.8681V0.987793Z" fill="#2CA6B3"/>
<path d="M147.323 222.447H29.8425C27.9506 222.429 26.136 221.694 24.7638 220.392C23.3916 219.089 22.5638 217.315 22.447 215.427L11.9316 11.3777C11.8732 10.4695 12.003 9.55907 12.313 8.70344C12.623 7.84781 13.1064 7.06547 13.7329 6.40546C14.3595 5.74545 15.1157 5.22202 15.954 4.86799C16.7924 4.51397 17.6949 4.33699 18.6048 4.34815H136.085C137.977 4.36904 139.79 5.10578 141.161 6.41006C142.531 7.71433 143.356 9.48931 143.471 11.3777L153.986 215.427C154.045 216.334 153.915 217.243 153.606 218.098C153.296 218.952 152.813 219.733 152.188 220.393C151.562 221.052 150.807 221.574 149.97 221.928C149.132 222.281 148.231 222.458 147.323 222.447Z" fill="#2CA6B3"/>
<path d="M147.322 217.758H29.8418C29.1529 217.734 28.4966 217.458 27.9978 216.982C27.4989 216.506 27.1922 215.864 27.1359 215.177L16.6109 11.1372C16.5871 10.8658 16.6211 10.5924 16.7107 10.3351C16.8004 10.0778 16.9436 9.84248 17.1309 9.64463C17.3187 9.44723 17.5463 9.29195 17.7987 9.18903C18.051 9.08611 18.3223 9.03791 18.5946 9.04761H136.075C136.762 9.07358 137.416 9.35055 137.913 9.82611C138.41 10.3017 138.715 10.9428 138.771 11.6283L149.344 215.668C149.367 215.938 149.333 216.211 149.244 216.467C149.154 216.723 149.012 216.958 148.825 217.155C148.639 217.352 148.413 217.508 148.162 217.612C147.911 217.716 147.641 217.765 147.37 217.758H147.322ZM18.5946 9.28834C18.3552 9.2806 18.1168 9.32284 17.8946 9.41237C17.6724 9.5019 17.4714 9.63676 17.3042 9.80833C17.1435 9.98617 17.0205 10.1948 16.9427 10.4215C16.8649 10.6483 16.8339 10.8885 16.8516 11.1276L27.3671 215.167C27.4207 215.792 27.7008 216.376 28.1549 216.809C28.6089 217.242 29.2054 217.493 29.8322 217.517H147.312C147.55 217.526 147.788 217.485 148.009 217.395C148.23 217.305 148.429 217.17 148.593 216.997C148.758 216.822 148.883 216.613 148.961 216.386C149.039 216.159 149.068 215.917 149.046 215.678L138.54 11.6379C138.488 11.0139 138.21 10.4302 137.758 9.99725C137.305 9.56432 136.71 9.31213 136.084 9.28834H18.5946Z" fill="white"/>
<path opacity="0.3" d="M106.23 83.4126C119.592 69.7009 118.722 47.1816 104.287 33.1143C89.8512 19.0471 67.3169 18.7589 53.9548 32.4706C40.5928 46.1823 41.4629 68.7016 55.8983 82.7689C70.3337 96.8361 92.868 97.1243 106.23 83.4126Z" fill="white"/>
<path d="M108.901 57.946C109.17 62.6781 108.219 67.4001 106.137 71.6584C103.884 76.2258 100.386 80.0638 96.047 82.73C91.7077 85.3963 86.7035 86.7824 81.6108 86.7286C76.3332 86.6811 71.1577 85.2681 66.588 82.6272C62.0184 79.9864 58.2102 76.2075 55.5341 71.6584C53.04 67.4984 51.605 62.7899 51.3549 57.946C51.1175 54.2312 51.6493 50.5073 52.9172 47.0075C54.1851 43.5077 56.1617 40.3072 58.7233 37.6064C61.2849 34.9056 64.3764 32.7625 67.8043 31.3114C71.2322 29.8603 74.9227 29.1323 78.6449 29.173C86.3919 29.2537 93.8205 32.267 99.4346 37.606C105.049 42.9449 108.431 50.2128 108.901 57.946Z" fill="white"/>
<path d="M106.108 71.6591C103.855 76.2265 100.357 80.0645 96.0178 82.7307C91.6785 85.397 86.6743 86.7831 81.5816 86.7293C76.3039 86.6818 71.1285 85.2688 66.5588 82.6279C61.9892 79.987 58.181 76.2082 55.5049 71.6591C62.8226 66.6054 71.5137 63.9167 80.4068 63.9555C89.5377 63.9899 98.4636 66.6653 106.108 71.6591Z" fill="#2CA6B3"/>
<path d="M89.0128 57.2773C93.8269 52.3372 93.5117 44.2224 88.3089 39.1522C83.106 34.0821 74.9857 33.9766 70.1717 38.9166C65.3576 43.8566 65.6728 51.9715 70.8757 57.0417C76.0785 62.1118 84.1988 62.2173 89.0128 57.2773Z" fill="#2CA6B3"/>
<path d="M130.48 143.062H38.4894C37.6882 143.053 36.9199 142.742 36.3391 142.19C35.7584 141.638 35.4085 140.886 35.3599 140.086L34.6665 126.605C34.6427 126.221 34.6982 125.837 34.8296 125.476C34.961 125.115 35.1656 124.785 35.4304 124.506C35.6952 124.228 36.0147 124.007 36.3687 123.858C36.7227 123.709 37.1038 123.634 37.488 123.639H129.479C130.278 123.647 131.045 123.957 131.626 124.507C132.206 125.057 132.557 125.807 132.608 126.605L133.302 140.086C133.327 140.47 133.272 140.856 133.142 141.218C133.011 141.58 132.806 141.911 132.541 142.191C132.277 142.47 131.957 142.692 131.602 142.842C131.247 142.992 130.865 143.066 130.48 143.062Z" fill="white"/>
<path opacity="0.3" d="M102.314 116.195H63.8922C63.0877 116.189 62.3157 115.878 61.7327 115.323C61.1497 114.769 60.7994 114.013 60.753 113.21L60.6086 110.321C60.5833 109.937 60.6378 109.552 60.7686 109.19C60.8994 108.827 61.1037 108.496 61.3687 108.217C61.6337 107.937 61.9536 107.716 62.3083 107.566C62.663 107.416 63.0449 107.341 63.43 107.346H101.842C102.643 107.354 103.412 107.666 103.992 108.218C104.573 108.77 104.923 109.522 104.972 110.321L105.126 113.21C105.149 113.594 105.094 113.978 104.964 114.34C104.833 114.701 104.63 115.032 104.366 115.312C104.103 115.591 103.785 115.814 103.432 115.966C103.079 116.118 102.698 116.196 102.314 116.195Z" fill="black"/>
<path opacity="0.3" d="M116.605 207.878H59.0495C57.6866 207.861 56.3805 207.33 55.3929 206.391C54.4053 205.451 53.8093 204.173 53.7244 202.813L53.3874 196.169C53.3534 195.516 53.4527 194.862 53.6794 194.249C53.9061 193.636 54.2554 193.075 54.7059 192.601C55.1564 192.127 55.6988 191.75 56.2999 191.492C56.901 191.235 57.5482 191.103 58.2021 191.104H115.738C117.101 191.12 118.407 191.652 119.395 192.591C120.383 193.53 120.979 194.808 121.064 196.169L121.401 202.813C121.435 203.464 121.336 204.116 121.11 204.728C120.885 205.34 120.537 205.9 120.089 206.374C119.64 206.847 119.1 207.225 118.501 207.484C117.903 207.742 117.257 207.876 116.605 207.878Z" fill="black"/>
<path d="M132.166 175.667H40.1652C39.3646 175.657 38.5976 175.345 38.0173 174.793C37.4371 174.241 37.0865 173.491 37.0356 172.692L36.3423 159.21C36.3185 158.827 36.374 158.442 36.5053 158.08C36.6367 157.719 36.841 157.388 37.1057 157.109C37.3704 156.83 37.6897 156.608 38.0438 156.458C38.3978 156.307 38.7791 156.232 39.1637 156.235H131.154C131.956 156.243 132.724 156.555 133.305 157.107C133.885 157.659 134.235 158.411 134.284 159.21L134.987 172.692C135.009 173.075 134.953 173.46 134.821 173.82C134.689 174.181 134.485 174.511 134.22 174.79C133.956 175.069 133.637 175.291 133.284 175.442C132.93 175.593 132.55 175.669 132.166 175.667Z" fill="white"/>
<path d="M50.1606 133.345C50.1871 133.771 50.1256 134.197 49.9798 134.598C49.8341 134.999 49.6073 135.365 49.3136 135.674C49.0199 135.983 48.6656 136.228 48.2728 136.394C47.8801 136.56 47.4573 136.643 47.031 136.639C46.1453 136.628 45.2964 136.282 44.6551 135.672C44.0137 135.061 43.6275 134.229 43.574 133.345C43.5461 132.92 43.6064 132.494 43.751 132.093C43.8956 131.693 44.1215 131.326 44.4145 131.017C44.7074 130.708 45.0611 130.462 45.4534 130.296C45.8457 130.13 46.268 130.047 46.694 130.052C47.5807 130.062 48.4307 130.408 49.0736 131.018C49.7165 131.629 50.1048 132.46 50.1606 133.345Z" fill="#263238"/>
<path d="M60.3004 133.345C60.3283 133.77 60.268 134.197 60.1234 134.597C59.9788 134.998 59.7529 135.364 59.4599 135.674C59.167 135.983 58.8133 136.228 58.421 136.394C58.0287 136.56 57.6064 136.643 57.1804 136.639C56.294 136.63 55.4439 136.286 54.8021 135.674C54.1602 135.063 53.7747 134.23 53.7234 133.345C53.6955 132.92 53.7558 132.494 53.9004 132.093C54.0451 131.693 54.2709 131.326 54.5639 131.017C54.8569 130.708 55.2106 130.462 55.6028 130.296C55.9951 130.13 56.4175 130.047 56.8434 130.052C57.7298 130.06 58.5799 130.405 59.2218 131.016C59.8636 131.628 60.2491 132.46 60.3004 133.345Z" fill="#263238"/>
<path d="M70.3826 133.345C70.4105 133.77 70.3503 134.197 70.2056 134.597C70.061 134.998 69.8351 135.364 69.5422 135.674C69.2492 135.983 68.8955 136.228 68.5032 136.394C68.111 136.56 67.6886 136.643 67.2627 136.639C66.3759 136.628 65.526 136.283 64.883 135.672C64.2401 135.061 63.8519 134.23 63.796 133.345C63.7695 132.92 63.8311 132.493 63.9768 132.093C64.1225 131.692 64.3494 131.326 64.6431 131.017C64.9368 130.707 65.2911 130.462 65.6838 130.296C66.0765 130.13 66.4993 130.047 66.9256 130.052C67.8113 130.063 68.6602 130.408 69.3016 131.019C69.9429 131.63 70.3291 132.461 70.3826 133.345Z" fill="#263238"/>
<path d="M80.5418 133.345C80.5682 133.77 80.507 134.195 80.3618 134.596C80.2167 134.996 79.9907 135.361 79.6981 135.67C79.4054 135.979 79.0522 136.225 78.6606 136.391C78.269 136.558 77.8474 136.642 77.4218 136.638C76.5351 136.628 75.6851 136.283 75.0422 135.672C74.3993 135.061 74.011 134.23 73.9552 133.345C73.9288 132.92 73.99 132.495 74.1352 132.095C74.2803 131.695 74.5063 131.329 74.799 131.02C75.0916 130.711 75.4447 130.466 75.8363 130.299C76.2279 130.133 76.6496 130.048 77.0752 130.052C77.9619 130.062 78.8119 130.407 79.4548 131.018C80.0977 131.629 80.486 132.46 80.5418 133.345Z" fill="#263238"/>
<path d="M51.8641 165.932C51.892 166.357 51.8317 166.783 51.6871 167.184C51.5425 167.584 51.3166 167.951 51.0236 168.26C50.7307 168.569 50.3769 168.815 49.9847 168.981C49.5924 169.147 49.1701 169.23 48.7441 169.225C47.8574 169.215 47.0074 168.869 46.3645 168.259C45.7216 167.648 45.3333 166.817 45.2775 165.932C45.251 165.506 45.3125 165.08 45.4583 164.679C45.604 164.278 45.8308 163.912 46.1245 163.603C46.4182 163.294 46.7725 163.049 47.1653 162.883C47.558 162.717 47.9807 162.634 48.4071 162.638C49.2928 162.649 50.1417 162.994 50.783 163.605C51.4244 164.216 51.8106 165.048 51.8641 165.932Z" fill="#263238"/>
<path d="M61.9848 165.932C62.0113 166.356 61.95 166.782 61.8048 167.182C61.6597 167.582 61.4337 167.948 61.1411 168.257C60.8484 168.566 60.4953 168.811 60.1037 168.978C59.7121 169.144 59.2904 169.228 58.8649 169.225C57.9781 169.215 57.1282 168.869 56.4852 168.259C55.8423 167.648 55.4541 166.817 55.3982 165.932C55.3703 165.507 55.4306 165.08 55.5752 164.68C55.7199 164.279 55.9457 163.913 56.2387 163.603C56.5317 163.294 56.8854 163.049 57.2776 162.883C57.6699 162.717 58.0922 162.633 58.5182 162.638C59.4049 162.649 60.2549 162.994 60.8978 163.605C61.5407 164.215 61.929 165.047 61.9848 165.932Z" fill="#263238"/>
<path d="M72.1069 165.932C72.1334 166.357 72.0719 166.784 71.9261 167.184C71.7804 167.585 71.5536 167.951 71.2599 168.26C70.9662 168.57 70.6119 168.815 70.2191 168.981C69.8264 169.147 69.4036 169.23 68.9773 169.225C68.0909 169.217 67.2407 168.872 66.5989 168.261C65.9571 167.649 65.5716 166.817 65.5203 165.932C65.4924 165.507 65.5527 165.08 65.6973 164.68C65.8419 164.279 66.0678 163.913 66.3608 163.603C66.6537 163.294 67.0074 163.049 67.3997 162.883C67.792 162.717 68.2143 162.633 68.6403 162.638C69.527 162.649 70.377 162.994 71.0199 163.605C71.6628 164.215 72.0511 165.047 72.1069 165.932Z" fill="#263238"/>
<path d="M82.2176 165.932C82.2455 166.357 82.1852 166.783 82.0406 167.184C81.896 167.584 81.6701 167.951 81.3771 168.26C81.0842 168.569 80.7305 168.815 80.3382 168.981C79.9459 169.147 79.5236 169.23 79.0976 169.225C78.2109 169.215 77.3609 168.869 76.718 168.259C76.0751 167.648 75.6868 166.817 75.631 165.932C75.6045 165.506 75.666 165.08 75.8118 164.679C75.9575 164.278 76.1843 163.912 76.478 163.603C76.7717 163.294 77.126 163.049 77.5188 162.883C77.9115 162.717 78.3343 162.634 78.7606 162.638C79.647 162.647 80.4972 162.991 81.139 163.603C81.7808 164.214 82.1663 165.047 82.2176 165.932Z" fill="#263238"/>
<path d="M92.3377 165.932C92.3656 166.357 92.3053 166.783 92.1607 167.184C92.0161 167.584 91.7902 167.951 91.4972 168.26C91.2043 168.569 90.8506 168.814 90.4583 168.981C90.066 169.147 89.6437 169.23 89.2177 169.225C88.331 169.215 87.481 168.869 86.8381 168.259C86.1952 167.648 85.8069 166.817 85.7511 165.932C85.7247 165.507 85.7859 165.081 85.9311 164.681C86.0762 164.281 86.3022 163.915 86.5949 163.606C86.8875 163.297 87.2406 163.052 87.6322 162.886C88.0238 162.719 88.4455 162.635 88.8711 162.638C89.7578 162.649 90.6078 162.994 91.2507 163.605C91.8936 164.215 92.2819 165.047 92.3377 165.932Z" fill="#263238"/>
<path d="M102.458 165.932C102.485 166.357 102.423 166.784 102.278 167.184C102.132 167.585 101.905 167.951 101.611 168.26C101.318 168.57 100.963 168.815 100.571 168.981C100.178 169.147 99.7552 169.23 99.3289 169.225C98.4431 169.214 97.5943 168.869 96.9529 168.258C96.3116 167.647 95.9253 166.816 95.8719 165.932C95.844 165.507 95.9042 165.08 96.0489 164.68C96.1935 164.279 96.4194 163.913 96.7123 163.603C97.0053 163.294 97.359 163.049 97.7513 162.883C98.1435 162.717 98.5659 162.633 98.9918 162.638C99.8785 162.649 100.729 162.994 101.371 163.605C102.014 164.215 102.403 165.047 102.458 165.932Z" fill="#263238"/>
</svg>
