<svg id="Layer_1" data-name="Layer 1" xmlns="http://www.w3.org/2000/svg" viewBox="0 0 432.09 72.45"><defs><style>.cls-1{fill:#f04e63;}.cls-2{fill:#fff;}</style></defs><title>LOGO  WHITE</title><path class="cls-1" d="M623.05,311.36a16.19,16.19,0,0,1-2.79-7.08c4.38-.25,7.61-.44,10.09-.64V288.31c-2.59.23-6.61.46-10.86.7.08-3.29.23-6.78.39-10.39H599.77c-.17,3.8-.33,7.5-.39,11.06-4.39,0-8.41-.23-11.55-.47v15.32c3.61.25,7.81.42,12.23.44.92,6.78,2.91,14.08,6.81,19,6.07,7.71,14.67,10,22.18,10a65.66,65.66,0,0,0,8-.51V313.38C635.3,313.91,626.81,316.14,623.05,311.36Z" transform="translate(-204.97 -261.55)"/><circle class="cls-1" cx="362.21" cy="10.33" r="10.33"/><rect class="cls-1" x="352.14" y="31.15" width="20.14" height="41.3"/><circle class="cls-2" cx="176.18" cy="51.8" r="20.65"/><circle class="cls-2" cx="227.98" cy="51.8" r="20.65"/><path class="cls-2" d="M308.07,292.85A40.89,40.89,0,0,0,277,307.14a41,41,0,0,0-72,26.7h20a21,21,0,0,1,42,0h20.11a21,21,0,0,1,42,0h20A41,41,0,0,0,308.07,292.85Z" transform="translate(-204.97 -261.55)"/><path class="cls-2" d="M505.22,313.86a21.18,21.18,0,0,1-21.16-21.16H463.92a41.31,41.31,0,0,0,82.61,0H526.39A21.19,21.19,0,0,1,505.22,313.86Z" transform="translate(-204.97 -261.55)"/></svg>