<svg id="Layer_1" data-name="Layer 1" xmlns="http://www.w3.org/2000/svg" viewBox="0 0 432.09 120.85"><defs><style>.cls-1{font-size:20.15px;fill:#231f20;font-family:Futura-Medium, Futura Medium;font-weight:500;}.cls-2{letter-spacing:-0.01em;}.cls-3{letter-spacing:0em;}.cls-4{letter-spacing:-0.02em;}.cls-5{letter-spacing:0em;}.cls-6{letter-spacing:-0.04em;}.cls-7{letter-spacing:0em;}.cls-8{letter-spacing:-0.08em;}.cls-9{letter-spacing:-0.04em;}</style></defs><title>logo with taglne</title><circle cx="176.18" cy="51.8" r="20.65"/><circle cx="227.98" cy="51.8" r="20.65"/><path d="M308.07,268.15A40.89,40.89,0,0,0,277,282.44a41,41,0,0,0-72,26.7h20a21,21,0,1,1,42,0h20.11a21,21,0,1,1,42,0h20A41,41,0,0,0,308.07,268.15Z" transform="translate(-204.97 -236.84)"/><path d="M623.05,286.66a16.24,16.24,0,0,1-2.79-7.09c4.38-.25,7.61-.43,10.09-.63V263.6c-2.59.23-6.61.47-10.86.71.08-3.29.23-6.78.39-10.4H599.77c-.17,3.81-.33,7.51-.39,11.07-4.39,0-8.41-.23-11.55-.47v15.31c3.61.26,7.81.43,12.23.45.92,6.77,2.91,14.08,6.81,19,6.07,7.72,14.67,10,22.18,10a65.71,65.71,0,0,0,8-.5V288.67C635.3,289.2,626.81,291.44,623.05,286.66Z" transform="translate(-204.97 -236.84)"/><circle cx="362.21" cy="10.33" r="10.33"/><rect x="352.14" y="31.15" width="20.14" height="41.3"/><path d="M505.22,289.16A21.19,21.19,0,0,1,484.06,268H463.92a41.31,41.31,0,0,0,82.61,0H526.39A21.2,21.2,0,0,1,505.22,289.16Z" transform="translate(-204.97 -236.84)"/><text class="cls-1" transform="translate(138.53 115.82)">Di<tspan class="cls-2" x="18.14" y="0">g</tspan><tspan x="29.28" y="0">ital </tspan><tspan class="cls-3" x="59.41" y="0">e</tspan><tspan class="cls-4" x="69.44" y="0">x</tspan><tspan class="cls-5" x="78.47" y="0">ecution,</tspan><tspan class="cls-6" x="146.5" y="0"> </tspan><tspan class="cls-7" x="149.95" y="0">TH</tspan><tspan class="cls-8" x="173.1" y="0">A</tspan><tspan x="183.89" y="0">T</tspan><tspan class="cls-9" x="193.9" y="0"> </tspan><tspan x="197.45" y="0">WORKS</tspan></text></svg>