<svg width="24" height="24" viewBox="0 0 24 24" fill="none" xmlns="http://www.w3.org/2000/svg">
<path d="M2.99902 4.75V17.75C2.99902 17.8664 3.02613 17.9813 3.0782 18.0854C3.13027 18.1896 3.20588 18.2801 3.29902 18.35C3.39217 18.4199 3.5003 18.4671 3.61486 18.4879C3.72942 18.5087 3.84725 18.5026 3.95902 18.47L20.459 13.6575C20.6148 13.6121 20.7517 13.5173 20.849 13.3875C20.9464 13.2577 20.999 13.0998 20.999 12.9375V9.5625C20.999 9.40022 20.9464 9.24232 20.849 9.1125C20.7517 8.98268 20.6148 8.88794 20.459 8.8425L3.95902 4.03C3.84725 3.9974 3.72942 3.99127 3.61486 4.0121C3.5003 4.03293 3.39217 4.08014 3.29902 4.15C3.20588 4.21986 3.13027 4.31045 3.0782 4.41459C3.02613 4.51873 2.99902 4.63357 2.99902 4.75V4.75Z" stroke="white" stroke-width="1.5" stroke-linecap="round" stroke-linejoin="round"/>
<path d="M17.25 14.5936V18C17.25 18.1989 17.171 18.3897 17.0303 18.5303C16.8897 18.671 16.6989 18.75 16.5 18.75H13.5C13.3011 18.75 13.1103 18.671 12.9697 18.5303C12.829 18.3897 12.75 18.1989 12.75 18V6.5939" stroke="white" stroke-width="1.5" stroke-linecap="round" stroke-linejoin="round"/>
</svg>
