<svg width="54" height="54" viewBox="0 0 54 54" fill="none" xmlns="http://www.w3.org/2000/svg">
<circle cx="27" cy="27" r="27" fill="#EBF1FF"/>
<path d="M17.4834 19.335V33.0798C17.4834 33.2029 17.5121 33.3243 17.5671 33.4344C17.6222 33.5445 17.7021 33.6403 17.8006 33.7141C17.8991 33.788 18.0134 33.8379 18.1345 33.8599C18.2556 33.8819 18.3802 33.8755 18.4984 33.841L35.9437 28.7528C36.1084 28.7047 36.2531 28.6046 36.3561 28.4673C36.459 28.3301 36.5146 28.1631 36.5146 27.9915V24.4232C36.5146 24.2516 36.459 24.0847 36.3561 23.9474C36.2531 23.8101 36.1084 23.71 35.9437 23.6619L18.4984 18.5737C18.3802 18.5392 18.2556 18.5328 18.1345 18.5548C18.0134 18.5768 17.8991 18.6267 17.8006 18.7006C17.7021 18.7744 17.6222 18.8702 17.5671 18.9803C17.5121 19.0904 17.4834 19.2119 17.4834 19.335V19.335Z" stroke="#35469C" stroke-width="1.5" stroke-linecap="round" stroke-linejoin="round"/>
<path d="M32.5508 29.7422V33.3437C32.5508 33.5541 32.4672 33.7557 32.3185 33.9045C32.1698 34.0532 31.9681 34.1367 31.7578 34.1367H28.5859C28.3756 34.1367 28.1739 34.0532 28.0252 33.9045C27.8765 33.7557 27.793 33.5541 27.793 33.3437V21.2842" stroke="#35469C" stroke-width="1.5" stroke-linecap="round" stroke-linejoin="round"/>
</svg>
