<svg width="243" height="288" viewBox="0 0 243 288" fill="none" xmlns="http://www.w3.org/2000/svg">
<path d="M121.482 168.453H235.834C237.654 168.453 239.4 169.176 240.687 170.463C241.974 171.75 242.697 173.495 242.697 175.315V279.829C242.697 281.961 241.85 284.005 240.342 285.513C238.835 287.02 236.791 287.867 234.659 287.867H121.871C119.973 287.867 118.153 287.113 116.811 285.771C115.469 284.429 114.715 282.609 114.715 280.711V175.239C114.715 173.443 115.427 171.72 116.696 170.447C117.964 169.175 119.686 168.458 121.482 168.453Z" fill="white"/>
<path d="M179.421 187.836H114.667V252.59H179.421V187.836Z" fill="#F5F5F5"/>
<path d="M121.482 168.453H235.834C237.654 168.453 239.399 169.176 240.686 170.463C241.973 171.75 242.696 173.495 242.696 175.315V187.836H114.667V175.239C114.667 174.346 114.843 173.461 115.186 172.636C115.529 171.811 116.032 171.061 116.665 170.431C117.298 169.8 118.049 169.301 118.876 168.962C119.703 168.622 120.588 168.449 121.482 168.453Z" fill="#2CA6B3"/>
<path d="M126.221 178.49C126.221 178.968 126.08 179.435 125.814 179.833C125.549 180.23 125.171 180.54 124.729 180.723C124.288 180.906 123.802 180.954 123.333 180.861C122.864 180.767 122.434 180.537 122.096 180.199C121.758 179.861 121.527 179.43 121.434 178.962C121.341 178.493 121.389 178.007 121.572 177.565C121.755 177.124 122.064 176.746 122.462 176.481C122.859 176.215 123.327 176.073 123.805 176.073C124.445 176.076 125.058 176.331 125.511 176.784C125.964 177.237 126.219 177.85 126.221 178.49Z" fill="white"/>
<path d="M133.538 178.49C133.538 178.968 133.396 179.435 133.131 179.833C132.865 180.23 132.488 180.54 132.046 180.723C131.604 180.906 131.118 180.954 130.649 180.861C130.181 180.767 129.75 180.537 129.412 180.199C129.074 179.861 128.844 179.43 128.751 178.962C128.657 178.493 128.705 178.007 128.888 177.565C129.071 177.124 129.381 176.746 129.778 176.481C130.176 176.215 130.643 176.073 131.121 176.073C131.762 176.073 132.377 176.328 132.83 176.781C133.283 177.234 133.538 177.849 133.538 178.49Z" fill="white"/>
<path d="M140.846 178.49C140.846 178.968 140.705 179.435 140.439 179.833C140.174 180.23 139.796 180.54 139.355 180.723C138.913 180.906 138.427 180.954 137.958 180.861C137.489 180.767 137.059 180.537 136.721 180.199C136.383 179.861 136.152 179.43 136.059 178.962C135.966 178.493 136.014 178.007 136.197 177.565C136.38 177.124 136.689 176.746 137.087 176.481C137.484 176.215 137.952 176.073 138.43 176.073C139.071 176.073 139.685 176.328 140.139 176.781C140.592 177.234 140.846 177.849 140.846 178.49Z" fill="white"/>
<path d="M229.921 208.441C229.921 208.573 220.595 208.687 209.069 208.687C197.544 208.687 188.218 208.573 188.218 208.441C188.218 208.308 197.544 208.194 209.069 208.194C220.595 208.194 229.921 208.299 229.921 208.441Z" fill="#2CA6B3"/>
<path d="M229.921 214.715C229.921 214.857 220.595 214.962 209.069 214.962C197.544 214.962 188.218 214.857 188.218 214.715C188.218 214.573 197.544 214.469 209.069 214.469C220.595 214.469 229.921 214.564 229.921 214.715Z" fill="#2CA6B3"/>
<path d="M229.921 220.999C229.921 221.132 220.595 221.246 209.069 221.246C197.544 221.246 188.218 221.132 188.218 220.999C188.218 220.867 197.544 220.753 209.069 220.753C220.595 220.753 229.921 220.867 229.921 220.999Z" fill="#2CA6B3"/>
<path d="M229.921 234.013C229.921 234.145 220.595 234.259 209.069 234.259C197.544 234.259 188.218 234.145 188.218 234.013C188.218 233.88 197.544 233.766 209.069 233.766C220.595 233.766 229.921 233.87 229.921 234.013Z" fill="#2CA6B3"/>
<path d="M211.875 240.287C211.875 240.429 206.586 240.533 200.055 240.533C193.525 240.533 188.236 240.429 188.236 240.287C188.236 240.145 193.525 240.041 200.055 240.041C206.586 240.041 211.875 240.154 211.875 240.287Z" fill="#2CA6B3"/>
<path d="M207.41 227.274C204.22 227.53 201.018 227.615 197.819 227.529C194.622 227.615 191.424 227.53 188.236 227.274C191.424 227.03 194.622 226.947 197.819 227.027C201.018 226.947 204.219 227.029 207.41 227.274Z" fill="#2CA6B3"/>
<path d="M207.41 200.735C204.219 200.979 201.018 201.062 197.819 200.982C194.622 201.062 191.424 200.979 188.236 200.735C191.424 200.486 194.622 200.403 197.819 200.489C201.018 200.403 204.22 200.485 207.41 200.735Z" fill="#2CA6B3"/>
<path d="M114.459 252.589H242.697V279.829C242.697 281.961 241.85 284.005 240.342 285.512C238.835 287.02 236.791 287.867 234.659 287.867H121.624C119.726 287.867 117.906 287.113 116.564 285.771C115.222 284.429 114.468 282.609 114.468 280.711V252.589H114.459Z" fill="#EBEBEB"/>
<path d="M136.42 262.21C134.138 262.459 131.841 262.542 129.548 262.456C127.251 262.542 124.952 262.459 122.667 262.21C124.952 261.966 127.251 261.883 129.548 261.963C131.841 261.883 134.138 261.966 136.42 262.21Z" fill="#2CA6B3"/>
<path d="M166.03 267.233C166.03 267.366 156.277 267.48 144.23 267.48C132.184 267.48 122.431 267.366 122.431 267.233C122.431 267.101 132.174 266.987 144.23 266.987C156.286 266.987 166.03 267.091 166.03 267.233Z" fill="#2CA6B3"/>
<path d="M166.03 272.882C166.03 273.024 156.277 273.129 144.23 273.129C132.184 273.129 122.431 273.024 122.431 272.882C122.431 272.74 132.174 272.636 144.23 272.636C156.286 272.636 166.03 272.749 166.03 272.882Z" fill="#2CA6B3"/>
<path d="M152.987 278.54C152.987 278.682 146.163 278.786 137.756 278.786C129.349 278.786 122.534 278.682 122.534 278.54C122.534 278.398 129.349 278.293 137.756 278.293C146.163 278.293 152.987 278.407 152.987 278.54Z" fill="#2CA6B3"/>
<path d="M200.349 262.21C198.065 262.459 195.765 262.542 193.468 262.456C191.175 262.542 188.878 262.459 186.597 262.21C188.894 261.96 191.206 261.875 193.516 261.954C195.797 261.879 198.08 261.965 200.349 262.21Z" fill="#2CA6B3"/>
<path d="M229.986 267.233C229.986 267.366 220.242 267.48 208.186 267.48C196.13 267.48 186.387 267.366 186.387 267.233C186.387 267.101 196.13 266.987 208.186 266.987C220.242 266.987 229.986 267.091 229.986 267.233Z" fill="#2CA6B3"/>
<path d="M229.986 272.882C229.986 273.024 220.242 273.129 208.186 273.129C196.13 273.129 186.387 273.024 186.387 272.882C186.387 272.74 196.13 272.636 208.186 272.636C220.242 272.636 229.986 272.749 229.986 272.882Z" fill="#2CA6B3"/>
<path d="M216.907 278.54C216.907 278.682 210.092 278.786 201.685 278.786C193.278 278.786 186.454 278.682 186.454 278.54C186.454 278.398 193.269 278.293 201.685 278.293C210.102 278.293 216.907 278.407 216.907 278.54Z" fill="#2CA6B3"/>
<path d="M234.66 287.867C234.66 287.867 235.086 287.867 235.901 287.734C237.482 287.476 238.949 286.751 240.113 285.651C241.277 284.551 242.085 283.127 242.432 281.564C242.627 280.31 242.687 279.039 242.612 277.772C242.612 276.427 242.612 274.986 242.612 273.46C242.612 261.243 242.564 243.576 242.536 221.757C242.536 210.839 242.536 198.887 242.536 186.054C242.536 182.844 242.536 179.58 242.536 176.263C242.575 175.447 242.518 174.629 242.365 173.827C242.193 173.031 241.871 172.276 241.417 171.6C240.495 170.219 239.088 169.235 237.475 168.842C236.65 168.665 235.805 168.598 234.963 168.643H216.405H122.516C121.502 168.576 120.484 168.675 119.502 168.936C118.059 169.397 116.817 170.337 115.983 171.601C115.148 172.865 114.771 174.376 114.914 175.884V212.099C114.914 227.804 114.914 242.95 114.914 257.385C114.914 264.598 114.914 271.602 114.914 278.474C114.914 279.327 114.914 280.189 114.914 281.014C114.954 281.836 115.14 282.645 115.464 283.402C116.12 284.903 117.28 286.127 118.743 286.862C119.46 287.22 120.233 287.451 121.028 287.544C121.814 287.62 122.648 287.592 123.464 287.601H128.316H164.02L215.713 287.677H229.769H233.427H234.669H233.427H229.769L215.713 287.724L164.02 287.8H128.316H123.464C122.636 287.827 121.807 287.811 120.98 287.753C120.134 287.658 119.312 287.411 118.554 287.023C117.001 286.25 115.769 284.955 115.076 283.364C114.726 282.564 114.526 281.706 114.488 280.834C114.44 279.962 114.488 279.128 114.488 278.265C114.488 271.432 114.488 264.389 114.488 257.177C114.488 242.742 114.488 227.596 114.488 211.891C114.488 204.037 114.488 196.05 114.488 187.93V175.941C114.407 174.876 114.56 173.807 114.937 172.808C115.313 171.809 115.904 170.905 116.668 170.159C117.449 169.414 118.389 168.857 119.416 168.529C120.447 168.249 121.516 168.14 122.582 168.207H216.471H234.982C235.859 168.163 236.738 168.233 237.598 168.415C239.314 168.839 240.808 169.891 241.787 171.363C242.275 172.08 242.619 172.884 242.801 173.732C242.956 174.566 243.013 175.416 242.972 176.263V186.13C242.972 198.963 242.972 210.915 242.972 221.833C242.972 243.633 242.905 261.319 242.887 273.536C242.887 275.062 242.887 276.502 242.887 277.848C242.954 279.116 242.884 280.387 242.678 281.639C242.227 283.606 241.057 285.334 239.399 286.483C238.389 287.183 237.231 287.64 236.015 287.819C235.702 287.871 235.385 287.896 235.067 287.895L234.66 287.867Z" fill="#2CA6B3"/>
<path d="M7.00645 89.7002H121.387C122.288 89.7002 123.181 89.8777 124.013 90.2225C124.846 90.5674 125.602 91.0729 126.239 91.7101C126.877 92.3473 127.382 93.1037 127.727 93.9363C128.072 94.7688 128.249 95.6611 128.249 96.5623V201.076C128.249 203.208 127.402 205.252 125.895 206.76C124.388 208.267 122.344 209.114 120.212 209.114H7.42349C5.52562 209.114 3.70549 208.36 2.3635 207.018C1.02151 205.676 0.267585 203.856 0.267585 201.958V96.4959C0.265037 94.7026 0.972397 92.9813 2.23511 91.7079C3.49781 90.4345 5.21321 89.7127 7.00645 89.7002Z" fill="white"/>
<path d="M64.9735 109.083H0.219727V173.837H64.9735V109.083Z" fill="#F5F5F5"/>
<path d="M7.00599 89.7002H121.387C122.288 89.7002 123.18 89.8777 124.013 90.2225C124.845 90.5674 125.602 91.0729 126.239 91.7101C126.876 92.3473 127.382 93.1037 127.726 93.9363C128.071 94.7688 128.249 95.6611 128.249 96.5623V109.083H0.219733V96.4959C0.218487 95.6039 0.393099 94.7205 0.733582 93.896C1.07407 93.0716 1.57374 92.3224 2.20403 91.6912C2.83431 91.06 3.58285 90.5593 4.40681 90.2177C5.23078 89.8761 6.11401 89.7002 7.00599 89.7002Z" fill="#2CA6B3"/>
<path d="M11.783 99.7377C11.783 100.216 11.641 100.684 11.375 101.081C11.109 101.479 10.731 101.789 10.2888 101.972C9.84663 102.154 9.36019 102.201 8.89111 102.107C8.42202 102.013 7.99139 101.782 7.65376 101.443C7.31613 101.104 7.08669 100.673 6.99451 100.203C6.90233 99.7339 6.95155 99.2477 7.13593 98.8062C7.32031 98.3648 7.63157 97.988 8.03027 97.7235C8.42897 97.4591 8.89718 97.3189 9.37559 97.3208C10.015 97.3233 10.6273 97.5791 11.0785 98.032C11.5297 98.485 11.783 99.0984 11.783 99.7377Z" fill="white"/>
<path d="M19.1189 99.7377C19.1189 100.216 18.9772 100.683 18.7116 101.08C18.4461 101.478 18.0686 101.788 17.627 101.971C17.1853 102.154 16.6994 102.201 16.2305 102.108C15.7617 102.015 15.3311 101.785 14.993 101.447C14.655 101.109 14.4249 100.678 14.3316 100.209C14.2383 99.7404 14.2862 99.2544 14.4691 98.8128C14.6521 98.3712 14.9618 97.9937 15.3593 97.7281C15.7568 97.4625 16.224 97.3208 16.7021 97.3208C17.3431 97.3208 17.9578 97.5754 18.4111 98.0287C18.8643 98.4819 19.1189 99.0967 19.1189 99.7377Z" fill="white"/>
<path d="M23.9813 102.155C25.3162 102.155 26.3982 101.073 26.3982 99.7377C26.3982 98.4029 25.3162 97.3208 23.9813 97.3208C22.6465 97.3208 21.5645 98.4029 21.5645 99.7377C21.5645 101.073 22.6465 102.155 23.9813 102.155Z" fill="white"/>
<path d="M115.473 129.687C115.473 129.83 106.137 129.934 94.6212 129.934C83.1054 129.934 73.7695 129.83 73.7695 129.687C73.7695 129.545 83.0959 129.441 94.6212 129.441C106.146 129.441 115.473 129.555 115.473 129.687Z" fill="#2CA6B3"/>
<path d="M115.473 135.972C115.473 136.105 106.137 136.218 94.6212 136.218C83.1054 136.218 73.7695 136.105 73.7695 135.972C73.7695 135.839 83.0959 135.726 94.6212 135.726C106.146 135.726 115.473 135.83 115.473 135.972Z" fill="#2CA6B3"/>
<path d="M115.473 142.246C115.473 142.389 106.137 142.493 94.6212 142.493C83.1054 142.493 73.7695 142.389 73.7695 142.246C73.7695 142.104 83.0959 142 94.6212 142C106.146 142 115.473 142.114 115.473 142.246Z" fill="#2CA6B3"/>
<path d="M115.473 155.259C115.473 155.401 106.137 155.506 94.6212 155.506C83.1054 155.506 73.7695 155.401 73.7695 155.259C73.7695 155.117 83.0959 155.013 94.6212 155.013C106.146 155.013 115.473 155.126 115.473 155.259Z" fill="#2CA6B3"/>
<path d="M97.4263 161.544C97.4263 161.676 92.128 161.79 85.6072 161.79C79.0863 161.79 73.7881 161.676 73.7881 161.544C73.7881 161.411 79.0768 161.297 85.6072 161.297C92.1375 161.297 97.4263 161.402 97.4263 161.544Z" fill="#2CA6B3"/>
<path d="M92.9621 148.53C89.7711 148.774 86.5697 148.856 83.3704 148.776C80.1741 148.856 76.976 148.774 73.7881 148.53C76.976 148.286 80.1741 148.204 83.3704 148.283C86.5697 148.204 89.7711 148.286 92.9621 148.53Z" fill="#2CA6B3"/>
<path d="M92.9621 121.983C89.7714 122.232 86.5697 122.315 83.3704 122.229C80.1741 122.315 76.9757 122.232 73.7881 121.983C76.976 121.739 80.1741 121.656 83.3704 121.736C86.5697 121.656 89.7711 121.738 92.9621 121.983Z" fill="#2CA6B3"/>
<path d="M0.0117188 173.808H128.249V201.048C128.249 202.103 128.041 203.149 127.637 204.124C127.234 205.099 126.642 205.985 125.895 206.731C125.149 207.478 124.263 208.07 123.288 208.473C122.313 208.877 121.267 209.085 120.212 209.085H7.16762C5.26976 209.085 3.44962 208.331 2.10763 206.989C0.76564 205.647 0.0117188 203.827 0.0117188 201.929V173.808Z" fill="#EBEBEB"/>
<path d="M21.9626 183.466C19.6807 183.71 17.3845 183.792 15.091 183.713C12.7944 183.793 10.495 183.71 8.20996 183.466C10.495 183.222 12.7944 183.14 15.091 183.22C17.3845 183.14 19.6807 183.223 21.9626 183.466Z" fill="#2CA6B3"/>
<path d="M51.6096 188.48C51.6096 188.622 41.8662 188.726 29.8102 188.726C17.7541 188.726 8.01074 188.622 8.01074 188.48C8.01074 188.338 17.7541 188.233 29.8102 188.233C41.8662 188.233 51.6096 188.347 51.6096 188.48Z" fill="#2CA6B3"/>
<path d="M51.6096 194.139C51.6096 194.271 41.8662 194.385 29.8102 194.385C17.7541 194.385 8.01074 194.271 8.01074 194.139C8.01074 194.006 17.7541 193.892 29.8102 193.892C41.8662 193.892 51.6096 194.006 51.6096 194.139Z" fill="#2CA6B3"/>
<path d="M38.53 199.797C38.53 199.929 31.7153 200.043 23.3083 200.043C14.9013 200.043 8.07715 199.929 8.07715 199.797C8.07715 199.664 14.9013 199.55 23.3083 199.55C31.7153 199.55 38.53 199.655 38.53 199.797Z" fill="#2CA6B3"/>
<path d="M85.9017 183.466C83.6167 183.71 81.3173 183.793 79.0207 183.713C76.7241 183.793 74.4247 183.71 72.1396 183.466C74.4247 183.222 76.7241 183.14 79.0207 183.22C81.3173 183.14 83.6167 183.222 85.9017 183.466Z" fill="#2CA6B3"/>
<path d="M115.538 188.48C115.538 188.622 105.795 188.726 93.7389 188.726C81.6828 188.726 71.9395 188.622 71.9395 188.48C71.9395 188.338 81.6828 188.233 93.7389 188.233C105.795 188.233 115.538 188.347 115.538 188.48Z" fill="#2CA6B3"/>
<path d="M115.538 194.139C115.538 194.271 105.795 194.385 93.7389 194.385C81.6828 194.385 71.9395 194.271 71.9395 194.139C71.9395 194.006 81.6828 193.892 93.7389 193.892C105.795 193.892 115.538 194.006 115.538 194.139Z" fill="#2CA6B3"/>
<path d="M102.459 199.797C102.459 199.929 95.6345 200.043 87.2275 200.043C78.8205 200.043 72.0059 199.929 72.0059 199.797C72.0059 199.664 78.8205 199.55 87.2275 199.55C95.6345 199.55 102.459 199.655 102.459 199.797Z" fill="#2CA6B3"/>
<path d="M120.212 209.113C120.212 209.113 120.639 209.113 121.454 208.98C123.033 208.724 124.498 208 125.661 206.902C126.823 205.803 127.629 204.381 127.975 202.82C128.178 201.567 128.242 200.295 128.165 199.028C128.165 197.673 128.165 196.232 128.165 194.707C128.165 182.489 128.165 164.832 128.089 143.004C128.089 132.095 128.089 120.133 128.089 107.3V97.5474C128.128 96.7315 128.071 95.9139 127.918 95.1115C127.746 94.3129 127.424 93.5539 126.97 92.8747C126.04 91.4976 124.631 90.5148 123.018 90.1166C122.196 89.9443 121.355 89.8774 120.516 89.9176H101.958H8.06857C7.05408 89.8532 6.0359 89.9557 5.05457 90.2209C4.0968 90.524 3.22133 91.0428 2.4955 91.7374C1.77731 92.4366 1.22294 93.2863 0.872241 94.2253C0.521539 95.1644 0.383214 96.1694 0.467206 97.1683V133.374C0.467206 149.079 0.467206 164.235 0.467206 178.66C0.467206 185.882 0.467206 192.912 0.467206 199.749C0.467206 200.602 0.467206 201.474 0.467206 202.298C0.506758 203.118 0.692948 203.924 1.01693 204.677C1.66993 206.18 2.83089 207.405 4.29633 208.137C5.00964 208.504 5.78356 208.738 6.58053 208.829C7.3672 208.905 8.20127 208.829 9.01638 208.829H13.8691H49.5728L101.266 208.905L115.322 208.952H118.98H120.222H118.98H115.322L101.266 208.999L49.5728 209.075H13.8691H9.0069C8.18231 209.075 7.37668 209.075 6.52366 209.018C5.67796 208.927 4.85586 208.683 4.09729 208.298C2.92652 207.723 1.93113 206.844 1.21445 205.754C0.497776 204.664 0.0859505 203.402 0.021738 202.099C0.021738 201.227 0.021738 200.393 0.021738 199.531C0.021738 192.7 0.021738 185.671 0.021738 178.442C0.021738 164.017 0.021738 148.861 0.021738 133.156C0.021738 125.308 0.021738 117.322 0.021738 109.196V97.1967C-0.0606658 96.1307 0.0918424 95.0596 0.468504 94.059C0.845165 93.0584 1.43681 92.1527 2.20168 91.4056C2.98505 90.6643 3.92413 90.1073 4.95031 89.7754C5.98074 89.4952 7.05022 89.3864 8.11596 89.4532H102.005H120.516C121.39 89.4126 122.267 89.4859 123.122 89.6711C124.401 89.9817 125.568 90.6446 126.489 91.5844C127.41 92.5242 128.05 93.7034 128.335 94.9883C128.49 95.8224 128.547 96.6716 128.506 97.5189V107.3C128.506 120.133 128.506 132.095 128.506 143.004C128.506 164.803 128.449 182.489 128.43 194.707C128.43 196.232 128.43 197.673 128.43 199.028C128.498 200.296 128.428 201.567 128.221 202.82C127.771 204.789 126.601 206.52 124.942 207.672C123.931 208.371 122.774 208.828 121.558 209.009C121.244 209.055 120.928 209.081 120.611 209.085L120.212 209.113Z" fill="#2CA6B3"/>
<path d="M107.899 0.265625H222.27C224.09 0.265625 225.835 0.98859 227.122 2.27548C228.409 3.56237 229.132 5.30777 229.132 7.12771V111.642C229.132 113.773 228.285 115.818 226.778 117.325C225.271 118.832 223.226 119.679 221.095 119.679H108.306C107.367 119.679 106.436 119.494 105.568 119.134C104.7 118.775 103.911 118.248 103.246 117.583C102.582 116.919 102.055 116.13 101.695 115.262C101.335 114.393 101.15 113.463 101.15 112.523V7.05188C101.15 5.25861 101.86 3.53821 103.125 2.26663C104.389 0.99504 106.105 0.275643 107.899 0.265625Z" fill="white"/>
<path d="M165.857 19.6479H101.104V84.4017H165.857V19.6479Z" fill="#F5F5F5"/>
<path d="M107.899 0.265632H222.27C224.09 0.265632 225.836 0.988597 227.123 2.27549C228.41 3.56238 229.133 5.30778 229.133 7.12771V19.6482H101.104V7.05189C101.104 6.15991 101.279 5.27668 101.621 4.45271C101.963 3.62875 102.463 2.88021 103.095 2.24992C103.726 1.61964 104.475 1.11996 105.299 0.779481C106.124 0.438997 107.007 0.264386 107.899 0.265632Z" fill="#2CA6B3"/>
<path d="M112.677 10.3026C112.677 10.7807 112.535 11.2479 112.269 11.6454C112.004 12.0428 111.626 12.3526 111.185 12.5356C110.743 12.7185 110.257 12.7663 109.788 12.6731C109.319 12.5798 108.889 12.3496 108.551 12.0116C108.213 11.6736 107.982 11.243 107.889 10.7742C107.796 10.3053 107.844 9.81936 108.027 9.37773C108.21 8.9361 108.519 8.55863 108.917 8.29306C109.314 8.02749 109.782 7.88574 110.26 7.88574C110.901 7.88574 111.515 8.14038 111.969 8.59364C112.422 9.04689 112.677 9.66164 112.677 10.3026Z" fill="white"/>
<path d="M119.973 10.3026C119.973 10.7807 119.832 11.2479 119.566 11.6454C119.301 12.0428 118.923 12.3526 118.481 12.5356C118.04 12.7185 117.554 12.7663 117.085 12.6731C116.616 12.5798 116.186 12.3496 115.848 12.0116C115.51 11.6736 115.279 11.243 115.186 10.7742C115.093 10.3053 115.141 9.81936 115.324 9.37773C115.507 8.9361 115.816 8.55863 116.214 8.29306C116.611 8.02749 117.079 7.88574 117.557 7.88574C118.198 7.88574 118.812 8.14038 119.266 8.59364C119.719 9.04689 119.973 9.66164 119.973 10.3026Z" fill="white"/>
<path d="M127.282 10.3026C127.282 10.7807 127.14 11.2479 126.875 11.6454C126.609 12.0428 126.232 12.3526 125.79 12.5356C125.348 12.7185 124.862 12.7663 124.394 12.6731C123.925 12.5798 123.494 12.3496 123.156 12.0116C122.818 11.6736 122.588 11.243 122.495 10.7742C122.401 10.3053 122.449 9.81936 122.632 9.37773C122.815 8.9361 123.125 8.55863 123.522 8.29306C123.92 8.02749 124.387 7.88574 124.865 7.88574C125.506 7.88574 126.121 8.14038 126.574 8.59364C127.027 9.04689 127.282 9.66164 127.282 10.3026Z" fill="white"/>
<path d="M216.357 40.2533C216.357 40.386 207.021 40.4997 195.505 40.4997C183.989 40.4997 174.653 40.386 174.653 40.2533C174.653 40.1206 183.98 40.0068 195.505 40.0068C207.03 40.0068 216.357 40.1111 216.357 40.2533Z" fill="#2CA6B3"/>
<path d="M216.357 46.5277C216.357 46.6699 207.021 46.7741 195.505 46.7741C183.989 46.7741 174.653 46.6699 174.653 46.5277C174.653 46.3855 183.98 46.2812 195.505 46.2812C207.03 46.2812 216.357 46.395 216.357 46.5277Z" fill="#2CA6B3"/>
<path d="M216.357 52.8114C216.357 52.9441 207.021 53.0578 195.505 53.0578C183.989 53.0578 174.653 52.9441 174.653 52.8114C174.653 52.6787 183.98 52.5649 195.505 52.5649C207.03 52.5649 216.357 52.6692 216.357 52.8114Z" fill="#2CA6B3"/>
<path d="M216.357 65.825C216.357 65.9577 207.021 66.0715 195.505 66.0715C183.989 66.0715 174.653 65.9577 174.653 65.825C174.653 65.6924 183.98 65.5786 195.505 65.5786C207.03 65.5786 216.357 65.6829 216.357 65.825Z" fill="#2CA6B3"/>
<path d="M198.31 72.0995C198.31 72.2416 193.021 72.3459 186.491 72.3459C179.961 72.3459 174.672 72.2416 174.672 72.0995C174.672 71.9573 179.961 71.853 186.491 71.853C193.021 71.853 198.31 71.9668 198.31 72.0995Z" fill="#2CA6B3"/>
<path d="M193.846 59.1241C190.655 59.374 187.454 59.4562 184.254 59.3706C181.058 59.4561 177.859 59.3738 174.672 59.1241C177.86 58.8801 181.058 58.7979 184.254 58.8777C187.454 58.7978 190.655 58.88 193.846 59.1241Z" fill="#2CA6B3"/>
<path d="M193.846 32.5854C190.655 32.8295 187.454 32.9117 184.254 32.8318C181.058 32.9116 177.86 32.8294 174.672 32.5854C177.859 32.3357 181.058 32.2534 184.254 32.3389C187.454 32.2533 190.655 32.3355 193.846 32.5854Z" fill="#2CA6B3"/>
<path d="M100.895 84.4019H229.132V111.642C229.132 113.773 228.285 115.818 226.778 117.325C225.271 118.832 223.226 119.679 221.095 119.679H108.06C107.12 119.679 106.19 119.494 105.321 119.134C104.453 118.775 103.664 118.248 103 117.583C102.335 116.919 101.808 116.13 101.449 115.262C101.089 114.393 100.904 113.463 100.904 112.523V84.4019H100.895Z" fill="#EBEBEB"/>
<path d="M122.856 94.022C120.575 94.2714 118.278 94.3537 115.985 94.2684C113.688 94.3539 111.388 94.2715 109.104 94.022C111.389 93.7781 113.688 93.6958 115.985 93.7755C118.278 93.6959 120.574 93.7783 122.856 94.022Z" fill="#2CA6B3"/>
<path d="M152.502 99.0457C152.502 99.1784 142.749 99.2922 130.703 99.2922C118.656 99.2922 108.903 99.1784 108.903 99.0457C108.903 98.913 118.647 98.7993 130.703 98.7993C142.759 98.7993 152.502 98.932 152.502 99.0457Z" fill="#2CA6B3"/>
<path d="M152.502 104.695C152.502 104.837 142.749 104.941 130.703 104.941C118.656 104.941 108.903 104.837 108.903 104.695C108.903 104.552 118.647 104.448 130.703 104.448C142.759 104.448 152.502 104.562 152.502 104.695Z" fill="#2CA6B3"/>
<path d="M139.414 110.352C139.414 110.485 132.599 110.599 124.192 110.599C115.785 110.599 108.971 110.485 108.971 110.352C108.971 110.22 115.785 110.106 124.192 110.106C132.599 110.106 139.414 110.22 139.414 110.352Z" fill="#2CA6B3"/>
<path d="M186.785 94.022C184.5 94.2715 182.2 94.3539 179.903 94.2684C177.607 94.3539 175.307 94.2715 173.022 94.022C175.307 93.7781 177.607 93.6958 179.903 93.7755C182.2 93.6958 184.499 93.7781 186.785 94.022Z" fill="#2CA6B3"/>
<path d="M216.422 99.0457C216.422 99.1784 206.679 99.2922 194.623 99.2922C182.567 99.2922 172.823 99.1784 172.823 99.0457C172.823 98.913 182.567 98.7993 194.623 98.7993C206.679 98.7993 216.422 98.932 216.422 99.0457Z" fill="#2CA6B3"/>
<path d="M216.422 104.695C216.422 104.837 206.679 104.941 194.623 104.941C182.567 104.941 172.823 104.837 172.823 104.695C172.823 104.552 182.567 104.448 194.623 104.448C206.679 104.448 216.422 104.562 216.422 104.695Z" fill="#2CA6B3"/>
<path d="M203.343 110.352C203.343 110.485 196.528 110.599 188.121 110.599C179.714 110.599 172.89 110.485 172.89 110.352C172.89 110.22 179.704 110.106 188.121 110.106C196.537 110.106 203.343 110.22 203.343 110.352Z" fill="#2CA6B3"/>
<path d="M221.096 119.67C221.512 119.65 221.926 119.609 222.337 119.546C223.918 119.289 225.385 118.563 226.549 117.463C227.713 116.363 228.521 114.94 228.868 113.376C229.063 112.122 229.123 110.851 229.048 109.585C229.048 108.239 229.048 106.798 229.048 105.272C229.048 93.0553 229.001 75.3883 228.972 53.5699C228.972 42.6512 228.972 30.6994 228.972 17.8662V8.10382C229.011 7.28798 228.954 6.47036 228.801 5.66797C228.629 4.87226 228.308 4.11645 227.854 3.44064C226.915 2.04666 225.482 1.06092 223.844 0.682534C223.02 0.505487 222.175 0.438559 221.333 0.483496H202.841H108.952C107.938 0.416583 106.92 0.515828 105.938 0.777312C104.985 1.09018 104.111 1.60776 103.379 2.2938C102.661 2.99306 102.106 3.84273 101.756 4.78176C101.405 5.72079 101.267 6.72585 101.351 7.7247V43.9592C101.351 59.6642 101.351 74.8101 101.351 89.2451C101.351 96.4579 101.351 103.462 101.351 110.334C101.351 111.187 101.351 112.049 101.351 112.874C101.404 114.097 101.784 115.283 102.451 116.309C103.118 117.336 104.047 118.166 105.142 118.712C105.856 119.078 106.629 119.312 107.426 119.404C108.213 119.48 109.047 119.404 109.862 119.461H114.715H150.418L202.111 119.537L216.167 119.584H219.826H221.067H219.826H216.167L202.14 119.783L150.447 119.859H114.743H109.89C109.075 119.859 108.26 119.859 107.407 119.859C106.561 119.764 105.739 119.517 104.981 119.129C103.424 118.353 102.19 117.055 101.493 115.461C101.15 114.662 100.954 113.808 100.915 112.94C100.867 112.068 100.915 111.234 100.915 110.372C100.915 103.538 100.915 96.4958 100.915 89.283C100.915 74.848 100.915 59.7021 100.915 43.9971C100.915 36.1366 100.915 28.1498 100.915 20.0366V7.75313C100.834 6.6887 100.987 5.61946 101.363 4.6206C101.74 3.62174 102.331 2.71752 103.095 1.97154C103.875 1.22683 104.815 0.669377 105.843 0.341325C106.874 0.0611609 107.943 -0.0477082 109.009 0.0190719H202.898H221.409C222.283 -0.0247223 223.159 0.0453722 224.015 0.227589C225.718 0.668948 227.195 1.73027 228.157 3.20369C228.645 3.9208 228.989 4.72539 229.171 5.57319C229.326 6.40726 229.383 7.25651 229.342 8.10382V17.8946C229.342 30.7278 229.342 42.6796 229.342 53.5983C229.342 75.3977 229.285 93.0837 229.266 105.301C229.266 106.827 229.266 108.267 229.266 109.613C229.333 110.881 229.263 112.152 229.057 113.405C228.699 114.981 227.875 116.414 226.692 117.516C225.509 118.618 224.021 119.339 222.423 119.584C222.11 119.636 221.792 119.661 221.475 119.66L221.096 119.67Z" fill="#2CA6B3"/>
</svg>
