<svg width="425" height="239" viewBox="0 0 425 239" fill="none" xmlns="http://www.w3.org/2000/svg">
<path d="M32.5059 0L367.818 120.518L404.594 176.8L32.5059 0Z" fill="#333333"/>
<path opacity="0.6" d="M32.5059 0L367.818 120.518L404.594 176.8L32.5059 0Z" fill="white"/>
<path d="M32.5059 0L367.818 120.518L337.924 184.888L32.5059 0Z" fill="#333333"/>
<path opacity="0.2" d="M32.5059 0L367.818 120.518L337.924 184.888L32.5059 0Z" fill="black"/>
<path d="M32.5059 0L303.601 126.107L337.924 184.888L32.5059 0Z" fill="#333333"/>
<path opacity="0.6" d="M32.5059 0L303.601 126.107L337.924 184.888L32.5059 0Z" fill="white"/>
<path d="M123.083 86.5772L122.049 87.728L149.956 112.8L150.99 111.649L123.083 86.5772Z" fill="#333333"/>
<path d="M163.313 122.708L162.279 123.858L172.314 132.874L173.348 131.723L163.313 122.708Z" fill="#333333"/>
<path d="M32.5059 0L303.601 126.107L234.531 181.52L32.5059 0Z" fill="#333333"/>
<path d="M381.162 236.761C380.778 236.684 380.412 236.534 380.084 236.319L337.441 208.444C336.76 207.993 336.285 207.291 336.119 206.491C335.954 205.691 336.112 204.858 336.559 204.173C337.005 203.489 337.704 203.01 338.504 202.839C339.303 202.668 340.137 202.821 340.824 203.263L383.482 231.141C384.086 231.535 384.533 232.128 384.746 232.816C384.96 233.505 384.926 234.246 384.651 234.912C384.376 235.579 383.877 236.128 383.24 236.466C382.603 236.803 381.868 236.908 381.162 236.761Z" fill="#333333"/>
<path opacity="0.3" d="M381.162 236.761C380.778 236.684 380.412 236.534 380.084 236.319L337.441 208.444C336.76 207.993 336.285 207.291 336.119 206.491C335.954 205.691 336.112 204.858 336.559 204.173C337.005 203.489 337.704 203.01 338.504 202.839C339.303 202.668 340.137 202.821 340.824 203.263L383.482 231.141C384.086 231.535 384.533 232.128 384.746 232.816C384.96 233.505 384.926 234.246 384.651 234.912C384.376 235.579 383.877 236.128 383.24 236.466C382.603 236.803 381.868 236.908 381.162 236.761Z" fill="black"/>
<path d="M383.871 209.586C383.491 209.506 383.131 209.352 382.811 209.132L359.914 194.098C359.571 193.877 359.274 193.591 359.042 193.255C358.811 192.919 358.647 192.541 358.562 192.142C358.477 191.743 358.471 191.331 358.546 190.93C358.621 190.529 358.774 190.146 358.997 189.805C359.22 189.463 359.509 189.169 359.846 188.939C360.183 188.709 360.562 188.549 360.962 188.466C361.362 188.384 361.774 188.381 362.174 188.458C362.575 188.535 362.956 188.691 363.296 188.917L386.203 203.905C386.89 204.352 387.371 205.054 387.542 205.855C387.712 206.657 387.557 207.494 387.112 208.181C386.779 208.718 386.291 209.141 385.711 209.392C385.132 209.643 384.49 209.711 383.871 209.586Z" fill="#333333"/>
<path opacity="0.5" d="M383.871 209.586C383.491 209.506 383.131 209.352 382.811 209.132L359.914 194.098C359.571 193.877 359.274 193.591 359.042 193.255C358.811 192.919 358.647 192.541 358.562 192.142C358.477 191.743 358.471 191.331 358.546 190.93C358.621 190.529 358.774 190.146 358.997 189.805C359.22 189.463 359.509 189.169 359.846 188.939C360.183 188.709 360.562 188.549 360.962 188.466C361.362 188.384 361.774 188.381 362.174 188.458C362.575 188.535 362.956 188.691 363.296 188.917L386.203 203.905C386.89 204.352 387.371 205.054 387.542 205.855C387.712 206.657 387.557 207.494 387.112 208.181C386.779 208.718 386.291 209.141 385.711 209.392C385.132 209.643 384.49 209.711 383.871 209.586Z" fill="white"/>
<path d="M326.379 225.128C326.002 225.046 325.642 224.898 325.317 224.69L283.729 197.441C283.386 197.221 283.09 196.934 282.858 196.598C282.626 196.263 282.463 195.884 282.377 195.485C282.292 195.086 282.287 194.674 282.362 194.273C282.436 193.872 282.589 193.49 282.813 193.148C283.036 192.806 283.324 192.512 283.661 192.282C283.998 192.053 284.378 191.892 284.777 191.809C285.177 191.727 285.589 191.724 285.99 191.801C286.39 191.879 286.772 192.035 287.112 192.26L328.712 219.447C329.315 219.842 329.762 220.434 329.976 221.123C330.189 221.811 330.155 222.552 329.88 223.219C329.605 223.885 329.106 224.434 328.469 224.772C327.832 225.11 327.098 225.214 326.392 225.068L326.379 225.128Z" fill="#333333"/>
<path opacity="0.3" d="M326.379 225.128C326.002 225.046 325.642 224.898 325.317 224.69L283.729 197.441C283.386 197.221 283.09 196.934 282.858 196.598C282.626 196.263 282.463 195.884 282.377 195.485C282.292 195.086 282.287 194.674 282.362 194.273C282.436 193.872 282.589 193.49 282.813 193.148C283.036 192.806 283.324 192.512 283.661 192.282C283.998 192.053 284.378 191.892 284.777 191.809C285.177 191.727 285.589 191.724 285.99 191.801C286.39 191.879 286.772 192.035 287.112 192.26L328.712 219.447C329.315 219.842 329.762 220.434 329.976 221.123C330.189 221.811 330.155 222.552 329.88 223.219C329.605 223.885 329.106 224.434 328.469 224.772C327.832 225.11 327.098 225.214 326.392 225.068L326.379 225.128Z" fill="black"/>
</svg>
