<svg width="226" height="246" viewBox="0 0 226 246" fill="none" xmlns="http://www.w3.org/2000/svg">
<circle cx="111.5" cy="31.5" r="31.5" fill="url(#paint0_linear_1602_2889)"/>
<ellipse cx="48" cy="68.5" rx="29" ry="28.5" fill="url(#paint1_linear_1602_2889)"/>
<ellipse cx="25.5" cy="132" rx="25.5" ry="26" fill="url(#paint2_linear_1602_2889)"/>
<ellipse cx="48" cy="195.5" rx="22" ry="22.5" fill="url(#paint3_linear_1602_2889)"/>
<ellipse cx="115.5" cy="227" rx="19.5" ry="19" fill="url(#paint4_linear_1602_2889)"/>
<ellipse cx="174" cy="211.5" rx="16" ry="15.5" fill="url(#paint5_linear_1602_2889)"/>
<circle cx="206.5" cy="176.5" r="13.5" fill="url(#paint6_linear_1602_2889)"/>
<circle cx="216.5" cy="131.5" r="9.5" fill="url(#paint7_linear_1602_2889)"/>
<ellipse cx="209" cy="94.5" rx="6" ry="6.5" fill="url(#paint8_linear_1602_2889)"/>
<circle cx="190" cy="65" r="3" fill="url(#paint9_linear_1602_2889)"/>
<defs>
<linearGradient id="paint0_linear_1602_2889" x1="111.5" y1="0" x2="111.5" y2="63" gradientUnits="userSpaceOnUse">
<stop stop-color="#2CA6B3"/>
<stop offset="1" stop-color="#32BECD"/>
</linearGradient>
<linearGradient id="paint1_linear_1602_2889" x1="48" y1="40" x2="48" y2="97" gradientUnits="userSpaceOnUse">
<stop stop-color="#2CA6B3"/>
<stop offset="1" stop-color="#32BECD"/>
</linearGradient>
<linearGradient id="paint2_linear_1602_2889" x1="25.5" y1="106" x2="25.5" y2="158" gradientUnits="userSpaceOnUse">
<stop stop-color="#2CA6B3"/>
<stop offset="1" stop-color="#32BECD"/>
</linearGradient>
<linearGradient id="paint3_linear_1602_2889" x1="48" y1="173" x2="48" y2="218" gradientUnits="userSpaceOnUse">
<stop stop-color="#2CA6B3"/>
<stop offset="1" stop-color="#32BECD"/>
</linearGradient>
<linearGradient id="paint4_linear_1602_2889" x1="115.5" y1="208" x2="115.5" y2="246" gradientUnits="userSpaceOnUse">
<stop stop-color="#2CA6B3"/>
<stop offset="1" stop-color="#32BECD"/>
</linearGradient>
<linearGradient id="paint5_linear_1602_2889" x1="174" y1="196" x2="174" y2="227" gradientUnits="userSpaceOnUse">
<stop stop-color="#2CA6B3"/>
<stop offset="1" stop-color="#32BECD"/>
</linearGradient>
<linearGradient id="paint6_linear_1602_2889" x1="206.5" y1="163" x2="206.5" y2="190" gradientUnits="userSpaceOnUse">
<stop stop-color="#2CA6B3"/>
<stop offset="1" stop-color="#32BECD"/>
</linearGradient>
<linearGradient id="paint7_linear_1602_2889" x1="216.5" y1="122" x2="216.5" y2="141" gradientUnits="userSpaceOnUse">
<stop stop-color="#2CA6B3"/>
<stop offset="1" stop-color="#32BECD"/>
</linearGradient>
<linearGradient id="paint8_linear_1602_2889" x1="209" y1="88" x2="209" y2="101" gradientUnits="userSpaceOnUse">
<stop stop-color="#2CA6B3"/>
<stop offset="1" stop-color="#32BECD"/>
</linearGradient>
<linearGradient id="paint9_linear_1602_2889" x1="190" y1="62" x2="190" y2="68" gradientUnits="userSpaceOnUse">
<stop stop-color="#2CA6B3"/>
<stop offset="1" stop-color="#32BECD"/>
</linearGradient>
</defs>
</svg>
