<svg width="24" height="24" viewBox="0 0 24 24" fill="none" xmlns="http://www.w3.org/2000/svg">
<path d="M11.5003 2.4257L3.93895 3.93797L2.42667 11.4993C2.40246 11.6204 2.40851 11.7456 2.44429 11.8638C2.48007 11.9819 2.54447 12.0894 2.63178 12.1767L12.4242 21.9692C12.4939 22.0388 12.5766 22.0941 12.6675 22.1318C12.7585 22.1695 12.8561 22.1889 12.9546 22.1889C13.053 22.1889 13.1506 22.1695 13.2416 22.1318C13.3326 22.0941 13.4152 22.0388 13.4849 21.9692L21.9702 13.4839C22.0398 13.4143 22.0951 13.3316 22.1327 13.2406C22.1704 13.1496 22.1898 13.0521 22.1898 12.9536C22.1898 12.8551 22.1704 12.7576 22.1327 12.6666C22.0951 12.5756 22.0398 12.4929 21.9702 12.4233L12.1777 2.6308C12.0904 2.5435 11.9829 2.47909 11.8647 2.44331C11.7466 2.40753 11.6214 2.40148 11.5003 2.4257V2.4257Z" stroke="white" stroke-width="1.5" stroke-linecap="round" stroke-linejoin="round"/>
<path d="M7.875 8.8125C8.39277 8.8125 8.8125 8.39277 8.8125 7.875C8.8125 7.35723 8.39277 6.9375 7.875 6.9375C7.35723 6.9375 6.9375 7.35723 6.9375 7.875C6.9375 8.39277 7.35723 8.8125 7.875 8.8125Z" fill="white"/>
</svg>
